<svg xmlns="http://www.w3.org/2000/svg" viewBox="0 0 600 408.5322266"><path d="M239.687 208.603h-66.383c-2.664 0-3.794 1.108-3.794 3.559l-6.06 115.786c0 1.925.2 3.587 3.403 3.587h66.418c2.629 0 3.972-1.314 3.972-3.587l.56-12.66c0-2.458-.376-3.595-3.587-3.595h-43.52l1.712-35.38h33.454c2.67 0 3.822-1.129 3.822-3.601l.732-12.667c0-2.082-.37-3.588-3.581-3.588H193.53l1.528-28.012h43.492c2.849 0 3.808-1.328 3.978-3.772l.768-12.099c0-2.295-.185-3.971-3.61-3.971zm110.496-.007h-14.755c-3.02 0-4.17 1.314-4.17 4.142l-4.718 90.814h-.383c-1.705-7.374-5.684-15.7-8.312-21.753l-32.183-69.992c-.732-1.74-2.65-3.21-4.334-3.21h-25.54c-2.664 0-3.992 1.47-3.992 3.977l-6.06 115.375c0 1.925.185 3.587 3.417 3.587h15.708c2.273 0 3.594-1.314 3.594-3.587l4.533-93.252h.384c1.342 6.23 3.793 12.49 8.326 21.945l31.791 71.505c.754 1.727 2.629 3.39 4.547 3.39h25.718c3.026 0 4.17-1.315 4.17-3.588l6.06-115.375c0-2.507-.199-3.978-3.8-3.978zm84.005 6.233c-1.329-5.307-2.65-6.23-7.78-6.23h-18.52c-4.163 0-5.492 1.314-7.396 6.038l-44.068 108.987c-.753 1.684-1.897 3.772-1.897 5.47 0 1.528 1.514 2.444 3.027 2.444h18.926a3.356 3.356 0 0 0 3.218-2.245l11.374-31.031h35.92l6.429 30.832c.198 1.329.198 2.444 2.834 2.444h22.52c2.295 0 3.596-.718 3.596-2.245 0-1.35-.753-3.58-1.144-5.314l-27.04-109.15zm-36.907 64.507l12.113-33.106c2.643-7.751 4.561-13.229 6.031-19.672h.412c.562 8.703 2.814 20.44 5.464 36.53l2.65 16.248h-26.67zm157.79 26.097c-2.452 0-11.716 6.259-27.43 6.259-20.837 0-33.305-12.475-33.305-38.576 0-25.746 14.763-45.617 38.995-45.617 2.28 0 4.29.178 6.181.412v-21.014a97.89 97.89 0 0 0-6.18-.207c-35.956 0-67.37 23.65-67.37 66.02 0 40.666 20.829 60.735 58.29 60.735 16.446 0 32.346-3.019 32.346-9.27l.753-15.893c0-1.322-.753-2.849-2.28-2.849zm-8.957-143.604c19.636-1.883 37.446-6.337 53.886-13.364-85.124-36.452-174.588-65.515-259.719-101.982 19.466-3.417 41.042-9.782 59.279-1.832.362-8.199-2.018-16.902-8.383-22.52-11.36-12.888-34.108.347-40.388-16.433-1.883-4.64-9.662-5.847-12.277-5.684-41.404 2.06-83.099-3.225-124.566 5.826-41.51 12.944-84.328 24.076-127.153 35.614-25.952 4.816-49.474 10.592-73.785 16.44 29.412-1.287-.569 14.435-4.249 24.516.583 1.883 3.858-.384 4.81 1.463-1.598 7.545-9.229 12.951-10.827 20.496 1.52-.17 3.055-.32 4.61-.455C6.409 110.216 1.25 117.32 0 124.44c5.69-5.598 6.593 3.637 5.314 6.862-.355 4.313-1.904 8.355-.69 12.88 2.772.526 4.917-5.505 7.247-1.47-.554 6.273-.185 14.031 1.08 19.33 28.502-22.96 55.407-50.034 85.301-70.403 15.736 5.833-12.262 13.612-.817 19.509-6.031 6.024-13.093 13.306-16.71 20.261 2.232-.995 3.958.781 5.585 1.407-6.678 7.24-14.408 15.771-21.825 23.48-.128 2.72 2.771.504 4.085 2.33-7.459 6.92-16.012 15.125-21.035 23.394 1.271 1.044 3.51.05 4.795 1.478-5.783 8.34-14.258 17.306-17.988 27.003 2.231 2.892 4.028-2.707 6.628.142-5.775 8.717-17.767 17.257-19.018 28.254 5.577-2.48 5.982 1.748 3.595 5.094-4.717 7.473-23.522 30.25-4.248 24.503-.924 14.471-8.021 29.546-4.86 46.334 2.906-2.23 5.797-4.433 8.724-6.295 3.538 20.652 3.85 35.763 9.989 55.002 2.351-3.716 5.271-9.819 8.83-13.292 5.4 19.7 9.627 39.478 16.12 58.29 21.711-40.572 41.311-83.262 63.35-124.638l4.482-9.74c19.53-39.208 39.066-78.41 58.59-117.596 4.801 5.356 1.42 14.613 5.832 20.026 10.905-3.78 18.89 2.444 27.756 5.876-1.485.532-2.97 1.435-4.518 1.2-4.767 3.169-9.918 6.018-11.26 12.376 17.952-7.204 42.242-9.143 59.3 2.43a97.77 97.77 0 0 1 1.406-1.713c-7.659-14.79-24.148-20.602-38.406-23.48-19.452-8.226-15.75-34.242-21.746-51.924-.54-1.492.98-2.032 1.278-2.828 3.844 7.395 7.31 15.21 10.792 23.046 4.617-.462 9.576-1.314 13.938-.561 1.904-.199 6.53 3.247 4.98 3.396-2.827 2.998-5.534 7.126-2.89 10.393 12.226-6.244 28.324-4.695 40.934-2.799 5.577 1.386 9.897 6.018 15.416 6.664 1.677-6.777-6.983-11.786-12.382-15.502-16.958-10.812-51.066-5.562-46.76-37.446 9.036 1.044 16.88 9.626 25.326 8.809-.916-1.477.568-2.394.398-3.921 4.916 2.621 9.242 7.26 14.308 11.033 3.176.88 11.942 11.31 10.06-.164 6.308.93 20.083 18.635 23.23 7.076 6.82 6.316 12.511 12.78 20.447 18.606-1.073-11.16 7.054.483 10.273 1.734 6.429 2.081 19.998 17.888 19.721 2.763 7.63 2.764 14.685 11.395 22.101 15.743 3.759 2.742 11.595 3.546 10.21-2.94 7.97 6.215 16.623 11.203 24.964 17.028 4.099 2.33 14.073 4.86 10.528-3.744 3.297 2.018 0 0 11.971 7.474l7.651 2.685c9.925 2.118 18.94 7.098 29.76 6.444-1.016-2.615-3.14-4.362-3.41-7.062 15.09 3.212 32.495 10.479 49.098 9.25-2.7-7.9-11.438-9.783-15.65-17.135 18.45-2.188 41.304 1.058 59.228-6.508-1.5-3.346-9.257-7.26-14.294-11.054zM391.177 34.179C338.449 31.507 285.799 49.8 236.246 59.655c1.641-7.161 4.497-13.655 8.98-19.523 26.982 1.67 49.304-8.653 73.288-13.697 3.325 2.025 6.578 3.645 10.748 2.472 19.346-4.994 47.763-12.39 61.915 5.272zm-68.209-10.102c4.554-9.009 8.163 4.255 13.008-2.047-.092 3.134-9.058 2.814-13.008 2.047zM333.93 9.008c4.199.086 10.28 1.734 11.623 7.424-5.002.895-8.512-3.445-13.165-3.389-22.96 7.673-45.844 16.1-72.115 17.86-5.051.093-14.038-.582-16.681-7.736-2.01-4.447-5.051-8.042-5.946-13.399 32.082 2.324 63.576-1.477 96.284-.76zM220.489 13.37c-1.037 1.265-.888 2.8-2.316 4.114-11.29 3.8-26.748 4.902-35.856 6.955 10.039-8.738 26.23-6.032 38.172-11.069zm-9.904 14.159c3.275 1.634-.86 7.076-2.891 10.394-10.585 2.983-28.076 2.714-41.368 5.918-.086-.754-.121-1.137-.2-1.904 8.902-12.525 28.894-10.955 44.46-14.408zm-7.95 22.152c-3.843 20.574-31.166 11.167-46.39 14.578-.029-.384-.143-1.137-.15-1.55 6.572-16.169 32.929-13.277 46.54-13.028zM190.63 70.283c.411 4.206-3.17 7.31-4.768 10.94-12.631 1.99-26.655 1.407-39.84 1.905-.071-.768-.192-1.919-.27-2.686 9.768-11.438 30.854-6.494 44.878-10.16zm-68.564 54.404c-.1-.767-.114-1.15-.199-1.932 8.873-16.773 26.08-7.552 41.83-9.463 10.507.15.682 6.927.277 10.856-14.208 1.768-27.714-1.215-41.908.54zm36.445 11.254c-1.649 3.268-3.644 6.55-5.662 9.86-14.678 1.038-28.752.071-42.804-.497-.113-1.172-.22-2.323-.333-3.467 11.196-17.036 33.674-5.598 48.799-5.896zm-23.722-32.304c-.127-1.165-.212-2.309-.34-3.46 9.938-13.774 32.821-6.272 45.751-9.086-.284 5.08-4.184 8.959-6.067 13.406-12.873-.298-26.982 2.6-39.344-.86zm-91.986-47.08c13.996-4.063 29.846-4.81 43.827-8.894 1.229.675.973 1.854 1.08 3.02-15.708 6.564-32.29 11.672-49.787 15.671-.768-3.793 4.042-6.195 4.88-9.797zm-9.54 18.038c18.122-5.64 35.84-11.253 54.447-15.75-.235 1.57 1.13 3.765-.32 4.682-18.343 7.21-37.738 11.821-56.21 17.476-.234-2.294 1.485-4.426 2.082-6.408zM26.576 93.89c18.727-11.53 40.857-15.608 61.509-23.039.469.746 1.264 1.052.952 1.84-19.466 11.616-42.029 19.217-62.703 26.67 1.436-1.315.391-3.929.242-5.47zm.071 16.71c20.375-10.124 40.324-21.008 61.19-30.378.518 1.485 3.609 1.2 1.328 1.79-21.327 12.54-42.356 28.183-63.54 38.008.056-3.119-1.877-7.21 1.022-9.42zm-.32 28.78c-1.385-2.203-1.811-6.43-.909-9.243 21.96-14.166 43.52-28.29 65.083-42.427-19.551 18.982-41.56 36.274-64.174 51.67zM99.95 80.981c-4.582-11.225-3.964-24.872-1.548-35.998 12.46-3.914 26.399-4.496 38.455-8.376-.036 3.51-6.508 9.165-9.932 13.79 16.631-.831-2.024 7.19-3.545 11.608-3.026 1.052-6.955 8.448-.064 7.396-7.829 3.452-14.024 19.608-23.366 11.58zm44.551 74.95c4.383 1.144.17 9.726-3.46 12.39-18.627 4.525-27.465 1.5-46.987 4.547-.135-1.549-.335-3.481-.512-5.407 10.642-18.5 33.312-9.043 50.96-11.53zm-9.889 22.336c3.68 1.982-1.25 7.111-1.684 10.642-17.675 5.996-37.148 9.84-55.328 14.692-.568-1.89-3.452.334-3.254-1.62 5.5-27.358 39.01-18.55 60.266-23.714zm-63.74 36.09c19.644-5.776 40.168-10.48 60.323-15.16 1.406 2.585-1.563 4.042-.519 6.677C105.982 216 81.408 226.947 56.28 236.36c.746-8.61 7.722-16.688 14.593-22.002zm-16.894 34.278c25.668-11.807 51.72-23.664 77.402-35.457-26.13 23.117-58.248 44.856-87.042 64.357-1.869-11.104 3.09-20.112 9.64-28.9zm-3.63 59.03c-3.332-6.31-5.193-13.485-1.15-20.105 28.999-21.449 56.123-46.604 85.96-67.356 1.237.639.939 1.84 1.067 2.998-28.41 27.621-54.846 59.697-85.01 85.528-.412-.334-.846-.675-.867-1.066zm30.697 40.167c-3.38 5.371-7.928-1.556-11.608-3.552-6.948-7.495-12.965-17.398-8.944-28.268 26.336-28.978 51.684-60.18 78.95-87.695-18.272 40.238-37.333 80.164-58.398 119.515zm64.77-130.229c-7.757-7.807-4.788-21.284-3.005-30.79 28.66-57.58 58.476-114.861 87.106-172.428 5.314 2.6 6.117 11.09 9.037 17.015-32.538 61.424-60.671 124.382-93.138 186.203zm99.71-126.214c-3.965-.782-8.213-.754-11.226-3.567 2.565-9.59-7.36-23.785 9.954-21.568 1.89 7.594 3.651 17.526 1.271 25.135zm10.713 2.465c-2.31-7.936-3.468-19.871-2.85-29.646 5.734-.938 10.941-3.389 17.172-3.212 1.207 12.32 3.204 24.944 2.799 37.02-6.756 2.203-11.808-1.576-17.121-4.162zm40.693 14.72c-1.549.15-3.076.298-4.618.44-19.125-4.752-10.749-30.818-13.91-47.222 2.217-5.271 10.706 2.06 15.857 3.126 1.03 14.656 4.482 30.264 2.67 43.656zm20.517 11.246c-23.252-7.111-11.061-33.902-15.104-51.783 4.675.32 8.625 4.98 13.335 5.314 4.675 16.24 4.959 31.01 5.598 46.064-1.52.157-2.671.27-3.83.405zm12.255 2.295c-1.364-14.237-2.785-28.865-4.149-43.109 5.413-.142 9.946 2.522 14.443 4.817 3.19 12.894 3.63 29.554 5.492 44.544-6.139.98-10.82-3.233-15.786-6.252zm19.217-34.478c6.287.91 12.383 3.446 18.073 5.997 2.302 15.721 5.79 32.068 6.55 47.556-31.812.76-16.943-34.499-24.623-53.553zm-51.783-33.105c8.894-.47 16.489-2.366 24.865-4.334 26.208 9.889 53.09 18.57 79.419 29.632.05.767.106 1.151.156 1.918-3.218 2.657-6.607 3.744-10.898 3.773-33.625-2.182-63.576-18.727-93.542-30.99zm87.234 90.302c-1.649-16.972-7.844-32.68-7.893-49.382 3.928.412 7.893 1.18 11.424 1.62 5.427 15.786 10.407 31.238 15.82 47.045 15.694 25.682-13.903 4.845-19.351.717zm33.972 13.804c-7.339-19.494-15.764-38.505-21.583-58.54 16.475 21.704 31.494 44.367 46.49 67.008-9.313.12-17.142-4.56-24.907-8.468zm34.847 6.707c-16.134-22.123-34.215-44.466-48.451-67.193 23.217 23.018 49.538 46.135 71.305 70.439-8.127.412-15.622-.817-22.854-3.246zm62.894-8.767c-9.179 5.548-22.854 8.816-33.312 5.164-24.694-22.101-49.765-44.167-72.535-66.823 34.783 18.003 70.254 39.444 105.662 59.74.782.32 1.805 2.537.185 1.919zM413.086 88.036c-.035-.39-.135-1.165-.185-1.932 49.283 15.445 99.901 36.594 148.387 55.605-9.71 4.057-19.437 8.106-31.145 7.687-39.18-19.544-77.799-41.07-117.057-61.36z" fill="#0076be"/></svg>