<?xml version="1.0" encoding="utf-8"?>
<!-- Generator: Adobe Illustrator 14.0.0, SVG Export Plug-In . SVG Version: 6.00 Build 43363)  -->
<!DOCTYPE svg PUBLIC "-//W3C//DTD SVG 1.1//EN" "http://www.w3.org/Graphics/SVG/1.1/DTD/svg11.dtd">
<svg version="1.1" id="Calque_1" xmlns="http://www.w3.org/2000/svg" xmlns:xlink="http://www.w3.org/1999/xlink" x="0px" y="0px"
	 width="100px" height="90px" viewBox="0 0 100 90" enable-background="new 0 0 100 90" xml:space="preserve">
<rect x="0" y="0.117" fill="#004413" width="99.999" height="89.766"/>
<path fill="#FDC600" d="M65.326,19.153c6.045,0,10.945,25.484,10.945,56.923h8.76c0-33.856-8.82-61.302-19.705-61.302
	c-6.189,0-11.715,8.249-15.326,21.147c-3.611-12.898-9.136-21.147-15.328-21.147c-10.881,0-19.704,27.446-19.704,61.302h8.759
	c0-31.439,4.901-56.923,10.945-56.923c6.048,0,10.949,23.526,10.949,52.544h8.756C54.377,42.679,59.281,19.153,65.326,19.153"/>
</svg>
