<?xml version="1.0" encoding="UTF-8" standalone="no"?>
<!-- Created with Inkscape (http://www.inkscape.org/) -->
<svg
   xmlns:svg="http://www.w3.org/2000/svg"
   xmlns="http://www.w3.org/2000/svg"
   version="1.0"
   width="192.756"
   height="192.756"
   viewBox="0 0 192.756 192.756"
   id="Ebene_1"
   xml:space="preserve"
   style="overflow:visible"><defs
     id="defs3610" /><path
     d="M 94.25,13.34375 C 86.612997,13.52175 79.16725,14.714 72.03125,16.875 L 68.65625,17.96875 C 62.056248,20.28175 55.74925,23.41275 49.90625,27.34375 L 47.03125,29.40625 C 43.649252,31.897249 40.4,34.6615 37.375,37.6875 C 35.644999,39.4175 34.02575,41.2105 32.46875,43.0625 L 30.25,45.84375 C 25.084001,52.542751 21.008,59.914 18.125,67.75 L 16.96875,71.125 C 9.6977502,90.725001 12.64175,110.59675 16.96875,121.96875 L 18.125,125.34375 C 21.007999,133.18075 25.084,140.551 30.25,147.25 L 32.46875,150.03125 C 34.026749,151.88226 35.645,153.67525 37.375,155.40625 C 40.400999,158.43225 43.65025,161.1965 47.03125,163.6875 L 49.90625,165.75 C 55.749251,169.682 62.05625,172.811 68.65625,175.125 L 72.03125,176.25 C 79.167252,178.411 86.612,179.571 94.25,179.75 L 97.78125,179.75 C 105.65425,179.606 113.26875,178.3815 120.46875,176.1875 L 123.84375,175.09375 C 130.50875,172.74575 136.7925,169.5625 142.5625,165.6875 L 145.46875,163.65625 C 150.84976,159.70025 155.74325,155.107 160.03125,150 L 162.25,147.21875 C 167.32301,140.62574 171.442,133.2495 174.375,125.3125 L 175.40625,121.96875 C 179.73326,110.59675 182.67725,90.724 175.40625,71.125 L 174.40625,67.75 C 171.52425,59.913003 167.44725,52.54175 162.28125,45.84375 L 160.03125,43.0625 C 158.47325,41.211501 156.856,39.4185 155.125,37.6875 C 152.1,34.661499 148.882,31.89725 145.5,29.40625 L 142.59375,27.34375 C 136.74975,23.41275 130.474,20.28175 123.875,17.96875 L 120.5,16.875 C 113.221,14.671 105.57825,13.48475 97.78125,13.34375 L 94.25,13.34375 z"
     id="path3677"
     style="fill:#ffffff" /><path
     d="M 118.069,92.28 L 114.615,97.11 L 121.741,97.11 L 118.069,92.28 z M 160.043,43.066 C 158.485,41.215 156.856,39.411 155.125,37.68 C 152.1,34.654 148.878,31.896 145.496,29.405 C 131.387,45.646 115.352,54.104 97.794,54.571 L 97.794,66.86 C 124.196,66.536 146.721,57.923 160.043,43.066 z M 39.477,92.206 L 32.811,92.206 L 32.811,96.752 L 39.477,96.749 C 40.681,96.749 41.656,95.732 41.656,94.478 C 41.656,93.224 40.681,92.206 39.477,92.206 z M 54.405,96.756 L 61.53,96.756 L 57.859,91.925 L 54.405,96.756 z M 94.262,51.025 L 94.262,38.937 C 83.275,38.165 74.473,30.956 68.651,17.972 C 62.051,20.285 55.763,23.428 49.92,27.359 C 63.142,42.47 78.042,50.423 94.262,51.025 z M 162.279,45.85 C 148.244,61.188 124.951,70.066 97.794,70.391 L 97.794,82.416 C 120.974,82.341 150.146,80.444 174.403,67.757 C 171.521,59.92 167.445,52.548 162.279,45.85 z M 94.262,70.381 C 67.3,69.962 44.19,61.101 30.235,45.85 C 25.069,52.549 20.993,59.921 18.11,67.757 C 42.209,80.36 71.155,82.315 94.262,82.414 L 94.262,70.381 z M 94.262,35.406 L 94.262,13.345 C 86.625,13.523 79.155,14.7 72.019,16.861 C 77.275,28.414 84.741,34.652 94.262,35.406 z M 142.595,27.359 C 136.751,23.428 130.463,20.285 123.864,17.972 C 117.962,31.135 108.993,38.352 97.795,38.955 L 97.795,51.039 C 114.191,50.571 129.248,42.612 142.595,27.359 z M 94.262,66.85 L 94.262,54.558 C 76.881,53.957 61.004,45.505 47.018,29.406 C 43.636,31.897 40.414,34.655 37.389,37.681 C 35.659,39.411 34.029,41.215 32.472,43.067 C 45.716,57.837 68.057,66.432 94.262,66.85 z M 97.794,126.237 L 97.794,138.525 C 115.338,138.992 131.359,147.435 145.46,163.65 C 150.841,159.694 155.729,155.109 160.017,150.002 C 146.691,135.162 124.18,126.561 97.794,126.237 z M 97.794,142.058 L 97.794,154.142 C 108.981,154.745 117.941,161.947 123.844,175.083 C 130.509,172.735 136.791,169.574 142.561,165.699 C 129.222,150.471 114.177,142.525 97.794,142.058 z M 97.794,122.706 C 124.934,123.03 148.212,131.897 162.251,147.216 C 167.324,140.623 171.444,133.263 174.377,125.326 C 150.125,112.651 120.966,110.756 97.794,110.68 L 97.794,122.706 L 97.794,122.706 z M 120.495,16.861 C 113.216,14.657 105.591,13.474 97.794,13.333 L 97.794,35.424 C 107.531,34.834 115.155,28.597 120.495,16.861 z M 97.794,157.673 L 97.794,179.762 C 105.667,179.618 113.278,178.391 120.478,176.197 C 115.139,164.485 107.521,158.262 97.794,157.673 z M 72.02,176.235 C 79.156,178.396 86.625,179.573 94.263,179.752 L 94.263,157.69 C 84.741,158.444 77.275,164.683 72.02,176.235 z M 93.742,107.198 L 98.598,107.198 L 98.598,107.155 C 121.88,107.278 150.916,109.323 175.421,121.967 C 179.748,110.595 182.692,90.729 175.421,71.13 C 150.917,83.775 121.881,85.818 98.598,85.943 L 98.598,85.875 L 93.742,85.875 L 93.742,85.942 C 70.466,85.816 41.45,83.767 16.959,71.13 C 9.688,90.73 12.632,110.595 16.959,121.967 C 41.45,109.33 70.466,107.281 93.742,107.155 L 93.742,107.198 z M 105.61,103.126 L 115.752,88.897 L 125.784,88.897 L 134.111,99.891 L 134.111,88.902 L 144.427,88.902 C 144.383,88.902 150.416,96.519 150.416,96.519 L 156.055,88.902 L 169.955,88.902 C 170.436,88.902 170.349,89.432 169.955,89.432 C 165.847,89.432 165.125,91.437 165.125,92.577 L 165.125,101.691 C 165.125,102.831 165.847,104.836 169.955,104.836 C 170.349,104.836 170.436,105.226 169.955,105.226 L 157.716,105.226 L 157.716,93.191 L 149.192,105.224 L 147.137,105.224 L 137.608,93.419 L 137.608,100.254 C 137.608,102.624 139.751,104.858 142.92,104.858 C 143.314,104.858 143.4,105.224 142.92,105.224 L 131.052,105.224 C 128.779,105.224 127.38,104.629 126.769,103.718 L 124.516,100.756 L 114.266,100.756 C 113.567,100.756 112.067,101.079 111.971,102.214 C 111.801,104.239 112.977,104.858 116.146,104.858 C 116.54,104.858 116.627,105.224 116.146,105.224 L 103.732,105.224 C 104.125,104.77 105.042,103.81 105.61,103.126 z M 92.042,105.225 C 90.054,105.225 88.851,104.14 88.239,103.501 L 77.398,92.473 L 77.398,99.902 C 77.455,102.862 79.54,104.505 82.709,104.505 C 83.103,104.505 83.19,105.226 82.709,105.226 L 70.841,105.226 C 68.568,105.226 67.169,104.278 66.557,103.366 L 64.305,100.404 L 54.056,100.404 C 53.356,100.404 51.986,100.748 51.761,101.862 C 51.364,103.828 52.766,104.506 55.936,104.506 C 56.329,104.506 56.416,105.227 55.936,105.227 L 43.521,105.227 C 43.915,104.772 44.833,103.458 45.401,102.774 L 47.687,99.57 C 46.632,100.135 45.421,100.425 44.242,100.425 L 35.216,100.404 C 34.517,100.404 32.921,100.723 32.921,101.862 C 32.921,104.064 33.926,104.506 37.095,104.506 C 37.489,104.506 37.576,105.227 37.095,105.227 L 24.418,105.227 L 24.418,88.531 L 44.242,88.532 C 47.392,88.532 50.776,90.604 50.776,94.478 C 50.776,94.769 50.755,95.047 50.718,95.317 L 55.542,88.542 L 65.574,88.542 L 73.902,99.536 L 73.902,88.553 L 84.743,88.553 L 94.36,98.442 L 94.36,88.53 L 102.36,88.53 C 102.84,88.53 102.754,88.9 102.36,88.9 C 99.19,88.9 97.846,91.082 97.846,92.222 L 97.846,105.224 L 92.042,105.224 L 92.042,105.225 z M 49.92,165.737 C 55.763,169.669 62.051,172.811 68.651,175.125 C 74.473,162.141 83.275,154.932 94.262,154.159 L 94.262,142.071 C 78.042,142.674 63.142,150.626 49.92,165.737 z M 30.235,147.247 C 44.191,131.996 67.3,123.135 94.262,122.716 L 94.262,110.683 C 71.156,110.782 42.209,112.737 18.11,125.34 C 20.993,133.177 25.069,140.548 30.235,147.247 z M 32.471,150.031 C 34.029,151.882 35.658,153.685 37.388,155.416 C 40.414,158.442 43.636,161.2 47.017,163.691 C 61.003,147.591 76.88,139.139 94.261,138.539 L 94.261,126.247 C 68.057,126.664 45.716,135.26 32.471,150.031 z M 179.352,137.948 C 176.631,137.948 174.425,140.087 174.425,142.699 C 174.425,145.366 176.631,147.505 179.352,147.505 C 182.06,147.505 184.252,145.366 184.252,142.699 C 184.252,140.087 182.06,137.948 179.352,137.948 z M 179.352,146.57 C 177.132,146.57 175.359,144.879 175.359,142.699 C 175.359,140.588 177.132,138.882 179.352,138.882 C 181.545,138.882 183.318,140.588 183.318,142.699 C 183.317,144.879 181.545,146.57 179.352,146.57 z M 181.87,141.454 C 181.87,141.007 181.667,140.533 181.261,140.303 C 180.841,140.074 180.381,140.046 179.92,140.046 L 177.524,140.046 L 177.524,145.394 L 178.337,145.394 L 178.337,142.929 L 179.298,142.929 L 180.868,145.394 L 181.802,145.394 L 180.137,142.929 C 181.111,142.902 181.87,142.51 181.87,141.454 z M 179.23,142.267 L 178.336,142.267 L 178.336,140.656 L 179.757,140.656 C 180.447,140.656 181.057,140.751 181.057,141.441 C 181.058,142.401 180.002,142.267 179.23,142.267 z"
     id="path3607"
     style="fill:#2b67ac;fill-rule:evenodd" /></svg>