<?xml version="1.0" encoding="utf-8"?>
<!-- Generator: Adobe Illustrator 25.0.1, SVG Export Plug-In . SVG Version: 6.00 Build 0)  -->
<svg version="1.1" id="katman_1" xmlns="http://www.w3.org/2000/svg" xmlns:xlink="http://www.w3.org/1999/xlink" x="0px" y="0px"
	 viewBox="0 0 1200 800" style="enable-background:new 0 0 1200 800;" xml:space="preserve">
<style type="text/css">
	.st0{fill:#E2241C;}
</style>
<path d="M197.56,297.71h32.34l135.32,117.03v28.42L197.56,297.71z M254.35,297.71h32.34l78.52,67.24v28.58L254.35,297.71z
	 M311.15,297.71h32.34l21.72,18.08v28.58L311.15,297.71z M400.81,484.53h5.24v3.42c0,4.74,2.16,7.02,9.12,7.02h17.32
	c8.09,0,10.49-2.01,10.49-8.96c0-6.08-2.05-7.62-9-7.62h-10.59c-17.03,0-22.62-1.21-22.62-14.05c0-11.04,5.58-13.51,17.09-13.51
	h12.02c13.84,0,17.32,4.15,17.32,12.78v1.67h-5.24c-0.11-7.69-0.8-9.09-15.44-9.09h-5.92c-10.77,0-14.59,0.67-14.59,8.63
	c0,5.75,1.54,7.69,10.26,7.69h16.52c10.88,0,15.44,3.68,15.44,11.91v3.14c0,11.91-8.32,12.78-16.58,12.78h-15.5
	c-8.15,0-15.33-1.67-15.33-12.24L400.81,484.53z M455.91,478.91c0-12.37,7.4-13.78,14.59-13.78h8.2c9.12,0,12.71,4.35,12.71,11.57
	v0.93h-4.55v-0.8c0-5.69-3.19-7.03-8.09-7.03h-9c-4.61,0-8.94,0.8-8.94,9.3v7.16c0,7.62,3.99,9.37,9.91,9.37h8.26
	c4.56,0,8.38-1.6,8.38-7.16v-1.14h4.56v1.01c0,8.63-3.65,11.98-12.77,11.98H468.1c-4.39,0-12.19-1.41-12.19-13.79L455.91,478.91z
	 M498.47,478.98c0-11.23,6.78-13.84,16.06-13.84h7.01c9.29,0,16.06,2.61,16.06,13.84v7.49c0,11.24-6.78,13.85-16.06,13.85h-7.01
	c-9.29,0-16.06-2.61-16.06-13.85V478.98z M532.71,479.32c0-7.96-3.99-9.5-9.69-9.5h-9.97c-5.7,0-9.68,1.54-9.68,9.5v6.82
	c0,7.96,3.99,9.5,9.68,9.5h9.97c5.7,0,9.69-1.54,9.69-9.5V479.32z M548.49,470.35h-6.38v-4.69h6.38v-8.09h4.9v8.09h19.44v4.69
	h-19.44v16.99c0,6.36,1.88,8.3,7.24,8.3h1.54c6.49,0,7.52-1.6,7.52-8.76v-2.54h3.99v3.74c0,6.83-0.57,12.24-11.17,12.24h-2.68
	c-9.17,0-11.34-5.22-11.34-10.77V470.35z M580.34,499.79h4.9v-48.43h-4.9V499.79z M625.18,496.37h-0.11
	c-1.31,3.08-2.85,3.95-10.37,3.95h-11.73c-7.4,0-9.35-3.82-9.35-10.23v-2.28c0-7.75,4.67-8.69,13.22-8.69h7.86
	c6.39,0,8.67,0.8,10.37,4.08h0.11v-6.42c0-6.15-3.3-6.95-10.82-6.95h-7.18c-6.15,0-7.35,1.74-7.35,4.55v1.21h-4.9v-1.68
	c0-6.22,3.36-8.76,12.13-8.76h7.75c9.12,0,15.27,1.6,15.27,11.77v22.88h-4.9L625.18,496.37z M625.18,489.08
	c0-4.69-3.53-5.28-11.05-5.28h-7.52c-6.33,0-8.09,1.07-8.09,5.35v1.07c0,3.82,1.14,5.42,7.86,5.42h6.49
	c8.89,0,12.31-0.74,12.31-5.02L625.18,489.08z M638.74,465.67h4.56v5.88h0.12c1.82-5.28,5.64-6.42,11.73-6.42h7.35
	c9.17,0,12.08,5.41,12.08,11.57v23.07h-4.9v-21.67c0-5.02-1.2-8.29-10.71-8.29h-1.25c-11.46,0-14.07,2.54-14.07,10.57v19.39h-4.9
	V465.67z M719.64,499.78h-4.56v-5.41h-0.11c-1.42,4.14-5.41,5.95-10.54,5.95h-6.83c-8.9,0-15.1-2.61-15.1-14.38v-6.02
	c0-10.91,3.59-14.79,15.38-14.79h7.47c5.58,0,8.26,1.54,9.29,5.08h0.12v-18.86h4.9V499.78z M687.39,485.87
	c0,6.62,1.77,9.76,9.74,9.76h7.98c7.29,0,9.63-3.61,9.63-9.83v-6.49c0-8.16-4.05-9.5-10.65-9.5h-6.61c-6.72,0-10.09,1.47-10.09,9.37
	L687.39,485.87z M735.2,459.65c0,4.75-0.86,7.89-6.38,7.89v-3.88c1.99,0,2.5-0.81,2.5-3.62h-2.16v-8.69h6.04V459.65z M741.19,488.01
	h4.56v1.67c0,4.22,1.88,5.95,6.89,5.95h10.49c7.35,0,9.69-0.33,9.69-5.41v-0.27c0-3.28-0.8-5.08-6.66-5.08h-15.1
	c-6.9,0-9.46-2.61-9.46-9.1v-2.01c0-5.55,2.68-8.63,14.76-8.63h7.52c11.05,0,12.59,3.75,12.59,8.56v1.8h-4.56v-0.33
	c0-5.22-2.96-5.35-8.32-5.35h-8.55c-7.01,0-8.54,0.8-8.54,4.68v1.27c0,2.81,0.8,4.41,5.92,4.41h12.93c7.35,0,12.37,0.87,12.37,10.1
	v0.13c0,9.56-7.53,9.9-13.51,9.9h-9c-7.24,0-14.01,0-14.01-10.23L741.19,488.01z M834.06,451.36h6.95l24.5,48.43h-6.33l-5.13-10.24
	h-33.04l-5.13,10.24h-6.33L834.06,451.36z M837.53,456.71l-13.84,27.49h27.69L837.53,456.71z M871.65,457.64h4.9v-6.28h-4.9V457.64z
	 M871.65,499.79h4.9v-34.11h-4.9V499.79z M886.87,465.67h4.56v4.95h0.11c1.82-4.41,5.52-5.48,8.89-5.48h4.61
	c9.17,0,12.19,3.47,12.19,11.84v4.08h-4.56v-1.47c0-8.43-1.48-9.76-10.2-9.76h-3.02c-5.19,0-7.69,3.88-7.69,8.29v21.67h-4.9V465.67z
	 M923.74,499.79h4.9v-48.43h-4.9V499.79z M939.23,457.64h4.9v-6.28h-4.9V457.64z M939.23,499.79h4.9v-34.11h-4.9V499.79z
	 M954.04,465.67h4.56v5.88h0.11c1.82-5.28,5.64-6.42,11.73-6.42h7.35c9.17,0,12.08,5.42,12.08,11.57v23.07h-4.9v-21.67
	c0-5.02-1.2-8.29-10.71-8.29h-1.25c-11.45,0-14.07,2.54-14.07,10.57v19.39h-4.9V465.67z M997.8,478.91
	c0-12.37,7.29-13.78,14.24-13.78h7.86c8.77,0,15.1,2.61,15.1,14.78v3.82h-32.31v2.13c0,7.76,3.19,9.77,11.74,9.77h6.72
	c6.15,0,8.66-0.94,8.94-6.16h4.9v0.67c0,7.83-5.53,10.17-14.65,10.17h-8.88c-6.39,0-13.68-1.41-13.68-13.98L997.8,478.91z
	 M1030.1,476.77c0-3.48-2.22-6.96-10.2-6.96h-7.18c-7.75,0-9.57,1.47-10.03,9.23h27.41V476.77z"/>
<g>
	<path class="st0" d="M364.66,502.56v-20.18H240.76c-45.36-0.02-82.12-36.8-82.12-82.16l0.05-102.64h-20.22l0.01,102.49
		c-0.01,56.72,45.62,102.5,102.35,102.5L364.66,502.56z"/>
	<path class="st0" d="M240.78,467.22c-36.86-0.01-66.74-30.13-66.74-67c0-0.02,0-0.04,0.01-0.05l0.04-102.55h20.57v102.55
		c0,25.53,20.61,46.26,46.13,46.26h0.19l123.67-0.1v20.89H240.78z M416.75,404h63.09v11.84h-77.13v-118.4h14.04V404z M529.56,332.02
		c32.2,0,38.48,7.42,38.48,42.46c0,34.89-6.28,42.31-38.48,42.31c-32.2,0-38.48-7.42-38.48-42.31
		C491.07,339.44,497.35,332.01,529.56,332.02 M529.56,406.69c23.29,0,24.94-3.47,24.94-32.2c0-28.89-1.65-32.36-24.94-32.36
		s-24.94,3.47-24.94,32.36C504.62,403.21,506.27,406.69,529.56,406.69 M660.53,425.63c0,22.1-17.18,27-38.15,27
		c-20.15,0-36.01-3-34.69-27h13.05c0,15.94,7.93,16.89,21.63,16.89c15.53,0,24.94-1.58,25.1-17.84v-19.1h-0.33
		c-3.63,10.11-17.67,11.21-27.91,11.21c-28.08,0-34.19-13.89-34.19-42.31c0-27.62,4.46-42.46,34.19-42.46
		c12.05,0,22.79,1.57,27.91,11.52l0.33-0.16v-10.42h13.05L660.53,425.63z M647.48,374.48c0-23.05-1.65-32.36-25.1-32.36
		c-24.11,0-23.78,10.58-23.78,32.36c0,19.89-1.48,32.21,23.78,32.21C647.48,406.69,647.48,392.95,647.48,374.48 M741.29,415.84
		v-8.53l-0.33-0.31c-4.95,9.47-17.67,9.79-28.57,9.79c-19.49,0-33.03-3.47-33.03-25.1c0-22.89,12.39-26.04,33.86-26.04
		c8.59,0,25.43,0.79,27.25,8.36h0.83v-15.31c0-15.15-8.43-16.58-23.12-16.58c-10.25,0-22.79,0-22.63,11.37v2.84H682v-1.74
		c0-21.31,15.36-22.74,34.68-22.57c21.8-0.16,37.82,2.05,37.66,27.31v56.51L741.29,415.84z M740.96,391.21
		c0-15.63-9.74-15.47-26.26-15.47c-15.52,0-21.8,0.95-21.8,14.36c0,15.79,6.77,16.58,21.8,16.58
		C727.75,406.69,740.96,406.37,740.96,391.21 M789.85,343.07h0.33c4.13-9.94,16.85-11.05,26.76-11.05c22.29,0,33.03,5.69,32.7,28.73
		v55.1h-13.05V359.8c0-15.15-6.11-17.68-20.81-17.68c-21.3,0-25.93,6.31-25.93,25.42v48.31H776.8v-82.88h13.05V343.07z
		 M931.23,415.84v-8.53l-0.33-0.31c-4.96,9.47-17.67,9.79-28.57,9.79c-19.49,0-33.03-3.47-33.03-25.1
		c0-22.89,12.39-26.04,33.86-26.04c8.59,0,25.43,0.79,27.25,8.36h0.83v-15.31c0-15.15-8.43-16.58-23.12-16.58
		c-10.25,0-22.79,0-22.63,11.37v2.84h-13.54v-1.74c0-21.31,15.36-22.74,34.68-22.57c21.8-0.16,37.82,2.05,37.66,27.31v56.51
		L931.23,415.84z M930.89,391.21c0-15.63-9.74-15.47-26.26-15.47c-15.52,0-21.8,0.95-21.8,14.36c0,15.79,6.77,16.58,21.8,16.58
		C917.68,406.69,930.89,406.37,930.89,391.21 M979.62,311.18h-13.05v-13.74h13.05V311.18z M979.62,415.84h-13.05v-82.88h13.05
		V415.84z M1013.15,332.96l-0.66,10.26l0.33,0.31c4.46-9.15,14.86-11.52,24.61-11.52c16.68,0,24.11,7.89,24.11,23.36v6h-12.39v-5.52
		c0-10.26-3.64-13.74-14.53-13.74c-16.19,0-21.47,7.42-21.14,22.11v51.62h-13.05v-82.88H1013.15z"/>
</g>
</svg>
