<?xml version="1.0" encoding="UTF-8" standalone="no"?><!DOCTYPE svg PUBLIC "-//W3C//DTD SVG 1.1//EN" "http://www.w3.org/Graphics/SVG/1.1/DTD/svg11.dtd"><svg width="100%" height="100%" viewBox="0 0 294 255" version="1.1" xmlns="http://www.w3.org/2000/svg" xmlns:xlink="http://www.w3.org/1999/xlink" xml:space="preserve" xmlns:serif="http://www.serif.com/" style="fill-rule:evenodd;clip-rule:evenodd;stroke-linejoin:round;stroke-miterlimit:2;"><g id="Layer-1" serif:id="Layer 1"><g><path id="path2035" d="M70.835,246.47c-5.743,-3.501 -7.17,-11.821 -2.475,-14.428c0.994,-0.553 2.817,-1.741 4.051,-2.643c2.906,-2.123 5.899,-2.074 10.288,0.166c6.133,3.129 8.342,7.826 6.142,13.057c-2.302,5.474 -11.957,7.537 -18.007,3.847Zm73.355,-92.653c-5.484,-1.483 -7.998,-2.865 -12.12,-6.663c-6.929,-6.388 -8.822,-16.418 -4.627,-24.531c1.488,-2.877 2.228,-3.141 3.98,-1.417c0.956,0.94 1.754,0.472 4.056,-2.381c3.832,-4.749 7.656,-6.575 13.862,-6.616c8.466,-0.057 18.34,5.964 23.099,14.084c4.769,8.137 2.48,19.198 -4.917,23.77c-5.575,3.447 -17.422,5.353 -23.334,3.755Zm-110.535,68.502c-4.53,-2.123 -6.323,-5.168 -5.921,-10.057c0.22,-2.681 0.864,-3.941 2.402,-4.703c1.155,-0.572 2.875,-1.741 3.821,-2.597c4.209,-3.809 13.169,-0.412 16.422,6.226c3.067,6.257 -0.585,11.381 -8.822,12.384c-2.954,0.357 -5.237,-0.005 -7.901,-1.252Zm-21.625,-37.057c-4.565,-2.067 -7.085,-5.928 -6.757,-10.356c0.208,-2.814 0.814,-4.041 2.38,-4.818c1.155,-0.573 2.875,-1.742 3.821,-2.598c1.977,-1.79 6.843,-2.04 9.83,-0.505c8.315,4.272 10.427,13.038 4.135,17.16c-3.221,2.11 -9.974,2.672 -13.409,1.116Zm-5.586,-42.132c-3.801,-1.733 -6.044,-5.366 -6.044,-9.791c0,-3.325 0.391,-3.875 4.752,-6.701c5.414,-3.508 9.109,-3.517 14.005,-0.029c5.873,4.182 6.909,10.658 2.384,14.909c-2.78,2.612 -10.981,3.488 -15.097,1.612Zm9.785,-43.037c-3.994,-2.688 -5.875,-6.471 -5.146,-10.348c0.437,-2.327 1.545,-3.519 5.146,-5.541c5.203,-2.922 7.482,-3.165 11.272,-1.205c9.387,4.854 10.11,15.787 1.208,18.258c-5.413,1.503 -9.016,1.167 -12.479,-1.164Zm25.54,-34.98c-4.328,-2.21 -5.946,-5.037 -5.597,-9.777c0.205,-2.785 0.845,-4.27 2.155,-4.995c1.025,-0.568 2.873,-1.77 4.108,-2.672c3.357,-2.452 7.697,-2.053 12.062,1.11c6.415,4.646 7.259,11.921 1.799,15.498c-3.517,2.304 -10.826,2.724 -14.527,0.835Zm38.286,-25.926c-3.652,-1.258 -7.527,-6.275 -7.527,-9.749c0,-2.918 1.597,-5.888 3.167,-5.888c0.674,0 1.99,-0.843 2.922,-1.873c3.498,-3.866 13.049,-1.473 16.764,4.198c3.4,5.189 0.576,11.791 -5.799,13.562c-4.286,1.19 -5.433,1.16 -9.527,-0.25Zm43.311,-15.102c-3.378,-1.525 -6.802,-6.42 -6.807,-9.731c-0.004,-2.652 1.582,-5.793 2.926,-5.793c0.544,0 2.062,-0.843 3.372,-1.873c6.226,-4.897 18.053,1.181 18.053,9.277c0,3.1 -1.933,6.375 -4.437,7.515c-3.961,1.807 -9.847,2.078 -13.107,0.606Z" style="fill:#b73d8a;fill-rule:nonzero;"/><path id="path2498" d="M248.288,102.732c3.456,13.133 3.71,32.064 0.562,42.922c-6.117,21.114 -19.288,39.821 -39.428,56.017c-7.709,6.201 -11.765,8.487 -19.597,11.054c-2.951,0.955 -8.768,3.26 -12.927,5.115c-8.468,3.756 -19.11,5.574 -19.139,3.26c-0.037,-3.457 -1.48,-3.795 -5.994,-1.386c-3.119,1.649 -5.255,2.192 -7.175,1.808c-1.611,-0.328 -2.745,-0.149 -2.745,0.412c0,3.035 -12.853,3.803 -25.76,1.527c-8.919,-1.564 -21.648,-5.377 -27.634,-8.262c-26.717,-12.88 -41.471,-30.332 -46.426,-54.864c-2.173,-10.763 -1.443,-31.952 1.462,-42.173c2.351,-8.271 5.817,-14.622 8.44,-15.456c2.155,-0.683 2.322,-1.639 0.731,-4.187c-0.985,-1.574 -0.431,-2.838 4.15,-9.583c14.117,-20.757 32.608,-35.783 50.378,-40.963c3.869,-1.124 9.554,-2.905 12.646,-3.944c3.091,-1.04 6.885,-2.136 8.431,-2.426c1.545,-0.291 3.662,-1.077 4.702,-1.752c4.328,-2.83 13.733,-3.972 29.957,-3.645c19.325,0.404 30.087,2.155 41.217,6.727c7.287,2.998 9.32,4.365 14.922,10.079c14.248,14.5 24.59,32.092 29.226,49.721Zm-29.114,56.167c2.361,-8.112 1.47,-24.646 -1.827,-34.097c-7.588,-21.722 -26.922,-44.42 -44.645,-52.4c-8.777,-3.962 -14.744,-4.946 -29.507,-4.89c-16.064,0.065 -22.116,1.713 -31.624,8.617c-4.478,3.241 -7.85,4.918 -11.213,5.556c-6.024,1.143 -9.723,4.552 -14.089,12.974c-6.482,12.496 -9.527,25.376 -8.749,37.011c1.751,26.257 14.041,46.284 34.462,56.148c8.216,3.961 18.08,7.006 27.991,8.618c6.819,1.114 29.225,1.892 32.786,1.143c1.808,-0.375 5.274,-0.693 7.7,-0.703c3.513,-0.02 5.563,-0.768 9.967,-3.616c17.911,-11.57 24.365,-19.298 28.749,-34.361Z" style="fill:#304596;fill-rule:nonzero;"/><path id="path2505" d="M184.018,98.273c20.121,20.234 25.461,41.797 15.203,61.404c-5.227,9.995 -10.182,14.838 -20.206,19.784c-9.161,4.514 -10.838,4.937 -12.599,3.176c-0.834,-0.834 -2.042,-0.796 -5.105,0.169c-2.201,0.684 -4.402,1.602 -4.898,2.034c-1.564,1.357 -13.883,0.721 -20.758,-1.077c-21.648,-5.678 -37.582,-20.683 -42.041,-39.597c-1.883,-8 -1.855,-20.262 0.056,-22.997c0.835,-1.19 1.208,-2.885 0.881,-3.934c-0.384,-1.198 0.637,-4.187 2.866,-8.431c4.3,-8.177 13.143,-16.796 19.185,-18.678c2.295,-0.722 7.119,-2.557 10.726,-4.103c5.358,-2.277 8.186,-2.857 15.456,-3.157c20.148,-0.816 28.017,2.125 41.235,15.408Zm5.283,60.523c2.014,-3.034 3.082,-11.494 2.118,-16.777c-2.22,-12.121 -14.37,-28.299 -27.906,-37.141c-8.685,-5.667 -14.238,-7.325 -24.412,-7.307c-8.44,0.027 -14.116,1.741 -16.908,5.115c-0.768,0.926 -3.166,2.436 -5.329,3.363c-5.18,2.229 -6.877,5.057 -8.103,13.545c-1.255,8.702 -0.131,14.857 4.487,24.58c6.492,13.676 18.912,23.1 34.294,26.013c9.386,1.78 27.98,1.293 31.203,-0.815c2.725,-1.79 8.673,-7.748 10.556,-10.577Z" style="fill:#4ab0e0;fill-rule:nonzero;"/><path id="path2519" d="M184.936,245.276c0.009,2.866 -1.677,6.267 -3.728,7.55c-2.519,1.575 -10.417,2.23 -13.133,1.097c-3.757,-1.575 -6.482,-4.674 -7.129,-8.123c-0.637,-3.39 0.777,-7.737 2.51,-7.737c0.581,0 2.118,-0.842 3.428,-1.873c6.079,-4.787 18.042,1.237 18.051,9.086Z" style="fill:#b73d8a;fill-rule:nonzero;"/><path id="path25191" serif:id="path2519" d="M135.235,244.813c0.009,2.866 -1.677,6.267 -3.728,7.55c-2.519,1.575 -10.417,2.23 -13.133,1.097c-3.757,-1.575 -6.482,-4.674 -7.129,-8.123c-0.637,-3.39 0.777,-7.737 2.51,-7.737c0.581,0 2.118,-0.842 3.428,-1.873c6.079,-4.787 18.042,1.237 18.051,9.086Z" style="fill:#b73d8a;fill-rule:nonzero;"/><path id="path2526" d="M222.368,218.485c8.871,4.983 8.468,15.119 -0.703,17.666c-4.507,1.255 -6.585,1.18 -10.107,-0.356c-3.842,-1.667 -6.951,-5.77 -6.951,-9.161c0,-3.147 1.48,-6.37 2.932,-6.37c0.543,0 2.061,-0.842 3.372,-1.873c3.063,-2.406 7.063,-2.378 11.456,0.095Z" style="fill:#b73d8a;fill-rule:nonzero;"/><path id="path2533" d="M182.566,1.582c10.548,5.013 10.613,16.393 0.112,19.044c-2.304,0.571 -4.318,1.012 -4.478,0.965c-0.159,-0.047 -1.592,-0.459 -3.194,-0.927c-3.7,-1.068 -7.578,-4.927 -8.309,-8.261c-0.692,-3.13 0.852,-7.589 2.614,-7.589c0.713,0 2.023,-0.815 2.932,-1.816c2.454,-2.708 6.445,-3.251 10.323,-1.415Z" style="fill:#b73d8a;fill-rule:nonzero;"/><path id="path2540" d="M229.61,14.668c11.175,4.272 11.709,16.327 0.843,19.071c-4.918,1.237 -3.887,1.274 -8.515,-0.365c-2.061,-0.731 -4.487,-2.239 -5.397,-3.354c-3.532,-4.328 -3.193,-10.604 0.646,-12.065c1.227,-0.468 2.519,-1.321 2.876,-1.902c1.472,-2.378 5.443,-2.95 9.546,-1.385Z" style="fill:#b73d8a;fill-rule:nonzero;"/><path id="path2547" d="M261.187,47.876c6.782,2.24 10.81,9.884 7.982,15.157c-1.968,3.681 -11.232,5.752 -16.318,3.652c-5.611,-2.322 -8.815,-10.528 -5.368,-13.76c5.938,-5.537 8.907,-6.633 13.704,-5.05Z" style="fill:#b73d8a;fill-rule:nonzero;"/><path id="path2554" d="M287.041,99.594c0,4.309 -2.998,7.691 -7.626,8.617c-4.346,0.872 -5.574,0.713 -9.967,-1.283c-2.941,-1.33 -4.403,-2.735 -5.443,-5.226c-1.649,-3.954 -0.984,-8.675 1.349,-9.528c0.852,-0.308 2.557,-1.33 3.784,-2.276c6.522,-5.001 17.903,1.172 17.903,9.696Z" style="fill:#b73d8a;fill-rule:nonzero;"/><path id="path2561" d="M293.598,137.794c0,4.065 -2.699,7.091 -7.569,8.496c-4.356,1.246 -5.397,1.143 -10.023,-0.956c-2.941,-1.33 -4.403,-2.735 -5.443,-5.226c-1.649,-3.954 -0.984,-8.675 1.349,-9.528c0.852,-0.308 2.557,-1.33 3.784,-2.276c6.418,-4.926 17.902,1.162 17.902,9.49Z" style="fill:#b73d8a;fill-rule:nonzero;"/><path id="path2568" d="M281.739,164.276c1.582,2.135 1.752,3.138 1.021,6.005c-0.478,1.892 -1.92,4.215 -3.213,5.161c-3.176,2.342 -10.023,3.035 -13.658,1.385c-4.562,-2.06 -7.083,-5.919 -6.754,-10.351c0.206,-2.82 0.815,-4.047 2.379,-4.815c1.151,-0.581 2.875,-1.742 3.822,-2.604c3.813,-3.456 11.878,-0.889 16.402,5.219Z" style="fill:#b73d8a;fill-rule:nonzero;"/><path id="path2575" d="M257.346,191.17c4.693,5.583 2.735,12.665 -4.028,14.547c-4.243,1.181 -5.125,1.228 -8.271,0.496c-3.972,-0.927 -8.225,-4.983 -8.927,-8.506c-0.665,-3.297 0.74,-7.419 2.51,-7.419c0.713,0 2.023,-0.815 2.932,-1.816c3.775,-4.178 11.044,-2.932 15.784,2.698Z" style="fill:#b73d8a;fill-rule:nonzero;"/></g></g></svg>