<?xml version="1.0" encoding="UTF-8" standalone="no"?>
<svg
   height="200"
   viewBox="0 0 79.37499 52.91667"
   width="300"
   version="1.1"
   id="svg167"
   sodipodi:docname="drapeau_normandie_officiel.svg"
   inkscape:version="1.2.2 (732a01da63, 2022-12-09)"
   xmlns:inkscape="http://www.inkscape.org/namespaces/inkscape"
   xmlns:sodipodi="http://sodipodi.sourceforge.net/DTD/sodipodi-0.dtd"
   xmlns:xlink="http://www.w3.org/1999/xlink"
   xmlns="http://www.w3.org/2000/svg"
   xmlns:svg="http://www.w3.org/2000/svg">
  <defs
     id="defs171" />
  <sodipodi:namedview
     id="namedview169"
     pagecolor="#ffffff"
     bordercolor="#000000"
     borderopacity="0.25"
     inkscape:showpageshadow="2"
     inkscape:pageopacity="0.0"
     inkscape:pagecheckerboard="0"
     inkscape:deskcolor="#d1d1d1"
     showgrid="false"
     inkscape:zoom="2.68"
     inkscape:cx="159.14179"
     inkscape:cy="98.69403"
     inkscape:window-width="1920"
     inkscape:window-height="991"
     inkscape:window-x="-9"
     inkscape:window-y="-9"
     inkscape:window-maximized="1"
     inkscape:current-layer="svg167" />
  <g
     id="g537"
     transform="matrix(0.33333334,0,0,0.33333334,0,-1.3333334e-6)">
    <path
       d="M 0,4e-6 H 238.12499 V 158.74999 H 0 Z"
       fill="#d90d16"
       id="path2" />
    <g
       id="a"
       stroke-width="1.00001"
       transform="matrix(1,0,0,0.99998259,0,3.9e-4)">
      <path
         d="m 132.88448,43.583445 -0.17837,6.00507 10.70211,4.63758 5.52942,-4.280845 z"
         fill="#fcd41c"
         stroke="#080808"
         stroke-linecap="round"
         stroke-linejoin="round"
         stroke-width="0.901179"
         id="path4" />
      <path
         d="m 62.489539,27.604922 c 0.74961,-0.439235 0.700413,-3.78644 -2.185175,-4.030115 0.458393,1.432197 0.07271,3.846828 0.07271,3.846828 z m -4.770255,-4.066135 c 0.45733,-1.138913 -1.425539,-3.973636 -4.057642,-2.685917 2.18839,1.576941 1.556875,4.280399 1.556875,4.280399 z M 45.200967,29.92074 c -0.388296,-1.142113 -4.610535,-0.405202 -5.098229,3.316408 2.788992,-1.77282 4.428354,-0.03713 4.428354,-0.03713 z m 5.583005,-5.691169 c 0.174805,-1.460508 -3.450581,-3.444162 -6.002206,-0.691116 2.898027,0.5559 4.118072,3.400635 4.118072,3.400635 l 1.884134,-2.709511 z m 2.684342,37.156557 c -0.334793,-1.324382 -4.153544,-1.14319 -5.459464,2.490327 2.709692,-1.014005 4.720517,0.766199 4.720517,0.766199 z m -0.291275,5.929389 c -0.827306,-1.003248 -4.467516,0.64426 -4.025349,5.366662 2.117744,-2.857082 4.61073,-1.799456 4.61073,-1.799456 z m 9.781737,-6.92243 c 0.33795,-0.987102 -2.290115,-3.718655 -4.702254,-2.661925 2.240079,1.445063 2.829563,3.928296 2.829563,3.928296 z m 113.478294,2.413859 c -0.43457,-0.927654 -3.49729,-0.162481 -4.1034,2.746933 2.06453,-1.198982 3.90912,-0.211302 3.90912,-0.211302 z m 2.79034,6.102078 c -1.22056,-0.162178 -3.52862,3.754155 -1.60708,6.439523 0.96568,-3.112365 3.60429,-4.466691 3.60429,-4.466691 z M 121.77005,59.83684 c 0.23903,-1.098059 -1.82303,-2.867607 -4.09477,-0.784078 2.2566,0.519815 2.86446,1.689098 2.82759,1.694365 z m -4.61449,2.862313 c -0.56021,-0.723547 -3.23125,-1.068968 -3.14704,2.992652 1.93746,-1.747391 3.51151,-0.554889 3.50664,-0.520884 z m 0.50576,3.921772 c -1.08844,-0.438989 -3.05326,1.511794 -1.4032,4.144382 1.66201,-2.381047 3.0733,-2.524253 3.0733,-2.524253 z m 5.95679,3.67419 c -1.24912,0.400253 -0.64126,3.31518 1.43098,3.520588 -0.71879,-2.240614 1.86816,-3.956811 0.13636,-3.956811 z m 50.56515,-2.620812 c -0.63049,-0.703499 -3.87274,1.013557 -2.54664,4.532014 1.3753,-2.838928 2.96056,-2.015101 2.96056,-2.015101 z m 13.07734,2.738582 c 0,0 -0.20268,0.174336 0.64937,1.276542 0.85205,1.102207 1.30675,3.621106 1.30675,3.621106 1.65617,-1.176089 2.42031,-5.176151 1.26071,-5.22162 z M 58.453368,71.724068 c -0.225071,1.063188 0.167039,1.08338 0.617211,1.843048 0.450106,0.758793 -0.268612,3.091321 -0.268612,3.091321 2.071465,0.196045 4.705086,-3.044602 2.182993,-4.540249 z"
         fill="#085d98"
         stroke="#080808"
         stroke-width="0.654146"
         id="path6" />
      <path
         d="m 135.87217,45.568646 c -0.15106,6.253318 4.23114,3.839619 8.12437,5.048369 2.02072,0.678553 3.19116,2.46713 3.08385,4.148296 -0.10729,1.681167 -0.61116,2.54464 -0.85982,4.028692 -0.15577,0.929575 0.36512,1.439999 1.1894,2.383791 0.82426,0.9438 1.39069,2.599819 1.09541,3.925992 -0.39653,1.780818 -1.60341,3.976525 -3.56874,4.149843 0.0668,-0.82858 -0.0826,0.529799 0.0309,-0.375019 0,0 -0.21279,0.754199 -0.88548,1.149561 -0.67271,0.395363 -2.28337,1.400554 -4.94768,0.81575 0,0 0.69396,-0.371053 0.0224,0.01394 -0.79422,0.535925 -5.19605,0.456761 -4.07865,-0.142622 0.32186,0.605921 0,0 -0.19038,0.09775 -0.54484,0.330272 -3.64202,0.615977 -3.64202,-0.323207 -0.80764,0.689911 -2.30754,0.480494 -3.00563,0.121484 -0.55175,-0.450484 -0.65428,0.504217 -1.70032,0.660334 -1.0461,0.156109 -3.317,-0.156117 -3.43369,-1.407945 -0.28147,-0.590201 -0.0441,0.465315 0.009,-0.313063 -3.11381,2.00805 -5.72192,-0.395543 -5.98681,-2.094373 -0.10331,-0.662422 -0.0507,-1.363335 0.29812,-1.989043 0,0 -1.33934,0.110026 -1.18054,-2.344007 0.15884,-2.454033 1.7773,-2.611508 3.48826,-2.334117 0.81392,0.156109 0.2064,-0.220919 0.34884,-0.938765 0.19402,-0.978158 1.1945,-1.20266 2.34307,-0.643451 1.51198,0.625701 2.65757,2.520987 3.12267,3.928925 0.46467,1.407937 3.96148,0.88295 5.5816,0.796244 1.97628,-0.105771 2.18874,-1.832529 0.69763,-3.456017 -1.49111,-1.623481 -5.28311,-5.004127 -5.28311,-5.004127 -1.44181,-1.271052 -1.74335,-3.523665 0.11412,-4.633522 1.85746,-1.109856 3.99152,-3.606252 3.82311,-5.290164 z"
         fill="#fcd41c"
         stroke="#080808"
         stroke-width="0.901151"
         id="path8" />
      <path
         d="m 75.612533,52.009196 c -0.530188,1.551238 -0.01264,3.832307 -1.827243,4.706205 -1.824382,-0.12839 -1.8837,-2.93829 -2.241748,-2.322465 l 0.767012,-0.543994 0.17776,-0.299511 0.382163,-0.185396 z"
         fill="#fcd41c"
         stroke="#080808"
         stroke-width="0.784975"
         id="path10" />
      <path
         d="m 79.435098,41.482616 c 0,0 2.990317,10.326077 10.886721,1.682076"
         fill="none"
         stroke="#080808"
         stroke-width="0.261658"
         id="path12" />
      <path
         d="m 128.33763,46.551443 c -1.97628,0.312644 -6.2132,1.99475 -8.68412,4.0098 -5.21045,4.249198 -14.27658,10.156055 -15.43888,11.094819 -1.16316,0.938765 -2.85399,1.16664 -3.55165,0.07174 -0.697654,-1.095719 -1.163162,-0.313063 -1.046874,1.251829 0.923904,5.908727 -2.029174,7.821533 -5.134242,7.753278 -0.836221,-0.01842 -1.979082,-0.462628 -2.667083,-1.019092 -0.678328,3.302263 -3.679662,3.630014 -6.390495,3.304358 -0.04154,-0.389438 0.206946,-0.838889 0.206946,-0.838889 -0.896175,1.134745 -3.650245,1.014728 -6.014762,0.843087 -0.157431,-0.690749 0.308041,-0.620428 0.275157,-1.050271 -0.793793,1.452417 -1.951363,1.217599 -4.163116,1.063585 -0.02608,-0.305926 0.287424,-0.659785 0.287424,-0.659785 -0.96797,1.029407 -2.736725,0.616678 -4.3012,0.641854 -0.05657,-0.277115 -0.489848,-0.101797 -0.489848,-0.101797 -0.624059,0.188106 -1.952135,0.386744 -3.712207,0.142506 -0.873837,-0.325345 -0.135296,-0.776782 0.05151,-1.259804 0.203449,-0.495678 -2.102313,0.851944 -2.558048,-0.625701 -0.09183,-0.642063 0,0 -0.486487,1.208599 -0.303404,0.753736 -0.718647,1.23756 -1.881382,1.549785 -1.163161,0.313064 -4.043814,-0.125052 -4.651388,-0.781817 -0.626725,-0.648363 -0.930642,-2.033645 -0.465133,-2.81672 0.465133,-0.78181 -2.214253,1.509496 -3.371938,1.721427 -3.405943,0.638748 -3.853586,-5.363396 -2.25585,-6.104079 l 0.371232,-0.172096 c -1.697336,-0.71102 -1.056994,-3.076201 -0.208781,-4.51901 0.848235,-1.442809 3.468556,-1.215324 4.999828,-0.313064 0.896204,0.598422 2.814516,2.649695 2.442185,1.094874 -0.259386,-0.961008 -0.260535,-2.245663 1.145961,-2.708031 4.696496,-1.543949 4.210601,3.968506 6.761135,4.585567 2.550534,0.617061 4.895582,-1.645319 8.851124,-1.824655 3.95557,-0.179342 10.3479,-1.744934 10.329984,-1.989584 -5.210942,1.753734 -6.323209,-0.712869 -6.904175,-0.55676 -2.042879,0.24923 -2.534482,-1.482911 -2.526911,-1.466851 -1.845535,0.730229 -3.820094,-0.337352 -4.769627,-1.24118 0.663626,-0.51842 2.991928,-1.947879 2.431803,-4.051882 -2.168603,0.564606 -3.85636,1.784373 -4.72613,3.637982 -0.509374,-0.653861 -1.164281,0.579856 -2.86377,-0.06466 -1.699489,-0.644535 -2.627003,-2.212981 -4.396329,-1.193673 -1.891734,-2.397069 -1.404119,-1.848458 -3.565613,-2.421162 -1.311569,-0.347509 -2.121154,-2.101951 -1.923181,-2.441658 0.198002,-0.339707 -2.041767,0.310542 -2.520055,-2.282456 0.132204,-0.214157 -0.496934,0.03121 -1.702784,-0.516998 -1.468082,-0.890109 -1.646073,-2.048289 -1.761935,-2.830106 -0.750527,0.07008 -2.351066,-1.309319 -1.628237,-1.72142 -1.222371,-0.882112 -2.262135,-2.333698 -1.447782,-2.803716 -0.71317,-0.546386 -0.31372,-0.573159 -0.715265,-1.169992 -0.741323,-0.882112 -0.511693,-1.815003 0.07008,-1.815003 0.581364,0 0.667123,-2.08272 -0.27731,-2.08272 -0.944454,0 -1.86228,0.165233 -2.446974,-0.420518 -1.180565,-1.182793 -1.455578,-3.389004 -0.839862,-4.942604 0.517227,-1.305201 2.518538,-2.682638 3.358429,-2.54175 0.839897,0.14127 0.41975,0.423436 0.209871,-0.847255 -0.209871,-1.270684 1.185044,-2.22511 2.099171,-2.541743 1.107737,-0.49237 3.111114,0.07842 3.883111,0.423812 0.745282,0.333436 0.839551,0.564706 0.839551,-0.423812 0,-0.694613 0.600465,-1.313299 1.322145,-1.495481 1.201299,-0.276097 2.164189,0.04465 2.770874,0.789121 0.596362,0.731811 1.049741,1.977044 0.209901,2.824291 -0.839552,0.846872 0,0 1.253565,-0.15301 1.4608,-0.178302 2.120894,0.274291 2.734485,1.000258 0.762628,0.902311 0.768364,2.478155 -0.314803,3.530275 -0.955074,0.927697 -2.308696,2.965179 -1.574113,3.671163 1.050254,1.13408 5.682266,4.867509 6.666779,5.435907 0.984513,0.568405 7.506641,0.666034 2.298943,-0.917562 0.963953,-1.657723 2.718866,-1.580705 3.727747,-1.602212 0.327222,-2.568537 3.393466,-1.913838 1.873752,-4.095589 v -1.4e-5 c -1.519721,-2.18175 -0.764809,-7.036118 2.462052,-5.789737 -0.902973,-2.080921 0.518202,-3.25144 1.863573,-2.465866 -0.408848,-1.731917 1.026862,-2.786219 2.357806,-1.281621 -0.326991,-1.931675 2.192176,-3.015077 3.092678,-1.184982 0.09462,-1.945242 2.457789,-2.883133 3.378823,-0.383269 0.687387,-2.093094 3.523091,-2.420563 3.771583,0.620666 1.108857,-1.722114 3.586022,-1.518346 3.121835,1.260345 2.198367,-0.982161 3.616645,0.86442 2.726351,3.13388 2.047036,-0.425618 3.843576,1.471417 2.018626,4.250657 3.94983,-1.409498 4.1477,3.899428 2.10889,6.459318 1.05444,0.62612 0.61817,0.60249 1.54838,1.071655 0.93059,0.46918 3.21161,0.878796 4.68973,1.046341 1.47812,0.167545 4.9502,0.0359 7.55825,-0.312644 2.60805,-0.348535 6.49117,-1.912256 10.92731,-2.394549 4.43616,-0.482299 54.62104,0.631423 56.13305,0.474895 1.51197,-0.156955 3.51959,-2.417478 3.40333,-4.138479 -0.11629,-1.721008 -1.85744,-2.96822 -3.60157,-3.124748 -1.74412,-0.156117 -10.69809,-0.156117 -12.32639,0.156528 -1.62783,0.312225 -3.85568,0.473067 -5.11606,2.190181 -1.26039,1.717107 -0.98236,2.097038 -1.96771,2.64432 -0.98531,0.547274 -2.62611,-0.16519 -2.93323,-0.09358 l -0.84733,0.197584 c -0.65324,0.25891 -2.24037,0.286593 -3.39719,0 l -0.0881,-0.09004 c -2.37592,0.637953 -5.63034,0.465842 -6.2423,0.152735 -0.44695,-0.327238 0.43193,-0.73499 -0.80429,-0.130268 -0.78243,0.334043 -4.023,0.595496 -4.25558,-0.04703 -0.0311,-0.506103 -0.39833,-0.258087 -0.85546,-0.114143 -2.94568,0.570298 -3.43473,-0.444813 -4.9301,-0.153928 -1.49535,0.290885 2.69939,-2.87023 2.01905,-2.799779 -0.93903,0.09725 -3.10028,0.21641 -8.72147,0.903691 -5.62116,0.687273 -14.12694,1.536984 -19.00392,-0.623346 -1.65682,-0.733913 -3.04124,-2.725824 -2.9943,-4.537309 0.0561,-2.164289 2.02722,-4.065586 3.85344,-5.22844 2.93134,-1.86652 6.48726,-2.08842 10.22097,-2.054387 3.23067,0.02948 7.17185,0.851236 9.82408,0.490051 2.65226,-0.361184 3.41262,-2.047826 7.96796,-2.502818 4.55537,-0.454984 8.63233,1.469748 11.14867,3.965219 -0.69166,0.170529 0.32917,0.02817 0.32917,0.02817 3.42099,-1.428498 5.95668,-2.688764 10.92674,-1.443994 -1.08548,3.43886 -8.27924,7.048934 -12.05699,7.601128 -3.77772,0.552187 -6.43345,0.24111 -9.014,0.01979 -1.16317,-0.08477 -3.64967,0.491821 -8.66771,-1.613576 -5.01801,-2.10539 -7.93803,-3.236985 -11.96993,-3.289086 -3.3473,-0.04327 -8.88707,0.867771 -8.88999,4.129925 -0.003,3.262147 7.04308,2.605959 9.74695,2.651227 2.70387,0.0453 12.61669,-1.065869 19.48181,-1.852057 2.32592,0 1.52637,0.248782 4.77239,0.24962 3.24598,7.23e-4 5.30133,-0.32041 7.9841,-1.30109 2.68273,-0.98068 2.35669,-1.173958 4.91559,-1.173958 2.55845,0 21.54187,-0.710889 24.09991,-0.554361 3.70315,-0.02471 7.05855,3.874916 6.82699,7.254984 -0.23154,3.380068 -1.24639,4.741257 -1.78378,5.380475 2.97485,0.01943 7.74224,0.08626 7.74224,3.773437 -2.91228,-1.719065 -5.70577,-1.409606 -7.20562,-1.409606 -0.38534,0.0043 -42.20468,-0.04212 -41.26607,-0.04782 8.85534,1.017242 15.24447,9.881099 17.31275,11.441028 2.06828,1.559936 5.23318,1.407944 6.62807,1.0953 1.39528,-0.313064 3.02356,-1.72142 4.18675,-2.81672 1.13893,-1.167543 2.21582,-1.550436 3.61532,-1.18832 1.3995,0.362109 2.64982,2.113785 1.62073,3.416797 0,0 0.74192,-0.1109 1.97338,-0.1109 4.69463,-0.05527 3.69348,2.419298 3.69348,2.419298 0,0 3.24131,0.190367 2.33921,3.857629 l 0.0163,0.0823 c 1.91613,0.22937 2.99614,1.7818 3.09171,3.059686 l -0.003,0.657307 c 0.81176,0.768431 1.53365,4.272193 -0.65029,4.85928 -0.24431,0.06567 -0.75847,0.02861 -0.75847,0.02861 0.20695,1.094462 0.61164,3.488273 -2.0317,4.196034 -2.64335,0.707762 -4.40172,-0.98047 -4.63465,-2.388834 -0.46384,-2.464775 -0.10281,2.915917 -3.30014,3.566802 -3.01937,0.652979 -4.62456,-1.02144 -4.85668,-1.803676 -0.23298,-0.782655 0.14112,-0.76479 -1.27859,-0.313902 -1.41972,0.450889 -3.12582,-0.606556 -3.25654,-2.033645 -0.13073,-1.427082 0.22708,-2.538485 2.29863,-2.734045 0.25537,-0.292894 0.48939,0.487905 -0.094,-0.888202 -0.58335,-1.376108 0.4889,-2.888306 2.07508,-3.040217 1.58618,-0.151912 4.80191,1.888228 5.72074,2.125581 0,0 1.37415,-0.8126 -0.74612,-2.2046 -2.12026,-1.392001 -6.83436,-2.606523 -10.64963,-2.489649 -3.81528,0.116874 -12.06514,2.602044 -14.54532,2.501901 -1.77179,-0.07152 -7.23426,-0.238516 -9.13164,-5.943491 -1.54139,-5.824377 -6.81323,-8.12873 -9.81083,-8.870908 -3.79753,-0.991907 -6.20425,-1.257398 -10.00236,-0.674552 z"
         fill="#fcd41c"
         stroke="#080808"
         stroke-width="0.901151"
         id="path14" />
      <path
         d="m 81.862971,39.22215 c 0.524712,0.835074 2.52301,1.448292 3.420999,0.548596 0.678818,-0.680143 1.021696,-0.590331 1.298399,0.388015 0.286174,1.011716 2.03939,0.504616 1.995091,1.2404 -0.11824,1.96404 -0.881012,3.692799 -1.854883,5.701434 -1.494718,3.08287 -6.216182,2.152435 -5.679658,0.333437 0.734871,-2.491513 0.576949,-6.870943 0.698317,-7.038054 z"
         fill="#085d98"
         stroke="#080808"
         stroke-width="0.948758"
         id="path16" />
      <path
         d="m 192.55517,67.414959 c -0.50582,-1.361363 -2.02367,-1.702124 -2.02367,-1.702124"
         fill="none"
         stroke="#080808"
         stroke-linecap="round"
         stroke-width="0.817682"
         id="path18" />
      <path
         d="m 96.698385,44.99392 c 1.146792,1.91339 1.483846,4.368153 0.188481,5.943686"
         fill="none"
         stroke="#080808"
         stroke-linecap="round"
         stroke-width="0.523316"
         id="path20" />
      <path
         d="m 92.142011,49.137499 c 1.870711,1.973807 2.532444,3.778024 2.059971,6.321508"
         fill="none"
         stroke="#080808"
         stroke-linecap="round"
         stroke-width="0.523316"
         id="path22" />
      <path
         d="m 92.117578,50.870637 c 0.660014,1.428151 1.438868,2.824782 0.843084,5.75691"
         fill="none"
         stroke="#080808"
         stroke-linecap="round"
         stroke-width="0.523316"
         id="path24" />
      <path
         d="m 87.453345,52.061485 c 0.482826,1.52013 0.663916,4.026286 -1.146791,6.172276"
         fill="none"
         stroke="#080808"
         stroke-linecap="round"
         stroke-width="0.523316"
         id="path26" />
      <path
         d="m 85.015834,57.595692 c 1.242007,-1.348431 1.645698,-3.530564 1.376421,-5.246522"
         fill="none"
         stroke="#080808"
         stroke-linecap="round"
         stroke-width="0.523316"
         id="path28" />
      <path
         d="m 75.431674,47.39 c -1.479237,0.481764 -3.307715,2.552369 -3.209516,2.683295"
         fill="none"
         stroke="#080808"
         stroke-linecap="round"
         stroke-width="0.523316"
         id="path30" />
      <path
         d="m 76.540393,50.058564 c -1.835189,-1.234201 -3.899171,0.925761 -3.899171,0.925761"
         fill="none"
         stroke="#080808"
         stroke-linecap="round"
         stroke-width="0.523316"
         id="path32" />
      <path
         d="m 76.441963,28.696812 c 1.291211,0.886317 0.774894,3.545244 0.774894,3.545244 m 24.574453,0.334462 c -1.20976,0.53422 -1.03136,3.321566 -1.03136,3.321566"
         fill="none"
         stroke="#080808"
         stroke-linecap="round"
         stroke-width="0.654146"
         id="path34" />
      <path
         d="m 47.411203,27.132542 c 1.409732,0.420943 2.295099,1.600832 2.548295,2.716916 0.253166,1.116077 0.429929,1.75627 0.429929,1.75627"
         fill="none"
         stroke="#080808"
         stroke-linecap="round"
         stroke-width="0.901061"
         id="path36" />
      <path
         d="m 58.59794,26.121534 c -1.435169,1.304472 -1.115337,3.541127 -1.115337,3.541127"
         fill="none"
         stroke="#080808"
         stroke-linecap="round"
         stroke-width="0.901061"
         id="path38" />
      <path
         d="m 99.772251,61.455452 c 0.885249,-3.056349 4.367659,-5.450435 5.206899,-5.725831 0,0 0.90239,0.03366 -3.0083,2.848348 -1.01244,0.681096 -1.974987,2.225941 -1.26044,3.218237"
         fill="none"
         stroke="#080808"
         stroke-width="0.901061"
         id="path40" />
      <path
         d="m 94.862596,50.146115 c 4.973908,8.192788 -3.610714,9.16672 -5.303318,7.971668"
         fill="none"
         stroke="#080808"
         stroke-linecap="round"
         stroke-width="0.901061"
         id="path42" />
      <path
         d="m 101.99341,39.458268 c 3.04606,1.283759 2.93264,4.160989 3.49098,5.769985 -0.93391,0.119735 -1.69329,-0.214611 -2.50847,-0.575095"
         fill="none"
         stroke="#080808"
         stroke-width="0.901061"
         id="path44" />
      <path
         d="m 99.472951,49.402557 c 0,2.723556 -1.935534,3.840674 -2.820815,4.181435"
         fill="none"
         stroke="#080808"
         stroke-linecap="round"
         stroke-width="0.764614"
         id="path46" />
      <path
         d="m 54.46971,23.828184 c 0.07791,1.098804 -0.149687,1.471641 -0.529581,2.433552 -0.379468,0.961918 0.126352,2.646155 0.126352,2.646155"
         fill="none"
         stroke="#080808"
         stroke-linecap="round"
         stroke-width="0.901061"
         id="path48" />
      <path
         d="m 183.17664,52.677469 c -2.40809,0.336694 -3.334,1.025203 -3.333,1.024654"
         fill="none"
         stroke="#080808"
         stroke-linecap="round"
         stroke-width="0.817682"
         id="path50" />
      <path
         d="m 188.4965,55.003264 c -1.77099,0.680259 -3.2807,0.710882 -3.2807,0.710882"
         fill="none"
         stroke="#080808"
         stroke-linecap="round"
         stroke-width="0.817682"
         id="path52" />
      <path
         d="m 190.73942,58.963008 c -1.51831,-0.169121 -2.32962,-0.122401 -2.32962,-0.122401"
         fill="none"
         stroke="#080808"
         stroke-linecap="round"
         stroke-width="0.817682"
         id="path54" />
      <path
         d="m 193.97772,62.726143 c -0.79336,-0.549868 -3.36545,-0.205047 -3.42692,-0.147845"
         fill="none"
         stroke="#080808"
         stroke-linecap="round"
         stroke-width="0.817682"
         id="path56" />
      <path
         d="m 177.64476,70.581666 c 0.37987,-2.042452 2.00693,-2.884795 3.39803,-2.884795"
         fill="none"
         stroke="#080808"
         stroke-linecap="round"
         stroke-width="0.817682"
         id="path58" />
      <path
         d="m 175.63531,66.068565 c 1.12623,-0.17245 2.75066,-0.06762 2.75066,-0.06762"
         fill="none"
         stroke="#080808"
         stroke-linecap="round"
         stroke-width="0.817682"
         id="path60" />
      <path
         d="m 71.753529,39.540848 c -2.826009,1.844934 -3.779494,3.847305 -3.214558,7.753401"
         fill="none"
         stroke="#080808"
         stroke-linecap="round"
         stroke-width="0.901061"
         id="path62" />
      <path
         d="m 89.974809,49.135079 c 1.464499,3.362874 1.666345,9.116779 -3.3572,10.993434"
         fill="none"
         stroke="#080808"
         stroke-linecap="round"
         stroke-width="0.894962"
         id="path64" />
      <path
         d="m 85.045223,52.040925 c -0.253514,2.389086 -1.935484,6.825631 -5.211658,7.482534"
         fill="none"
         stroke="#080808"
         stroke-linecap="round"
         stroke-width="0.901061"
         id="path66" />
      <path
         d="m 160.52594,34.717177 c 0.63301,-1.872921 2.79439,-3.528318 2.79439,-3.528318"
         fill="none"
         stroke="#080808"
         stroke-linecap="round"
         stroke-width="0.817682"
         id="path68" />
      <path
         d="m 156.55438,34.700322 c 1.26561,-2.212836 3.16817,-3.668063 3.16817,-3.668063"
         fill="none"
         stroke="#080808"
         stroke-linecap="round"
         stroke-width="0.817682"
         id="path70" />
      <path
         d="m 149.92384,34.682334 c 1.92433,-1.076315 2.73131,-1.795837 4.06567,-3.625224"
         fill="none"
         stroke="#080808"
         stroke-linecap="round"
         stroke-width="0.817682"
         id="path72" />
      <path
         d="m 144.75918,34.615611 c 1.15129,-0.505497 1.75585,-0.947868 2.52797,-1.570859 0.75583,-0.609873 1.19539,-1.218705 2.02608,-2.093839"
         fill="none"
         stroke="#080808"
         stroke-linecap="round"
         stroke-width="0.817682"
         id="path74" />
      <path
         d="m 145.91185,28.7052 c -4.40674,-0.403115 -5.91536,-2.019855 -6.6125,-2.923358"
         fill="none"
         stroke="#080808"
         stroke-linecap="round"
         stroke-width="0.901061"
         id="path76" />
      <path
         d="m 153.92876,22.34757 c -2.96189,1.20063 -4.14629,-0.01546 -4.3994,-0.01546"
         fill="none"
         stroke="#080808"
         stroke-linecap="round"
         stroke-width="0.901061"
         id="path78" />
      <path
         d="m 76.981469,58.139427 c 2.414285,-1.119726 2.874203,-3.753476 2.874203,-3.753476"
         fill="none"
         stroke="#080808"
         stroke-linecap="round"
         stroke-width="0.901061"
         id="path80" />
      <path
         d="m 75.906126,45.795626 c -2.228932,-0.340755 -7.86721,4.407207 -6.048369,10.310907"
         fill="none"
         stroke="#080808"
         stroke-linecap="round"
         stroke-width="0.97511"
         id="path82" />
      <path
         d="m 72.364194,43.192217 c -3.16622,0.600719 -4.717446,5.61613 -2.782483,8.564166"
         fill="none"
         stroke="#080808"
         stroke-linecap="round"
         stroke-width="0.981218"
         id="path84" />
      <path
         d="m 100.63526,41.012403 c 2.09254,2.782729 2.88925,4.484434 3.01013,5.453411 0.19732,1.683658 0.41467,4.978827 -4.531029,4.911685 0.383196,-1.275994 0.732235,-3.698652 -0.05902,-5.009235"
         fill="none"
         stroke="#080808"
         stroke-linecap="round"
         stroke-width="0.823098"
         id="path86" />
      <path
         d="m 91.534177,28.854951 c -0.402484,0.01922 -0.663077,0.126627 -0.684497,0.528997 -0.0058,0.09097 -0.114367,0.405209 -0.159981,0.731212 -0.04559,0.326002 -0.03359,0.677354 0.0072,1.071749 0.209843,0.935058 1.41653,1.057813 1.640742,0.28798 0.129191,-0.482609 0.188401,-0.889581 0.182029,-1.28123 -0.0036,-0.195814 -0.03554,-0.431383 -0.07138,-0.607048 -0.10835,-0.453301 -0.461608,-0.740061 -0.913665,-0.731667 z"
         fill="#080808"
         id="path88" />
      <path
         d="m 84.154719,29.341751 c 0.1966,-0.630223 0.32668,-2.034317 -1.005868,-1.754868 -0.0112,0.0051 -0.02239,0.01047 -0.03395,0.01611 l -0.0029,0.0014 -0.0029,0.0014 c -0.3411,0.233199 -0.648889,0.916225 -0.734215,1.310995 -0.08527,0.39477 -0.400996,1.567247 0.710649,1.64412 l 0.0029,-1.81e-4 0.0029,-1.73e-4 c 0.0089,2.89e-4 0.02724,0.0014 0.02724,0.0014 0.540453,-0.12766 0.899158,-0.700638 1.035978,-1.220186 z"
         fill="#080808"
         id="path90" />
      <path
         d="m 98.405063,35.152605 h -1.973324 c -1.397206,2.469767 -5.319826,1.624232 -4.265592,2.09568"
         fill="none"
         stroke="#080808"
         stroke-linecap="round"
         stroke-width="0.901061"
         id="path92" />
      <path
         d="m 92.018895,37.12103 c 0.174726,3.258455 -5.711308,5.917765 -5.856241,0.845528"
         fill="none"
         stroke="#080808"
         stroke-linecap="round"
         stroke-width="0.901061"
         id="path94" />
      <path
         d="m 86.153769,37.937141 c -0.128881,2.38322 -3.331338,2.73973 -4.487767,0.696852 -0.899989,-1.361781 -1.622045,-1.093082 -2.204045,-1.857575 -0.632627,-0.831001 -0.576978,-1.459996 -1.308578,-2.846845"
         fill="none"
         stroke="#080808"
         stroke-linecap="round"
         stroke-width="0.908161"
         id="path96" />
      <path
         d="m 94.954366,36.734018 c -1.376017,3.70261 -0.329975,6.129386 -0.329975,6.129386"
         fill="none"
         stroke="#080808"
         stroke-linecap="round"
         stroke-width="0.901061"
         id="path98" />
      <path
         d="m 79.491924,37.504046 c -0.796777,1.239568 -1.492053,1.338122 -1.492053,1.338122"
         fill="none"
         stroke="#080808"
         stroke-linecap="round"
         stroke-width="0.654146"
         id="path100" />
      <path
         d="m 101.97271,37.179409 c 0,0 0.59998,0.479872 1.29067,0.41403 0.88382,-0.08425 1.63612,-0.151565 2.62955,0.252914 -0.55493,0.794489 -1.49859,1.591838 -2.62838,1.889139 -0.36154,0.09513 -1.05794,-0.253861 -1.23622,-0.328126"
         fill="#fcd41c"
         stroke="#080808"
         stroke-width="0.901061"
         id="path102" />
      <path
         d="m 48.387401,40.168615 c 1.343189,0.282722 2.135147,-0.547996 2.078177,-0.505258"
         fill="none"
         stroke="#080808"
         stroke-linecap="round"
         stroke-width="0.654146"
         id="path104" />
      <path
         d="m 49.322738,42.852495 c 2.375845,0.724746 4.10369,-0.667146 4.10369,-0.667146"
         fill="none"
         stroke="#080808"
         stroke-linecap="round"
         stroke-width="0.654146"
         id="path106" />
      <path
         d="m 52.328602,65.775729 c 1.498793,-0.621106 3.525902,-0.03915 3.525902,-0.03915"
         fill="#085d98"
         stroke="#080808"
         stroke-linecap="round"
         stroke-width="0.901061"
         id="path108" />
      <path
         d="m 57.559353,70.244827 c 0.759355,-1.361355 1.876216,-1.899036 1.876216,-1.899036"
         fill="#085d98"
         stroke="#080808"
         stroke-linecap="round"
         stroke-width="0.901061"
         id="path110" />
      <path
         d="m 71.347346,72.830464 c 1.005925,-0.384165 1.070524,-2.455976 1.02689,-3.8646"
         fill="none"
         stroke="#080808"
         stroke-linecap="round"
         stroke-width="0.817682"
         id="path112" />
      <path
         d="m 75.985289,72.337365 c 0.940958,-0.719819 0.631768,-3.352652 0.631768,-3.352652"
         fill="none"
         stroke="#080808"
         stroke-linecap="round"
         stroke-width="0.817682"
         id="path114" />
      <path
         d="m 79.677507,72.372366 c 0.850995,-0.90122 0.680885,-3.555878 0.680885,-3.555878"
         fill="none"
         stroke="#080808"
         stroke-linecap="round"
         stroke-width="0.915804"
         id="path116" />
      <path
         d="m 85.568785,72.316949 c 0.929493,-1.15628 0.536328,-3.634572 0.536328,-3.643595"
         fill="none"
         stroke="#080808"
         stroke-linecap="round"
         stroke-width="0.915804"
         id="path118" />
      <path
         d="m 125.71337,66.748701 c -2.6016,1.524494 -2.57387,2.784109 -2.54586,3.148299"
         fill="none"
         stroke="#080808"
         stroke-linecap="round"
         stroke-width="0.784975"
         id="path120" />
      <path
         d="m 129.5741,66.846084 c -0.25354,2.212836 -1.83634,3.648298 -1.83634,3.648298"
         fill="none"
         stroke="#080808"
         stroke-linecap="round"
         stroke-width="0.784975"
         id="path122" />
      <path
         d="m 132.79141,66.986827 c -0.08,2.10612 -1.59062,3.491192 -1.59062,3.491192"
         fill="none"
         stroke="#080808"
         stroke-linecap="round"
         stroke-width="0.784975"
         id="path124" />
      <path
         d="m 136.66859,67.022349 c -0.006,2.489815 -1.45383,3.515812 -1.45383,3.515812"
         fill="none"
         stroke="#080808"
         stroke-linecap="round"
         stroke-width="0.784975"
         id="path126" />
      <path
         d="m 140.83899,67.028497 c -0.10683,1.838626 -0.59151,2.860759 -1.35087,3.541017"
         fill="none"
         stroke="#080808"
         stroke-linecap="round"
         stroke-width="0.784975"
         id="path128" />
      <path
         d="m 145.10456,66.421933 c 0.37989,1.191823 -0.18689,2.426696 -0.18689,2.426696"
         fill="none"
         stroke="#080808"
         stroke-linecap="round"
         stroke-width="0.784975"
         id="path130" />
      <path
         d="m 119.77229,60.845919 c 2.12953,0.4564 2.77596,1.506303 2.77596,1.506303"
         fill="none"
         stroke="#080808"
         stroke-linecap="round"
         stroke-width="0.784975"
         id="path132" />
      <path
         d="m 117.60105,65.271374 c 1.36639,-2.633837 3.44579,-1.115867 4.0911,-0.453069"
         fill="none"
         stroke="#080808"
         stroke-linecap="round"
         stroke-width="0.784975"
         id="path134" />
      <path
         d="m 106.7164,59.923286 c -1.80976,0.721813 -2.66583,0.491402 -3.62849,-0.146891"
         fill="none"
         stroke="#080808"
         stroke-linecap="round"
         stroke-width="0.572377"
         id="path136" />
      <path
         d="m 109.14012,58.145213 c -1.87782,0.880306 -2.96656,0.825026 -3.94536,0.08286"
         fill="none"
         stroke="#080808"
         stroke-linecap="round"
         stroke-width="0.572377"
         id="path138" />
      <path
         d="m 112.37105,55.968043 c -1.2698,0.722225 -1.99305,0.969403 -2.62356,0.380213"
         fill="none"
         stroke="#080808"
         stroke-linecap="round"
         stroke-width="0.572377"
         id="path140" />
      <path
         d="m 114.61173,54.29111 c -1.55398,0.722225 -2.43923,0.969403 -3.21077,0.380206"
         fill="none"
         stroke="#080808"
         stroke-linecap="round"
         stroke-width="0.572377"
         id="path142" />
      <path
         d="m 88.937025,40.450044 c 0,0 -0.380097,1.545336 -0.328971,2.327167 0.05252,0.807283 0.648282,2.338777 0.648282,2.338777 0.607689,-0.561918 1.852189,-2.153893 2.347483,-6.276818 M 79.856018,37.030098 c 0,0 -0.52724,2.46359 -0.533828,3.653651 -0.0086,1.562168 0.738195,2.841846 0.738195,2.841846 0,0 1.420691,-1.354601 1.800636,-4.823701"
         fill="none"
         stroke="#080808"
         stroke-width="0.784975"
         id="path144" />
      <path
         d="m 50.807509,44.442968 c 2.096924,0.322629 3.395445,-0.645632 3.508295,-0.722361"
         fill="none"
         stroke="#080808"
         stroke-linecap="round"
         stroke-width="0.654146"
         id="path146" />
      <path
         d="m 59.887511,52.911131 c 0.01864,0.03381 2.040849,0.220181 3.317951,-2.15843"
         fill="none"
         stroke="#080808"
         stroke-linecap="round"
         stroke-width="0.752267"
         id="path148" />
      <path
         d="m 56.079257,49.956623 c 1.37679,0.277469 2.717776,0.378132 4.07722,-1.539333"
         fill="none"
         stroke="#080808"
         stroke-linecap="round"
         stroke-width="0.752267"
         id="path150" />
      <path
         d="m 52.81561,47.339343 c 0.237259,-0.04089 2.437403,1.543869 4.793829,-1.23548"
         fill="none"
         stroke="#080808"
         stroke-linecap="round"
         stroke-width="0.752267"
         id="path152" />
      <path
         d="m 93.942365,30.545813 c 0.06285,1.84697 -4.445107,1.37584 -4.767366,0.102281 -0.453669,-1.540214 2.660227,-1.904873 3.967548,-1.397274 0.68894,0.2675 0.776129,0.820272 0.799818,1.294985 z"
         fill="none"
         stroke="#080808"
         stroke-width="0.829457"
         id="path154" />
      <path
         d="m 85.655469,29.233142 c -0.37259,-1.856254 -3.336308,-2.038724 -4.335985,-1.495879 -0.139117,0.07557 -0.328804,0.334123 -0.390904,0.463748 -0.588277,1.897215 2.733799,2.288647 3.544938,2.268622"
         fill="none"
         stroke="#080808"
         stroke-width="0.829457"
         id="path156" />
      <path
         d="m 84.27285,33.349558 c 0,0 -0.594729,-2.1145 1.057246,-3.568224 1.651925,-1.453718 1.916246,-3.832532 1.916246,-3.832532"
         fill="none"
         stroke="#080808"
         stroke-linecap="round"
         stroke-width="0.915804"
         id="path158" />
      <path
         d="m 88.567909,33.547792 c 0,0 0.726875,-0.859016 0.198233,-2.577048 -0.528612,-1.718032 1.255488,-3.23783 1.255488,-3.23783"
         fill="none"
         stroke="#080808"
         stroke-linecap="round"
         stroke-width="0.915804"
         id="path160" />
      <path
         d="m 87.821543,33.404079 c 2.913452,0.315629 2.126891,2.946389 0.179248,2.214513 0.179256,2.896454 -3.395041,2.531354 -3.089036,0.312225 -1.803186,0.617675 -2.756736,-2.427816 0.09066,-2.461698"
         fill="none"
         stroke="#080808"
         stroke-linecap="round"
         stroke-width="0.901061"
         id="path162" />
    </g>
    <use
       height="100%"
       transform="translate(0,63.896873)"
       width="100%"
       xlink:href="#a"
       id="use165" />
  </g>
</svg>
