<?xml version="1.0" encoding="UTF-8" standalone="no"?>
<svg
   version="1.1"
   viewBox="0 0 902.01538 888.63477"
   id="svg125"
   sodipodi:docname="afu.svg"
   width="902.01538"
   height="888.63477"
   inkscape:version="1.4 (86a8ad7, 2024-10-11)"
   xmlns:inkscape="http://www.inkscape.org/namespaces/inkscape"
   xmlns:sodipodi="http://sodipodi.sourceforge.net/DTD/sodipodi-0.dtd"
   xmlns="http://www.w3.org/2000/svg"
   xmlns:svg="http://www.w3.org/2000/svg">
  <defs
     id="defs125" />
  <sodipodi:namedview
     id="namedview125"
     pagecolor="#ffffff"
     bordercolor="#000000"
     borderopacity="0.25"
     inkscape:showpageshadow="2"
     inkscape:pageopacity="0.0"
     inkscape:pagecheckerboard="true"
     inkscape:deskcolor="#d1d1d1"
     inkscape:zoom="0.80664062"
     inkscape:cx="451.25424"
     inkscape:cy="457.45278"
     inkscape:window-width="1920"
     inkscape:window-height="1051"
     inkscape:window-x="-9"
     inkscape:window-y="-9"
     inkscape:window-maximized="1"
     inkscape:current-layer="svg125" />
  <g
     stroke-width="2"
     fill="none"
     stroke-linecap="butt"
     id="g66"
     transform="translate(-60.519995,-55.122529)">
    <path
       stroke="#8294a4"
       vector-effect="non-scaling-stroke"
       d="M 567.05,59.49 Q 535.9,55.88 510,56.14 484.37,56.39 459.01,58.98 C 378.21,67.24 300.25,98.9 236.15,147.67 126.17,231.34 61.5,361.03 61.52,499.25 q 0.02,92.38 37.77,176.92 26.17,58.61 65.68,105.37 42.53,50.34 97.64,86.61 c 58.66,38.61 126.64,63.08 196.5,71.49 q 33.9,4.08 70.63,2.82 80.3,-2.76 153.97,-33.28 c 56.65,-23.47 108.05,-58.87 151.28,-102.44 42.28,-42.63 74.79,-94.68 96.96,-150.77 Q 960.88,582.75 961.52,502.71 962.47,385.47 904.7,283.19 868.68,219.41 816.8,172.57 C 747.59,110.09 659.36,70.2 567.05,59.49"
       id="path1" />
    <path
       stroke="#808c92"
       vector-effect="non-scaling-stroke"
       d="m 387.56,886.95 q 86.29,26.8 175.66,15.74 c 40.72,-5.05 80.41,-16.2 117.87,-32.79 q 14.84,-6.57 33.92,-17.34 Q 816.02,795.6 872.62,695.15 C 917.44,615.6 933.96,523.47 919.28,433.51 908.89,369.81 881.81,307.87 842.7,256.41 Q 788.92,185.63 709.66,142.99 657.64,115.01 599.24,102.55 537.7,89.43 475.51,94.3 399.99,100.21 332.72,132.72 298.61,149.2 268.66,170.66 148.94,256.42 111.2,399.2 c -10.13,38.35 -14.28,80.09 -12.1,120.81 4.3,80.39 32.72,157.63 81.31,221.82 q 50.58,66.81 123.25,108.5 40.15,23.03 83.9,36.62"
       id="path2" />
    <path
       stroke="#808c92"
       vector-effect="non-scaling-stroke"
       d="m 243.98,218.47 q -45.89,41.79 -75.58,95.44 -50.32,90.93 -47.86,193.8 c 2.24,93.7 39.12,184.15 103.51,252.25 52.06,55.07 120.66,95.02 194.96,112.73 q 47.59,11.34 93.21,11.26 c 101.07,-0.18 198.03,-39.34 271.42,-109.31 54.25,-51.71 93.01,-118.87 109.45,-191.51 q 22.37,-98.91 -6.38,-193.91 C 872.82,343.34 849.55,298.92 819.6,262.14 q -77.55,-95.24 -195.84,-130.4 -38.33,-11.39 -78.52,-14.77 -10.5,-0.88 -25.75,-1.08 -16.69,-0.21 -25.74,0.18 -40.17,1.74 -80.05,11.37 c -62.93,15.21 -122.08,47.65 -169.72,91.03"
       id="path3" />
    <path
       stroke="#808c92"
       vector-effect="non-scaling-stroke"
       d="M 526.41,146.8 506,146.08 a 0.61,0.6 -87.1 0 0 -0.62,0.57 q -2.05,31.77 -3.31,52.33 c -0.7,11.27 4.47,22.72 14.43,28.03 19.87,10.59 49.67,4.58 52.79,-21.42 q 3.04,-25.39 5.83,-53.83 a 0.78,0.78 0 0 0 -0.71,-0.85 l -20.28,-1.78 a 0.66,0.65 -84.8 0 0 -0.71,0.6 q -4.19,46.94 -4.47,50.26 c -0.78,9.48 -6.03,13.19 -15.35,11.84 -6.93,-1 -10.86,-6.62 -10.37,-13.57 q 1.42,-20.16 4.08,-50.44 a 0.94,0.94 0 0 0 -0.9,-1.02"
       id="path4" />
    <path
       stroke="#808c92"
       vector-effect="non-scaling-stroke"
       d="m 450.99,184.15 a 0.51,0.51 0 0 1 -0.57,-0.43 l -2,-14.24 a 0.51,0.51 0 0 1 0.44,-0.58 l 31.41,-4.4 a 0.51,0.51 0 0 0 0.43,-0.59 l -3.11,-17.13 a 0.51,0.51 0 0 0 -0.57,-0.41 l -51.45,7.2 a 0.51,0.51 0 0 0 -0.44,0.58 l 11.37,81.25 a 0.51,0.51 0 0 0 0.58,0.44 l 19.88,-2.79 a 0.51,0.51 0 0 0 0.44,-0.58 l -4.32,-30.81 a 0.51,0.51 0 0 1 0.44,-0.58 l 27.06,-3.79 a 0.51,0.51 0 0 0 0.44,-0.58 l -2.23,-15.93 a 0.51,0.51 0 0 0 -0.58,-0.44 l -27.22,3.81"
       id="path5" />
    <path
       stroke="#808c92"
       vector-effect="non-scaling-stroke"
       d="m 641.36,257.66 -4.97,-35.5 a 0.62,0.61 81.3 0 1 0.5,-0.69 c 12.02,-2.02 21.18,-12.3 22.78,-24.21 1.72,-12.84 -5.27,-22.93 -17.05,-27.35 q -14.78,-5.54 -37.28,-12.6 a 0.42,0.41 -71.8 0 0 -0.52,0.27 l -25.9,77.92 a 0.61,0.6 -71.7 0 0 0.38,0.77 l 18.78,6.24 a 1.03,1.02 -71.4 0 0 1.29,-0.65 l 7.98,-24.03 a 1.24,1.24 0 0 1 1.57,-0.79 l 5.75,1.92 a 1.99,1.98 6.7 0 1 1.36,1.72 l 2.51,28.72 a 1.56,1.56 0 0 0 1.06,1.36 l 21.48,7.13 a 0.21,0.21 0 0 0 0.28,-0.23"
       id="path6" />
    <path
       stroke="#808c92"
       vector-effect="non-scaling-stroke"
       d="m 398.1,248.13 -29.67,-19.97 a 0.35,0.35 0 0 1 -0.1,-0.48 q 9.5,-14.66 0.01,-29.5 -9.42,-14.72 -26.75,-12.03 -3.18,0.5 -6.81,2.37 c -10.04,5.19 -17.03,9.46 -33.05,19.09 a 0.4,0.4 0 0 0 -0.15,0.54 l 38.57,72.28 a 0.78,0.78 0 0 0 1.1,0.3 l 17.18,-10.52 a 0.33,0.33 0 0 0 0.12,-0.43 L 345.8,245.9 a 0.55,0.55 0 0 1 0.23,-0.75 L 351,242.5 a 2.98,2.96 48.9 0 1 3.17,0.23 l 23.11,16.95 a 1.12,1.1 47.7 0 0 1.21,0.07 l 19.6,-11.32 a 0.18,0.18 0 0 0 0.01,-0.3"
       id="path7" />
    <path
       stroke="#808c92"
       vector-effect="non-scaling-stroke"
       d="m 647.36,262.06 16.76,11.28 a 1.19,1.18 -46.9 0 0 1.39,-0.05 l 11.12,-8.66 a 0.65,0.64 43.1 0 1 0.74,-0.02 l 22.06,14.84 a 1.19,1.18 26.6 0 1 0.46,1.36 l -4.59,13.84 a 1.03,1.01 26.6 0 0 0.4,1.17 l 17.79,11.97 a 0.55,0.54 24.7 0 0 0.83,-0.3 l 24.25,-85.1 a 0.25,0.24 25.2 0 0 -0.1,-0.27 L 718.7,208.39 a 1.13,1.13 0 0 0 -1.35,0.04 q -33.2,26.24 -70,52.89 a 0.45,0.45 0 0 0 0.01,0.74"
       id="path8" />
    <path
       stroke="#808c92"
       vector-effect="non-scaling-stroke"
       d="m 276.3887,227.375 a 0.51,0.51 0 0 0 -0.719,-0.0565 l -15.2994,13.0669 a 0.51,0.51 0 0 0 -0.0566,0.719 l 53.3976,62.5206 a 0.51,0.51 0 0 0 0.719,0.0565 l 15.2994,-13.0669 a 0.51,0.51 0 0 0 0.0566,-0.719 L 276.3887,227.375"
       id="path9" />
    <path
       stroke="#808c92"
       vector-effect="non-scaling-stroke"
       d="m 265.5,441.78 c -11.2,46.46 -8.87,94.65 6.02,139.91 a 0.39,0.38 75.5 0 1 -0.29,0.5 c -3.34,0.61 -7.98,1.73 -10.86,3.52 q -11.22,6.97 -11.69,19.57 -0.34,9.2 -0.16,51.71 c 0.06,15.05 11.63,24.97 26.28,24.95 q 125.18,-0.17 424.2,0.15 23.95,0.03 44,0.33 7.77,0.11 12.04,-1.11 13.01,-3.74 17.42,-15.32 1.71,-4.48 1.59,-16.51 -0.05,-4.86 -0.1,-36.24 -0.02,-10.81 -1.62,-15.34 -4.78,-13.47 -20.73,-16.25 a 0.7,0.7 0 0 1 -0.54,-0.9 q 13.05,-41.69 12.13,-85.24 -1.53,-71.97 -40.37,-130.88 C 678.64,297.61 602.44,256.01 523.09,252.38 q -47.36,-2.16 -91.66,11.74 c -73.8,23.15 -134.06,79.82 -158.9,153.7 a 0.73,0.72 -79.8 0 1 -0.71,0.5 q -14.72,-0.62 -27.23,0.5 c -4.32,0.39 -11.8,1.28 -14.04,4.74 -5.87,9.09 29.87,16.74 34.56,17.63 a 0.5,0.48 12.4 0 1 0.39,0.59"
       id="path10" />
    <path
       stroke="#808c92"
       vector-effect="non-scaling-stroke"
       d="m 767.91,305.94 a 0.3,0.3 0 0 1 -0.25,0.21 l -50.4,5.95 a 0.3,0.3 0 0 0 -0.2,0.48 l 13.98,17.96 a 0.3,0.3 0 0 0 0.28,0.12 l 29.72,-4.16 a 0.3,0.3 0 0 1 0.33,0.38 l -8.89,28.19 a 0.3,0.3 0 0 0 0.05,0.27 l 14.48,18.62 a 0.3,0.3 0 0 0 0.52,-0.09 l 15.62,-49.5 a 0.3,0.3 0 0 1 0.25,-0.21 l 41.48,-5.8 a 0.3,0.3 0 0 0 0.19,-0.5 l -14.34,-17 a 0.3,0.3 0 0 0 -0.27,-0.11 l -21.33,2.99 a 0.3,0.3 0 0 1 -0.33,-0.39 l 7.9,-23.78 a 0.3,0.3 0 0 0 -0.05,-0.28 l -15.12,-19.42 a 0.3,0.3 0 0 0 -0.52,0.1 l -13.1,45.97"
       id="path11" />
    <path
       stroke="#808c92"
       vector-effect="non-scaling-stroke"
       d="m 209.63,297.6 a 0.71,0.71 0 0 0 -0.03,0.75 l 43.22,74.86 a 0.71,0.71 0 0 0 1.16,0.1 l 12.81,-15.59 a 0.71,0.71 0 0 0 0.06,-0.81 l -8.19,-14.18 a 0.71,0.71 0 0 1 0.08,-0.82 l 17.5,-20.04 a 0.71,0.71 0 0 1 0.8,-0.2 l 14.11,5.53 a 0.71,0.71 0 0 0 0.8,-0.2 l 13.45,-15.41 a 0.71,0.71 0 0 0 -0.28,-1.13 l -81.93,-32.02 a 0.71,0.71 0 0 0 -0.85,0.26 l -12.71,18.9"
       id="path12" />
    <path
       stroke="#808c92"
       vector-effect="non-scaling-stroke"
       d="m 435.97,818.05 a 0.48,0.48 0 0 0 0.46,0.35 h 26.85 a 0.48,0.48 0 0 0 0.45,-0.63 L 427.41,708.25 a 0.48,0.48 0 0 0 -0.46,-0.33 h -29.63 a 0.48,0.48 0 0 0 -0.46,0.33 l -36.39,109.53 a 0.48,0.48 0 0 0 0.46,0.63 h 26.26 a 0.48,0.48 0 0 0 0.46,-0.35 L 393,799.29 a 0.48,0.48 0 0 1 0.46,-0.35 h 36.71 a 0.48,0.48 0 0 1 0.46,0.35 l 5.34,18.76"
       id="path13" />
    <path
       stroke="#808c92"
       vector-effect="non-scaling-stroke"
       d="m 506.3,818.4 a 0.67,0.67 0 0 0 0.67,-0.67 v -41.22 a 0.67,0.67 0 0 1 0.67,-0.67 h 36.46 a 0.67,0.67 0 0 0 0.67,-0.67 v -21.51 a 0.67,0.67 0 0 0 -0.67,-0.67 h -36.44 a 0.67,0.67 0 0 1 -0.67,-0.67 v -20.75 a 0.67,0.67 0 0 1 0.67,-0.67 h 42.2 a 0.67,0.67 0 0 0 0.67,-0.67 v -21.62 a 0.67,0.67 0 0 0 -0.67,-0.67 h -68.18 a 0.67,0.67 0 0 0 -0.67,0.67 v 109.12 a 0.67,0.67 0 0 0 0.67,0.67 h 24.62"
       id="path14" />
    <path
       stroke="#808c92"
       vector-effect="non-scaling-stroke"
       d="m 612.31,819.84 c 10.18,0 19.43,-1.2 27.92,-7.06 10.27,-7.1 14.54,-19.37 14.64,-31.76 q 0.06,-7.95 0.01,-72.6 a 0.51,0.51 0 0 0 -0.51,-0.51 h -24.73 a 0.36,0.35 -90 0 0 -0.35,0.36 q -0.06,37.23 0.08,67.53 c 0.05,12.28 -3.19,20.4 -17.06,20.4 -13.86,0 -17.11,-8.13 -17.05,-20.41 q 0.15,-30.29 0.1,-67.52 a 0.36,0.35 -90 0 0 -0.35,-0.36 l -24.73,-0.01 a 0.51,0.51 0 0 0 -0.51,0.51 q -0.07,64.65 -0.01,72.6 c 0.09,12.39 4.36,24.66 14.63,31.76 8.49,5.86 17.74,7.06 27.92,7.07"
       id="path15" />
    <path
       stroke="#808c92"
       vector-effect="non-scaling-stroke"
       d="m 619.55,181.71 -5.67,16.83 a 0.54,0.54 0 0 0 0.34,0.69 l 10.66,3.58 a 10.24,7.65 18.6 0 0 12.14,-3.98 l 1.13,-3.36 a 10.24,7.65 18.6 0 0 -7.27,-10.51 l -10.65,-3.59 a 0.54,0.54 0 0 0 -0.68,0.34"
       id="path16" />
    <path
       stroke="#808c92"
       vector-effect="non-scaling-stroke"
       d="m 328.12,213.2 8.92,16.09 a 0.35,0.35 0 0 0 0.47,0.14 l 9.52,-5.28 a 10.11,7.79 -29 0 0 5.07,-11.71 l -1.71,-3.08 a 10.11,7.79 -29 0 0 -12.62,-1.91 l -9.52,5.27 a 0.35,0.35 0 0 0 -0.13,0.48"
       id="path17" />
    <path
       stroke="#808c92"
       vector-effect="non-scaling-stroke"
       d="M 715.01,235.37 A 0.34,0.34 0 0 0 714.48,235 l -22.34,17.38 a 0.34,0.34 0 0 0 0.02,0.55 l 13.54,9.1 a 0.34,0.34 0 0 0 0.51,-0.17 l 8.8,-26.49"
       id="path18" />
    <path
       stroke="#d98775"
       vector-effect="non-scaling-stroke"
       d="m 395.79,458.32 q -0.26,0.16 -0.79,0.21 -6.59,0.71 -15.75,0.42 c -18.77,-0.59 -38.15,-3.03 -56.32,-8.6 q -2.41,-0.74 -4.03,-0.75 a 0.51,0.51 0 0 0 -0.44,0.79 q 1.09,1.66 2.58,2.6 c 7.95,5.03 16.66,7.45 26.23,9.77 26.48,6.42 52.83,8.7 81.62,10.09 34.48,1.66 66.15,1.69 99.67,-1.49 3.51,-0.33 8.69,-1.29 11.48,-2.99 a 0.66,0.66 0 0 0 -0.32,-1.22 l -3.82,-0.14 a 2.69,2.62 55.8 0 1 -0.93,-0.19 c -9.31,-3.76 -11.15,-15.94 -9.59,-24.77 0.96,-5.47 4.29,-10.73 10.14,-11.71 18.53,-3.1 20.12,19.29 15.7,31.14 a 0.4,0.4 0 0 0 0.48,0.53 q 5.32,-1.47 9.73,-2.33 c 17.59,-3.42 35.97,-7.6 53.11,-10.72 q 18.14,-3.31 44.58,-9.6 c 19.27,-4.59 44.68,-10.93 56.3,-28.22 10.13,-15.06 -1.13,-35.07 -18.82,-34.75 q -8.86,0.16 -19.68,2.43 a 0.9,0.9 0 0 1 -1.07,-0.72 l -2.05,-11.26 a 0.65,0.64 -9 0 1 0.55,-0.75 q 4.61,-0.62 8.94,-1.41 c 4.86,-0.89 8.05,-1.96 9.98,3.21 a 1.7,1.69 -14 0 0 1.83,1.09 l 0.05,-0.01 a 1.19,1.18 76.4 0 0 0.95,-1.56 q -2.54,-7.25 -8.86,-11.94 c -8.96,-6.64 -19.97,-9.04 -30.74,-8.24 q -14.87,1.11 -30.47,4.32 -25.46,5.23 -50.5,11.02 -134.21,31.02 -140.91,32.58 c -12.28,2.86 -24.31,3.37 -33.44,-6.79 Q 384.2,369.48 367.76,351.52 c -3.06,-3.34 -7.8,-7.9 -11.87,-7.55 q -7.83,0.68 -15.75,3.94 c -1.88,0.77 -2.96,1.82 -2.65,3.84 q 0.54,3.44 0.8,4.74 4.84,24.74 12.08,63.45 a 1.28,1.27 -3.9 0 0 1.21,1.05 l 137.8,4.86 a 2.29,2.28 -73.3 0 1 1.87,3.47 l -0.75,1.24 a 7.09,7.07 -72.8 0 1 -6.44,3.41 q -25.74,-1.37 -50.55,-2.6 -16.27,-0.8 -51.7,-2.43 c -35.7,-1.63 -66.94,-3.42 -99.06,-3.87 q -27.68,-0.4 -35.25,0.18 -1.92,0.14 -3.32,0.74 a 0.52,0.52 0 0 0 -0.07,0.91 q 2.55,1.65 6.07,2.7 c 11.35,3.36 23.95,6.06 36.21,7.99 22.05,3.47 42.74,6.77 62.1,10.52 q 14.65,2.82 47.17,9.47 a 0.4,0.4 0 0 1 0.13,0.74"
       id="path19" />
    <path
       stroke="#d98775"
       vector-effect="non-scaling-stroke"
       d="m 536.6502,434.2797 a 14.54,10.04 -96 0 0 -8.4652,15.5098 14.54,10.04 -96 0 0 11.5048,13.4108 14.54,10.04 -96 0 0 8.4652,-15.5098 14.54,10.04 -96 0 0 -11.5048,-13.4108"
       id="path20" />
    <path
       stroke="#d98775"
       vector-effect="non-scaling-stroke"
       d="m 682.19,449.55 q 16.21,-3.74 28.38,-7.76 2.81,-0.92 4.8,-2.53 a 0.92,0.92 0 0 0 -0.15,-1.54 q -1.07,-0.55 -2.59,-0.61 -14.01,-0.61 -31.07,2.63 a 0.81,0.8 -8.3 0 0 -0.65,0.86 l 0.74,8.55 a 0.45,0.44 80.9 0 0 0.54,0.4"
       id="path21" />
    <path
       stroke="#d98775"
       vector-effect="non-scaling-stroke"
       d="m 673.5,443.27 -22,5.29 a 0.26,0.26 0 0 0 -0.19,0.31 l 0.83,3.46 a 13.92,11.09 76.5 0 0 14.03,10.95 l 0.94,-0.23 a 13.92,11.09 76.5 0 0 7.53,-16.12 l -0.83,-3.46 a 0.26,0.26 0 0 0 -0.31,-0.2"
       id="path22" />
    <path
       stroke="#d98775"
       vector-effect="non-scaling-stroke"
       d="m 669.53,463.86 q -1.57,0.44 -3.04,0.85 c -9.44,2.66 -15.82,-6.82 -16.68,-15 A 0.69,0.69 0 0 0 649,449.1 l -43.38,7.91 a 0.61,0.61 0 0 0 -0.37,0.98 c 5.81,7.28 15.85,10.51 24.99,11.47 q 14.67,1.55 27.7,-0.55 6.33,-1.02 10.79,-3.38 0.98,-0.52 1.2,-1.27 a 0.33,0.32 0.8 0 0 -0.4,-0.4"
       id="path23" />
    <path
       stroke="#808c92"
       vector-effect="non-scaling-stroke"
       d="m 313.32,555.84 q 8.43,-0.02 9.03,-0.02 a 1.08,1.07 -8.2 0 1 1.02,0.76 l 3.07,10.32 a 1.58,1.56 -8.1 0 0 1.51,1.12 h 13.93 a 0.44,0.44 0 0 0 0.42,-0.59 L 321.7,507 a 0.97,0.97 0 0 0 -0.9,-0.66 q -3.34,-0.08 -7.57,-0.07 -4.24,0.01 -7.58,0.1 a 0.97,0.97 0 0 0 -0.9,0.66 l -20.36,60.51 a 0.44,0.44 0 0 0 0.42,0.59 l 13.93,-0.05 a 1.58,1.56 7.9 0 0 1.51,-1.13 l 3.03,-10.33 a 1.08,1.07 8 0 1 1.01,-0.76 q 0.6,-0.01 9.03,-0.02"
       id="path24" />
    <path
       stroke="#808c92"
       vector-effect="non-scaling-stroke"
       d="m 364.38,506.97 a 0.64,0.64 0 0 0 -0.64,-0.64 h -13.1 a 0.64,0.64 0 0 0 -0.64,0.64 v 60.42 a 0.64,0.64 0 0 0 0.64,0.64 h 13.1 a 0.64,0.64 0 0 0 0.64,-0.64 v -60.42"
       id="path25" />
    <path
       stroke="#808c92"
       vector-effect="non-scaling-stroke"
       d="m 425.87,568.13 a 0.42,0.42 0 0 0 0.36,-0.65 l -13.69,-22.46 a 0.59,0.59 0 0 1 0.24,-0.84 q 5.95,-2.98 8.5,-8.57 c 2.48,-5.46 2.35,-13.57 -0.4,-18.98 q -4.88,-9.65 -16.97,-10.11 -4.56,-0.18 -24.53,-0.03 a 0.47,0.46 -0.5 0 0 -0.46,0.46 l -0.13,60.45 a 0.59,0.58 0.1 0 0 0.59,0.58 l 13.15,0.03 a 0.52,0.52 0 0 0 0.52,-0.52 l 0.04,-20.32 a 0.72,0.72 0 0 1 0.72,-0.72 l 3.4,0.01 a 1.41,1.4 75.9 0 1 1.23,0.74 l 10.48,19.76 a 2.16,2.15 -13.9 0 0 1.9,1.14 l 15.05,0.03"
       id="path26" />
    <path
       stroke="#808c92"
       vector-effect="non-scaling-stroke"
       d="m 494.37,545.07 a 0.59,0.59 0 0 0 0.59,-0.59 v -11.14 a 0.59,0.59 0 0 0 -0.59,-0.59 h -18.51 a 0.59,0.59 0 0 1 -0.59,-0.59 V 519.8 a 0.59,0.59 0 0 1 0.59,-0.59 h 21.34 a 0.59,0.59 0 0 0 0.59,-0.59 V 507 a 0.59,0.59 0 0 0 -0.59,-0.59 h -35.57 a 0.59,0.59 0 0 0 -0.59,0.59 v 60.47 a 0.59,0.59 0 0 0 0.59,0.59 h 13.33 a 0.59,0.59 0 0 0 0.59,-0.59 v -21.81 a 0.59,0.59 0 0 1 0.59,-0.59 h 18.23"
       id="path27" />
    <path
       stroke="#808c92"
       vector-effect="non-scaling-stroke"
       d="m 532.45,569.2 c 9.85,0 18.96,-3.5 22.25,-13.3 q 1.44,-4.28 1.32,-17.53 -0.08,-7.82 -0.02,-31.66 a 0.45,0.45 0 0 0 -0.45,-0.45 h -13.49 a 0.45,0.45 0 0 0 -0.45,0.45 q 0.2,19.5 -0.05,39.3 c -0.08,6.3 -2.49,10.21 -9.11,10.21 -6.62,0.01 -9.04,-3.9 -9.12,-10.2 q -0.26,-19.8 -0.08,-39.3 a 0.45,0.45 0 0 0 -0.45,-0.45 h -13.49 a 0.45,0.45 0 0 0 -0.45,0.45 q 0.08,23.84 0,31.66 -0.11,13.25 1.33,17.54 c 3.3,9.79 12.42,13.28 22.26,13.28"
       id="path28" />
    <path
       stroke="#808c92"
       vector-effect="non-scaling-stroke"
       d="m 617.27,568.11 a 0.43,0.42 74.1 0 0 0.36,-0.65 l -13.8,-22.53 a 0.59,0.59 0 0 1 0.24,-0.84 q 5.97,-3.01 8.52,-8.63 c 2.48,-5.49 2.33,-13.63 -0.44,-19.06 q -4.93,-9.68 -17.07,-10.11 -4.58,-0.17 -24.63,0.02 a 0.47,0.46 -0.6 0 0 -0.46,0.46 v 60.71 a 0.59,0.58 0 0 0 0.59,0.58 h 13.21 a 0.52,0.52 0 0 0 0.52,-0.52 v -20.41 a 0.72,0.72 0 0 1 0.72,-0.72 h 3.41 a 1.41,1.41 0 0 1 1.24,0.74 l 10.57,19.82 a 2.17,2.16 -14 0 0 1.91,1.14 h 15.11"
       id="path29" />
    <path
       stroke="#808c92"
       vector-effect="non-scaling-stroke"
       d="m 650.01,555.9 q 8.42,-0.03 9.02,-0.03 a 1.08,1.07 -8.3 0 1 1.02,0.76 l 3.08,10.3 a 1.58,1.56 -8.2 0 0 1.51,1.12 l 13.91,-0.01 a 0.44,0.44 0 0 0 0.42,-0.59 L 658.32,507.1 a 0.97,0.97 0 0 0 -0.9,-0.66 q -3.33,-0.07 -7.56,-0.06 -4.23,0.02 -7.57,0.11 a 0.97,0.97 0 0 0 -0.89,0.67 l -20.28,60.47 a 0.44,0.44 0 0 0 0.43,0.58 l 13.91,-0.07 a 1.58,1.56 7.8 0 0 1.5,-1.12 l 3.02,-10.33 a 1.08,1.07 7.9 0 1 1.01,-0.76 q 0.6,-0.01 9.02,-0.03"
       id="path30" />
    <path
       stroke="#808c92"
       vector-effect="non-scaling-stroke"
       d="m 707.62,550.12 q 0.23,0 0.43,0.36 8.55,15.86 8.74,16.21 a 2.54,2.52 -13.3 0 0 2.26,1.38 l 15.8,-0.05 a 0.4,0.4 0 0 0 0.34,-0.61 L 716.5,536.9 a 1.23,1.23 0 0 1 0,-1.28 l 17.41,-28.77 a 0.42,0.42 0 0 0 -0.36,-0.64 h -15.74 a 1.78,1.77 13.9 0 0 -1.57,0.94 q -3.84,7.34 -8.5,16.13 -0.05,0.09 -0.21,0.09 -0.17,0 -0.21,-0.08 -4.72,-8.77 -8.61,-16.08 a 1.78,1.77 -14.3 0 0 -1.58,-0.93 l -15.74,0.11 a 0.42,0.42 0 0 0 -0.35,0.64 l 17.6,28.65 a 1.23,1.23 0 0 1 0.01,1.28 l -18.48,30.64 a 0.4,0.4 0 0 0 0.34,0.6 l 15.8,-0.05 a 2.54,2.52 12.9 0 0 2.25,-1.4 q 0.19,-0.35 8.63,-16.26 0.19,-0.37 0.43,-0.37"
       id="path31" />
    <path
       stroke="#d98775"
       vector-effect="non-scaling-stroke"
       d="M 764.64,607.21 A 16.26,16.26 0 0 0 748.38,590.95 H 274.46 a 16.26,16.26 0 0 0 -16.26,16.26 v 49.54 a 16.26,16.26 0 0 0 16.26,16.26 h 473.92 a 16.26,16.26 0 0 0 16.26,-16.26 v -49.54"
       id="path32" />
    <path
       stroke="#808c92"
       vector-effect="non-scaling-stroke"
       d="m 248.53,326.79 a 0.33,0.33 0 0 0 0.53,0.05 l 10.78,-12.45 a 0.33,0.33 0 0 0 -0.12,-0.52 L 234.25,302.7 a 0.33,0.33 0 0 0 -0.41,0.48 l 14.69,23.61"
       id="path33" />
    <path
       stroke="#d98775"
       vector-effect="non-scaling-stroke"
       d="m 673.3,379.16 -2,-12.07 a 0.27,0.27 0 0 0 -0.31,-0.22 l -19.67,3.25 a 5.49,5.31 80.6 0 0 -4.35,6.29 l 0.3,1.77 a 5.49,5.31 80.6 0 0 6.13,4.55 l 19.68,-3.26 a 0.27,0.27 0 0 0 0.22,-0.31"
       id="path34" />
    <path
       stroke="#d98775"
       vector-effect="non-scaling-stroke"
       d="m 597.91,390.67 a 5.04,5.04 0 0 0 -5.04,-5.04 5.04,5.04 0 0 0 -5.04,5.04 5.04,5.04 0 0 0 5.04,5.04 5.04,5.04 0 0 0 5.04,-5.04"
       id="path35" />
    <path
       stroke="#d98775"
       vector-effect="non-scaling-stroke"
       d="m 580.57,394.16 a 4.94,4.94 0 0 0 -4.94,-4.94 4.94,4.94 0 0 0 -4.94,4.94 4.94,4.94 0 0 0 4.94,4.94 4.94,4.94 0 0 0 4.94,-4.94"
       id="path36" />
    <path
       stroke="#d98775"
       vector-effect="non-scaling-stroke"
       d="m 557.6917,393.0271 a 4.88,4.48 -94.8 0 0 -4.056,5.2378 4.88,4.48 -94.8 0 0 4.8726,4.488 4.88,4.48 -94.8 0 0 4.056,-5.2378 4.88,4.48 -94.8 0 0 -4.8726,-4.488"
       id="path37" />
    <path
       stroke="#d98775"
       vector-effect="non-scaling-stroke"
       d="m 541.2345,396.7851 a 4.65,4.34 -99.6 0 0 -3.5037,5.3087 4.65,4.34 -99.6 0 0 5.0547,3.8611 4.65,4.34 -99.6 0 0 3.5037,-5.3087 4.65,4.34 -99.6 0 0 -5.0547,-3.8611"
       id="path38" />
    <path
       stroke="#d98775"
       vector-effect="non-scaling-stroke"
       d="m 524.6051,400.0106 a 4.74,4.45 -99.9 0 0 -3.5688,5.4345 4.74,4.45 -99.9 0 0 5.1986,3.9043 4.74,4.45 -99.9 0 0 3.5688,-5.4345 4.74,4.45 -99.9 0 0 -5.1986,-3.9043"
       id="path39" />
    <path
       stroke="#d98775"
       vector-effect="non-scaling-stroke"
       d="m 508.2451,403.1389 a 4.78,4.39 -95.1 0 0 -3.9477,5.1513 4.78,4.39 -95.1 0 0 4.7975,4.3709 4.78,4.39 -95.1 0 0 3.9477,-5.1513 4.78,4.39 -95.1 0 0 -4.7975,-4.3709"
       id="path40" />
    <path
       stroke="#d98775"
       vector-effect="non-scaling-stroke"
       d="m 491.6599,406.5943 a 4.79,4.33 -97.8 0 0 -3.6398,5.3333 4.79,4.33 -97.8 0 0 4.94,4.1581 4.79,4.33 -97.8 0 0 3.6398,-5.3333 4.79,4.33 -97.8 0 0 -4.94,-4.1581"
       id="path41" />
    <path
       stroke="#d98775"
       vector-effect="non-scaling-stroke"
       d="m 474.9432,410.144 a 4.83,4.29 -100.7 0 0 -3.3186,5.5425 4.83,4.29 -100.7 0 0 5.1122,3.9495 4.83,4.29 -100.7 0 0 3.3186,-5.5425 4.83,4.29 -100.7 0 0 -5.1122,-3.9495"
       id="path42" />
    <path
       stroke="#d98775"
       vector-effect="non-scaling-stroke"
       d="m 458.8482,412.9178 a 4.91,4.49 -96.1 0 0 -3.9428,5.3593 4.91,4.49 -96.1 0 0 4.9864,4.4051 4.91,4.49 -96.1 0 0 3.9428,-5.3593 4.91,4.49 -96.1 0 0 -4.9864,-4.4051"
       id="path43" />
    <path
       stroke="#808c92"
       vector-effect="non-scaling-stroke"
       d="m 307.51,543.01 a 0.31,0.31 0 0 0 0.3,0.4 l 11.44,0.02 a 0.31,0.31 0 0 0 0.3,-0.4 l -5.69,-18.63 a 0.31,0.31 0 0 0 -0.59,0 l -5.76,18.61"
       id="path44" />
    <path
       stroke="#808c92"
       vector-effect="non-scaling-stroke"
       d="m 393.05,519.37 0.06,15.2 a 0.58,0.58 0 0 0 0.58,0.58 l 7.9,-0.03 a 7.08,6.99 -0.2 0 0 7.05,-7.02 v -2.38 a 7.08,6.99 -0.2 0 0 -7.11,-6.96 l -7.9,0.03 a 0.58,0.58 0 0 0 -0.58,0.58"
       id="path45" />
    <path
       stroke="#808c92"
       vector-effect="non-scaling-stroke"
       d="m 584.14,519.04 v 15.58 a 0.46,0.46 0 0 0 0.46,0.46 h 8.49 a 6.87,6.62 0 0 0 6.87,-6.62 v -3.26 a 6.87,6.62 0 0 0 -6.87,-6.62 h -8.49 a 0.46,0.46 0 0 0 -0.46,0.46"
       id="path46" />
    <path
       stroke="#808c92"
       vector-effect="non-scaling-stroke"
       d="m 644.19,543.07 a 0.31,0.31 0 0 0 0.29,0.4 l 11.24,-0.02 a 0.31,0.31 0 0 0 0.3,-0.4 l -5.65,-18.78 a 0.31,0.31 0 0 0 -0.6,0 l -5.58,18.8"
       id="path47" />
    <path
       stroke="#d98775"
       vector-effect="non-scaling-stroke"
       d="m 305.31,652.93 q 3.83,0.01 4.67,-0.15 a 1.23,1.23 0 0 0 0.95,-0.86 l 11.4,-39.21 a 0.18,0.18 0 0 0 -0.17,-0.23 h -9.39 a 0.38,0.38 0 0 0 -0.37,0.29 q -3.44,12.71 -6.79,25.5 -0.06,0.24 -0.25,0.24 -0.18,0 -0.24,-0.24 -3.25,-12.82 -6.59,-25.55 a 0.38,0.38 0 0 0 -0.37,-0.3 l -9.39,-0.07 a 0.18,0.18 0 0 0 -0.17,0.23 l 11.09,39.3 a 1.23,1.23 0 0 0 0.94,0.87 q 0.84,0.16 4.68,0.18"
       id="path48" />
    <path
       stroke="#d98775"
       vector-effect="non-scaling-stroke"
       d="m 336.65,613.17 a 0.79,0.79 0 0 0 -0.79,-0.79 h -7.78 a 0.79,0.79 0 0 0 -0.79,0.79 v 38.92 a 0.79,0.79 0 0 0 0.79,0.79 h 7.78 a 0.79,0.79 0 0 0 0.79,-0.79 v -38.92"
       id="path49" />
    <path
       stroke="#d98775"
       vector-effect="non-scaling-stroke"
       d="m 375.17,652.84 -8.74,-15.15 a 0.56,0.56 0 0 1 0.19,-0.76 q 6.4,-3.95 6.17,-11.69 c -0.33,-10.98 -7.28,-13.17 -16.93,-12.97 q -0.62,0.02 -10.31,0.04 a 0.48,0.48 0 0 0 -0.48,0.48 v 39.26 a 0.88,0.87 90 0 0 0.87,0.88 h 7.79 a 0.69,0.69 0 0 0 0.69,-0.69 v -12.76 a 0.7,0.69 88.7 0 1 0.66,-0.7 q 1.25,-0.06 1.94,0.23 a 2.1,2.04 -1.7 0 1 1.02,0.93 l 6.77,12.78 a 0.29,0.27 76 0 0 0.25,0.16 h 10.09 a 0.03,0.02 75.1 0 0 0.02,-0.04"
       id="path50" />
    <path
       stroke="#d98775"
       vector-effect="non-scaling-stroke"
       d="m 391.64,652.91 q 3.81,0.01 4.24,-0.08 a 0.58,0.57 -5.7 0 0 0.46,-0.56 l 0.06,-30.31 a 0.49,0.49 0 0 1 0.49,-0.49 h 8.4 a 0.71,0.71 0 0 0 0.71,-0.71 v -7.66 a 0.75,0.75 0 0 0 -0.75,-0.75 q -6.63,0.04 -13.52,0.01 -6.9,0 -13.52,-0.07 a 0.75,0.75 0 0 0 -0.75,0.75 l -0.04,7.66 a 0.71,0.71 0 0 0 0.71,0.71 l 8.4,0.04 a 0.49,0.49 0 0 1 0.49,0.49 l -0.07,30.31 a 0.58,0.57 5.9 0 0 0.46,0.56 q 0.42,0.09 4.23,0.1"
       id="path51" />
    <path
       stroke="#d98775"
       vector-effect="non-scaling-stroke"
       d="m 426.51,654.07 c 8.13,0.02 14.05,-3.87 14.56,-12.37 q 0.68,-11.35 0.27,-28.54 a 0.77,0.77 0 0 0 -0.77,-0.75 h -7.75 a 0.77,0.77 0 0 0 -0.77,0.76 q -0.02,19.6 -0.19,26.58 c -0.08,3.32 -1.91,5.48 -5.32,5.47 -3.4,-0.01 -5.22,-2.19 -5.28,-5.5 q -0.12,-6.99 -0.01,-26.59 a 0.77,0.77 0 0 0 -0.77,-0.76 l -7.75,-0.05 a 0.77,0.77 0 0 0 -0.77,0.74 q -0.52,17.19 0.08,28.55 c 0.45,8.5 6.35,12.43 14.47,12.46"
       id="path52" />
    <path
       stroke="#d98775"
       vector-effect="non-scaling-stroke"
       d="m 462.58,645.71 q 4.86,0.04 5.5,0.22 a 1.1,1.09 1.7 0 1 0.79,0.82 l 1.01,4.7 a 1.71,1.71 0 0 0 1.62,1.35 l 6.5,0.25 a 1.17,1.17 0 0 0 1.17,-1.49 l -10.82,-38.37 a 1.08,1.08 0 0 0 -0.97,-0.77 q -1.23,-0.09 -4.52,-0.11 -3.28,-0.03 -4.52,0.03 a 1.08,1.08 0 0 0 -0.98,0.76 l -11.47,38.18 a 1.17,1.17 0 0 0 1.15,1.51 l 6.51,-0.14 a 1.71,1.71 0 0 0 1.64,-1.33 l 1.09,-4.67 a 1.1,1.09 -0.7 0 1 0.79,-0.82 q 0.65,-0.16 5.51,-0.12"
       id="path53" />
    <path
       stroke="#d98775"
       vector-effect="non-scaling-stroke"
       d="m 494.37,613.07 a 0.76,0.76 0 0 0 -0.76,-0.76 h -7.67 a 0.76,0.76 0 0 0 -0.76,0.76 v 39.09 a 0.76,0.76 0 0 0 0.76,0.76 h 21.11 a 0.76,0.76 0 0 0 0.76,-0.76 v -7.28 a 0.76,0.76 0 0 0 -0.76,-0.76 h -11.92 a 0.76,0.76 0 0 1 -0.76,-0.76 v -30.29"
       id="path54" />
    <path
       stroke="#d98775"
       vector-effect="non-scaling-stroke"
       d="m 542.63,645.81 q 4.86,0.03 5.5,0.21 a 1.1,1.09 1.6 0 1 0.78,0.82 l 1.02,4.68 a 1.71,1.71 0 0 0 1.62,1.35 l 6.49,0.23 a 1.17,1.17 0 0 0 1.17,-1.49 l -10.9,-38.27 a 1.08,1.07 -6.3 0 0 -0.97,-0.77 q -1.23,-0.08 -4.51,-0.1 -3.28,-0.02 -4.51,0.04 a 1.08,1.07 7 0 0 -0.98,0.76 l -11.35,38.14 a 1.17,1.17 0 0 0 1.15,1.51 l 6.49,-0.16 a 1.71,1.71 0 0 0 1.64,-1.33 l 1.07,-4.66 a 1.1,1.09 -0.9 0 1 0.8,-0.82 q 0.64,-0.16 5.49,-0.14"
       id="path55" />
    <path
       stroke="#d98775"
       vector-effect="non-scaling-stroke"
       d="m 574.59,613.16 a 0.77,0.77 0 0 0 -0.77,-0.77 h -7.72 a 0.77,0.77 0 0 0 -0.77,0.77 v 38.94 a 0.77,0.77 0 0 0 0.77,0.77 h 7.72 a 0.77,0.77 0 0 0 0.77,-0.77 v -38.94"
       id="path56" />
    <path
       stroke="#d98775"
       vector-effect="non-scaling-stroke"
       d="m 612.92,652.86 -8.66,-15.13 a 0.56,0.55 -31 0 1 0.19,-0.76 q 6.4,-3.91 6.19,-11.63 c -0.29,-10.95 -7.21,-13.15 -16.83,-12.99 q -0.61,0.02 -10.27,0 a 0.48,0.48 0 0 0 -0.48,0.48 l -0.14,39.14 a 0.88,0.87 -89.8 0 0 0.86,0.88 l 7.77,0.03 a 0.69,0.69 0 0 0 0.69,-0.69 l 0.04,-12.72 a 0.7,0.69 88.9 0 1 0.66,-0.69 q 1.25,-0.06 1.94,0.23 a 2.1,2.03 -1.5 0 1 1.01,0.93 l 6.7,12.77 a 0.29,0.27 76.2 0 0 0.25,0.16 l 10.06,0.03 a 0.03,0.02 75.3 0 0 0.02,-0.04"
       id="path57" />
    <path
       stroke="#d98775"
       vector-effect="non-scaling-stroke"
       d="M 618.96,612.97 618.73,652 a 0.86,0.86 0 0 0 0.85,0.85 l 20.71,0.04 a 0.91,0.9 -89.4 0 0 0.91,-0.9 l 0.02,-6.92 a 0.88,0.87 0.6 0 0 -0.87,-0.88 l -11.58,-0.08 a 0.82,0.82 0 0 1 -0.81,-0.83 l 0.15,-30.22 a 0.64,0.64 0 0 0 -0.63,-0.64 l -7.93,-0.04 a 0.6,0.6 0 0 0 -0.59,0.59"
       id="path58" />
    <path
       stroke="#d98775"
       vector-effect="non-scaling-stroke"
       d="m 675.73,634.5 q 4.15,7.97 9.19,17.26 a 2.18,2.17 75.6 0 0 1.91,1.14 h 6.94 a 0.55,0.55 0 0 0 0.55,-0.55 v -39.34 a 0.67,0.67 0 0 0 -0.67,-0.67 h -7.87 a 0.65,0.65 0 0 0 -0.65,0.65 v 21.21 a 0.26,0.26 0 0 1 -0.48,0.13 q -0.7,-1.24 -1.95,-3.63 -4.15,-7.97 -9.19,-17.26 a 2.18,2.17 75.6 0 0 -1.91,-1.14 h -6.94 a 0.55,0.55 0 0 0 -0.55,0.55 v 39.34 a 0.67,0.67 0 0 0 0.67,0.67 h 7.87 a 0.65,0.65 0 0 0 0.65,-0.65 V 631 a 0.26,0.26 0 0 1 0.48,-0.12 q 0.7,1.24 1.95,3.62"
       id="path59" />
    <path
       stroke="#d98775"
       vector-effect="non-scaling-stroke"
       d="m 727.85,644.7 a 0.5,0.5 0 0 0 -0.5,-0.5 h -14.77 a 0.5,0.5 0 0 1 -0.5,-0.5 v -6.33 a 0.5,0.5 0 0 1 0.5,-0.5 h 11.58 a 0.5,0.5 0 0 0 0.5,-0.5 v -7.69 a 0.5,0.5 0 0 0 -0.5,-0.5 H 712.6 a 0.5,0.5 0 0 1 -0.5,-0.5 v -6.18 a 0.5,0.5 0 0 1 0.5,-0.5 h 13.57 a 0.5,0.5 0 0 0 0.5,-0.5 v -7.73 a 0.5,0.5 0 0 0 -0.5,-0.5 h -22.64 a 0.5,0.5 0 0 0 -0.5,0.5 v 39.54 a 0.5,0.5 0 0 0 0.5,0.5 h 23.82 a 0.5,0.5 0 0 0 0.5,-0.5 v -7.61"
       id="path60" />
    <path
       stroke="#d98775"
       vector-effect="non-scaling-stroke"
       d="m 655.92,613.21 a 0.81,0.81 0 0 0 -0.81,-0.81 h -7.54 a 0.81,0.81 0 0 0 -0.81,0.81 v 38.84 a 0.81,0.81 0 0 0 0.81,0.81 h 7.54 a 0.81,0.81 0 0 0 0.81,-0.81 v -38.84"
       id="path61" />
    <path
       stroke="#d98775"
       vector-effect="non-scaling-stroke"
       d="m 354.43,621.38 0.08,8.56 a 0.36,0.36 0 0 0 0.36,0.36 l 4.67,-0.04 a 4.13,4 -0.5 0 0 4.1,-4.04 l -0.02,-1.28 a 4.13,4 -0.5 0 0 -4.16,-3.96 l -4.67,0.04 a 0.36,0.36 0 0 0 -0.36,0.36"
       id="path62" />
    <path
       stroke="#d98775"
       vector-effect="non-scaling-stroke"
       d="m 458.92,637.53 a 0.34,0.34 0 0 0 0.32,0.44 l 6.62,0.02 a 0.34,0.34 0 0 0 0.33,-0.43 l -3.26,-12.09 a 0.34,0.34 0 0 0 -0.66,0 l -3.35,12.06"
       id="path63" />
    <path
       stroke="#d98775"
       vector-effect="non-scaling-stroke"
       d="m 539.14,637.59 a 0.31,0.31 0 0 0 0.3,0.39 l 6.43,0.02 a 0.31,0.31 0 0 0 0.3,-0.39 l -3.2,-12.06 a 0.31,0.31 0 0 0 -0.6,0 l -3.23,12.04"
       id="path64" />
    <path
       stroke="#d98775"
       vector-effect="non-scaling-stroke"
       d="m 592.29,621.64 -0.06,8.14 a 0.66,0.66 0 0 0 0.66,0.66 l 4.75,0.04 a 4.01,3.93 -89.6 0 0 3.95,-3.99 l 0.01,-1.44 a 4.01,3.93 -89.6 0 0 -3.9,-4.03 l -4.75,-0.04 a 0.66,0.66 0 0 0 -0.66,0.66"
       id="path65" />
    <path
       stroke="#808c92"
       vector-effect="non-scaling-stroke"
       d="m 399.89,776.37 a 0.32,0.32 0 0 0 0.31,0.41 l 22.92,0.12 a 0.32,0.32 0 0 0 0.31,-0.41 L 412.17,737.8 a 0.32,0.32 0 0 0 -0.61,-0.01 l -11.67,38.58"
       id="path66" />
  </g>
  <path
     fill="#052b4e"
     d="M 506.53,4.3674709 C 598.84,15.077471 687.07,54.967471 756.28,117.44747 q 51.88,46.84 87.9,110.62 57.77,102.28 56.82,219.52 -0.64,80.04 -29.57,153.26 c -22.17,56.09 -54.68,108.14 -96.96,150.77 -43.23,43.57 -94.63,78.97 -151.28,102.44 q -73.67,30.52 -153.97,33.28 -36.73,1.26 -70.63,-2.82 c -69.86,-8.41 -137.84,-32.88 -196.5,-71.49 q -55.11,-36.27 -97.64,-86.61 -39.509995,-46.76 -65.679995,-105.37 -37.7500004,-84.54 -37.7700004,-176.92 c -0.02,-138.22 64.6500004,-267.91 174.6299954,-351.579999 64.1,-48.77 142.06,-80.43 222.86,-88.6900001 q 25.36,-2.59 50.99,-2.84 25.9,-0.25999998 57.05,3.35 z M 327.04,831.82747 q 86.29,26.8 175.66,15.74 c 40.72,-5.05 80.41,-16.2 117.87,-32.79 q 14.84,-6.57 33.92,-17.34 101.01,-56.96 157.61,-157.41 c 44.82,-79.55 61.34,-171.68 46.66,-261.64 -10.39,-63.7 -37.47,-125.64 -76.58,-177.1 q -53.78,-70.78 -133.04,-113.419999 -52.02,-27.98 -110.42,-40.44 -61.54,-13.12 -123.73,-8.25 -75.52,5.91 -142.79,38.42 -34.11,16.48 -64.06,37.939999 -119.719995,85.76 -157.459995,228.54 c -10.13,38.35 -14.28,80.09 -12.1,120.81 4.3,80.39 32.72,157.63 81.309995,221.82 q 50.58,66.81 123.25,108.5 40.15,23.03 83.9,36.62 z"
     id="path68" />
  <path
     fill="#faecd5"
     d="m 327.04,831.82747 q -43.75,-13.59 -83.9,-36.62 -72.67,-41.69 -123.25,-108.5 c -48.589995,-64.19 -77.009995,-141.43 -81.309995,-221.82 -2.18,-40.72 1.97,-82.46 12.1,-120.81 q 37.74,-142.78 157.459995,-228.54 29.95,-21.459999 64.06,-37.939999 67.27,-32.51 142.79,-38.42 62.19,-4.87 123.73,8.25 58.4,12.46 110.42,40.44 79.26,42.639999 133.04,113.419999 c 39.11,51.46 66.19,113.4 76.58,177.1 14.68,89.96 -1.84,182.09 -46.66,261.64 q -56.6,100.45 -157.61,157.41 -19.08,10.77 -33.92,17.34 c -37.46,16.59 -77.15,27.74 -117.87,32.79 q -89.37,11.06 -175.66,-15.74 z m -143.58,-668.48 q -45.89,41.79 -75.58,95.44 -50.319995,90.93 -47.859995,193.8 c 2.24,93.7 39.12,184.15 103.509995,252.25 52.06,55.07 120.66,95.02 194.96,112.73 q 47.59,11.34 93.21,11.26 c 101.07,-0.18 198.03,-39.34 271.42,-109.31 54.25,-51.71 93.01,-118.87 109.45,-191.51 q 22.37,-98.91 -6.38,-193.91 c -13.89,-45.88 -37.16,-90.3 -67.11,-127.08 q -77.55,-95.24 -195.84,-130.399999 -38.33,-11.39 -78.52,-14.77 -10.5,-0.88 -25.75,-1.08 -16.69,-0.21 -25.74,0.18 -40.17,1.74 -80.05,11.37 c -62.93,15.21 -122.08,47.649999 -169.72,91.029999 z"
     id="path69" />
  <path
     fill="#052b4e"
     d="m 183.46,163.34747 c 47.64,-43.38 106.79,-75.819999 169.72,-91.029999 q 39.88,-9.63 80.05,-11.37 9.05,-0.39 25.74,-0.18 15.25,0.2 25.75,1.08 40.19,3.38 78.52,14.77 118.29,35.159999 195.84,130.399999 c 29.95,36.78 53.22,81.2 67.11,127.08 q 28.75,95 6.38,193.91 c -16.44,72.64 -55.2,139.8 -109.45,191.51 -73.39,69.97 -170.35,109.13 -271.42,109.31 q -45.62,0.08 -93.21,-11.26 c -74.3,-17.71 -142.9,-57.66 -194.96,-112.73 -64.389995,-68.1 -101.269995,-158.55 -103.509995,-252.25 q -2.46,-102.87 47.859995,-193.8 29.69,-53.65 75.58,-95.44 z m 282.43,-71.669999 -20.41,-0.72 a 0.6,0.61 2.9 0 0 -0.62,0.57 q -2.05,31.769999 -3.31,52.329999 c -0.7,11.27 4.47,22.72 14.43,28.03 19.87,10.59 49.67,4.58 52.79,-21.42 q 3.04,-25.39 5.83,-53.829999 a 0.78,0.78 0 0 0 -0.71,-0.85 l -20.28,-1.78 a 0.65,0.66 5.2 0 0 -0.71,0.6 q -4.19,46.939999 -4.47,50.259999 c -0.78,9.48 -6.03,13.19 -15.35,11.84 -6.93,-1 -10.86,-6.62 -10.37,-13.57 q 1.42,-20.16 4.08,-50.439999 a 0.94,0.94 0 0 0 -0.9,-1.02 z m -75.42,37.349999 a 0.51,0.51 0 0 1 -0.57,-0.43 l -2,-14.24 a 0.51,0.51 0 0 1 0.44,-0.58 l 31.41,-4.4 a 0.51,0.51 0 0 0 0.43,-0.59 l -3.11,-17.129999 a 0.51,0.51 0 0 0 -0.57,-0.41 l -51.45,7.2 a 0.51,0.51 0 0 0 -0.44,0.58 l 11.37,81.249999 a 0.51,0.51 0 0 0 0.58,0.44 l 19.88,-2.79 a 0.51,0.51 0 0 0 0.44,-0.58 l -4.32,-30.81 a 0.51,0.51 0 0 1 0.44,-0.58 l 27.06,-3.79 a 0.51,0.51 0 0 0 0.44,-0.58 l -2.23,-15.93 a 0.51,0.51 0 0 0 -0.58,-0.44 z m 190.37,73.51 -4.97,-35.5 a 0.62,0.61 81.3 0 1 0.5,-0.69 c 12.02,-2.02 21.18,-12.3 22.78,-24.21 1.72,-12.84 -5.27,-22.93 -17.05,-27.35 q -14.78,-5.54 -37.28,-12.6 a 0.41,0.42 18.2 0 0 -0.52,0.27 l -25.9,77.92 a 0.6,0.61 18.3 0 0 0.38,0.77 l 18.78,6.24 a 1.02,1.03 18.6 0 0 1.29,-0.65 l 7.98,-24.03 a 1.24,1.24 0 0 1 1.57,-0.79 l 5.75,1.92 a 1.99,1.98 6.7 0 1 1.36,1.72 l 2.51,28.72 a 1.56,1.56 0 0 0 1.06,1.36 l 21.48,7.13 a 0.21,0.21 0 0 0 0.28,-0.23 z m -243.26,-9.53 -29.67,-19.97 a 0.35,0.35 0 0 1 -0.1,-0.48 q 9.5,-14.66 0.01,-29.5 -9.42,-14.72 -26.75,-12.03 -3.18,0.5 -6.81,2.37 c -10.04,5.19 -17.03,9.46 -33.05,19.09 a 0.4,0.4 0 0 0 -0.15,0.54 l 38.57,72.28 a 0.78,0.78 0 0 0 1.1,0.3 l 17.18,-10.52 a 0.33,0.33 0 0 0 0.12,-0.43 l -12.75,-23.88 a 0.55,0.55 0 0 1 0.23,-0.75 l 4.97,-2.65 a 2.98,2.96 48.9 0 1 3.17,0.23 l 23.11,16.95 a 1.12,1.1 47.7 0 0 1.21,0.07 l 19.6,-11.32 a 0.18,0.18 0 0 0 0.01,-0.3 z m 249.26,13.93 16.76,11.28 a 1.18,1.19 43.1 0 0 1.39,-0.05 l 11.12,-8.66 a 0.65,0.64 43.1 0 1 0.74,-0.02 l 22.06,14.84 a 1.19,1.18 26.6 0 1 0.46,1.36 l -4.59,13.84 a 1.03,1.01 26.6 0 0 0.4,1.17 l 17.79,11.97 a 0.55,0.54 24.7 0 0 0.83,-0.3 l 24.25,-85.1 a 0.25,0.24 25.2 0 0 -0.1,-0.27 l -19.77,-13.73 a 1.13,1.13 0 0 0 -1.35,0.04 q -33.2,26.24 -70,52.89 a 0.45,0.45 0 0 0 0.01,0.74 z m -370.9713,-34.685 a 0.51,0.51 0 0 0 -0.719,-0.0565 l -15.2994,13.0669 a 0.51,0.51 0 0 0 -0.0566,0.719 l 53.3976,62.5206 a 0.51,0.51 0 0 0 0.719,0.0565 l 15.2994,-13.0669 a 0.51,0.51 0 0 0 0.0566,-0.719 z m -10.8887,214.405 c -11.2,46.46 -8.87,94.65 6.02,139.91 a 0.39,0.38 75.5 0 1 -0.29,0.5 c -3.34,0.61 -7.98,1.73 -10.86,3.52 q -11.22,6.97 -11.69,19.57 -0.34,9.2 -0.16,51.71 c 0.06,15.05 11.63,24.97 26.28,24.95 q 125.18,-0.17 424.2,0.15 23.95,0.03 44,0.33 7.77,0.11 12.04,-1.11 13.01,-3.74 17.42,-15.32 1.71,-4.48 1.59,-16.51 -0.05,-4.86 -0.1,-36.24 -0.02,-10.81 -1.62,-15.34 -4.78,-13.47 -20.73,-16.25 a 0.7,0.7 0 0 1 -0.54,-0.9 q 13.05,-41.69 12.13,-85.24 -1.53,-71.97 -40.37,-130.88 c -44.18,-67.02 -120.38,-108.62 -199.73,-112.25 q -47.36,-2.16 -91.66,11.74 c -73.8,23.15 -134.06,79.82 -158.9,153.7 a 0.72,0.73 10.2 0 1 -0.71,0.5 q -14.72,-0.62 -27.23,0.5 c -4.32,0.39 -11.8,1.28 -14.04,4.74 -5.87,9.09 29.87,16.74 34.56,17.63 a 0.5,0.48 12.4 0 1 0.39,0.59 z m 502.41,-135.84 a 0.3,0.3 0 0 1 -0.25,0.21 l -50.4,5.95 a 0.3,0.3 0 0 0 -0.2,0.48 l 13.98,17.96 a 0.3,0.3 0 0 0 0.28,0.12 l 29.72,-4.16 a 0.3,0.3 0 0 1 0.33,0.38 l -8.89,28.19 a 0.3,0.3 0 0 0 0.05,0.27 l 14.48,18.62 a 0.3,0.3 0 0 0 0.52,-0.09 l 15.62,-49.5 a 0.3,0.3 0 0 1 0.25,-0.21 l 41.48,-5.8 a 0.3,0.3 0 0 0 0.19,-0.5 l -14.34,-17 a 0.3,0.3 0 0 0 -0.27,-0.11 l -21.33,2.99 a 0.3,0.3 0 0 1 -0.33,-0.39 l 7.9,-23.78 a 0.3,0.3 0 0 0 -0.05,-0.28 l -15.12,-19.42 a 0.3,0.3 0 0 0 -0.52,0.1 z m -558.28,-8.34 a 0.71,0.71 0 0 0 -0.03,0.75 l 43.22,74.86 a 0.71,0.71 0 0 0 1.16,0.1 l 12.81,-15.59 a 0.71,0.71 0 0 0 0.06,-0.81 l -8.19,-14.18 a 0.71,0.71 0 0 1 0.08,-0.82 l 17.5,-20.04 a 0.71,0.71 0 0 1 0.8,-0.2 l 14.11,5.53 a 0.71,0.71 0 0 0 0.8,-0.2 l 13.45,-15.41 a 0.71,0.71 0 0 0 -0.28,-1.13 l -81.93,-32.02 a 0.71,0.71 0 0 0 -0.85,0.26 z m 226.34,520.45 a 0.48,0.48 0 0 0 0.46,0.35 h 26.85 a 0.48,0.48 0 0 0 0.45,-0.63 l -36.32,-109.52 a 0.48,0.48 0 0 0 -0.46,-0.33 H 336.8 a 0.48,0.48 0 0 0 -0.46,0.33 l -36.39,109.53 a 0.48,0.48 0 0 0 0.46,0.63 h 26.26 a 0.48,0.48 0 0 0 0.46,-0.35 l 5.35,-18.77 a 0.48,0.48 0 0 1 0.46,-0.35 h 36.71 a 0.48,0.48 0 0 1 0.46,0.35 z m 70.33,0.35 a 0.67,0.67 0 0 0 0.67,-0.67 v -41.22 a 0.67,0.67 0 0 1 0.67,-0.67 h 36.46 a 0.67,0.67 0 0 0 0.67,-0.67 v -21.51 a 0.67,0.67 0 0 0 -0.67,-0.67 h -36.44 a 0.67,0.67 0 0 1 -0.67,-0.67 v -20.75 a 0.67,0.67 0 0 1 0.67,-0.67 h 42.2 a 0.67,0.67 0 0 0 0.67,-0.67 v -21.62 a 0.67,0.67 0 0 0 -0.67,-0.67 h -68.18 a 0.67,0.67 0 0 0 -0.67,0.67 v 109.12 a 0.67,0.67 0 0 0 0.67,0.67 z m 106.01,1.44 c 10.18,0 19.43,-1.2 27.92,-7.06 10.27,-7.1 14.54,-19.37 14.64,-31.76 q 0.06,-7.95 0.01,-72.6 a 0.51,0.51 0 0 0 -0.51,-0.51 h -24.73 a 0.35,0.36 0 0 0 -0.35,0.36 q -0.06,37.23 0.08,67.53 c 0.05,12.28 -3.19,20.4 -17.06,20.4 -13.86,0 -17.11,-8.13 -17.05,-20.41 q 0.15,-30.29 0.1,-67.52 a 0.35,0.36 0 0 0 -0.35,-0.36 l -24.73,-0.01 a 0.51,0.51 0 0 0 -0.51,0.51 q -0.07,64.65 -0.01,72.6 c 0.09,12.39 4.36,24.66 14.63,31.76 8.49,5.86 17.74,7.06 27.92,7.07 z"
     id="path70" />
  <path
     fill="#faecd5"
     d="m 465.89,91.677471 a 0.94,0.94 0 0 1 0.9,1.02 q -2.66,30.279999 -4.08,50.439999 c -0.49,6.95 3.44,12.57 10.37,13.57 9.32,1.35 14.57,-2.36 15.35,-11.84 q 0.28,-3.32 4.47,-50.259999 a 0.65,0.66 5.2 0 1 0.71,-0.6 l 20.28,1.78 a 0.78,0.78 0 0 1 0.71,0.85 q -2.79,28.439999 -5.83,53.829999 c -3.12,26 -32.92,32.01 -52.79,21.42 -9.96,-5.31 -15.13,-16.76 -14.43,-28.03 q 1.26,-20.56 3.31,-52.329999 a 0.6,0.61 2.9 0 1 0.62,-0.57 z"
     id="path71" />
  <path
     fill="#faecd5"
     d="m 390.47,129.02747 27.22,-3.81 a 0.51,0.51 0 0 1 0.58,0.44 l 2.23,15.93 a 0.51,0.51 0 0 1 -0.44,0.58 l -27.06,3.79 a 0.51,0.51 0 0 0 -0.44,0.58 l 4.32,30.81 a 0.51,0.51 0 0 1 -0.44,0.58 l -19.88,2.79 a 0.51,0.51 0 0 1 -0.58,-0.44 L 364.61,99.027471 a 0.51,0.51 0 0 1 0.44,-0.58 l 51.45,-7.2 a 0.51,0.51 0 0 1 0.57,0.41 l 3.11,17.129999 a 0.51,0.51 0 0 1 -0.43,0.59 l -31.41,4.4 a 0.51,0.51 0 0 0 -0.44,0.58 l 2,14.24 a 0.51,0.51 0 0 0 0.57,0.43 z"
     id="path72" />
  <path
     fill="#faecd5"
     d="m 580.84,202.53747 a 0.21,0.21 0 0 1 -0.28,0.23 l -21.48,-7.13 a 1.56,1.56 0 0 1 -1.06,-1.36 l -2.51,-28.72 a 1.99,1.98 6.7 0 0 -1.36,-1.72 l -5.75,-1.92 a 1.24,1.24 0 0 0 -1.57,0.79 l -7.98,24.03 a 1.02,1.03 18.6 0 1 -1.29,0.65 l -18.78,-6.24 a 0.6,0.61 18.3 0 1 -0.38,-0.77 l 25.9,-77.92 a 0.41,0.42 18.2 0 1 0.52,-0.27 q 22.5,7.06 37.28,12.6 c 11.78,4.42 18.77,14.51 17.05,27.35 -1.6,11.91 -10.76,22.19 -22.78,24.21 a 0.62,0.61 81.3 0 0 -0.5,0.69 z m -21.81,-75.95 -5.67,16.83 a 0.54,0.54 0 0 0 0.34,0.69 l 10.66,3.58 a 10.24,7.65 18.6 0 0 12.14,-3.98 l 1.13,-3.36 a 10.24,7.65 18.6 0 0 -7.27,-10.51 l -10.65,-3.59 a 0.54,0.54 0 0 0 -0.68,0.34 z"
     id="path73" />
  <path
     fill="#052b4e"
     d="m 559.03,126.58747 a 0.54,0.54 0 0 1 0.68,-0.34 l 10.65,3.59 a 10.24,7.65 18.6 0 1 7.27,10.51 l -1.13,3.36 a 10.24,7.65 18.6 0 1 -12.14,3.98 l -10.66,-3.58 a 0.54,0.54 0 0 1 -0.34,-0.69 z"
     id="path74" />
  <path
     fill="#faecd5"
     d="m 337.58,193.00747 a 0.18,0.18 0 0 1 -0.01,0.3 l -19.6,11.32 a 1.12,1.1 47.7 0 1 -1.21,-0.07 l -23.11,-16.95 a 2.98,2.96 48.9 0 0 -3.17,-0.23 l -4.97,2.65 a 0.55,0.55 0 0 0 -0.23,0.75 l 12.75,23.88 a 0.33,0.33 0 0 1 -0.12,0.43 l -17.18,10.52 a 0.78,0.78 0 0 1 -1.1,-0.3 l -38.57,-72.28 a 0.4,0.4 0 0 1 0.15,-0.54 c 16.02,-9.63 23.01,-13.9 33.05,-19.09 q 3.63,-1.87 6.81,-2.37 17.33,-2.69 26.75,12.03 9.49,14.84 -0.01,29.5 a 0.35,0.35 0 0 0 0.1,0.48 z m -69.98,-34.93 8.92,16.09 a 0.35,0.35 0 0 0 0.47,0.14 l 9.52,-5.28 a 7.79,10.11 61 0 0 5.07,-11.71 l -1.71,-3.08 a 7.79,10.11 61 0 0 -12.62,-1.91 l -9.52,5.27 a 0.35,0.35 0 0 0 -0.13,0.48 z"
     id="path75" />
  <path
     fill="#052b4e"
     d="m 267.6,158.07747 a 0.35,0.35 0 0 1 0.13,-0.48 l 9.52,-5.27 a 7.79,10.11 61 0 1 12.62,1.91 l 1.71,3.08 a 7.79,10.11 61 0 1 -5.07,11.71 l -9.52,5.28 a 0.35,0.35 0 0 1 -0.47,-0.14 z"
     id="path76" />
  <path
     fill="#faecd5"
     d="m 586.84,206.93747 a 0.45,0.45 0 0 1 -0.01,-0.74 q 36.8,-26.65 70,-52.89 a 1.13,1.13 0 0 1 1.35,-0.04 l 19.77,13.73 a 0.25,0.24 25.2 0 1 0.1,0.27 l -24.25,85.1 a 0.55,0.54 24.7 0 1 -0.83,0.3 l -17.79,-11.97 a 1.03,1.01 26.6 0 1 -0.4,-1.17 l 4.59,-13.84 a 1.19,1.18 26.6 0 0 -0.46,-1.36 l -22.06,-14.84 a 0.65,0.64 43.1 0 0 -0.74,0.02 l -11.12,8.66 a 1.18,1.19 43.1 0 1 -1.39,0.05 z m 67.65,-26.69 a 0.34,0.34 0 0 0 -0.53,-0.37 l -22.34,17.38 a 0.34,0.34 0 0 0 0.02,0.55 l 13.54,9.1 a 0.34,0.34 0 0 0 0.51,-0.17 z"
     id="path77" />
  <rect
     fill="#faecd5"
     x="31.138777"
     y="270.66733"
     transform="rotate(-40.5)"
     width="21.139999"
     height="83.239998"
     rx="0.50999999"
     id="rect77" />
  <path
     fill="#052b4e"
     d="m 654.49,180.24747 -8.8,26.49 a 0.34,0.34 0 0 1 -0.51,0.17 l -13.54,-9.1 a 0.34,0.34 0 0 1 -0.02,-0.55 l 22.34,-17.38 a 0.34,0.34 0 0 1 0.53,0.37 z"
     id="path78" />
  <path
     fill="#faecd5"
     d="m 204.98,386.65747 a 0.5,0.48 12.4 0 0 -0.39,-0.59 c -4.69,-0.89 -40.43,-8.54 -34.56,-17.63 2.24,-3.46 9.72,-4.35 14.04,-4.74 q 12.51,-1.12 27.23,-0.5 a 0.72,0.73 10.2 0 0 0.71,-0.5 c 24.84,-73.88 85.1,-130.55 158.9,-153.7 q 44.3,-13.9 91.66,-11.74 c 79.35,3.63 155.55,45.23 199.73,112.25 q 38.84,58.91 40.37,130.88 0.92,43.55 -12.13,85.24 a 0.7,0.7 0 0 0 0.54,0.9 q 15.95,2.78 20.73,16.25 1.6,4.53 1.62,15.34 0.05,31.38 0.1,36.24 0.12,12.03 -1.59,16.51 -4.41,11.58 -17.42,15.32 -4.27,1.22 -12.04,1.11 -20.05,-0.3 -44,-0.33 -299.02,-0.32 -424.2,-0.15 c -14.65,0.02 -26.22,-9.9 -26.28,-24.95 q -0.18,-42.51 0.16,-51.71 0.47,-12.6 11.69,-19.57 c 2.88,-1.79 7.52,-2.91 10.86,-3.52 a 0.39,0.38 75.5 0 0 0.29,-0.5 c -14.89,-45.26 -17.22,-93.45 -6.02,-139.91 z m 130.29,16.54 q -0.26,0.16 -0.79,0.21 -6.59,0.71 -15.75,0.42 c -18.77,-0.59 -38.15,-3.03 -56.32,-8.6 q -2.41,-0.74 -4.03,-0.75 a 0.51,0.51 0 0 0 -0.44,0.79 q 1.09,1.66 2.58,2.6 c 7.95,5.03 16.66,7.45 26.23,9.77 26.48,6.42 52.83,8.7 81.62,10.09 34.48,1.66 66.15,1.69 99.67,-1.49 3.51,-0.33 8.69,-1.29 11.48,-2.99 a 0.66,0.66 0 0 0 -0.32,-1.22 l -3.82,-0.14 a 2.69,2.62 55.8 0 1 -0.93,-0.19 c -9.31,-3.76 -11.15,-15.94 -9.59,-24.77 0.96,-5.47 4.29,-10.73 10.14,-11.71 18.53,-3.1 20.12,19.29 15.7,31.14 a 0.4,0.4 0 0 0 0.48,0.53 q 5.32,-1.47 9.73,-2.33 c 17.59,-3.42 35.97,-7.6 53.11,-10.72 q 18.14,-3.31 44.58,-9.6 c 19.27,-4.59 44.68,-10.93 56.3,-28.22 10.13,-15.06 -1.13,-35.07 -18.82,-34.75 q -8.86,0.16 -19.68,2.43 a 0.9,0.9 0 0 1 -1.07,-0.72 l -2.05,-11.26 a 0.64,0.65 81 0 1 0.55,-0.75 q 4.61,-0.62 8.94,-1.41 c 4.86,-0.89 8.05,-1.96 9.98,3.21 a 1.69,1.7 76 0 0 1.83,1.09 l 0.05,-0.01 a 1.19,1.18 76.4 0 0 0.95,-1.56 q -2.54,-7.25 -8.86,-11.94 c -8.96,-6.64 -19.97,-9.04 -30.74,-8.24 q -14.87,1.11 -30.47,4.32 -25.46,5.23 -50.5,11.02 -134.21,31.02 -140.91,32.58 c -12.28,2.86 -24.31,3.37 -33.44,-6.79 q -16.98,-18.88 -33.42,-36.84 c -3.06,-3.34 -7.8,-7.9 -11.87,-7.55 q -7.83,0.68 -15.75,3.94 c -1.88,0.77 -2.96,1.82 -2.65,3.84 q 0.54,3.44 0.8,4.74 4.84,24.74 12.08,63.45 a 1.27,1.28 86.1 0 0 1.21,1.05 l 137.8,4.86 a 2.28,2.29 16.7 0 1 1.87,3.47 l -0.75,1.24 a 7.07,7.09 17.2 0 1 -6.44,3.41 q -25.74,-1.37 -50.55,-2.6 -16.27,-0.8 -51.7,-2.43 c -35.7,-1.63 -66.94,-3.42 -99.06,-3.87 q -27.68,-0.4 -35.25,0.18 -1.92,0.14 -3.32,0.74 a 0.52,0.52 0 0 0 -0.07,0.91 q 2.55,1.65 6.07,2.7 c 11.35,3.36 23.95,6.06 36.21,7.99 22.05,3.47 42.74,6.77 62.1,10.52 q 14.65,2.82 47.17,9.47 a 0.4,0.4 0 0 1 0.13,0.74 z m 140.8602,-24.0403 a 14.54,10.04 84 0 0 -8.4652,15.5098 14.54,10.04 84 0 0 11.5048,13.4108 14.54,10.04 84 0 0 8.4652,-15.5098 14.54,10.04 84 0 0 -11.5048,-13.4108 z m 145.5398,15.2703 q 16.21,-3.74 28.38,-7.76 2.81,-0.92 4.8,-2.53 a 0.92,0.92 0 0 0 -0.15,-1.54 q -1.07,-0.55 -2.59,-0.61 -14.01,-0.61 -31.07,2.63 a 0.8,0.81 81.7 0 0 -0.65,0.86 l 0.74,8.55 a 0.45,0.44 80.9 0 0 0.54,0.4 z m -8.69,-6.28 -22,5.29 a 0.26,0.26 0 0 0 -0.19,0.31 l 0.83,3.46 a 13.92,11.09 76.5 0 0 14.03,10.95 l 0.94,-0.23 a 13.92,11.09 76.5 0 0 7.53,-16.12 l -0.83,-3.46 a 0.26,0.26 0 0 0 -0.31,-0.2 z m -3.97,20.59 q -1.57,0.44 -3.04,0.85 c -9.44,2.66 -15.82,-6.82 -16.68,-15 a 0.69,0.69 0 0 0 -0.81,-0.61 l -43.38,7.91 a 0.61,0.61 0 0 0 -0.37,0.98 c 5.81,7.28 15.85,10.51 24.99,11.47 q 14.67,1.55 27.7,-0.55 6.33,-1.02 10.79,-3.38 0.98,-0.52 1.2,-1.27 a 0.33,0.32 0.8 0 0 -0.4,-0.4 z m -356.21,91.98 q 8.43,-0.02 9.03,-0.02 a 1.07,1.08 81.8 0 1 1.02,0.76 l 3.07,10.32 a 1.56,1.58 81.9 0 0 1.51,1.12 h 13.93 a 0.44,0.44 0 0 0 0.42,-0.59 l -20.6,-60.43 a 0.97,0.97 0 0 0 -0.9,-0.66 q -3.34,-0.08 -7.57,-0.07 -4.24,0.01 -7.58,0.1 a 0.97,0.97 0 0 0 -0.9,0.66 l -20.36,60.51 a 0.44,0.44 0 0 0 0.42,0.59 l 13.93,-0.05 a 1.58,1.56 7.9 0 0 1.51,-1.13 l 3.03,-10.33 a 1.08,1.07 8 0 1 1.01,-0.76 q 0.6,-0.01 9.03,-0.02 z m 51.06,-48.87 a 0.64,0.64 0 0 0 -0.64,-0.64 h -13.1 a 0.64,0.64 0 0 0 -0.64,0.64 v 60.42 a 0.64,0.64 0 0 0 0.64,0.64 h 13.1 a 0.64,0.64 0 0 0 0.64,-0.64 z m 61.49,61.16 a 0.42,0.42 0 0 0 0.36,-0.65 l -13.69,-22.46 a 0.59,0.59 0 0 1 0.24,-0.84 q 5.95,-2.98 8.5,-8.57 c 2.48,-5.46 2.35,-13.57 -0.4,-18.98 q -4.88,-9.65 -16.97,-10.11 -4.56,-0.18 -24.53,-0.03 a 0.46,0.47 89.5 0 0 -0.46,0.46 l -0.13,60.45 a 0.59,0.58 0.1 0 0 0.59,0.58 l 13.15,0.03 a 0.52,0.52 0 0 0 0.52,-0.52 l 0.04,-20.32 a 0.72,0.72 0 0 1 0.72,-0.72 l 3.4,0.01 a 1.41,1.4 75.9 0 1 1.23,0.74 l 10.48,19.76 a 2.15,2.16 76.1 0 0 1.9,1.14 z m 68.5,-23.06 a 0.59,0.59 0 0 0 0.59,-0.59 v -11.14 a 0.59,0.59 0 0 0 -0.59,-0.59 h -18.51 a 0.59,0.59 0 0 1 -0.59,-0.59 v -12.36 a 0.59,0.59 0 0 1 0.59,-0.59 h 21.34 a 0.59,0.59 0 0 0 0.59,-0.59 v -11.62 a 0.59,0.59 0 0 0 -0.59,-0.59 h -35.57 a 0.59,0.59 0 0 0 -0.59,0.59 v 60.47 a 0.59,0.59 0 0 0 0.59,0.59 h 13.33 a 0.59,0.59 0 0 0 0.59,-0.59 v -21.81 a 0.59,0.59 0 0 1 0.59,-0.59 z m 38.08,24.13 c 9.85,0 18.96,-3.5 22.25,-13.3 q 1.44,-4.28 1.32,-17.53 -0.08,-7.82 -0.02,-31.66 a 0.45,0.45 0 0 0 -0.45,-0.45 h -13.49 a 0.45,0.45 0 0 0 -0.45,0.45 q 0.2,19.5 -0.05,39.3 c -0.08,6.3 -2.49,10.21 -9.11,10.21 -6.62,0.01 -9.04,-3.9 -9.12,-10.2 q -0.26,-19.8 -0.08,-39.3 a 0.45,0.45 0 0 0 -0.45,-0.45 h -13.49 a 0.45,0.45 0 0 0 -0.45,0.45 q 0.08,23.84 0,31.66 -0.11,13.25 1.33,17.54 c 3.3,9.79 12.42,13.28 22.26,13.28 z m 84.82,-1.09 a 0.43,0.42 74.1 0 0 0.36,-0.65 l -13.8,-22.53 a 0.59,0.59 0 0 1 0.24,-0.84 q 5.97,-3.01 8.52,-8.63 c 2.48,-5.49 2.33,-13.63 -0.44,-19.06 q -4.93,-9.68 -17.07,-10.11 -4.58,-0.17 -24.63,0.02 a 0.46,0.47 89.4 0 0 -0.46,0.46 v 60.71 a 0.59,0.58 0 0 0 0.59,0.58 h 13.21 a 0.52,0.52 0 0 0 0.52,-0.52 v -20.41 a 0.72,0.72 0 0 1 0.72,-0.72 h 3.41 a 1.41,1.41 0 0 1 1.24,0.74 l 10.57,19.82 a 2.16,2.17 76 0 0 1.91,1.14 z m 32.74,-12.21 q 8.42,-0.03 9.02,-0.03 a 1.07,1.08 81.7 0 1 1.02,0.76 l 3.08,10.3 a 1.56,1.58 81.8 0 0 1.51,1.12 l 13.91,-0.01 a 0.44,0.44 0 0 0 0.42,-0.59 l -20.65,-60.35 a 0.97,0.97 0 0 0 -0.9,-0.66 q -3.33,-0.07 -7.56,-0.06 -4.23,0.02 -7.57,0.11 a 0.97,0.97 0 0 0 -0.89,0.67 l -20.28,60.47 a 0.44,0.44 0 0 0 0.43,0.58 l 13.91,-0.07 a 1.58,1.56 7.8 0 0 1.5,-1.12 l 3.02,-10.33 a 1.08,1.07 7.9 0 1 1.01,-0.76 q 0.6,-0.01 9.02,-0.03 z m 57.61,-5.78 q 0.23,0 0.43,0.36 8.55,15.86 8.74,16.21 a 2.52,2.54 76.7 0 0 2.26,1.38 l 15.8,-0.05 a 0.4,0.4 0 0 0 0.34,-0.61 l -18.69,-30.51 a 1.23,1.23 0 0 1 0,-1.28 l 17.41,-28.77 a 0.42,0.42 0 0 0 -0.36,-0.64 h -15.74 a 1.78,1.77 13.9 0 0 -1.57,0.94 q -3.84,7.34 -8.5,16.13 -0.05,0.09 -0.21,0.09 -0.17,0 -0.21,-0.08 -4.72,-8.77 -8.61,-16.08 a 1.77,1.78 75.7 0 0 -1.58,-0.93 l -15.74,0.11 a 0.42,0.42 0 0 0 -0.35,0.64 l 17.6,28.65 a 1.23,1.23 0 0 1 0.01,1.28 l -18.48,30.64 a 0.4,0.4 0 0 0 0.34,0.6 l 15.8,-0.05 a 2.54,2.52 12.9 0 0 2.25,-1.4 q 0.19,-0.35 8.63,-16.26 0.19,-0.37 0.43,-0.37 z m 57.02,57.09 a 16.26,16.26 0 0 0 -16.26,-16.26 H 213.94 a 16.26,16.26 0 0 0 -16.26,16.26 v 49.54 a 16.26,16.26 0 0 0 16.26,16.26 h 473.92 a 16.26,16.26 0 0 0 16.26,-16.26 z"
     id="path79" />
  <path
     fill="#faecd5"
     d="m 707.39,250.81747 13.1,-45.97 a 0.3,0.3 0 0 1 0.52,-0.1 l 15.12,19.42 a 0.3,0.3 0 0 1 0.05,0.28 l -7.9,23.78 a 0.3,0.3 0 0 0 0.33,0.39 l 21.33,-2.99 a 0.3,0.3 0 0 1 0.27,0.11 l 14.34,17 a 0.3,0.3 0 0 1 -0.19,0.5 l -41.48,5.8 a 0.3,0.3 0 0 0 -0.25,0.21 l -15.62,49.5 a 0.3,0.3 0 0 1 -0.52,0.09 l -14.48,-18.62 a 0.3,0.3 0 0 1 -0.05,-0.27 l 8.89,-28.19 a 0.3,0.3 0 0 0 -0.33,-0.38 l -29.72,4.16 a 0.3,0.3 0 0 1 -0.28,-0.12 l -13.98,-17.96 a 0.3,0.3 0 0 1 0.2,-0.48 l 50.4,-5.95 a 0.3,0.3 0 0 0 0.25,-0.21 z"
     id="path80" />
  <path
     fill="#faecd5"
     d="m 149.11,242.47747 12.71,-18.9 a 0.71,0.71 0 0 1 0.85,-0.26 l 81.93,32.02 a 0.71,0.71 0 0 1 0.28,1.13 l -13.45,15.41 a 0.71,0.71 0 0 1 -0.8,0.2 l -14.11,-5.53 a 0.71,0.71 0 0 0 -0.8,0.2 l -17.5,20.04 a 0.71,0.71 0 0 0 -0.08,0.82 l 8.19,14.18 a 0.71,0.71 0 0 1 -0.06,0.81 l -12.81,15.59 a 0.71,0.71 0 0 1 -1.16,-0.1 l -43.22,-74.86 a 0.71,0.71 0 0 1 0.03,-0.75 z m 38.9,29.19 a 0.33,0.33 0 0 0 0.53,0.05 l 10.78,-12.45 a 0.33,0.33 0 0 0 -0.12,-0.52 l -25.47,-11.17 a 0.33,0.33 0 0 0 -0.41,0.48 z"
     id="path81" />
  <path
     fill="#052b4e"
     d="m 188.01,271.66747 -14.69,-23.61 a 0.33,0.33 0 0 1 0.41,-0.48 l 25.47,11.17 a 0.33,0.33 0 0 1 0.12,0.52 l -10.78,12.45 a 0.33,0.33 0 0 1 -0.53,-0.05 z"
     id="path82" />
  <path
     fill="#b82115"
     d="m 335.27,403.19747 a 0.4,0.4 0 0 0 -0.13,-0.74 q -32.52,-6.65 -47.17,-9.47 c -19.36,-3.75 -40.05,-7.05 -62.1,-10.52 -12.26,-1.93 -24.86,-4.63 -36.21,-7.99 q -3.52,-1.05 -6.07,-2.7 a 0.52,0.52 0 0 1 0.07,-0.91 q 1.4,-0.6 3.32,-0.74 7.57,-0.58 35.25,-0.18 c 32.12,0.45 63.36,2.24 99.06,3.87 q 35.43,1.63 51.7,2.43 24.81,1.23 50.55,2.6 a 7.07,7.09 17.2 0 0 6.44,-3.41 l 0.75,-1.24 a 2.28,2.29 16.7 0 0 -1.87,-3.47 l -137.8,-4.86 a 1.27,1.28 86.1 0 1 -1.21,-1.05 q -7.24,-38.71 -12.08,-63.45 -0.26,-1.3 -0.8,-4.74 c -0.31,-2.02 0.77,-3.07 2.65,-3.84 q 7.92,-3.26 15.75,-3.94 c 4.07,-0.35 8.81,4.21 11.87,7.55 q 16.44,17.96 33.42,36.84 c 9.13,10.16 21.16,9.65 33.44,6.79 q 6.7,-1.56 140.91,-32.58 25.04,-5.79 50.5,-11.02 15.6,-3.21 30.47,-4.32 c 10.77,-0.8 21.78,1.6 30.74,8.24 q 6.32,4.69 8.86,11.94 a 1.19,1.18 76.4 0 1 -0.95,1.56 l -0.05,0.01 a 1.69,1.7 76 0 1 -1.83,-1.09 c -1.93,-5.17 -5.12,-4.1 -9.98,-3.21 q -4.33,0.79 -8.94,1.41 a 0.64,0.65 81 0 0 -0.55,0.75 l 2.05,11.26 a 0.9,0.9 0 0 0 1.07,0.72 q 10.82,-2.27 19.68,-2.43 c 17.69,-0.32 28.95,19.69 18.82,34.75 -11.62,17.29 -37.03,23.63 -56.3,28.22 q -26.44,6.29 -44.58,9.6 c -17.14,3.12 -35.52,7.3 -53.11,10.72 q -4.41,0.86 -9.73,2.33 a 0.4,0.4 0 0 1 -0.48,-0.53 c 4.42,-11.85 2.83,-34.24 -15.7,-31.14 -5.85,0.98 -9.18,6.24 -10.14,11.71 -1.56,8.83 0.28,21.01 9.59,24.77 a 2.69,2.62 55.8 0 0 0.93,0.19 l 3.82,0.14 a 0.66,0.66 0 0 1 0.32,1.22 c -2.79,1.7 -7.97,2.66 -11.48,2.99 -33.52,3.18 -65.19,3.15 -99.67,1.49 -28.79,-1.39 -55.14,-3.67 -81.62,-10.09 -9.57,-2.32 -18.28,-4.74 -26.23,-9.77 q -1.49,-0.94 -2.58,-2.6 a 0.51,0.51 0 0 1 0.44,-0.79 q 1.62,0.01 4.03,0.75 c 18.17,5.57 37.55,8.01 56.32,8.6 q 9.16,0.29 15.75,-0.42 0.53,-0.05 0.79,-0.21 z m 277.51,-79.16 -2,-12.07 a 0.27,0.27 0 0 0 -0.31,-0.22 l -19.67,3.25 a 5.49,5.31 80.6 0 0 -4.35,6.29 l 0.3,1.77 a 5.49,5.31 80.6 0 0 6.13,4.55 l 19.68,-3.26 a 0.27,0.27 0 0 0 0.22,-0.31 z m -75.39,11.51 a 5.04,5.04 0 0 0 -5.04,-5.04 5.04,5.04 0 0 0 -5.04,5.04 5.04,5.04 0 0 0 5.04,5.04 5.04,5.04 0 0 0 5.04,-5.04 z m -17.34,3.49 a 4.94,4.94 0 0 0 -4.94,-4.94 4.94,4.94 0 0 0 -4.94,4.94 4.94,4.94 0 0 0 4.94,4.94 4.94,4.94 0 0 0 4.94,-4.94 z m -22.8783,-1.1329 a 4.88,4.48 85.2 0 0 -4.056,5.2378 4.88,4.48 85.2 0 0 4.8726,4.488 4.88,4.48 85.2 0 0 4.056,-5.2378 4.88,4.48 85.2 0 0 -4.8726,-4.488 z m -16.4572,3.758 a 4.65,4.34 80.4 0 0 -3.5037,5.3087 4.65,4.34 80.4 0 0 5.0547,3.8611 4.65,4.34 80.4 0 0 3.5037,-5.3087 4.65,4.34 80.4 0 0 -5.0547,-3.8611 z m -16.6294,3.2255 a 4.74,4.45 80.1 0 0 -3.5688,5.4345 4.74,4.45 80.1 0 0 5.1986,3.9043 4.74,4.45 80.1 0 0 3.5688,-5.4345 4.74,4.45 80.1 0 0 -5.1986,-3.9043 z m -16.36,3.1283 a 4.78,4.39 84.9 0 0 -3.9477,5.1513 4.78,4.39 84.9 0 0 4.7975,4.3709 4.78,4.39 84.9 0 0 3.9477,-5.1513 4.78,4.39 84.9 0 0 -4.7975,-4.3709 z m -16.5852,3.4554 a 4.79,4.33 82.2 0 0 -3.6398,5.3333 4.79,4.33 82.2 0 0 4.94,4.1581 4.79,4.33 82.2 0 0 3.6398,-5.3333 4.79,4.33 82.2 0 0 -4.94,-4.1581 z m -16.7167,3.5497 a 4.83,4.29 79.3 0 0 -3.3186,5.5425 4.83,4.29 79.3 0 0 5.1122,3.9495 4.83,4.29 79.3 0 0 3.3186,-5.5425 4.83,4.29 79.3 0 0 -5.1122,-3.9495 z m -16.095,2.7738 a 4.91,4.49 83.9 0 0 -3.9428,5.3593 4.91,4.49 83.9 0 0 4.9864,4.4051 4.91,4.49 83.9 0 0 3.9428,-5.3593 4.91,4.49 83.9 0 0 -4.9864,-4.4051 z"
     id="path83" />
  <path
     fill="#faecd5"
     d="m 612.78,324.03747 a 0.27,0.27 0 0 1 -0.22,0.31 l -19.68,3.26 a 5.49,5.31 80.6 0 1 -6.13,-4.55 l -0.3,-1.77 a 5.49,5.31 80.6 0 1 4.35,-6.29 l 19.67,-3.25 a 0.27,0.27 0 0 1 0.31,0.22 z"
     id="path84" />
  <circle
     fill="#faecd5"
     cx="532.34998"
     cy="335.54749"
     r="5.04"
     id="circle84" />
  <circle
     fill="#faecd5"
     cx="515.10999"
     cy="339.03748"
     r="4.9400001"
     id="circle85" />
  <ellipse
     fill="#faecd5"
     cx="-383.20175"
     cy="467.15289"
     transform="rotate(-94.8)"
     rx="4.8800001"
     ry="4.48"
     id="ellipse85" />
  <ellipse
     fill="#faecd5"
     cx="-421.69611"
     cy="417.00397"
     transform="rotate(-99.6)"
     rx="4.6500001"
     ry="4.3400002"
     id="ellipse86" />
  <ellipse
     fill="#faecd5"
     cx="-424.28217"
     cy="397.87823"
     transform="rotate(-99.9)"
     rx="4.7399998"
     ry="4.4499998"
     id="ellipse87" />
  <ellipse
     fill="#faecd5"
     cx="-391.21881"
     cy="415.0159"
     transform="rotate(-95.1)"
     rx="4.7800002"
     ry="4.3899999"
     id="ellipse88" />
  <ellipse
     fill="#faecd5"
     cx="-411.52231"
     cy="379.45078"
     transform="rotate(-97.8)"
     rx="4.79"
     ry="4.3299999"
     id="ellipse89" />
  <ellipse
     fill="#faecd5"
     cx="-430.62317"
     cy="341.30194"
     transform="rotate(-100.7)"
     rx="4.8299999"
     ry="4.29"
     id="ellipse90" />
  <ellipse
     fill="#faecd5"
     cx="-403.00739"
     cy="358.05212"
     transform="rotate(-96.1)"
     rx="4.9099998"
     ry="4.4899998"
     id="ellipse91" />
  <ellipse
     fill="#b82115"
     cx="-441.38922"
     cy="433.88916"
     transform="rotate(-96)"
     rx="14.54"
     ry="10.04"
     id="ellipse92" />
  <path
     fill="#b82115"
     d="m 621.67,394.42747 a 0.45,0.44 80.9 0 1 -0.54,-0.4 l -0.74,-8.55 a 0.8,0.81 81.7 0 1 0.65,-0.86 q 17.06,-3.24 31.07,-2.63 1.52,0.06 2.59,0.61 a 0.92,0.92 0 0 1 0.15,1.54 q -1.99,1.61 -4.8,2.53 -12.17,4.02 -28.38,7.76 z"
     id="path92" />
  <path
     fill="#b82115"
     d="m 612.98,388.14747 a 0.26,0.26 0 0 1 0.31,0.2 l 0.83,3.46 a 13.92,11.09 76.5 0 1 -7.53,16.12 l -0.94,0.23 a 13.92,11.09 76.5 0 1 -14.03,-10.95 l -0.83,-3.46 a 0.26,0.26 0 0 1 0.19,-0.31 z"
     id="path93" />
  <path
     fill="#b82115"
     d="m 609.41,409.13747 q -0.22,0.75 -1.2,1.27 -4.46,2.36 -10.79,3.38 -13.03,2.1 -27.7,0.55 c -9.14,-0.96 -19.18,-4.19 -24.99,-11.47 a 0.61,0.61 0 0 1 0.37,-0.98 l 43.38,-7.91 a 0.69,0.69 0 0 1 0.81,0.61 c 0.86,8.18 7.24,17.66 16.68,15 q 1.47,-0.41 3.04,-0.85 a 0.33,0.32 0.8 0 1 0.4,0.4 z"
     id="path94" />
  <path
     fill="#052b4e"
     d="m 252.71,451.14747 q 4.23,-0.01 7.57,0.07 a 0.97,0.97 0 0 1 0.9,0.66 l 20.6,60.43 a 0.44,0.44 0 0 1 -0.42,0.59 h -13.93 a 1.56,1.58 81.9 0 1 -1.51,-1.12 l -3.07,-10.32 a 1.07,1.08 81.8 0 0 -1.02,-0.76 q -0.6,0 -9.03,0.02 -8.43,0.01 -9.03,0.02 a 1.08,1.07 8 0 0 -1.01,0.76 l -3.03,10.33 a 1.58,1.56 7.9 0 1 -1.51,1.13 l -13.93,0.05 a 0.44,0.44 0 0 1 -0.42,-0.59 l 20.36,-60.51 a 0.97,0.97 0 0 1 0.9,-0.66 q 3.34,-0.09 7.58,-0.1 z m -5.72,36.74 a 0.31,0.31 0 0 0 0.3,0.4 l 11.44,0.02 a 0.31,0.31 0 0 0 0.3,-0.4 l -5.69,-18.63 a 0.31,0.31 0 0 0 -0.59,0 z"
     id="path95" />
  <rect
     fill="#052b4e"
     x="289.48001"
     y="451.20746"
     width="14.38"
     height="61.700001"
     rx="0.63999999"
     id="rect95" />
  <path
     fill="#052b4e"
     d="m 365.35,513.00747 -15.05,-0.03 a 2.15,2.16 76.1 0 1 -1.9,-1.14 l -10.48,-19.76 a 1.41,1.4 75.9 0 0 -1.23,-0.74 l -3.4,-0.01 a 0.72,0.72 0 0 0 -0.72,0.72 l -0.04,20.32 a 0.52,0.52 0 0 1 -0.52,0.52 l -13.15,-0.03 a 0.59,0.58 0.1 0 1 -0.59,-0.58 l 0.13,-60.45 a 0.46,0.47 89.5 0 1 0.46,-0.46 q 19.97,-0.15 24.53,0.03 12.09,0.46 16.97,10.11 c 2.75,5.41 2.88,13.52 0.4,18.98 q -2.55,5.59 -8.5,8.57 a 0.59,0.59 0 0 0 -0.24,0.84 l 13.69,22.46 a 0.42,0.42 0 0 1 -0.36,0.65 z m -32.82,-48.76 0.06,15.2 a 0.58,0.58 0 0 0 0.58,0.58 l 7.9,-0.03 a 6.99,7.08 89.8 0 0 7.05,-7.02 v -2.38 a 6.99,7.08 89.8 0 0 -7.11,-6.96 l -7.9,0.03 a 0.58,0.58 0 0 0 -0.58,0.58 z"
     id="path96" />
  <path
     fill="#052b4e"
     d="m 433.85,489.94747 h -18.23 a 0.59,0.59 0 0 0 -0.59,0.59 v 21.81 a 0.59,0.59 0 0 1 -0.59,0.59 h -13.33 a 0.59,0.59 0 0 1 -0.59,-0.59 v -60.47 a 0.59,0.59 0 0 1 0.59,-0.59 h 35.57 a 0.59,0.59 0 0 1 0.59,0.59 v 11.62 a 0.59,0.59 0 0 1 -0.59,0.59 h -21.34 a 0.59,0.59 0 0 0 -0.59,0.59 v 12.36 a 0.59,0.59 0 0 0 0.59,0.59 h 18.51 a 0.59,0.59 0 0 1 0.59,0.59 v 11.14 a 0.59,0.59 0 0 1 -0.59,0.59 z"
     id="path97" />
  <path
     fill="#052b4e"
     d="m 471.93,501.09747 c 6.62,0 9.03,-3.91 9.11,-10.21 q 0.25,-19.8 0.05,-39.3 a 0.45,0.45 0 0 1 0.45,-0.45 h 13.49 a 0.45,0.45 0 0 1 0.45,0.45 q -0.06,23.84 0.02,31.66 0.12,13.25 -1.32,17.53 c -3.29,9.8 -12.4,13.3 -22.25,13.3 -9.84,0 -18.96,-3.49 -22.26,-13.28 q -1.44,-4.29 -1.33,-17.54 0.08,-7.82 0,-31.66 a 0.45,0.45 0 0 1 0.45,-0.45 h 13.49 a 0.45,0.45 0 0 1 0.45,0.45 q -0.18,19.5 0.08,39.3 c 0.08,6.3 2.5,10.21 9.12,10.2 z"
     id="path98" />
  <path
     fill="#052b4e"
     d="m 556.75,512.98747 h -15.11 a 2.16,2.17 76 0 1 -1.91,-1.14 l -10.57,-19.82 a 1.41,1.41 0 0 0 -1.24,-0.74 h -3.41 a 0.72,0.72 0 0 0 -0.72,0.72 v 20.41 a 0.52,0.52 0 0 1 -0.52,0.52 h -13.21 a 0.59,0.58 0 0 1 -0.59,-0.58 v -60.71 a 0.46,0.47 89.4 0 1 0.46,-0.46 q 20.05,-0.19 24.63,-0.02 12.14,0.43 17.07,10.11 c 2.77,5.43 2.92,13.57 0.44,19.06 q -2.55,5.62 -8.52,8.63 a 0.59,0.59 0 0 0 -0.24,0.84 l 13.8,22.53 a 0.43,0.42 74.1 0 1 -0.36,0.65 z m -33.13,-49.07 v 15.58 a 0.46,0.46 0 0 0 0.46,0.46 h 8.49 a 6.87,6.62 0 0 0 6.87,-6.62 v -3.26 a 6.87,6.62 0 0 0 -6.87,-6.62 h -8.49 a 0.46,0.46 0 0 0 -0.46,0.46 z"
     id="path99" />
  <path
     fill="#052b4e"
     d="m 589.49,500.77747 q -8.42,0.02 -9.02,0.03 a 1.08,1.07 7.9 0 0 -1.01,0.76 l -3.02,10.33 a 1.58,1.56 7.8 0 1 -1.5,1.12 l -13.91,0.07 a 0.44,0.44 0 0 1 -0.43,-0.58 l 20.28,-60.47 a 0.97,0.97 0 0 1 0.89,-0.67 q 3.34,-0.09 7.57,-0.11 4.23,-0.01 7.56,0.06 a 0.97,0.97 0 0 1 0.9,0.66 l 20.65,60.35 a 0.44,0.44 0 0 1 -0.42,0.59 l -13.91,0.01 a 1.56,1.58 81.8 0 1 -1.51,-1.12 l -3.08,-10.3 a 1.07,1.08 81.7 0 0 -1.02,-0.76 q -0.6,0 -9.02,0.03 z m -5.82,-12.83 a 0.31,0.31 0 0 0 0.29,0.4 l 11.24,-0.02 a 0.31,0.31 0 0 0 0.3,-0.4 l -5.65,-18.78 a 0.31,0.31 0 0 0 -0.6,0 z"
     id="path100" />
  <path
     fill="#052b4e"
     d="m 647.01,468.24747 q 0.16,0 0.21,-0.09 4.66,-8.79 8.5,-16.13 a 1.78,1.77 13.9 0 1 1.57,-0.94 h 15.74 a 0.42,0.42 0 0 1 0.36,0.64 l -17.41,28.77 a 1.23,1.23 0 0 0 0,1.28 l 18.69,30.51 a 0.4,0.4 0 0 1 -0.34,0.61 l -15.8,0.05 a 2.52,2.54 76.7 0 1 -2.26,-1.38 q -0.19,-0.35 -8.74,-16.21 -0.2,-0.36 -0.43,-0.36 -0.24,0 -0.43,0.37 -8.44,15.91 -8.63,16.26 a 2.54,2.52 12.9 0 1 -2.25,1.4 l -15.8,0.05 a 0.4,0.4 0 0 1 -0.34,-0.6 l 18.48,-30.64 a 1.23,1.23 0 0 0 -0.01,-1.28 l -17.6,-28.65 a 0.42,0.42 0 0 1 0.35,-0.64 l 15.74,-0.11 a 1.77,1.78 75.7 0 1 1.58,0.93 q 3.89,7.31 8.61,16.08 0.04,0.08 0.21,0.08 z"
     id="path101" />
  <path
     fill="#faecd5"
     d="m 523.62,463.91747 a 0.46,0.46 0 0 1 0.46,-0.46 h 8.49 a 6.87,6.62 0 0 1 6.87,6.62 v 3.26 a 6.87,6.62 0 0 1 -6.87,6.62 h -8.49 a 0.46,0.46 0 0 1 -0.46,-0.46 z"
     id="path102" />
  <path
     fill="#faecd5"
     d="m 332.53,464.24747 a 0.58,0.58 0 0 1 0.58,-0.58 l 7.9,-0.03 a 6.99,7.08 89.8 0 1 7.11,6.96 v 2.38 a 6.99,7.08 89.8 0 1 -7.05,7.02 l -7.9,0.03 a 0.58,0.58 0 0 1 -0.58,-0.58 z"
     id="path103" />
  <path
     fill="#faecd5"
     d="m 246.99,487.88747 5.76,-18.61 a 0.31,0.31 0 0 1 0.59,0 l 5.69,18.63 a 0.31,0.31 0 0 1 -0.3,0.4 l -11.44,-0.02 a 0.31,0.31 0 0 1 -0.3,-0.4 z"
     id="path104" />
  <path
     fill="#faecd5"
     d="m 583.67,487.94747 5.58,-18.8 a 0.31,0.31 0 0 1 0.6,0 l 5.65,18.78 a 0.31,0.31 0 0 1 -0.3,0.4 l -11.24,0.02 a 0.31,0.31 0 0 1 -0.29,-0.4 z"
     id="path105" />
  <path
     fill="#b82115"
     d="m 704.12,601.62747 a 16.26,16.26 0 0 1 -16.26,16.26 H 213.94 a 16.26,16.26 0 0 1 -16.26,-16.26 v -49.54 a 16.26,16.26 0 0 1 16.26,-16.26 h 473.92 a 16.26,16.26 0 0 1 16.26,16.26 z m -459.33,-3.82 q 3.83,0.01 4.67,-0.15 a 1.23,1.23 0 0 0 0.95,-0.86 l 11.4,-39.21 a 0.18,0.18 0 0 0 -0.17,-0.23 h -9.39 a 0.38,0.38 0 0 0 -0.37,0.29 q -3.44,12.71 -6.79,25.5 -0.06,0.24 -0.25,0.24 -0.18,0 -0.24,-0.24 -3.25,-12.82 -6.59,-25.55 a 0.38,0.38 0 0 0 -0.37,-0.3 l -9.39,-0.07 a 0.18,0.18 0 0 0 -0.17,0.23 l 11.09,39.3 a 1.23,1.23 0 0 0 0.94,0.87 q 0.84,0.16 4.68,0.18 z m 31.34,-39.76 a 0.79,0.79 0 0 0 -0.79,-0.79 h -7.78 a 0.79,0.79 0 0 0 -0.79,0.79 v 38.92 a 0.79,0.79 0 0 0 0.79,0.79 h 7.78 a 0.79,0.79 0 0 0 0.79,-0.79 z m 38.52,39.67 -8.74,-15.15 a 0.56,0.56 0 0 1 0.19,-0.76 q 6.4,-3.95 6.17,-11.69 c -0.33,-10.98 -7.28,-13.17 -16.93,-12.97 q -0.62,0.02 -10.31,0.04 a 0.48,0.48 0 0 0 -0.48,0.48 v 39.26 a 0.87,0.88 0 0 0 0.87,0.88 h 7.79 a 0.69,0.69 0 0 0 0.69,-0.69 v -12.76 a 0.7,0.69 88.7 0 1 0.66,-0.7 q 1.25,-0.06 1.94,0.23 a 2.04,2.1 88.3 0 1 1.02,0.93 l 6.77,12.78 a 0.29,0.27 76 0 0 0.25,0.16 h 10.09 a 0.03,0.02 75.1 0 0 0.02,-0.04 z m 16.47,0.07 q 3.81,0.01 4.24,-0.08 a 0.57,0.58 84.3 0 0 0.46,-0.56 l 0.06,-30.31 a 0.49,0.49 0 0 1 0.49,-0.49 h 8.4 a 0.71,0.71 0 0 0 0.71,-0.71 v -7.66 a 0.75,0.75 0 0 0 -0.75,-0.75 q -6.63,0.04 -13.52,0.01 -6.9,0 -13.52,-0.07 a 0.75,0.75 0 0 0 -0.75,0.75 l -0.04,7.66 a 0.71,0.71 0 0 0 0.71,0.71 l 8.4,0.04 a 0.49,0.49 0 0 1 0.49,0.49 l -0.07,30.31 a 0.58,0.57 5.9 0 0 0.46,0.56 q 0.42,0.09 4.23,0.1 z m 34.87,1.16 c 8.13,0.02 14.05,-3.87 14.56,-12.37 q 0.68,-11.35 0.27,-28.54 a 0.77,0.77 0 0 0 -0.77,-0.75 h -7.75 a 0.77,0.77 0 0 0 -0.77,0.76 q -0.02,19.6 -0.19,26.58 c -0.08,3.32 -1.91,5.48 -5.32,5.47 -3.4,-0.01 -5.22,-2.19 -5.28,-5.5 q -0.12,-6.99 -0.01,-26.59 a 0.77,0.77 0 0 0 -0.77,-0.76 l -7.75,-0.05 a 0.77,0.77 0 0 0 -0.77,0.74 q -0.52,17.19 0.08,28.55 c 0.45,8.5 6.35,12.43 14.47,12.46 z m 36.07,-8.36 q 4.86,0.04 5.5,0.22 a 1.1,1.09 1.7 0 1 0.79,0.82 l 1.01,4.7 a 1.71,1.71 0 0 0 1.62,1.35 l 6.5,0.25 a 1.17,1.17 0 0 0 1.17,-1.49 l -10.82,-38.37 a 1.08,1.08 0 0 0 -0.97,-0.77 q -1.23,-0.09 -4.52,-0.11 -3.28,-0.03 -4.52,0.03 a 1.08,1.08 0 0 0 -0.98,0.76 l -11.47,38.18 a 1.17,1.17 0 0 0 1.15,1.51 l 6.51,-0.14 a 1.71,1.71 0 0 0 1.64,-1.33 l 1.09,-4.67 a 1.09,1.1 89.3 0 1 0.79,-0.82 q 0.65,-0.16 5.51,-0.12 z m 31.79,-32.64 a 0.76,0.76 0 0 0 -0.76,-0.76 h -7.67 a 0.76,0.76 0 0 0 -0.76,0.76 v 39.09 a 0.76,0.76 0 0 0 0.76,0.76 h 21.11 a 0.76,0.76 0 0 0 0.76,-0.76 v -7.28 a 0.76,0.76 0 0 0 -0.76,-0.76 h -11.92 a 0.76,0.76 0 0 1 -0.76,-0.76 z m 48.26,32.74 q 4.86,0.03 5.5,0.21 a 1.1,1.09 1.6 0 1 0.78,0.82 l 1.02,4.68 a 1.71,1.71 0 0 0 1.62,1.35 l 6.49,0.23 a 1.17,1.17 0 0 0 1.17,-1.49 l -10.9,-38.27 a 1.07,1.08 83.7 0 0 -0.97,-0.77 q -1.23,-0.08 -4.51,-0.1 -3.28,-0.02 -4.51,0.04 a 1.08,1.07 7 0 0 -0.98,0.76 l -11.35,38.14 a 1.17,1.17 0 0 0 1.15,1.51 l 6.49,-0.16 a 1.71,1.71 0 0 0 1.64,-1.33 l 1.07,-4.66 a 1.09,1.1 89.1 0 1 0.8,-0.82 q 0.64,-0.16 5.49,-0.14 z m 31.96,-32.65 a 0.77,0.77 0 0 0 -0.77,-0.77 h -7.72 a 0.77,0.77 0 0 0 -0.77,0.77 v 38.94 a 0.77,0.77 0 0 0 0.77,0.77 h 7.72 a 0.77,0.77 0 0 0 0.77,-0.77 z m 38.33,39.7 -8.66,-15.13 a 0.55,0.56 59 0 1 0.19,-0.76 q 6.4,-3.91 6.19,-11.63 c -0.29,-10.95 -7.21,-13.15 -16.83,-12.99 q -0.61,0.02 -10.27,0 a 0.48,0.48 0 0 0 -0.48,0.48 l -0.14,39.14 a 0.87,0.88 0.2 0 0 0.86,0.88 l 7.77,0.03 a 0.69,0.69 0 0 0 0.69,-0.69 l 0.04,-12.72 a 0.7,0.69 88.9 0 1 0.66,-0.69 q 1.25,-0.06 1.94,0.23 a 2.03,2.1 88.5 0 1 1.01,0.93 l 6.7,12.77 a 0.29,0.27 76.2 0 0 0.25,0.16 l 10.06,0.03 a 0.03,0.02 75.3 0 0 0.02,-0.04 z m 6.04,-39.89 -0.23,39.03 a 0.86,0.86 0 0 0 0.85,0.85 l 20.71,0.04 a 0.9,0.91 0.6 0 0 0.91,-0.9 l 0.02,-6.92 a 0.88,0.87 0.6 0 0 -0.87,-0.88 l -11.58,-0.08 a 0.82,0.82 0 0 1 -0.81,-0.83 l 0.15,-30.22 a 0.64,0.64 0 0 0 -0.63,-0.64 l -7.93,-0.04 a 0.6,0.6 0 0 0 -0.59,0.59 z m 56.77,21.53 q 4.15,7.97 9.19,17.26 a 2.18,2.17 75.6 0 0 1.91,1.14 h 6.94 a 0.55,0.55 0 0 0 0.55,-0.55 v -39.34 a 0.67,0.67 0 0 0 -0.67,-0.67 h -7.87 a 0.65,0.65 0 0 0 -0.65,0.65 v 21.21 a 0.26,0.26 0 0 1 -0.48,0.13 q -0.7,-1.24 -1.95,-3.63 -4.15,-7.97 -9.19,-17.26 a 2.18,2.17 75.6 0 0 -1.91,-1.14 h -6.94 a 0.55,0.55 0 0 0 -0.55,0.55 v 39.34 a 0.67,0.67 0 0 0 0.67,0.67 h 7.87 a 0.65,0.65 0 0 0 0.65,-0.65 v -21.21 a 0.26,0.26 0 0 1 0.48,-0.12 q 0.7,1.24 1.95,3.62 z m 52.12,10.2 a 0.5,0.5 0 0 0 -0.5,-0.5 h -14.77 a 0.5,0.5 0 0 1 -0.5,-0.5 v -6.33 a 0.5,0.5 0 0 1 0.5,-0.5 h 11.58 a 0.5,0.5 0 0 0 0.5,-0.5 v -7.69 a 0.5,0.5 0 0 0 -0.5,-0.5 h -11.56 a 0.5,0.5 0 0 1 -0.5,-0.5 v -6.18 a 0.5,0.5 0 0 1 0.5,-0.5 h 13.57 a 0.5,0.5 0 0 0 0.5,-0.5 v -7.73 a 0.5,0.5 0 0 0 -0.5,-0.5 h -22.64 a 0.5,0.5 0 0 0 -0.5,0.5 v 39.54 a 0.5,0.5 0 0 0 0.5,0.5 h 23.82 a 0.5,0.5 0 0 0 0.5,-0.5 z m -71.93,-31.49 a 0.81,0.81 0 0 0 -0.81,-0.81 h -7.54 a 0.81,0.81 0 0 0 -0.81,0.81 v 38.84 a 0.81,0.81 0 0 0 0.81,0.81 h 7.54 a 0.81,0.81 0 0 0 0.81,-0.81 z"
     id="path106" />
  <path
     fill="#faecd5"
     d="m 244.84,583.38747 q 0.19,0 0.25,-0.24 3.35,-12.79 6.79,-25.5 a 0.38,0.38 0 0 1 0.37,-0.29 h 9.39 a 0.18,0.18 0 0 1 0.17,0.23 l -11.4,39.21 a 1.23,1.23 0 0 1 -0.95,0.86 q -0.84,0.16 -4.67,0.15 -3.84,-0.02 -4.68,-0.18 a 1.23,1.23 0 0 1 -0.94,-0.87 l -11.09,-39.3 a 0.18,0.18 0 0 1 0.17,-0.23 l 9.39,0.07 a 0.38,0.38 0 0 1 0.37,0.3 q 3.34,12.73 6.59,25.55 0.06,0.24 0.24,0.24 z"
     id="path107" />
  <rect
     fill="#faecd5"
     x="266.77002"
     y="557.25745"
     width="9.3599997"
     height="40.5"
     rx="0.79000002"
     id="rect107" />
  <path
     fill="#faecd5"
     d="m 314.65,597.71747 a 0.03,0.02 75.1 0 1 -0.02,0.04 h -10.09 a 0.29,0.27 76 0 1 -0.25,-0.16 l -6.77,-12.78 a 2.04,2.1 88.3 0 0 -1.02,-0.93 q -0.69,-0.29 -1.94,-0.23 a 0.7,0.69 88.7 0 0 -0.66,0.7 v 12.76 a 0.69,0.69 0 0 1 -0.69,0.69 h -7.79 a 0.87,0.88 0 0 1 -0.87,-0.88 v -39.26 a 0.48,0.48 0 0 1 0.48,-0.48 q 9.69,-0.02 10.31,-0.04 c 9.65,-0.2 16.6,1.99 16.93,12.97 q 0.23,7.74 -6.17,11.69 a 0.56,0.56 0 0 0 -0.19,0.76 z m -20.74,-31.46 0.08,8.56 a 0.36,0.36 0 0 0 0.36,0.36 l 4.67,-0.04 a 4,4.13 89.5 0 0 4.1,-4.04 l -0.02,-1.28 a 4,4.13 89.5 0 0 -4.16,-3.96 l -4.67,0.04 a 0.36,0.36 0 0 0 -0.36,0.36 z"
     id="path108" />
  <path
     fill="#faecd5"
     d="m 331.21,557.23747 q 6.89,0.03 13.52,-0.01 a 0.75,0.75 0 0 1 0.75,0.75 v 7.66 a 0.71,0.71 0 0 1 -0.71,0.71 h -8.4 a 0.49,0.49 0 0 0 -0.49,0.49 l -0.06,30.31 a 0.57,0.58 84.3 0 1 -0.46,0.56 q -0.43,0.09 -4.24,0.08 -3.81,-0.01 -4.23,-0.1 a 0.58,0.57 5.9 0 1 -0.46,-0.56 l 0.07,-30.31 a 0.49,0.49 0 0 0 -0.49,-0.49 l -8.4,-0.04 a 0.71,0.71 0 0 1 -0.71,-0.71 l 0.04,-7.66 a 0.75,0.75 0 0 1 0.75,-0.75 q 6.62,0.07 13.52,0.07 z"
     id="path109" />
  <path
     fill="#faecd5"
     d="m 366.02,590.09747 c 3.41,0.01 5.24,-2.15 5.32,-5.47 q 0.17,-6.98 0.19,-26.58 a 0.77,0.77 0 0 1 0.77,-0.76 h 7.75 a 0.77,0.77 0 0 1 0.77,0.75 q 0.41,17.19 -0.27,28.54 c -0.51,8.5 -6.43,12.39 -14.56,12.37 -8.12,-0.03 -14.02,-3.96 -14.47,-12.46 q -0.6,-11.36 -0.08,-28.55 a 0.77,0.77 0 0 1 0.77,-0.74 l 7.75,0.05 a 0.77,0.77 0 0 1 0.77,0.76 q -0.11,19.6 0.01,26.59 c 0.06,3.31 1.88,5.49 5.28,5.5 z"
     id="path110" />
  <path
     fill="#faecd5"
     d="m 402.06,590.58747 q -4.86,-0.04 -5.51,0.12 a 1.09,1.1 89.3 0 0 -0.79,0.82 l -1.09,4.67 a 1.71,1.71 0 0 1 -1.64,1.33 l -6.51,0.14 a 1.17,1.17 0 0 1 -1.15,-1.51 l 11.47,-38.18 a 1.08,1.08 0 0 1 0.98,-0.76 q 1.24,-0.06 4.52,-0.03 3.29,0.02 4.52,0.11 a 1.08,1.08 0 0 1 0.97,0.77 l 10.82,38.37 a 1.17,1.17 0 0 1 -1.17,1.49 l -6.5,-0.25 a 1.71,1.71 0 0 1 -1.62,-1.35 l -1.01,-4.7 a 1.1,1.09 1.7 0 0 -0.79,-0.82 q -0.64,-0.18 -5.5,-0.22 z m -3.66,-8.18 a 0.34,0.34 0 0 0 0.32,0.44 l 6.62,0.02 a 0.34,0.34 0 0 0 0.33,-0.43 l -3.26,-12.09 a 0.34,0.34 0 0 0 -0.66,0 z"
     id="path111" />
  <path
     fill="#faecd5"
     d="m 433.85,557.94747 v 30.29 a 0.76,0.76 0 0 0 0.76,0.76 h 11.92 a 0.76,0.76 0 0 1 0.76,0.76 v 7.28 a 0.76,0.76 0 0 1 -0.76,0.76 h -21.11 a 0.76,0.76 0 0 1 -0.76,-0.76 v -39.09 a 0.76,0.76 0 0 1 0.76,-0.76 h 7.67 a 0.76,0.76 0 0 1 0.76,0.76 z"
     id="path112" />
  <path
     fill="#faecd5"
     d="m 482.31,557.34747 q 3.28,0.02 4.51,0.1 a 1.07,1.08 83.7 0 1 0.97,0.77 l 10.9,38.27 a 1.17,1.17 0 0 1 -1.17,1.49 l -6.49,-0.23 a 1.71,1.71 0 0 1 -1.62,-1.35 l -1.02,-4.68 a 1.1,1.09 1.6 0 0 -0.78,-0.82 q -0.64,-0.18 -5.5,-0.21 -4.85,-0.02 -5.49,0.14 a 1.09,1.1 89.1 0 0 -0.8,0.82 l -1.07,4.66 a 1.71,1.71 0 0 1 -1.64,1.33 l -6.49,0.16 a 1.17,1.17 0 0 1 -1.15,-1.51 l 11.35,-38.14 a 1.08,1.07 7 0 1 0.98,-0.76 q 1.23,-0.06 4.51,-0.04 z m -3.69,25.12 a 0.31,0.31 0 0 0 0.3,0.39 l 6.43,0.02 a 0.31,0.31 0 0 0 0.3,-0.39 l -3.2,-12.06 a 0.31,0.31 0 0 0 -0.6,0 z"
     id="path113" />
  <rect
     fill="#faecd5"
     x="504.81003"
     y="557.26746"
     width="9.2600002"
     height="40.48"
     rx="0.76999998"
     id="rect113" />
  <path
     fill="#faecd5"
     d="m 552.4,597.73747 a 0.03,0.02 75.3 0 1 -0.02,0.04 l -10.06,-0.03 a 0.29,0.27 76.2 0 1 -0.25,-0.16 l -6.7,-12.77 a 2.03,2.1 88.5 0 0 -1.01,-0.93 q -0.69,-0.29 -1.94,-0.23 a 0.7,0.69 88.9 0 0 -0.66,0.69 l -0.04,12.72 a 0.69,0.69 0 0 1 -0.69,0.69 l -7.77,-0.03 a 0.87,0.88 0.2 0 1 -0.86,-0.88 l 0.14,-39.14 a 0.48,0.48 0 0 1 0.48,-0.48 q 9.66,0.02 10.27,0 c 9.62,-0.16 16.54,2.04 16.83,12.99 q 0.21,7.72 -6.19,11.63 a 0.55,0.56 59 0 0 -0.19,0.76 z m -20.63,-31.22 -0.06,8.14 a 0.66,0.66 0 0 0 0.66,0.66 l 4.75,0.04 a 3.93,4.01 0.4 0 0 3.95,-3.99 l 0.01,-1.44 a 3.93,4.01 0.4 0 0 -3.9,-4.03 l -4.75,-0.04 a 0.66,0.66 0 0 0 -0.66,0.66 z"
     id="path114" />
  <path
     fill="#faecd5"
     d="m 558.44,557.84747 a 0.6,0.6 0 0 1 0.59,-0.59 l 7.93,0.04 a 0.64,0.64 0 0 1 0.63,0.64 l -0.15,30.22 a 0.82,0.82 0 0 0 0.81,0.83 l 11.58,0.08 a 0.88,0.87 0.6 0 1 0.87,0.88 l -0.02,6.92 a 0.9,0.91 0.6 0 1 -0.91,0.9 l -20.71,-0.04 a 0.86,0.86 0 0 1 -0.85,-0.85 z"
     id="path115" />
  <path
     fill="#faecd5"
     d="m 615.21,579.37747 q -1.25,-2.38 -1.95,-3.62 a 0.26,0.26 0 0 0 -0.48,0.12 v 21.21 a 0.65,0.65 0 0 1 -0.65,0.65 h -7.87 a 0.67,0.67 0 0 1 -0.67,-0.67 v -39.34 a 0.55,0.55 0 0 1 0.55,-0.55 h 6.94 a 2.18,2.17 75.6 0 1 1.91,1.14 q 5.04,9.29 9.19,17.26 1.25,2.39 1.95,3.63 a 0.26,0.26 0 0 0 0.48,-0.13 v -21.21 a 0.65,0.65 0 0 1 0.65,-0.65 h 7.87 a 0.67,0.67 0 0 1 0.67,0.67 v 39.34 a 0.55,0.55 0 0 1 -0.55,0.55 h -6.94 a 2.18,2.17 75.6 0 1 -1.91,-1.14 q -5.04,-9.29 -9.19,-17.26 z"
     id="path116" />
  <path
     fill="#faecd5"
     d="m 667.33,589.57747 v 7.61 a 0.5,0.5 0 0 1 -0.5,0.5 h -23.82 a 0.5,0.5 0 0 1 -0.5,-0.5 v -39.54 a 0.5,0.5 0 0 1 0.5,-0.5 h 22.64 a 0.5,0.5 0 0 1 0.5,0.5 v 7.73 a 0.5,0.5 0 0 1 -0.5,0.5 h -13.57 a 0.5,0.5 0 0 0 -0.5,0.5 v 6.18 a 0.5,0.5 0 0 0 0.5,0.5 h 11.56 a 0.5,0.5 0 0 1 0.5,0.5 v 7.69 a 0.5,0.5 0 0 1 -0.5,0.5 h -11.58 a 0.5,0.5 0 0 0 -0.5,0.5 v 6.33 a 0.5,0.5 0 0 0 0.5,0.5 h 14.77 a 0.5,0.5 0 0 1 0.5,0.5 z"
     id="path117" />
  <rect
     fill="#faecd5"
     x="586.23999"
     y="557.27747"
     width="9.1599998"
     height="40.459999"
     rx="0.81"
     id="rect117" />
  <path
     fill="#b82115"
     d="m 293.91,566.25747 a 0.36,0.36 0 0 1 0.36,-0.36 l 4.67,-0.04 a 4,4.13 89.5 0 1 4.16,3.96 l 0.02,1.28 a 4,4.13 89.5 0 1 -4.1,4.04 l -4.67,0.04 a 0.36,0.36 0 0 1 -0.36,-0.36 z"
     id="path118" />
  <path
     fill="#b82115"
     d="m 531.77,566.51747 a 0.66,0.66 0 0 1 0.66,-0.66 l 4.75,0.04 a 3.93,4.01 0.4 0 1 3.9,4.03 l -0.01,1.44 a 3.93,4.01 0.4 0 1 -3.95,3.99 l -4.75,-0.04 a 0.66,0.66 0 0 1 -0.66,-0.66 z"
     id="path119" />
  <path
     fill="#b82115"
     d="m 398.4,582.40747 3.35,-12.06 a 0.34,0.34 0 0 1 0.66,0 l 3.26,12.09 a 0.34,0.34 0 0 1 -0.33,0.43 l -6.62,-0.02 a 0.34,0.34 0 0 1 -0.32,-0.44 z"
     id="path120" />
  <path
     fill="#b82115"
     d="m 478.62,582.46747 3.23,-12.04 a 0.31,0.31 0 0 1 0.6,0 l 3.2,12.06 a 0.31,0.31 0 0 1 -0.3,0.39 l -6.43,-0.02 a 0.31,0.31 0 0 1 -0.3,-0.39 z"
     id="path121" />
  <path
     fill="#faecd5"
     d="m 375.45,762.92747 -5.34,-18.76 a 0.48,0.48 0 0 0 -0.46,-0.35 h -36.71 a 0.48,0.48 0 0 0 -0.46,0.35 l -5.35,18.77 a 0.48,0.48 0 0 1 -0.46,0.35 h -26.26 a 0.48,0.48 0 0 1 -0.46,-0.63 l 36.39,-109.53 a 0.48,0.48 0 0 1 0.46,-0.33 h 29.63 a 0.48,0.48 0 0 1 0.46,0.33 l 36.32,109.52 a 0.48,0.48 0 0 1 -0.45,0.63 h -26.85 a 0.48,0.48 0 0 1 -0.46,-0.35 z m -36.08,-41.68 a 0.32,0.32 0 0 0 0.31,0.41 l 22.92,0.12 a 0.32,0.32 0 0 0 0.31,-0.41 l -11.26,-38.69 a 0.32,0.32 0 0 0 -0.61,-0.01 z"
     id="path122" />
  <path
     fill="#faecd5"
     d="m 445.78,763.27747 h -24.62 a 0.67,0.67 0 0 1 -0.67,-0.67 v -109.12 a 0.67,0.67 0 0 1 0.67,-0.67 h 68.18 a 0.67,0.67 0 0 1 0.67,0.67 v 21.62 a 0.67,0.67 0 0 1 -0.67,0.67 h -42.2 a 0.67,0.67 0 0 0 -0.67,0.67 v 20.75 a 0.67,0.67 0 0 0 0.67,0.67 h 36.44 a 0.67,0.67 0 0 1 0.67,0.67 v 21.51 a 0.67,0.67 0 0 1 -0.67,0.67 h -36.46 a 0.67,0.67 0 0 0 -0.67,0.67 v 41.22 a 0.67,0.67 0 0 1 -0.67,0.67 z"
     id="path123" />
  <path
     fill="#faecd5"
     d="m 551.79,741.07747 c 13.87,0 17.11,-8.12 17.06,-20.4 q -0.14,-30.3 -0.08,-67.53 a 0.35,0.36 0 0 1 0.35,-0.36 h 24.73 a 0.51,0.51 0 0 1 0.51,0.51 q 0.05,64.65 -0.01,72.6 c -0.1,12.39 -4.37,24.66 -14.64,31.76 -8.49,5.86 -17.74,7.06 -27.92,7.06 -10.18,-0.01 -19.43,-1.21 -27.92,-7.07 -10.27,-7.1 -14.54,-19.37 -14.63,-31.76 q -0.06,-7.95 0.01,-72.6 a 0.51,0.51 0 0 1 0.51,-0.51 l 24.73,0.01 a 0.35,0.36 0 0 1 0.35,0.36 q 0.05,37.23 -0.1,67.52 c -0.06,12.28 3.19,20.41 17.05,20.41 z"
     id="path124" />
  <path
     fill="#052b4e"
     d="m 339.37,721.24747 11.67,-38.58 a 0.32,0.32 0 0 1 0.61,0.01 l 11.26,38.69 a 0.32,0.32 0 0 1 -0.31,0.41 l -22.92,-0.12 a 0.32,0.32 0 0 1 -0.31,-0.41 z"
     id="path125" />
</svg>
