<?xml version="1.0" encoding="UTF-8" standalone="no"?>
<!DOCTYPE svg PUBLIC "-//W3C//DTD SVG 1.1//EN" "http://www.w3.org/Graphics/SVG/1.1/DTD/svg11.dtd">
<svg width="100%" height="100%" viewBox="0 0 1714 308" version="1.1" xmlns="http://www.w3.org/2000/svg" xmlns:xlink="http://www.w3.org/1999/xlink" xml:space="preserve" xmlns:serif="http://www.serif.com/" style="fill-rule:evenodd;clip-rule:evenodd;stroke-linejoin:round;stroke-miterlimit:2;">
    <g id="logo" transform="matrix(0.24408,0,0,0.24408,187.373,-164.015)">
        <g transform="matrix(1.47074,-0.00783966,0.00607105,1.13894,339.864,-1406.03)">
            <g transform="matrix(348.036,0,0,348.036,2734.8,2264.61)">
            </g>
            <text x="987.24px" y="2264.61px" style="font-family:'Anton-Regular', 'Anton';font-size:348.036px;fill:rgb(0,32,84);">A<tspan x="1211.85px 1346.38px 1567.93px 1705.19px 1899.71px 2120.24px 2341.79px 2566.39px " y="2264.61px 2264.61px 2264.61px 2264.61px 2264.61px 2264.61px 2264.61px 2264.61px ">IR FURAX</tspan></text>
        </g>
        <g id="Courbe-bleue" serif:id="Courbe bleue" transform="matrix(3.92731,-0.368087,0.141625,1.51106,-1512.95,280.837)">
            <path d="M1865.98,1014.3C1868.41,1015.38 1833.33,1046.9 1816.43,1054.69C1574.82,1166.12 1248.75,1209.41 984.624,1198.86C797.714,1189.75 608.985,1164.26 433.53,1096.42C415.752,1089.3 397.26,1081.28 380.008,1072.93C317.593,1042.35 244.046,996.289 216.347,929.613C193.717,876.455 210.812,820.657 248.853,780.064C261.161,766.384 275.236,754.387 289.955,743.418C338.752,707.754 395.312,683.463 451.952,663.977C567.71,625.29 688.262,605.798 809.309,596.659C811.8,596.48 813.966,598.354 814.146,600.845C814.314,603.182 812.651,605.237 810.391,605.63C751.064,615.752 692.154,627.583 634.119,642.254C525.15,669.9 311.466,735.661 261.954,842.138C246.467,876.915 256.284,909.661 279.59,937.815C331.045,999.017 430.257,1037.79 505.715,1062.02C544.3,1074.27 583.687,1084.41 623.208,1093.23C830.339,1137.99 1043.95,1149.12 1255.32,1139.45C1418.09,1130.67 1582.02,1110.09 1737.39,1059.43C1770.49,1048.44 1865.98,1014.3 1865.98,1014.3Z" style="fill:rgb(0,33,87);fill-rule:nonzero;"/>
        </g>
        <g id="Courbe-rouge" serif:id="Courbe rouge" transform="matrix(3.92731,-0.368087,0.141625,1.51106,-1701.82,418.411)">
            <path d="M1809.82,700.718C1894.9,734.152 2017.54,802.959 1989.81,911.85C1968.26,987.43 1882.22,1039.56 1815.29,1071.69C1573.68,1183.12 1248.75,1209.41 984.624,1198.86C797.714,1189.75 608.985,1164.26 433.53,1096.42C415.752,1089.3 397.26,1081.28 380.008,1072.93C317.593,1042.35 244.046,996.289 216.347,929.613C193.717,876.455 210.812,820.657 248.853,780.064C261.161,766.384 275.236,754.387 289.955,743.418C338.752,707.754 395.312,683.463 451.952,663.977C567.71,625.29 688.262,605.798 809.309,596.659C811.8,596.48 813.966,598.354 814.146,600.845C814.314,603.182 812.651,605.237 810.391,605.63C751.064,615.752 692.154,627.583 634.119,642.254C525.15,669.9 311.466,735.661 261.954,842.138C246.467,876.915 256.284,909.661 279.59,937.815C331.045,999.017 430.257,1037.79 505.715,1062.02C544.3,1074.27 583.687,1084.41 623.208,1093.23C830.339,1137.99 1043.95,1149.12 1255.32,1139.45C1418.09,1130.67 1582.02,1110.09 1737.39,1059.43C1779.07,1045.59 1820.34,1028.91 1858.6,1007.78C1890.19,990.175 1919.56,969.773 1942.43,942.495C1990.11,884.123 1969.86,827.19 1919.03,778.923C1886.46,748.315 1847.94,725.053 1808.14,704.443C1805.8,703.204 1807.5,699.825 1809.82,700.718Z" style="fill:rgb(247,29,37);fill-rule:nonzero;"/>
        </g>
        <g id="avion" transform="matrix(-8.24696,0,0,9.00615,5539.57,-1151.33)">
            <path d="M26.595,248.917C26.907,248.714 27.844,248.063 28.678,247.47C31.723,245.305 43.907,236.949 44.659,236.51C45.314,236.127 45.687,236.047 47.092,235.985C48.005,235.945 49.242,235.973 49.842,236.047L50.933,236.183L47.949,237.789C46.307,238.672 41.764,241.12 37.854,243.227C33.944,245.335 29.761,247.563 28.56,248.178C26.384,249.293 25.515,249.62 26.595,248.917L26.595,248.917ZM18.736,242.226C18.736,242.176 19.907,241.594 21.339,240.932C31.508,236.231 34.296,234.981 36.244,234.252L38.129,233.546L40.41,233.666C43.036,233.804 44.526,233.994 44.112,234.139C41.834,234.937 28.996,239.075 23.281,240.854C21.145,241.519 19.249,242.12 19.067,242.19C18.885,242.259 18.736,242.276 18.736,242.226L18.736,242.226ZM60.493,232.988C52.772,232.682 43.736,231.225 37.743,229.319C34.588,228.316 33.696,227.819 33.696,227.065C33.696,226.837 33.083,226.719 29.956,226.346C20.224,225.184 18.925,225.011 18.925,224.876C18.925,224.633 19.798,224.419 21.248,224.308C22.708,224.196 28.834,224.516 28.914,224.709C28.94,224.771 30.559,224.77 32.512,224.706C37.755,224.534 38.475,224.559 40.865,225.006C42.064,225.23 43.077,225.441 43.116,225.476C43.155,225.51 43.054,225.819 42.892,226.162C42.73,226.504 42.597,226.803 42.597,226.826C42.597,226.849 43.087,226.765 43.686,226.64C44.285,226.515 45.975,226.223 47.442,225.991C49.964,225.592 50.214,225.581 52.047,225.784C53.935,225.993 55.474,225.985 55.474,225.765C55.474,225.705 54.212,225.436 52.67,225.169L49.865,224.682L47.087,225.295C45.56,225.633 44.224,225.909 44.119,225.909C44.014,225.909 44.267,225.514 44.682,225.032C45.481,224.102 45.574,223.904 45.213,223.904C45.089,223.904 42.737,223.637 39.986,223.311L34.984,222.719L33.819,223.05C32.562,223.408 29.867,224.071 29.668,224.071C29.601,224.071 29.969,223.722 30.485,223.296C31.001,222.87 31.423,222.438 31.423,222.336C31.423,222.218 29.125,221.883 25.126,221.417C17.035,220.476 13.782,220.072 13.455,219.97C13.025,219.835 13.724,219.285 15.065,218.703L16.25,218.188L19.245,218.379C20.891,218.484 24.455,218.718 27.163,218.9C29.871,219.083 34.43,219.378 37.294,219.557C40.159,219.735 46.635,220.15 51.687,220.477C62.465,221.177 66.7,221.29 66.793,220.88C66.843,220.659 66.584,220.596 65.283,220.512C61.468,220.264 45.159,219.032 41.461,218.712C37.329,218.354 36.916,218.254 36.916,217.612C36.916,217.494 36.064,214.295 35.022,210.502C33.981,206.709 33.129,203.472 33.129,203.309C33.128,202.919 33.659,202.757 35.641,202.543C36.781,202.42 37.454,202.419 37.847,202.54C38.518,202.747 40.495,204.85 46.465,211.709C48.745,214.327 50.916,216.76 51.291,217.116C52.755,218.506 53.939,218.549 58.965,217.394C67.843,215.354 78.341,212.749 84.582,211.037C99.193,207.029 102.135,206.404 105.551,206.582C109.357,206.779 111.698,207.607 114.322,209.683C115.234,210.404 116.424,211.192 116.967,211.434C119.179,212.422 120.162,213.728 120.004,215.469C119.9,216.612 119.24,217.903 118.412,218.582C116.103,220.476 110.129,222.856 104.617,224.077L103.291,224.371L104.333,224.388C104.906,224.398 106.042,224.293 106.859,224.155C107.675,224.017 108.636,223.904 108.994,223.904L109.644,223.904L109.308,224.357C109.043,224.714 108.973,225.161 108.974,226.487C108.975,228.021 109.022,228.239 109.521,229.034C110.118,229.988 111.075,230.669 112.214,230.95L112.949,231.132L112.192,231.377C109.861,232.129 106.192,232.485 104.617,232.111C104.2,232.011 103.178,231.773 102.344,231.581C100.29,231.107 99.925,230.752 100.01,229.307C100.062,228.414 100.026,228.26 99.788,228.346C98.67,228.751 98.407,228.775 97.275,228.578C94.939,228.17 94.702,228.184 92.053,228.902C81.514,231.757 69.302,233.338 60.493,232.989L60.493,232.988ZM69.896,230.46C70.019,230.351 69.158,230.266 67.371,230.21C64.527,230.121 63.732,229.966 62.718,229.302C61.867,228.744 61.493,228.022 61.464,226.882C61.451,226.348 61.382,225.911 61.311,225.91C61.045,225.907 60.403,226.799 60.291,227.329C60.016,228.619 60.997,229.403 63.982,230.284C65.463,230.721 65.786,230.757 67.657,230.694C68.786,230.656 69.793,230.551 69.896,230.46ZM74.357,228.587C76.258,227.565 76.416,224.105 74.641,222.367L73.938,221.679L76.434,221.794C77.807,221.858 79.341,222.014 79.843,222.142C80.589,222.332 83.139,222.734 83.596,222.734C83.919,222.734 83.361,222.327 82.672,222.058C81.262,221.509 78.007,221.205 74.163,221.262C70.721,221.313 70.644,221.322 70.141,221.732C69.859,221.962 69.512,222.391 69.369,222.687C69.026,223.398 69.038,225.354 69.391,226.237C70.232,228.338 72.672,229.494 74.357,228.587ZM71.645,227.929C70.437,227.279 69.836,226.107 69.846,224.418C69.855,222.975 70.13,222.502 71.251,222.011C72.959,221.262 74.478,222.455 75.001,224.956C75.202,225.921 75.189,226.148 74.894,226.831C74.332,228.129 72.91,228.61 71.645,227.929ZM68.805,220.131C68.981,219.727 68.945,219.487 68.656,219.139C68.432,218.869 68.347,218.854 68.088,219.044C67.921,219.166 67.784,219.431 67.784,219.631C67.784,220.286 68.57,220.672 68.805,220.131L68.805,220.131ZM70.699,219.797C71.024,219.049 70.576,218.165 70.089,218.595C69.851,218.805 69.783,219.765 69.993,219.95C70.217,220.147 70.581,220.069 70.699,219.797L70.699,219.797ZM72.613,218.889C72.613,218.251 72.556,218.14 72.234,218.14C71.943,218.14 71.841,218.269 71.794,218.699C71.714,219.437 71.874,219.764 72.281,219.695C72.538,219.652 72.613,219.471 72.613,218.889ZM74.601,218.808C74.787,218.378 74.566,217.555 74.265,217.555C73.779,217.555 73.399,218.778 73.78,219.115C74.048,219.35 74.429,219.208 74.601,218.808ZM76.689,218.223C76.855,217.625 76.695,217.221 76.292,217.221C76.045,217.221 75.908,217.388 75.822,217.795C75.755,218.111 75.759,218.453 75.831,218.556C76.049,218.867 76.565,218.667 76.689,218.223L76.689,218.223ZM78.771,217.716C79.014,217.316 78.868,216.79 78.479,216.658C78.175,216.555 77.82,217.018 77.82,217.516C77.82,218.137 78.437,218.266 78.771,217.716ZM80.814,216.752C80.741,215.985 80.206,215.817 79.875,216.457C79.707,216.783 79.706,216.989 79.872,217.311C80.06,217.674 80.147,217.708 80.481,217.551C80.787,217.406 80.859,217.233 80.814,216.752L80.814,216.752ZM82.629,216.79C82.795,216.409 82.766,215.839 82.566,215.561C82.424,215.362 82.343,215.359 82.096,215.54C81.8,215.757 81.681,216.728 81.924,216.943C82.147,217.14 82.511,217.061 82.629,216.79L82.629,216.79ZM84.934,216.151C85.054,215.73 84.753,215.049 84.446,215.049C84.348,215.049 84.132,215.232 83.966,215.456C83.731,215.772 83.711,215.939 83.874,216.208C84.164,216.687 84.791,216.653 84.934,216.151L84.934,216.151ZM86.985,215.787C87.195,215.305 87.104,214.896 86.75,214.729C86.509,214.615 86.332,214.624 86.182,214.756C85.946,214.965 85.884,215.759 86.09,215.94C86.324,216.147 86.869,216.054 86.985,215.787L86.985,215.787ZM88.956,215.35C89.522,214.85 88.931,213.775 88.331,214.214C88.044,214.424 87.94,215.233 88.173,215.439C88.367,215.61 88.704,215.572 88.956,215.35L88.956,215.35ZM91.039,214.805C91.191,214.51 91.195,214.25 91.051,213.886C90.815,213.29 90.631,213.252 90.256,213.724C89.98,214.072 90.029,214.623 90.37,215.008C90.642,215.314 90.801,215.266 91.039,214.805L91.039,214.805ZM93.311,214.181C93.84,213.714 93.341,212.716 92.689,212.937C92.399,213.035 92.277,214.048 92.529,214.27C92.723,214.441 93.06,214.402 93.311,214.181ZM95.394,213.846C95.736,213.545 95.68,212.599 95.314,212.475C94.879,212.328 94.485,212.672 94.485,213.199C94.485,213.609 94.779,214.047 95.054,214.047C95.116,214.047 95.269,213.957 95.394,213.846L95.394,213.846ZM105.848,211.054C106.151,210.864 106.343,210.561 106.382,210.214C106.488,209.268 106.381,209.196 105.257,209.458C104.014,209.747 103.65,210.081 103.491,211.075L103.365,211.863L104.37,211.608C104.922,211.468 105.587,211.219 105.848,211.054ZM109.771,210.641C109.798,210.618 109.709,210.265 109.573,209.858L109.325,209.119L108.404,209.162C107.264,209.216 106.795,209.558 106.795,210.337L106.795,210.919L108.258,210.802C109.063,210.737 109.744,210.665 109.771,210.642L109.771,210.641ZM113.612,210.42C113.612,210.354 113.254,209.978 112.815,209.584C112.076,208.919 111.946,208.868 111.016,208.868C110.041,208.868 110.014,208.881 110.014,209.343C110.014,209.85 110.436,210.285 111.056,210.418C111.663,210.549 113.612,210.55 113.612,210.419L113.612,210.42ZM111.211,229.84C109.342,228.509 109.001,225.603 110.569,224.367C111.533,223.607 113.093,223.885 113.891,224.959C114.735,226.095 114.658,228.632 113.75,229.637C113.128,230.324 112.017,230.413 111.211,229.84ZM114.938,225.362C114.938,225.01 113.777,223.88 113.154,223.625C112.615,223.406 112.708,223.394 114.37,223.475C115.359,223.523 117.376,223.612 118.85,223.672C121.729,223.79 122.168,223.883 121.782,224.293C121.352,224.75 120.35,225.042 118.294,225.309C115.798,225.633 114.938,225.647 114.938,225.362L114.938,225.362Z" style="fill:rgb(247,29,37);fill-rule:nonzero;"/>
        </g>
    </g>
</svg>
