<?xml version="1.0" encoding="UTF-8" standalone="no"?>
<!DOCTYPE svg PUBLIC "-//W3C//DTD SVG 1.1//EN" "http://www.w3.org/Graphics/SVG/1.1/DTD/svg11.dtd">
<svg width="100%" height="100%" viewBox="0 0 558 604" version="1.1" xmlns="http://www.w3.org/2000/svg" xmlns:xlink="http://www.w3.org/1999/xlink" xml:space="preserve" xmlns:serif="http://www.serif.com/" style="fill-rule:evenodd;clip-rule:evenodd;stroke-linejoin:round;stroke-miterlimit:2;">
    <g id="logoQueue" transform="matrix(0.905462,0,0,0.809497,-3047.78,-2003.51)">
        <g transform="matrix(0.33065,-0.401107,0.264108,0.319991,3077.93,3006.32)">
            <path d="M1809.82,700.718C1894.9,734.152 2017.54,802.959 1989.81,911.85C1968.26,987.43 1882.22,1039.56 1815.29,1071.69C1573.68,1183.12 1248.75,1209.41 984.624,1198.86C797.714,1189.75 608.985,1164.26 433.53,1096.42C415.752,1089.3 397.26,1081.28 380.008,1072.93C317.593,1042.35 244.046,996.289 216.347,929.613C193.717,876.455 210.812,820.657 248.853,780.064C261.161,766.384 275.236,754.387 289.955,743.418C338.752,707.754 395.312,683.463 451.952,663.977C567.71,625.29 698.142,621.03 819.189,611.891C821.68,611.712 823.846,613.586 824.026,616.077C824.194,618.414 822.531,620.469 820.271,620.862C760.944,630.984 692.154,627.583 634.119,642.254C525.15,669.9 311.466,735.661 261.954,842.138C246.467,876.915 256.284,909.661 279.59,937.815C331.045,999.017 430.257,1037.79 505.715,1062.02C544.3,1074.27 583.687,1084.41 623.208,1093.23C830.339,1137.99 1043.95,1149.12 1255.32,1139.45C1418.09,1130.67 1582.02,1110.09 1737.39,1059.43C1779.07,1045.59 1820.34,1028.91 1858.6,1007.78C1890.19,990.175 1919.56,969.773 1942.43,942.495C1990.11,884.123 1969.86,827.19 1919.03,778.923C1886.46,748.315 1847.94,725.053 1808.14,704.443C1805.8,703.204 1807.5,699.825 1809.82,700.718Z" style="fill:white;fill-rule:nonzero;"/>
        </g>
        <g transform="matrix(0.202144,-0.239982,0.131915,0.134448,3265.23,2994.52)">
            <path d="M1148.04,931.175L1211,829.46L1246.42,829.46C1248.21,829.46 1249.66,828.013 1249.66,826.22L1249.66,787.988C1249.66,786.199 1248.21,784.747 1246.42,784.747L1238.68,784.747L1269.23,735.409L1300.7,735.409C1302.48,735.409 1303.94,733.958 1303.94,732.169L1303.94,693.936C1303.94,692.147 1302.48,690.696 1300.7,690.696L1296.91,690.696L1327.83,640.739L1441.16,640.739C1502.22,640.739 1550.02,616.377 1550.02,600.811C1550.02,585.244 1502.22,560.883 1441.16,560.883L1327.83,560.883L1296.91,510.925L1300.7,510.925C1302.48,510.925 1303.94,509.474 1303.94,507.685L1303.94,469.452C1303.94,467.663 1302.48,466.212 1300.7,466.212L1269.23,466.212L1238.68,416.874L1246.42,416.874C1248.21,416.874 1249.66,415.423 1249.66,413.634L1249.66,375.401C1249.66,373.609 1248.21,372.161 1246.42,372.161L1211,372.161L1148.04,270.446C1145.94,267.06 1142.24,265 1138.26,265L1111.44,265C1108.7,265 1106.79,267.722 1107.72,270.304L1162.39,421.955L1158.44,421.955C1157.21,421.955 1156.04,422.247 1155.19,422.724C1154.33,423.197 1153.78,423.855 1153.78,424.579C1153.78,426.03 1156.05,427.203 1158.44,427.203L1164.28,427.203L1183.52,480.55L1183.52,504.035L1177.55,504.035C1176.32,504.035 1175.16,504.327 1174.3,504.804C1173.45,505.277 1172.9,505.935 1172.9,506.659C1172.9,508.11 1175.17,509.283 1177.55,509.283L1183.52,509.283L1183.52,560.883L1138.65,560.883C1107.69,560.883 1081.03,562.239 1058.12,564.45L1058.14,564.447L993.617,469.038C992.618,467.56 990.951,466.675 989.167,466.675L972.732,466.675C969.322,466.675 966.774,469.812 967.474,473.15L977.946,523.102L974.233,523.102C973.001,523.102 971.838,523.395 970.982,523.871C970.126,524.345 969.58,525.002 969.58,525.726C969.58,527.178 971.849,528.35 974.233,528.35L979.049,528.35L986.385,563.343L982.404,563.343C981.172,563.343 980.01,563.636 979.153,564.112C978.297,564.586 977.751,565.244 977.751,565.967C977.751,567.419 980.02,568.591 982.404,568.591L987.485,568.591L988.981,575.729C963.688,582.012 948.01,589.02 939.049,594.028L908.758,594.028C905.57,594.028 902.563,594.787 900.354,596.015C898.144,597.24 896.731,598.938 896.731,600.811C896.731,604.559 902.591,607.594 908.758,607.594L939.049,607.594C948.01,612.601 963.688,619.609 988.981,625.893L987.485,633.03L982.404,633.03C980.02,633.03 977.751,634.203 977.751,635.654C977.751,636.378 978.297,637.036 979.153,637.509C980.01,637.986 981.172,638.278 982.404,638.278L986.385,638.278L979.049,673.271L974.233,673.271C971.849,673.271 969.58,674.444 969.58,675.895C969.58,676.619 970.126,677.277 970.982,677.75C971.838,678.227 973.001,678.519 974.233,678.519L977.946,678.519L967.474,728.472C966.774,731.81 969.322,734.946 972.732,734.946L989.167,734.946C990.951,734.946 992.618,734.061 993.617,732.583L1058.14,637.175L1058.12,637.172C1081.03,639.383 1107.69,640.739 1138.65,640.739L1183.52,640.739L1183.52,692.339L1177.55,692.339C1175.17,692.339 1172.9,693.512 1172.9,694.963C1172.9,695.687 1173.45,696.345 1174.3,696.818C1175.16,697.295 1176.32,697.587 1177.55,697.587L1183.52,697.587L1183.52,721.071L1164.28,774.418L1158.44,774.418C1156.05,774.418 1153.78,775.591 1153.78,777.042C1153.78,777.766 1154.33,778.424 1155.19,778.897C1156.04,779.374 1157.21,779.666 1158.44,779.666L1162.39,779.666L1107.72,931.318C1106.79,933.9 1108.7,936.621 1111.44,936.621L1138.26,936.621C1142.24,936.621 1145.94,934.561 1148.04,931.175Z" style="fill:white;fill-rule:nonzero;"/>
        </g>
    </g>
</svg>
