<?xml version="1.0" encoding="UTF-8" standalone="no"?>
<svg
   width="300"
   height="300"
   version="1.1"
   id="svg8"
   sodipodi:docname="cocarde_marine_fr.svg"
   inkscape:version="1.2.2 (732a01da63, 2022-12-09)"
   xmlns:inkscape="http://www.inkscape.org/namespaces/inkscape"
   xmlns:sodipodi="http://sodipodi.sourceforge.net/DTD/sodipodi-0.dtd"
   xmlns="http://www.w3.org/2000/svg"
   xmlns:svg="http://www.w3.org/2000/svg"
   xmlns:rdf="http://www.w3.org/1999/02/22-rdf-syntax-ns#"
   xmlns:cc="http://creativecommons.org/ns#"
   xmlns:dc="http://purl.org/dc/elements/1.1/">
  <metadata
     id="metadata14">
    <rdf:RDF>
      <cc:Work
         rdf:about="">
        <dc:format>image/svg+xml</dc:format>
        <dc:type
           rdf:resource="http://purl.org/dc/dcmitype/StillImage" />
      </cc:Work>
    </rdf:RDF>
  </metadata>
  <defs
     id="defs12" />
  <sodipodi:namedview
     pagecolor="#ffffff"
     bordercolor="#666666"
     borderopacity="1"
     objecttolerance="10"
     gridtolerance="10"
     guidetolerance="10"
     inkscape:pageopacity="0"
     inkscape:pageshadow="2"
     inkscape:window-width="1920"
     inkscape:window-height="991"
     id="namedview10"
     showgrid="false"
     inkscape:zoom="2"
     inkscape:cx="134.75"
     inkscape:cy="156.75"
     inkscape:window-x="-9"
     inkscape:window-y="-9"
     inkscape:window-maximized="1"
     inkscape:current-layer="svg8"
     inkscape:showpageshadow="2"
     inkscape:pagecheckerboard="0"
     inkscape:deskcolor="#d1d1d1" />
  <g
     id="g3883"
     transform="matrix(0.5,0,0,0.5,-0.25,-0.25)">
    <circle
       cx="300.5"
       cy="300.5"
       r="300"
       id="circle2"
       style="fill:#ce1126;fill-opacity:1;stroke:none" />
    <circle
       cx="300.5"
       cy="300.5"
       r="200"
       id="circle4"
       style="fill:#ffffff;stroke:none" />
    <circle
       cx="300.5"
       cy="300.5"
       r="100"
       id="circle6"
       style="fill:#002654;fill-opacity:1;stroke:none" />
    <path
       style="fill:#000000;fill-opacity:1;fill-rule:evenodd;stroke:none;stroke-width:1.3239px;stroke-linecap:butt;stroke-linejoin:round;stroke-opacity:1"
       d="m 286.5,100.5 -1.6992,37.40039 H 200.5 v 22 h 82.9004 L 267.67,494.39258 c 0,0 -0.077,29.55957 -33.2637,26.64062 C 143.2329,513.014 112.8516,460.7168 112.8516,460.7168 L 125.9668,452.06836 68.5,404.5 l 8.068398,80.74805 12.9492,-8.27344 c 0,0 23.442402,42.20452 77.574202,66.07031 48.7225,19.67434 78.3651,21.06417 110.0118,36.77735 C 290.8464,586.65396 300.5,598.5 300.5,598.5 c 0,0 9.6537,-11.84604 23.3965,-18.67773 31.6467,-15.71318 61.2893,-17.10301 110.0117,-36.77735 54.1318,-23.86579 77.5743,-66.07031 77.5743,-66.07031 l 12.9492,8.27344 L 532.5,404.5 l -57.4668,47.56836 13.1153,8.64844 c 0,0 -30.3814,52.2972 -121.5547,60.3164 -33.1866,2.91895 -33.2637,-26.64062 -33.2637,-26.64062 L 317.5996,159.90039 H 400.5 v -22 H 316.1993 L 314.5,100.5 Z"
       id="path8682-1"
       inkscape:connector-curvature="0"
       sodipodi:nodetypes="ccccccscccccccccccccccsccccccc" />
    <path
       style="opacity:1;fill:#000000;fill-opacity:1;fill-rule:nonzero;stroke:none;stroke-width:5.63441;stroke-linecap:butt;stroke-linejoin:miter;stroke-miterlimit:4;stroke-dasharray:none;stroke-opacity:1;paint-order:stroke fill markers"
       d="m 300.5,2.500003 a 60,60 0 0 0 -60,59.999998 60,60 0 0 0 60,59.999999 60,60 0 0 0 60,-59.999999 60,60 0 0 0 -60,-59.999998 z m 0,19 a 41,41 0 0 1 41,40.999998 41,41 0 0 1 -41,40.999999 41,41 0 0 1 -41,-40.999999 41,41 0 0 1 41,-40.999998 z"
       id="path850"
       inkscape:connector-curvature="0" />
  </g>
</svg>
