<?xml version="1.0" encoding="UTF-8" standalone="no"?>
<!-- Created with Inkscape (http://www.inkscape.org/) -->

<svg
   xmlns:dc="http://purl.org/dc/elements/1.1/"
   xmlns:cc="http://creativecommons.org/ns#"
   xmlns:rdf="http://www.w3.org/1999/02/22-rdf-syntax-ns#"
   xmlns:svg="http://www.w3.org/2000/svg"
   xmlns="http://www.w3.org/2000/svg"
   xmlns:sodipodi="http://sodipodi.sourceforge.net/DTD/sodipodi-0.dtd"
   xmlns:inkscape="http://www.inkscape.org/namespaces/inkscape"
   width="1015.3557"
   height="1052.6924"
   id="svg2"
   version="1.1"
   inkscape:version="0.48.3.1 r9886"
   sodipodi:docname="Nouveau document 1">
  <defs
     id="defs4" />
  <sodipodi:namedview
     id="base"
     pagecolor="#ffffff"
     bordercolor="#666666"
     borderopacity="1.0"
     inkscape:pageopacity="0.0"
     inkscape:pageshadow="2"
     inkscape:zoom="0.35"
     inkscape:cx="51.545975"
     inkscape:cy="496.0862"
     inkscape:document-units="px"
     inkscape:current-layer="layer1"
     showgrid="false"
     fit-margin-top="0"
     fit-margin-left="0"
     fit-margin-right="0"
     fit-margin-bottom="0"
     inkscape:window-width="1366"
     inkscape:window-height="691"
     inkscape:window-x="0"
     inkscape:window-y="24"
     inkscape:window-maximized="1" />
  <metadata
     id="metadata7">
    <rdf:RDF>
      <cc:Work
         rdf:about="">
        <dc:format>image/svg+xml</dc:format>
        <dc:type
           rdf:resource="http://purl.org/dc/dcmitype/StillImage" />
        <dc:title></dc:title>
      </cc:Work>
    </rdf:RDF>
  </metadata>
  <g
     inkscape:label="Calque 1"
     inkscape:groupmode="layer"
     id="layer1"
     transform="translate(119.47715,35.71954)">
    <path
       inkscape:connector-curvature="0"
       id="path2998"
       d="m 358.5,1016.4985 c -13.68204,-0.7907 -35.55941,-2.6396 -40,-3.3805 -36.43859,-6.0795 -66.40945,-13.69488 -95.5,-24.26598 -10.87168,-3.9506 -37.51534,-15.1993 -40.5,-17.0986 -1.1,-0.7001 -6.275,-3.2113 -11.5,-5.5805 -5.225,-2.3692 -10.175,-4.8618 -11,-5.5391 -0.825,-0.6772 -4.875,-2.99807 -9,-5.15737 -4.125,-2.1593 -10.35283,-5.70407 -13.83962,-7.87727 -13.53125,-8.43358 -25.83259,-16.47126 -29.66038,-19.38006 -5.15163,-3.9148 -12.214974,-9.16051 -14.896914,-11.06344 -15.58653,-11.0592 -44.31514,-36.95342 -64.3573,-58.00778 -15.31659,-16.09012 -17.40479,-18.48965 -26.5427503,-30.5 -16.0853997,-21.14161 -15.2909297,-20.03824 -29.1616797,-40.5 -6.80133,-10.03314 -9.54523,-14.5266 -19.4311,-31.8207 -24.15045,-42.24822 -43.89107,-89.48165 -54.581856,-130.59815 -1.99049,-7.65536 -3.77809,-14.18036 -3.97245,-14.5 -0.61461,-1.01079 -4.43437,-20.09482 -6.62133,-33.08115 -6.48056,-38.48186 -7.43993,-50.58538 -7.41115,-93.5 0.0257,-38.33782 1.7966,-63.31906 5.95465,-84 0.77407,-3.85 2.58254,-13.525 4.01881,-21.5 3.0833,-17.12024 12.510026,-53.78992 15.552806,-60.5 0.49881,-1.1 2.90825,-7.625 5.35431,-14.5 10.80466,-30.36809 30.84296,-70.31307 50.20912,-100.08849 12.68181,-19.49824 22.03232,-32.51892 32.8689697,-45.77035 3.30982,-4.04736 6.90389,-8.54736 7.98682,-10 7.08719,-9.50677 39.5520803,-43.19399 50.2492203,-52.141157 1.64394,-1.375 5.86737,-4.98271 9.3854,-8.01713 21.9794,-18.95798 43.090874,-34.30053 68.896424,-50.06978 12.33959,-7.54048 46.42083,-25.82951 54,-28.9780501 3.575,-1.48512 10.55,-4.47466 15.5,-6.64341 4.95,-2.16876004 11.7,-4.97282 15,-6.23125 3.3,-1.25844 7.35,-2.85746 9,-3.55339 3.43192,-1.44748 16.16229,-5.5334999 25,-8.0241499 3.3,-0.93 8.025,-2.30604 10.5,-3.05785 12.05964,-3.66328 15.69498,-4.56962 31.5,-7.85339 36.8558,-7.65743 66.5702,-10.18105 109,-9.25725 69.50459,1.51327 125.82399,13.60542 185.49999,39.8281599 7.425,3.26268 14.625,6.5427301 16,7.2890101 1.375,0.74628 7,3.68259 12.5,6.52514 18.8197,9.72649 25.0013,13.17267 27.0136,15.05965 1.1076,1.03853 3.7393,2.60925 5.8485,3.4905 2.1091,0.88125 5.9863,3.26523 8.616,5.29773 2.6297,2.0325 8.0979,5.83642 12.1516,8.45315 12.7126,8.20623 13.1683,8.54273 35.2594,26.0359 21.265,16.83895 23.5006,18.81937 39.3088,34.821777 21.098,21.35716 40.26,43.22671 47.6516,54.38463 1.4574,2.2 5.4667,7.825 8.9096,12.5 5.9844,8.12594 9.473,13.50571 19.9429,30.75388 8.4121,13.85792 23.7856,42.94421 28.9361,54.74612 1.6801,3.85 4.35,9.7896 5.9331,13.19912 4.7875,10.31144 13.4463,33.90676 18.2758,49.80229 7.7385,25.47002 14.6249,61.84576 18.1738,95.99859 1.7477,16.81938 3.3306,63.69188 2.7692,82 -1.6477,53.728 -13.4523,116.93763 -30.7209,164.5 -2.4961,6.875 -4.5453,13.07533 -4.5538,13.77852 -0.01,0.70318 -1.3103,3.85318 -2.8931,7 -1.5828,3.14681 -4.1308,8.87148 -5.6622,12.72148 -5.2746,13.26069 -18.5142,39.22209 -29.8333,58.5 -18.3683,31.28351 -34.9627,54.41664 -57.909,80.72692 -12.1468,13.92749 -43.0384,45.08354 -51.2201,51.65853 -2.8161,2.263 -11.6175,9.33479 -19.5588,15.71508 -7.9414,6.38029 -17.5888,13.6771 -21.4388,16.21514 -21.7581,14.3436 -32.6311,21.39798 -35.6292,23.11609 -17.2993,9.91391 -26.6,14.82336 -39.8708,21.04596 -8.525,3.9974 -16.625,7.5964 -18,7.9978 -1.375,0.4014 -3.85,1.4973 -5.5,2.4354 -1.65,0.938 -8.4,3.6345 -15,5.9922 -6.6,2.3577 -14.025,5.0903 -16.5,6.0724 -2.475,0.9821 -9,3.0125 -14.5,4.512 -5.5,1.4996 -12.9916,3.58368 -16.648,4.63148 -14.4575,4.1427 -47.6087,10.2985 -66.85199,12.4136 -25.7035,2.8251 -61.3229,4.0418 -82.5,2.818 z m 67,-30.30728 c 21.02339,-2.3017 55.54079,-8.3386 68.86329,-12.0438 41.779,-11.6195 60.6629,-18.53981 91.1367,-33.39842 16.9576,-8.26832 17.0815,-8.33556 34.3573,-18.64772 22.19,-13.24554 29.7397,-18.33637 48.8092,-32.91233 28.2912,-21.62482 63.6023,-56.18083 83.8335,-82.04093 11.1436,-14.24401 24.504,-32.45557 28.5379,-38.89998 23.7919,-38.0085 39.8486,-69.57281 51.175,-100.60014 2.2086,-6.05 4.5971,-12.575 5.3078,-14.5 4.9878,-13.50952 14.2769,-48.68236 16.5062,-62.5 0.5324,-3.3 1.6505,-9.375 2.4846,-13.5 9.0338,-44.67704 10.8727,-104.6643 4.8895,-159.5 -1.4194,-13.00866 -8.6639,-51.56682 -11.8368,-63 -2.7412,-9.8778 -11.6924,-37.87103 -12.7292,-39.80831 -0.5822,-1.0879 -2.2995,-5.62608 -3.8162,-10.08485 -9.5543,-28.0882 -37.4505,-81.11775 -56.7899,-107.95523 -1.2491,-1.73339 -3.5251,-5.01585 -5.0578,-7.29436 -3.0427,-4.5232 -3.4808,-5.07838 -18.432,-23.35725 -21.0171,-25.69466 -59.558,-61.76151 -85.8305,-80.320697 -2.9747,-2.10139 -10.1336,-7.15812 -15.9086,-11.23717 -5.775,-4.07905 -12.3,-8.38268 -14.5,-9.56363 -2.2,-1.18094 -4.225,-2.46111 -4.5,-2.84482 -0.8676,-1.21057 -28.0865,-16.41404 -38,-21.22537 -15.9595,-7.74569 -31.8382,-14.79693 -40.3763,-17.92994 -27.8136,-10.206 -48.6481,-16.3796001 -67.1237,-19.8897801 -8.8,-1.67192 -17.6109,-3.47342004 -19.5797,-4.00333004 C 449.64549,-5.5164271 385.0839,-8.3769671 353.3091,-5.9006271 276.37821,0.09491286 201.65968,26.730463 130.15818,73.647903 87.299156,101.77088 42.118476,144.16012 10.925036,185.51433 c -12.8204203,16.99648 -15.2733903,20.4839 -24.36038,34.63357 -19.01686,29.6118 -39.94988,71.55343 -48.91166,98 -1.39782,4.125 -3.21909,9.11923 -4.04727,11.09829 -2.76546,6.60843 -12.43781,43.22905 -15.13202,57.29151 -3.8187,19.9318 -8.7737,55.14022 -9.23354,65.6102 -1.34626,30.6528 -1.29435,53.77518 0.16397,73.03459 0.89683,11.84403 2.05424,23.99403 2.57203,27 5.8632,34.03841 8.43576,46.4861 13.01304,62.96541 1.75683,6.325 3.79372,13.75 4.52643,16.5 0.73271,2.75 2.50578,8.15 3.94016,12 1.43437,3.85 3.76817,10.6 5.1862,15 1.41804,4.4 4.06622,11.375 5.88484,15.5 13.28426,30.13133 19.92847,44.70994 20.96451,46 0.66256,0.825 1.52134,2.4 1.90841,3.5 1.0471,2.97572 11.11651,20.73236 17.57945,31 3.11576,4.95 6.8910797,11.025 8.3895897,13.5 1.49851,2.475 3.84087,6.075 5.20525,8 8.52293,12.02501 16.3986803,22.80654 19.4259503,26.59321 1.925,2.4079 5.525,6.90621 8,9.99626 20.84252,26.022 52.03459,56.75263 78.055354,76.90065 6.71513,5.19956 17.28692,12.97804 22.44465,16.51424 1.65,1.13126 4.575,3.14654 6.5,4.47841 1.925,1.33187 6.65,4.30596 10.5,6.60908 3.85,2.30313 7.675,4.75555 8.5,5.44983 2.19581,1.84789 20.68492,11.89435 34.5,18.74632 19.52072,9.68185 32.50093,15.09835 57,23.78552 5.06808,1.7971 29.78113,8.6244 43.5,12.0174 6.80742,1.6837 25.41345,4.9474 45,7.8935 4.125,0.6205 12.45,1.5241 18.5,2.0082 12.5471,1.0038 62.9927,0.3653 75,-0.9493 z M 338,916.13639 c -13.39794,-1.36726 -24.68201,-3.85848 -35.5,-7.83744 l -10,-3.6781 0,-22.98647 c 0,-12.64257 -0.39511,-24.08494 -0.87802,-25.42751 -0.48291,-1.34256 -4.05858,-8.09256 -7.94593,-15 -6.9146,-12.28655 -7.06721,-12.71104 -7.03535,-19.56946 0.0179,-3.85577 0.56973,-8.01418 1.22626,-9.24092 0.69057,-1.29034 5.29036,-4.27404 10.91336,-7.07907 11.27359,-5.62382 19.88765,-11.22654 29.71968,-19.33013 7.25697,-5.98121 17.12686,-16.48857 19.5751,-20.83939 1.30464,-2.31851 1.45418,-1.77403 2.05975,7.5 1.15185,17.64006 7.23159,31.06657 17.96365,39.67106 10.4091,8.34551 12.8241,11.09897 16.7826,19.13462 6.0915,12.36578 6.725,16.53029 6.1905,40.69432 -0.3887,17.57059 1.994,26.1271 10.6187,38.132 1.957,2.72404 3.2745,5.23656 2.9277,5.58337 -1.0055,1.00546 -47.2555,1.22857 -56.618,0.27312 z m 73.9927,-10.24136 c -11.662,-11.19565 -14.963,-20.60712 -14.9933,-42.74713 -0.028,-20.20999 -1.371,-28.22931 -6.4488,-38.5 -3.8825,-7.85303 -5.6348,-10.09771 -13.7501,-17.61352 -16.3866,-15.1762 -19.7097,-25.56684 -19.8873,-62.1829 -0.078,-16.16025 0.1037,-17.91541 3.0016,-28.94093 3.2494,-12.36322 6.0852,-29.95169 6.0852,-37.74244 0,-3.24561 0.6733,-5.53146 2.25,-7.63849 3.5337,-4.7223 12.0702,-14.38172 12.7099,-14.38172 0.3181,0 2.0674,2.5875 3.8873,5.75 7.8269,13.60132 30.1458,50.65551 35.6882,59.25 2.3054,3.575 5.3919,8.75 6.8588,11.5 1.4668,2.75 5.0911,8.825 8.0539,13.5 2.9628,4.675 6.8234,11.19814 8.5791,14.49586 1.75579,3.29773 4.71789,8.2943 6.58249,11.10351 1.8647,2.8092 3.3903,5.42291 3.3903,5.80824 0,0.38534 2.925,5.36024 6.5,11.05535 3.575,5.6951 6.5,10.66799 6.5,11.05086 0,0.38287 1.3997,2.77012 3.1105,5.30499 1.7107,2.53487 5.1203,8.22513 7.5769,12.64502 2.4565,4.41989 6.8821,12.08617 9.8346,17.03617 2.9526,4.95 6.5752,11.25 8.0503,14 1.4751,2.75 4.6498,8.25484 7.0548,12.23298 2.4051,3.97814 4.3729,7.38881 4.3729,7.57927 0,0.19047 -3.3935,3.01063 -7.5412,6.26702 -15.3046,12.01585 -35.5529,23.10001 -52.6094,28.79888 -11.01399,3.67999 -27.01819,8.6356 -27.84939,8.62343 -0.275,-0.004 -3.4283,-2.81853 -7.0073,-6.25445 z M 262.5,890.36332 c -2.2,-1.49675 -6.925,-4.50073 -10.5,-6.67551 -7.65537,-4.65701 -14.00881,-9.15927 -19.38166,-13.7345 -2.13491,-1.81798 -4.89641,-3.98041 -6.13666,-4.80541 C 215.50148,857.84398 175,816.70932 175,812.86138 c 0,-0.24114 3.45467,0.38464 7.67704,1.39061 22.77851,5.42695 51.20352,6.90362 67.82296,3.52338 4.4,-0.89492 8.3375,-1.6272 8.75,-1.6273 0.4125,-9e-5 0.75,2.41825 0.75,5.3741 0,7.30492 2.05364,12.577 7.97167,20.46481 2.74863,3.66351 5.67945,8.65358 6.51292,11.08906 1.91187,5.58664 1.96894,20.03436 0.10299,26.07186 -2.36601,7.65548 -5.45626,14.00148 -6.80204,13.96838 -0.70705,-0.0174 -3.08554,-1.25622 -5.28554,-2.75296 z m 379.82689,-37.28039 c 0.3424,-9.03927 0.9312,-21.78624 1.3083,-28.32661 l 0.6858,-11.89158 10.4859,0.59381 c 16.7166,0.94665 19.9797,-1.43766 20.9294,-15.29316 l 0.5519,-8.05222 11.7377,0.26736 c 19.7506,0.44989 18.8382,3.61609 19.6623,-68.23263 0.5363,-46.75546 0.4205,-54.6695 -0.8151,-55.6928 -0.7921,-0.65604 -1.9106,-0.88104 -2.4855,-0.5 -1.0957,0.72617 -6.7998,9.4088 -16.8876,25.70594 -3.3,5.33124 -6.991,11.10925 -8.2022,12.84001 -1.2112,1.73077 -4.0431,6.07185 -6.2931,9.64685 -4.7958,7.6198 -13.4088,21.02044 -17.0898,26.58916 -1.4218,2.15096 -5.2891,8.18584 -8.594,13.41084 -3.3049,5.225 -6.8666,10.7922 -7.9149,12.37155 -3.4072,5.1332 -12.1622,18.96056 -16.5437,26.12845 -7.5651,12.37612 -10.2403,15.06417 -18.1791,18.26665 -8.6214,3.47785 -17.7389,6.93043 -31.1832,11.80835 -16.9085,6.1348 -29.1393,13.20287 -44.2926,25.59631 -2.911,2.38078 -5.611,4.43873 -6,4.57323 -0.3891,0.1345 -3.8173,-5.0405 -7.6184,-11.5 -3.801,-6.4595 -8.3489,-13.99454 -10.1064,-16.74454 -1.7575,-2.75 -6.4643,-10.625 -10.4596,-17.5 -3.9953,-6.875 -8.0402,-13.625 -8.9887,-15 -0.9484,-1.375 -2.5353,-4.06799 -3.5263,-5.98442 -0.991,-1.91643 -4.1493,-7.09143 -7.0184,-11.5 -2.8691,-4.40857 -6.4304,-10.26558 -7.9139,-13.01558 -1.4836,-2.75 -4.8076,-8.43478 -7.3866,-12.63283 -5.1137,-8.32399 -8.1494,-13.34623 -13.318,-22.03286 C 435.657,708.13502 428.3333,696.11619 425.777,692.36472 c -1.6053,-2.35576 -4.1779,-6.67695 -5.7169,-9.60265 -1.5391,-2.92571 -4.7971,-8.42328 -7.2402,-12.21682 -5.6818,-8.82245 -15.2895,-25.10394 -16.8613,-28.57347 -1.1151,-2.46149 -0.8613,-3.13691 3.1645,-8.42184 2.4073,-3.16015 4.8269,-5.87436 5.3769,-6.03159 0.55,-0.15722 3.475,2.93847 6.5,6.87932 15.2195,19.82739 33.4441,37.32903 51.22319,49.19136 5.6523,3.77118 12.2025,8.13968 14.556,9.70778 2.3536,1.5681 4.6981,2.85109 5.2099,2.85109 2.3454,0 4.4868,-18.04461 5.5182,-46.5 0.8181,-22.57066 4.9587,-98.44841 10.3542,-189.74362 1.6085,-27.21574 2.0362,-31.00255 3.7277,-33 1.051,-1.24101 2.4352,-2.59491 3.0761,-3.00866 0.6409,-0.41375 3.7909,-2.92394 7,-5.57819 28.8741,-23.88189 60.5754,-38.8866 106.8347,-50.56656 20.721,-5.23181 30.5968,-7.01626 49.6077,-8.96356 7.4842,-0.76661 14.8886,-2.01159 16.4543,-2.76662 4.5017,-2.17093 9.1356,-9.03871 9.9131,-14.6919 0.5487,-3.989 1.1695,-5.15354 3.2536,-6.10313 1.4166,-0.64543 2.9034,-0.81447 3.3041,-0.37563 0.4007,0.43883 2.4697,3.08567 4.5979,5.88186 2.1281,2.7962 6.5693,8.37271 9.8693,12.39224 3.3,4.01954 7.35,9.00581 9,11.0806 1.65,2.07479 4.9125,6.10119 7.25,8.94756 2.3375,2.84636 4.25,6.22984 4.25,7.51884 0,2.23415 -1.9683,13.62256 -7.5144,43.47677 -5.7326,30.85821 -9.5263,52.15171 -15.4111,86.5 -1.6961,9.9 -3.576,19.86165 -4.1775,22.137 -0.6015,2.27535 -1.2386,5.87535 -1.4159,8 -0.1772,2.12465 -1.3411,9.60846 -2.5864,16.63069 l -2.2643,12.76769 -12.0652,-0.5531 c -6.6358,-0.30421 -15.2171,-0.7902 -19.0694,-1.07998 l -7.0042,-0.52688 -5.4958,-11.0983 c -3.0227,-6.10406 -6.4234,-12.26353 -7.5571,-13.68771 -1.1338,-1.42418 -3.2298,-4.61441 -4.658,-7.08941 -1.4281,-2.475 -5.7912,-8.16452 -9.6957,-12.64337 -12.0609,-13.83492 -17.085,-12.16837 -17.085,5.66727 0,24.46519 10.1956,54.83991 30.0982,89.6687 l 2.9673,5.19259 -5.8227,8.30741 c -7.0987,10.12791 -7.8722,11.24815 -14.713,21.3074 -2.9923,4.4 -8.1389,11.825 -11.4371,16.5 -3.2982,4.675 -8.0214,11.425 -10.496,15 -2.4747,3.575 -6.7466,9.65 -9.4932,13.5 -2.7466,3.85 -6.2314,9.025 -7.744,11.5 -1.5126,2.475 -4.2291,6.33636 -6.0367,8.58079 -3.7003,4.59477 -4.6938,8.65445 -2.2436,9.16866 1.8488,0.388 14.2303,-9.72756 20.9491,-17.11521 2.5682,-2.82383 9.1249,-10.79233 14.5706,-17.70777 5.4456,-6.91544 14.4011,-18.07993 19.9011,-24.80997 5.5,-6.73004 10.9,-13.45589 12,-14.94633 1.1,-1.49044 6.5199,-8.10095 12.0441,-14.69003 5.5243,-6.58908 13.8493,-16.63623 18.5,-22.32702 11.5775,-14.16653 14.8964,-18.1426 19.689,-23.58729 l 4.1218,-4.68253 4.1997,2.80835 c 5.9439,3.97466 24.5019,15.62131 30.4784,19.12771 2.7682,1.62406 5.5164,3.56659 6.1071,4.31673 1.3265,1.6845 -2.1892,43.27792 -11.0616,130.86391 -1.9221,18.975 -3.7797,37.4916 -4.1279,41.14799 -0.8519,8.94617 -6.0277,17.00535 -15.3122,23.84249 -7.7006,5.67078 -10.8459,8.08113 -25.1576,19.279 -5.7856,4.52678 -13.2106,10.22097 -16.5,12.65375 -3.2894,2.43277 -6.6618,5.16362 -7.4942,6.06856 -0.8323,0.90494 -3.5882,3.18949 -6.1241,5.07678 -2.5359,1.88728 -8.1089,6.32719 -12.3844,9.86646 l -7.7737,6.43502 0.6225,-16.43502 z m 69.5865,-403.70238 c 1.4226,-1.05261 3.2219,-3.71069 3.9984,-5.90686 1.2812,-3.62342 1.2349,-4.35556 -0.5,-7.90941 -4.7381,-9.70609 -17.7562,-9.01639 -22.0107,1.16614 -2.1004,5.02703 0.9465,12.28261 6.0989,14.5233 2.9649,1.28938 9.4648,0.30856 12.4134,-1.87317 z m -501.1032,350.79418 c -3.6794,-0.46746 -9.16048,-1.56816 -12.18019,-2.44601 -5.20122,-1.51204 -5.63889,-1.89853 -8.31019,-7.33846 -2.59944,-5.29359 -2.81264,-6.60202 -2.72803,-16.74236 0.10274,-12.31321 2.06946,-18.76293 8.82474,-28.94019 1.92446,-2.89933 4.41266,-7.58941 5.52932,-10.4224 2.27284,-5.76625 5.05209,-18.13549 5.05334,-22.49024 l 8.2e-4,-2.85282 12.25,0.35282 c 14.07671,0.40544 14.80497,0.73831 21.44379,9.80129 6.3978,8.73393 9.35433,17.34378 10.74936,31.3036 1.47759,14.78609 11.23523,28.091 24.3853,33.25025 6.88639,2.70179 7.17654,2.93829 4.99147,4.06869 -6.9696,3.60558 -23.55518,9.67995 -29.95797,10.97193 -9.02533,1.82117 -30.99128,2.635 -40.05176,1.4839 z m -52.60898,-22.0513 c -9.84204,-6.57226 -24.31151,-21.00996 -31.26222,-31.19357 -7.94786,-11.64455 -10.92713,-17.08945 -26.965434,-49.28196 -13.19652,-26.4884 -17.41565,-33.01323 -29.31777,-45.33955 -16.83866,-17.4388 -38.34026,-26.5416 -61.6557903,-26.10225 -5.225,0.0984 -10.01002,0.12564 -10.63337,0.0604 -1.85097,-0.19369 -2.14241,-3.25566 -1.28131,-13.46147 0.71695,-8.49731 1.3027,-10.59757 4.8655,-17.44572 3.01256,-5.79052 5.28112,-8.70423 8.8533703,-11.37116 10.10267,-7.54235 16.69681,-9.47151 37.12211,-10.86034 9.16454,-0.62315 15.20513,-1.49123 16.56164,-2.38005 1.17444,-0.76952 2.71917,-3.3568 3.43274,-5.7495 1.70844,-5.72865 10.12854,-20.93322 15.31659,-27.6579 5.78634,-7.50018 11.08759,-11.7692 19.694904,-15.86004 7.38073,-3.50787 7.51225,-3.5299 19,-3.18237 10.47602,0.31692 12.13413,0.6331 17.56783,3.34995 5.67611,2.83805 5.9941,3.18894 5.89079,6.5 -0.0636,2.03674 -1.41881,5.59037 -3.24166,8.5 -1.72284,2.75 -4.07055,7.025 -5.21713,9.5 -2.60809,5.6298 -8.30045,22.73428 -9.94912,29.89522 -1.74165,7.56482 -1.49103,27.03931 0.46464,36.10478 2.24027,10.38471 9.37883,29.19865 13.65946,36 0.8654,1.375 3.48504,5.65 5.82142,9.5 9.09139,14.9812 15.239,22.66727 31.24369,39.0625 l 11.77516,12.06249 -0.4957,7.93751 c -0.27263,4.36562 -0.98661,10.09987 -1.58662,12.74276 -1.18249,5.20858 -6.72688,14.2606 -13.59435,22.19474 C 169.03733,757.69399 166,766.54656 166,775.75324 c 0,3.51706 -0.39872,6.39466 -0.88605,6.39466 -0.48732,0 -3.59806,-1.81101 -6.91274,-4.02447 z m 136.41653,-5.08783 c -5.50867,-1.29322 -14.83456,-6.47298 -18.3819,-10.20963 -4.32956,-4.56061 -10.85252,-17.52298 -12.24891,-24.34093 -3.51997,-17.18642 -4.98903,-21.57134 -9.50058,-28.35768 -2.51613,-3.78479 -6.35488,-8.2913 -8.53056,-10.01448 -3.12646,-2.4762 -3.95258,-3.79678 -3.94048,-6.29901 0.0212,-4.37435 0.64703,-4.96431 7.48469,-7.05521 9.655,-2.95243 20.22069,-8.55955 25.45711,-13.50987 6.16025,-5.82367 14.80674,-17.03451 18.60954,-24.12869 3.60689,-6.72869 10.71353,-14.05416 16.49639,-17.00436 5.46879,-2.78997 19.84125,-4.018 21.58845,-1.8446 2.11492,2.63082 8.1487,22.43258 9.71315,31.87676 3.71884,22.44971 2.98884,38.84082 -2.53855,57 -6.05466,19.89143 -20.37819,42.05708 -33.74619,52.22218 -3.86069,2.93569 -4.57038,3.04867 -10.46216,1.66552 z M 194.43335,687.76206 c -16.34132,-8.18844 -26.25789,-19.74295 -30.9835,-36.10112 -1.40729,-4.87147 -1.62662,-8.44156 -1.17718,-19.16112 0.48887,-11.65984 0.9564,-14.33885 4.0673,-23.30661 2.688,-7.74864 4.84041,-11.86296 9.14889,-17.48807 5.23937,-6.84046 13.11886,-13.317 18.85507,-15.4979 2.17868,-0.82834 2.2435,-0.66603 2.31422,5.79423 0.14451,13.20098 4.98686,25.79953 14.65357,38.12482 7.66319,9.77075 8.82079,14.42777 6.60903,26.58795 -0.74692,4.10655 -1.93791,6.85743 -3.86782,8.93366 -4.32509,4.653 -9.17669,18.50574 -9.92146,28.32868 l -0.63147,8.32867 -9.06665,-4.54319 z m 46.25422,-24.93689 -5.81242,-4.13404 0.81242,-5.02161 C 238.4414,636.6481 235.23946,622.23964 226.44669,612.08634 220.03606,604.68377 218,599.22434 218,589.43764 c 0,-8.48114 1.41466,-12.55055 5.93407,-17.06996 l 3.21978,-3.21978 11.17307,0.0198 c 27.89329,0.0494 49.94906,7.47736 66.87794,22.52306 6.07451,5.39877 15.93348,17.42427 15.22497,18.57067 -0.30133,0.48756 -1.78963,0.88647 -3.30735,0.88647 -3.88136,0 -12.97099,2.80209 -17.12248,5.2784 -1.925,1.14824 -5.075,3.65935 -7,5.58025 -4.98674,4.97613 -14,16.38101 -14,17.71484 0,0.61954 -1.26416,2.88145 -2.80925,5.02647 -1.54509,2.14502 -3.84915,5.7613 -5.12015,8.03618 -3.8769,6.93904 -15.86754,14.56169 -22.44633,14.26952 -1.16835,-0.0519 -4.73986,-1.95467 -7.9367,-4.22839 z m 219.15492,-3.23441 C 444.975,647.24327 425.8928,626.06964 415.4022,610.27975 c -12.4404,-18.72442 -25.4235,-41.92461 -31.5948,-56.45831 -7.6007,-17.90004 -15.4888,-43.09481 -21.657,-69.17354 -7.4092,-31.32602 -10.1599,-82.41165 -7.188,-133.5 1.1713,-20.13652 2.0654,-36.56342 4.4901,-82.5 0.8709,-16.5 2.0289,-34.725 2.5733,-40.5 0.5445,-5.775 1.6681,-24 2.497,-40.5 0.8289,-16.5 2.1619,-40.575 2.9621,-53.5 0.8003,-12.92501 1.9225,-32.725 2.4938,-43.999997 1.0599,-20.91771 1.6783,-29.81765 2.6574,-38.25 l 0.5516,-4.75 15.1561,0.009 c 25.2982,0.0146 66.50539,3.8354 80.65619,7.47848 3.025,0.77877 10.9,2.59632 17.5,4.03898 6.6,1.44266 12.675,2.8084 13.5,3.03498 1.6894,0.46398 1.6934,-1.14308 -0.082,33.43878 -0.6353,12.374997 -1.323,27.674987 -1.5282,33.999987 -0.2052,6.32501 -1.0293,21.62501 -1.8314,34.00001 -0.8021,12.375 -1.9392,32.85 -2.5269,45.5 -0.5877,12.65 -1.2921,24.00576 -1.5653,25.23502 -0.2732,1.22925 -0.9256,10.45425 -1.4499,20.5 -0.5243,10.04574 -1.4162,25.68998 -1.982,34.76498 -2.4553,39.37701 -3.1175,51.22146 -4.5003,80.5 -0.8053,17.05 -1.5351,34.375 -1.6219,38.5 -0.087,4.125 -0.5179,8.85 -0.9582,10.5 -0.4403,1.65 -1.0373,9.3 -1.3266,17 -0.2894,7.7 -1.2194,25.925 -2.0668,40.5 -0.8474,14.575 -1.9997,35.05 -2.5606,45.5 -0.561,10.45 -1.9147,32.725 -3.0083,49.5 -1.8212,27.93507 -2.848,45.44916 -4.7871,81.65122 l -0.7044,13.1512 -7.6575,-6.35958 z M 336.76717,552.40186 c -12.57,-0.37627 -11.84645,0.27081 -14.32405,-12.81009 -1.30802,-6.90591 -1.56347,-12.01999 -1.12106,-22.44387 0.7976,-18.79288 4.1138,-32.94274 9.56069,-40.79446 1.03229,-1.48805 3.381,-5.10545 5.21936,-8.03868 1.83835,-2.93323 3.45116,-4.95823 3.584,-4.5 0.13285,0.45823 1.37073,7.35814 2.75086,15.33314 2.61704,15.12249 7.19805,32.03818 15.59963,57.60269 2.7299,8.30648 4.9634,15.39398 4.9634,15.75 0,0.62228 -2.4547,0.61304 -26.23283,-0.0987 z M 298,516.15229 c -2.475,-0.41821 -11.925,-1.09551 -21,-1.50511 -9.075,-0.40961 -17.57921,-1.15373 -18.89825,-1.65362 l -2.39826,-0.90889 0.68051,-12.04125 c 1.14986,-20.34629 7.22675,-44.17799 15.4368,-60.53843 13.84084,-27.58109 34.81821,-49.70056 58.1792,-61.34673 2.475,-1.23386 5.24283,-2.89527 6.15072,-3.69201 0.9079,-0.79675 1.86059,-1.08182 2.11709,-0.63349 0.2565,0.44833 -0.0948,6.89014 -0.78069,14.31514 -0.68588,7.425 -1.80959,23.625 -2.49714,36 l -1.2501,22.5 -4.21864,4.5 c -3.91377,4.17479 -5.95437,6.96547 -12.79636,17.5 C 311.02862,477.41837 305,498.83315 305,510.29687 c 0,4.87689 -0.36019,6.81714 -1.25,6.73341 -0.6875,-0.0647 -3.275,-0.45979 -5.75,-0.87799 z m -73.5,-30.55324 c -0.55,-0.21503 -8.34029,-0.80729 -17.31176,-1.31614 -8.97146,-0.50885 -16.52257,-1.136 -16.78023,-1.39367 -0.5341,-0.5341 0.91513,-11.23905 3.2141,-23.74134 5.06494,-27.54429 17.39446,-58.14874 32.53148,-80.75 7.79366,-11.63679 9.62761,-14.19753 14.14454,-19.75 7.72958,-9.50163 22.61118,-24.33311 29.70187,-29.60185 3.575,-2.6564 8.48041,-6.30769 10.90091,-8.11398 5.06666,-3.78099 9.2503,-6.24678 24.79655,-14.61483 10.94438,-5.89101 34.74884,-15.05638 35.95973,-13.84548 0.61241,0.6124 -1.19788,44.39553 -2.26068,54.67614 l -0.56858,5.5 -6.39487,2.88281 c -16.17732,7.29274 -32.50264,18.95704 -47.44372,33.89812 -16.34925,16.34925 -28.61153,36.31784 -37.57687,61.19232 C 243.2858,462.07065 239,479.20038 239,484.24458 c 0,1.69091 -0.7533,1.89451 -6.75,1.82437 -3.7125,-0.0434 -7.2,-0.25487 -7.75,-0.4699 z m -77,-37.9939 c -11,-0.69745 -21.70789,-1.31066 -23.79531,-1.36267 l -3.79532,-0.0946 0.67138,-3.75 c 1.01236,-5.65454 6.21095,-25.70525 9.00971,-34.75 5.95605,-19.24821 23.10542,-53.79587 36.73342,-74 10.62309,-15.74923 30.14907,-38.51774 43.68586,-50.94045 26.5694,-24.38272 68.58852,-49.08245 102.99026,-60.53986 12.01003,-3.9999 32.92955,-9.35834 33.7058,-8.63358 0.11319,0.10568 -0.19214,6.92454 -0.6785,15.15302 -0.48637,8.22848 -1.18178,21.04023 -1.54537,28.47056 l -0.66108,13.50969 -10.23186,2.79135 c -5.62752,1.53524 -11.54971,3.48271 -13.16043,4.32771 -1.61071,0.845 -5.85356,2.63903 -9.42856,3.98674 -7.20142,2.7148 -27.45977,13.72249 -36,19.56116 -13.61778,9.31002 -22.69762,16.71454 -33,26.91117 -15.19553,15.03956 -21.56293,23.18813 -38.60373,49.40249 -4.76444,7.32928 -13.42143,26.04929 -19.27409,41.67859 -2.8172,7.52322 -5.12218,14.20336 -5.12218,14.84476 0,0.6414 -0.94383,4.27353 -2.0974,8.07141 l -2.0974,6.90524 -3.6526,-0.13732 C 169.14367,448.93506 158.5,448.30261 147.5,447.60515 z M 746.78609,417.3979 c 0.2095,-3.7125 0.6808,-11.25 1.0474,-16.75 l 0.6665,-10 11.5,-2.20475 c 6.325,-1.21262 14.5886,-2.92405 18.3635,-3.8032 3.7749,-0.87914 6.9973,-1.462 7.1609,-1.29524 0.1636,0.16675 1.036,3.88537 1.9387,8.26359 2.226,10.79684 3.5687,25.88198 2.3705,26.63366 -0.5209,0.32674 -6.209,1.15058 -12.6403,1.83076 -6.4313,0.68019 -15.851,1.87536 -20.9325,2.65594 -5.0816,0.78058 -9.3779,1.41924 -9.5474,1.41924 -0.1695,0 -0.1368,-3.0375 0.073,-6.75 z M 71.999996,406.59793 c -13.475,-0.68359 -24.64825,-1.28949 -24.82946,-1.34646 -1.29967,-0.40859 10.63734,-36.71849 17.62237,-53.60357 9.81024,-23.71452 31.03208,-59.36659 47.504564,-79.80628 13.97864,-17.34522 19.01449,-23.00595 32.20253,-36.19843 13.96982,-13.97451 27.58708,-25.96374 36.94415,-32.52723 2.71927,-1.90743 5.7381,-4.23689 6.7085,-5.17657 0.9704,-0.93968 3.50064,-2.59429 5.62276,-3.67691 2.12211,-1.08262 4.42897,-2.65591 5.12634,-3.4962 0.69738,-0.84028 3.36727,-2.75508 5.9331,-4.25511 2.56583,-1.50002 8.64108,-5.31713 13.50055,-8.48246 12.3717,-8.05862 42.35586,-22.60185 60.17572,-29.18705 16.46194,-6.0834 44.91841,-13.58125 61.75623,-16.27183 5.92205,-0.94631 10.94255,-1.54087 11.15675,-1.32124 0.2141,0.21962 -0.226,11.87431 -0.978,25.89931 -0.75209,14.025 -1.3851,27.97735 -1.40675,31.00522 l -0.0394,5.50523 -12.25,2.86689 c -24.13686,5.64879 -42.73561,12.05111 -61.44332,21.15087 -5.05632,2.45948 -9.45276,4.47179 -9.76987,4.47179 -0.3171,0 -2.48011,1.22261 -4.80668,2.71692 -5.11595,3.28586 -9.03059,5.61066 -13.86369,8.23324 -1.99845,1.08442 -7.3936,4.54676 -11.9892,7.69409 -23.43578,16.05011 -47.6157,37.88883 -62.87724,56.78921 -3.025,3.74625 -7.4398,9.11878 -9.81066,11.93895 -7.9951,9.51032 -18.63019,25.63212 -29.76933,45.12759 C 125.41471,366.90833 111,401.59728 111,406.19497 c 0,2.3212 -0.98628,2.33139 -39.000004,0.40296 z m 429.438394,-9.99689 c 0.3755,-4.92423 1.2682,-21.08177 1.9837,-35.90564 l 1.3009,-26.95251 4.8885,-4.24397 c 2.6887,-2.33418 5.1766,-3.93056 5.5287,-3.5475 0.9598,1.0443 19.8598,55.41617 19.8598,57.13316 0,0.38109 -1.4625,1.44847 -3.25,2.37194 -1.7875,0.92348 -4.15,2.24432 -5.25,2.93521 -2.888,1.81392 -21.2489,13.99273 -23.6835,15.70931 -2.0493,1.44491 -2.0571,1.40246 -1.3781,-7.5 z m 38.6404,-48.20314 c -5.1315,-14.7125 -9.5096,-28.1 -9.7291,-29.75 -0.4422,-3.32385 -0.039,-3.64206 16.1794,-12.76988 7.0583,-3.97244 19.4498,-9.73012 20.9408,-9.73012 0.2915,0 0.533,0.7875 0.5366,1.75 0.01,1.54768 3.2165,15.94182 9.0897,40.75 3.4536,14.58763 4.8584,21.76447 4.404,22.49967 -0.247,0.39967 -4.1731,2.20146 -8.7246,4.00397 -4.5516,1.80251 -11.3019,4.78909 -15.0006,6.63683 -3.6988,1.84774 -7.0943,3.35953 -7.5457,3.35953 -0.4513,0 -5.0191,-12.0375 -10.1505,-26.75 z m 206.407,23.59874 c -0.6512,-2.14902 -3.939,-7.64301 -10.1154,-16.90249 -1.3037,-1.95456 -2.3704,-4.0302 -2.3704,-4.61252 0,-1.0193 22.1263,-21.57821 23.7196,-22.03934 1.8228,-0.52755 17.4322,26.21589 20.6887,35.44572 l 1.4785,4.1905 -3.6934,0.631 c -2.0314,0.34706 -7.2934,1.45776 -11.6934,2.46823 -4.4,1.01047 -10.0931,2.13657 -12.6513,2.50243 -4.2847,0.61278 -4.7073,0.4801 -5.3629,-1.68353 z M 25.999996,370.49715 c -3.025,-0.15443 -15.9625,-0.81065 -28.7500003,-1.45827 -16.0715897,-0.81393 -23.2499997,-1.53003 -23.2499997,-2.31934 0,-2.11826 12.91977,-38.72591 14.89183,-42.1954 0.58655,-1.03193 2.8977697,-6.15124 5.1360397,-11.37624 2.23827,-5.225 4.47412,-10.175 4.96855,-11 0.49443001,-0.825 2.95955,-5.55 5.47803,-10.5 7.0946203,-13.94424 22.6972203,-39.80724 31.0688503,-51.5 2.95337,-4.125 6.57907,-9.3 8.05711,-11.5 1.47805,-2.2 4.08511,-5.61989 5.79347,-7.59976 1.70837,-1.97987 4.23112,-5.08129 5.60612,-6.89206 4.21221,-5.54715 14.08907,-17.28669 18.09554,-21.50818 11.46005,-12.07511 24.87988,-25.12005 36.420124,-35.40271 12.89445,-11.4893 14.93477,-13.12765 29.48434,-23.67558 4.125,-2.99049 8.175,-6.05369 9,-6.80712 0.825,-0.75343 3.975,-2.8697 7,-4.70281 3.025,-1.83311 5.64558,-3.67492 5.82351,-4.09289 0.17793,-0.41798 3.77793,-2.63917 8,-4.93598 4.22207,-2.29681 9.02649,-5.15248 10.67649,-6.34595 1.65,-1.19347 6.825,-4.10953 11.5,-6.48013 4.675,-2.370607 8.95,-4.639807 9.5,-5.042677 1.57919,-1.15672 20.75975,-9.802 35,-15.7756 15.39351,-6.45737 44.48049,-16.45464 55.89408,-19.21094 23.43483,-5.65934 33.52468,-7.66287 47.87803,-9.5071 6.72534,-0.86412 13.47149,-1.7747 14.99139,-2.02351 2.4248,-0.39696 2.705,-0.17946 2.2865,1.77531 -0.2623,1.22523 -0.9483,11.90269 -1.5245,23.72769 -0.5761,11.825 -1.3174,25.17115 -1.6471,29.658097 l -0.5996,8.1581 -4.13942,0.4522 c -6.29914,0.68814 -25.97382,4.55165 -36.79547,7.22552 -31.31299,7.73698 -66.70017,21.87855 -95.88891,38.31952 -14.05,7.91385 -36.79009,23.3316 -48.78766,33.07796 -5.15132,4.18473 -11.47885,9.24334 -14.06119,11.24135 -5.86481,4.53775 -34.79823,33.61214 -41.86742,42.07141 -20.919974,25.03367 -31.093434,39.74994 -45.842544,66.3128 -2.14291,3.85932 -4.66737,8.35932 -5.60991,10 -4.46595,7.77377 -10.72174,22.12886 -17.09503,39.22776 l -4.19125,11.24471 -3.5,-0.1797 c -1.925,-0.0988 -5.975,-0.30605 -9,-0.46048 z M 593.24189,337.4425 c -2.342,-10.33703 -4.8878,-21.2696 -5.6574,-24.2946 -3.145,-12.36133 -4.8222,-20.93819 -4.3402,-22.19428 0.2875,-0.74905 5.7025,-2.58321 12.3833,-4.1944 6.5298,-1.5748 14.1224,-3.44231 16.8724,-4.15003 5.5013,-1.41579 22.5161,-3.77849 23.0885,-3.20612 0.198,0.19804 -0.049,5.50914 -0.5485,11.80245 -0.4997,6.29331 -1.3971,19.54238 -1.9941,29.44238 -1.6976,28.15072 -1.754,28.5 -4.6035,28.5 -1.3275,0 -4.3327,0.4617 -6.678,1.02601 -13.3507,3.21217 -20.491,4.97103 -22.2644,5.48432 -1.852,0.53603 -2.3151,-0.81217 -6.2581,-18.21573 z m 54.7727,4.4554 c 0.014,-4.15754 2.0495,-30.8526 3.9456,-51.75 0.5239,-5.775 0.9722,-10.90634 0.9962,-11.40297 0.054,-1.12619 20.4845,-0.10122 29.5906,1.48453 l 6.6698,1.1615 -0.5605,3.62847 c -0.3082,1.99566 -0.8391,6.10347 -1.1798,9.12847 -0.3407,3.025 -1.4595,10.9 -2.4864,17.5 -1.0268,6.6 -2.4002,16.3875 -3.052,21.75 -0.9533,7.84286 -1.5032,9.75209 -2.8116,9.76071 -0.8946,0.006 -7.9265,0.68006 -15.6265,1.49815 -7.7,0.8181 -14.3375,1.48829 -14.75,1.4893 -0.4125,0.001 -0.7434,-1.91066 -0.7354,-4.24816 z m 72.9854,-4.45998 c 0,-0.47114 -4.5,-5.77665 -10,-11.79002 -10.939,-11.96009 -10.9167,-11.90273 -8.5848,-22 0.7621,-3.3 1.6999,-8.37871 2.084,-11.28603 0.6368,-4.81978 0.8881,-5.22819 2.8496,-4.63021 5.7653,1.75762 14.8026,6.99355 24.2645,14.05809 6.7224,5.0192 15.3867,13.12022 15.3867,14.38647 0,0.34849 -5.1865,5.32218 -11.5255,11.05265 -10.7063,9.67846 -14.4745,12.33622 -14.4745,10.20905 z m 174.0789,154.12665 c 0.048,-1.16495 0.285,-1.4019 0.6042,-0.60417 0.2889,0.72187 0.2534,1.58438 -0.079,1.91667 -0.3323,0.33229 -0.5687,-0.25834 -0.5253,-1.3125 z"
       style="fill:#0e224a;fill-opacity:1" />
  </g>
</svg>
