<?xml version="1.0" encoding="UTF-8" standalone="no"?>
<!-- Created with Inkscape (http://www.inkscape.org/) -->

<svg
   width="132.29166mm"
   height="17.217819mm"
   viewBox="0 0 132.29166 17.217819"
   version="1.1"
   id="svg5"
   inkscape:version="1.1.1 (3bf5ae0d25, 2021-09-20)"
   sodipodi:docname="dessin-14.svg"
   xmlns:inkscape="http://www.inkscape.org/namespaces/inkscape"
   xmlns:sodipodi="http://sodipodi.sourceforge.net/DTD/sodipodi-0.dtd"
   xmlns="http://www.w3.org/2000/svg"
   xmlns:svg="http://www.w3.org/2000/svg">
  <sodipodi:namedview
     id="namedview7"
     pagecolor="#ffffff"
     bordercolor="#666666"
     borderopacity="1.0"
     inkscape:pageshadow="2"
     inkscape:pageopacity="0.0"
     inkscape:pagecheckerboard="0"
     inkscape:document-units="mm"
     showgrid="false"
     inkscape:zoom="0.90583672"
     inkscape:cx="527.13694"
     inkscape:cy="-9.3835896"
     inkscape:window-width="1920"
     inkscape:window-height="991"
     inkscape:window-x="-9"
     inkscape:window-y="-9"
     inkscape:window-maximized="1"
     inkscape:current-layer="layer1" />
  <defs
     id="defs2">
    <pattern
       id="EMFhbasepattern"
       patternUnits="userSpaceOnUse"
       width="6"
       height="6"
       x="0"
       y="0" />
  </defs>
  <g
     inkscape:label="Calque 1"
     inkscape:groupmode="layer"
     id="layer1"
     transform="translate(3.4142619,-12.206169)">
    <path
       id="path14866"
       style="color:#000000;opacity:1;fill:#0e224a;stroke-width:0.391292;-inkscape-stroke:none;fill-opacity:1"
       d="m 14.351707,12.206699 c -4.136919,0.02944 -7.8729902,1.272586 -10.833559,3.15683 -4.21058664,2.679813 -6.9324099,6.649811 -6.9324099,10.467163 0,0.865538 0.1528668,1.576544 0.492168,2.146005 0.3393011,0.569461 0.8672505,0.949692 1.4093716,1.151561 1.08424234,0.403736 2.23079501,0.276819 3.2631907,0.276819 H 20.834614 c 0.640868,0 1.332459,-0.315036 1.814389,-0.966947 0.203202,0.586408 0.670751,0.966947 1.589334,0.966947 h 28.31462 c 0.640869,0 1.332459,-0.315036 1.814389,-0.966947 0.203201,0.586408 0.670751,0.966947 1.589335,0.966947 h 72.438869 l 0.48185,-1.643122 h -11.31743 c 1.53887,-1.399509 3.00038,-2.621716 4.61332,-3.89852 0.24675,-0.195335 0.45056,-0.389157 0.5961,-0.682443 0.14554,-0.293282 0.16288,-0.752122 -0.002,-1.062387 -0.3305,-0.620531 -0.7965,-0.691977 -1.2106,-0.824594 -0.8922,-0.285734 -1.84161,-0.381376 -2.77345,-0.3209 -0.93184,0.06052 -1.84645,0.277014 -2.66932,0.615918 -1.64586,0.677858 -3.05856,1.940957 -3.05856,3.672858 0,1.01642 0.42029,1.837737 0.93925,2.397551 0.0325,0.03506 0.0654,0.06912 0.0985,0.102517 h -6.48756 v -2.02e-4 c -0.49111,0 -1.09194,-0.237716 -1.44658,-0.573252 -0.35464,-0.335535 -0.48919,-0.644083 -0.3395,-1.111118 1.33907,-4.177765 3.03866,-8.089704 5.02682,-12.505394 h -1.80144 c -1.86563,4.158712 -3.48921,7.943597 -4.79045,12.003317 -0.25226,0.787048 -0.0929,1.567081 0.27945,2.186649 h -4.5286 v -2.02e-4 c -0.491096,0 -1.092139,-0.237716 -1.446778,-0.573252 -0.354639,-0.335535 -0.488996,-0.644083 -0.3393,-1.111118 1.339069,-4.177765 3.038678,-8.089704 5.026818,-12.505394 h -1.80124 c -1.865632,4.158712 -3.489416,7.943597 -4.790648,12.003317 -0.252269,0.787058 -0.09266,1.566993 0.27965,2.186649 H 85.672786 c 1.538864,-1.399505 3.000183,-2.62172 4.613114,-3.89852 0.246759,-0.195335 0.450561,-0.389157 0.596101,-0.682443 0.145541,-0.293282 0.163085,-0.752122 -0.0022,-1.062387 -0.330504,-0.620531 -0.796508,-0.691977 -1.210604,-0.824594 -0.892269,-0.285755 -1.841542,-0.381403 -2.773449,-0.3209 -0.931907,0.0605 -1.846381,0.276989 -2.669314,0.615918 -1.645861,0.677858 -3.058559,1.940957 -3.058559,3.672858 0,1.01642 0.420279,1.837737 0.939245,2.397551 0.0325,0.03506 0.06521,0.06912 0.09827,0.102517 H 71.262416 c 0.485661,-0.505979 0.941519,-1.095418 1.373783,-1.724204 1.083432,-1.576006 2.021841,-3.486973 2.7322,-5.292727 h -1.774353 c -0.641783,1.530554 -1.445031,3.100623 -2.312017,4.361773 -1.147093,1.668612 -2.406807,2.655158 -3.222951,2.655158 -0.622267,1e-6 -0.900617,-0.175288 -1.140237,-0.505311 -0.239619,-0.330022 -0.403783,-0.902363 -0.406432,-1.641504 -0.005,-1.392225 0.562554,-3.289948 1.497129,-4.870116 h -1.873231 c -0.80225,1.598283 -1.273346,3.336058 -1.267829,4.876183 0.0028,0.769657 0.124752,1.505217 0.442629,2.140748 h -8.348859 c -0.205869,-0.0096 -0.38037,-0.115994 -0.479025,-0.274392 -0.09967,-0.160035 -0.157444,-0.371423 0.01072,-0.746745 l 2.609865,-5.824527 H 57.303167 L 56.96427,21.67254 c -1.043542,-0.469796 -2.077767,-0.676579 -3.051886,-0.680421 -1.129615,-0.0045 -2.178594,0.263911 -3.067052,0.71156 -1.776924,0.895299 -3.013265,2.463675 -3.013265,4.152086 0,0.709857 0.208719,1.36598 0.569411,1.90619 h -13.87493 l 1.942992,-4.279879 c 1.087541,-0.531887 2.224023,-0.991684 3.497142,-1.165714 0.747119,-0.102129 0.962582,0.313643 0.821358,0.78577 h 1.807312 l 0.392885,-1.014262 c 0.292215,-0.754377 -0.508179,-0.971597 -1.371559,-0.971597 -1.776692,0 -3.09671,0.170782 -4.402618,0.725917 l 0.259834,-0.572443 h -1.80529 l -2.946739,6.492208 h -7.477961 c -0.205868,-0.0096 -0.380369,-0.115994 -0.479024,-0.274392 -0.09967,-0.160035 -0.157445,-0.371423 0.01072,-0.746745 l 2.609864,-5.824527 h -1.800639 l -0.338897,0.756249 c -1.043542,-0.469796 -2.077766,-0.676579 -3.051885,-0.680421 -1.129615,-0.0045 -2.178593,0.263911 -3.067052,0.71156 -1.776923,0.895299 -3.013265,2.463675 -3.013265,4.152086 0,0.709963 0.209091,1.365881 0.569816,1.90619 H 1.7504684 c -1.11342331,0 -2.13854497,0.0316 -2.68933182,-0.173492 -0.27539338,-0.102548 -0.43110478,-0.218036 -0.57082578,-0.452535 -0.1397211,-0.234499 -0.2614516,-0.635719 -0.2614516,-1.305236 0,-3.008175 2.31905867,-6.628577 6.1721175,-9.080843 3.7398084,-2.380188 8.8543473,-3.643065 14.4734583,-2.391685 l 0.903857,-1.496724 c -1.567528,-0.39023 -3.104586,-0.596251 -4.593903,-0.644227 -0.279247,-0.009 -0.556888,-0.01248 -0.832682,-0.01051 z m 72.9826,10.405489 c 0.334468,-0.0045 0.665382,0.01755 0.985347,0.06895 0.464898,0.07469 0.409789,0.33954 0.221618,0.491359 -1.534195,1.237808 -2.983981,2.491131 -4.507564,3.899936 -0.254903,-0.170476 -0.534497,-0.328692 -0.721468,-0.530385 -0.308776,-0.333079 -0.500459,-0.678529 -0.500459,-1.280163 0,-0.79466 0.748423,-1.621355 2.040456,-2.153487 0.646014,-0.266066 1.394591,-0.434259 2.146814,-0.483068 0.111983,-0.0073 0.223767,-0.01165 0.335256,-0.01314 z m 31.887183,0 c 0.33447,-0.0045 0.66559,0.01755 0.98555,0.06895 0.4649,0.07469 0.40979,0.33954 0.22162,0.491359 -1.5342,1.237808 -2.98419,2.491131 -4.50776,3.899936 -0.25491,-0.170476 -0.5343,-0.328692 -0.72127,-0.530385 -0.30878,-0.333079 -0.50067,-0.678529 -0.50067,-1.280163 0,-0.79466 0.74842,-1.621355 2.04046,-2.153487 0.64602,-0.266066 1.3946,-0.434259 2.14682,-0.483068 0.11198,-0.0073 0.22377,-0.01165 0.33525,-0.01314 z m -97.042008,0.01132 c 0.745488,0.0018 1.551024,0.165048 2.394516,0.54838 l -1.265199,2.823193 c -0.533927,1.191418 -1.879385,1.75126 -3.053706,1.76687 -0.813123,0 -1.458038,-0.218312 -1.867771,-0.542719 -0.409733,-0.324406 -0.62987,-0.729855 -0.62987,-1.363471 0,-0.8046 0.774533,-2.012106 2.109406,-2.684681 0.667441,-0.336288 1.449795,-0.549687 2.312624,-0.547572 z m 31.718343,0 c 0.745489,0.0018 1.551024,0.165048 2.394516,0.54838 l -1.265199,2.823193 c -0.533928,1.191418 -1.879384,1.75126 -3.053705,1.76687 -0.813124,0 -1.458039,-0.218312 -1.867772,-0.542719 -0.409733,-0.324407 -0.629869,-0.729855 -0.629869,-1.363471 0,-0.8046 0.774531,-2.012106 2.109406,-2.684681 0.667439,-0.336288 1.449795,-0.549687 2.312623,-0.547572 z" />
  </g>
</svg>
