<?xml version="1.0" encoding="UTF-8" standalone="no"?><!DOCTYPE svg PUBLIC "-//W3C//DTD SVG 1.1//EN" "http://www.w3.org/Graphics/SVG/1.1/DTD/svg11.dtd"><svg width="179px" height="216px" version="1.1" xmlns="http://www.w3.org/2000/svg" xmlns:xlink="http://www.w3.org/1999/xlink" xml:space="preserve" xmlns:serif="http://www.serif.com/" style="fill-rule:evenodd;clip-rule:evenodd;stroke-linejoin:round;stroke-miterlimit:2;"><g transform="matrix(1,0,0,1,-7.850331,-6.996301)"><path d="M139,216C111,216 110,216 104,220C99,223 99,225 95,221C88,216 88,216 67,216C30,216 24,218 14,204C7,195 8,194 8,168C8,8 8,8 9,8C10,6 53,7 57,7C68,7 183,7 184,8C186,9 186,9 186,49C186,61 186,61 187,188C187,195 187,205 169,214C163,217 159,216 139,216Z" style="fill:rgb(26,21,22);"/><path d="M25,9C38,9 38,9 51,9C61,9 157,9 180,9C186,10 183,13 184,29C184,39 184,53 184,144C184,195 185,195 182,200C172,218 149,214 139,214C111,214 110,212 101,219C96,223 96,218 92,216C87,213 61,214 36,214C16,214 10,195 10,190C10,176 10,21 10,11C10,9 16,9 25,9Z" style="fill:rgb(245,245,245);"/><path d="M179,199C170,214 161,212 124,212C110,212 108,211 100,218C96,220 95,213 88,212C75,211 37,214 28,210C20,206 13,195 13,191C13,188 13,21 13,17C13,11 16,12 22,12C34,12 178,11 181,12C182,13 182,13 182,85C182,175 181,181 182,189C183,192 180,199 179,199Z" style="fill:rgb(72,2,2);"/><path d="M126,14C132,14 138,14 144,14C179,14 179,15 179,15C180,17 180,191 179,191C176,204 168,207 165,209C157,213 107,207 102,211C101,213 100,217 95,213C92,210 88,210 88,210C86,210 82,210 39,210C36,210 35,211 33,209C31,208 27,208 22,202C16,195 16,191 16,189C16,188 16,121 16,76C16,75 18,73 19,70C19,69 19,69 21,68C22,67 21,67 21,67C21,66 20,66 20,66L19,66L18,65L18,64L18,64L16,64L16,64C16,16 16,15 17,15C18,14 118,14 126,14Z" style="fill:rgb(242,5,6);"/><path d="M83,19C85,19 84,19 86,19C92,18 89,24 93,24C99,24 98,30 101,27C104,25 110,25 111,30C111,31 111,31 113,34C116,37 112,40 116,42C119,45 118,47 118,47L117,49C117,49 117,50 114,50C114,50 113,51 113,49C113,49 113,49 114,47C115,47 115,47 115,47C118,46 111,44 112,41C112,37 111,37 109,37C104,37 102,33 102,33C99,31 99,31 97,29C94,25 92,28 90,24C90,24 88,20 87,22C87,23 87,24 87,25C86,25 86,26 83,23C81,19 76,16 76,22C77,26 77,26 77,27C76,32 71,18 68,24C68,24 67,36 64,27C63,21 55,23 54,25C50,27 54,31 56,28C56,27 58,21 58,27C58,29 58,29 57,31C52,32 52,31 47,30C44,29 46,32 43,36C42,38 39,37 40,35C46,27 33,31 32,33C27,39 39,42 40,42C43,48 29,39 28,41C27,45 32,47 32,47C32,49 30,49 29,49C27,51 30,51 34,53C38,55 38,52 40,51C46,47 46,45 50,43C61,40 60,39 69,33C70,33 76,30 80,31C94,32 99,40 100,40C110,50 122,81 122,69C123,68 122,68 122,68C122,68 122,67 124,67C124,67 125,68 126,62C132,43 120,35 131,32C135,31 133,24 138,28C144,31 146,28 149,32C149,33 149,34 150,34C150,35 154,35 156,38C157,42 156,42 158,44C161,49 158,49 159,54C160,57 157,59 157,62C157,62 158,68 153,70C150,70 150,71 148,73C146,79 144,78 140,83C134,92 131,94 132,98C133,102 133,104 135,101C136,100 143,93 144,92C145,90 153,81 154,79C155,76 166,60 168,64C168,66 163,75 163,75C161,79 160,81 159,83C158,84 158,84 148,99C147,101 135,117 135,118C134,118 134,118 134,119C133,119 133,128 135,133C136,137 144,142 145,142C150,142 146,135 148,129C148,128 149,127 152,130C155,134 154,135 155,139C156,138 156,138 156,138C157,138 157,139 157,138C159,137 158,119 165,128C168,132 166,133 170,137C170,137 172,138 174,144C175,147 170,148 168,154C163,163 160,155 156,153C152,151 147,150 147,151C147,152 147,152 147,162C147,166 170,179 170,179C171,179 173,177 174,181C171,181 171,181 170,183C164,177 149,167 146,167C146,168 146,168 146,169C147,169 152,172 157,175C164,181 166,180 167,184L169,184C168,188 167,207 149,190C148,190 142,185 135,182C134,182 130,183 135,185C147,191 167,213 171,189C171,188 171,186 174,183C175,183 175,183 175,184C172,192 172,198 168,200C160,205 155,201 148,197C145,195 146,193 142,192C137,191 138,189 134,187C133,187 131,184 127,191C124,194 124,195 124,195C113,201 109,188 116,187C124,187 122,184 127,178C129,175 129,175 129,175C129,174 130,174 130,173C131,171 128,170 128,170C123,167 116,162 115,161C109,158 109,157 108,157C108,158 109,161 109,161C110,168 105,166 97,165C92,165 93,160 93,160C93,160 92,160 92,161C91,161 79,171 79,171C71,176 71,177 73,179C75,184 80,189 81,189C82,189 84,187 87,192C88,196 86,205 75,195C70,190 71,187 65,190C57,194 51,207 40,205C26,203 29,195 26,192C21,187 31,185 32,184C41,177 41,177 50,170C54,168 55,167 53,163C52,162 52,163 49,160C46,155 47,154 42,153C34,153 35,140 47,144C50,145 48,147 50,149C52,150 60,164 62,163C66,162 74,156 75,156C82,150 85,148 86,147C87,146 91,144 87,141C80,134 79,134 78,134C75,135 59,148 62,133C63,125 56,126 58,118C59,118 60,113 58,113C56,111 57,110 52,106C52,105 45,97 44,97C44,94 43,95 41,93C37,89 38,88 34,84C32,82 22,68 24,65C24,64 24,65 24,64C25,66 25,66 26,67C32,73 50,89 51,90C54,92 55,91 57,94C58,97 62,95 60,88C58,83 62,83 59,78C53,66 46,62 44,62C44,61 44,61 43,60C40,58 29,53 28,52C25,50 28,49 26,46C24,41 27,41 29,35C29,33 31,32 31,32C31,32 32,32 32,32C32,31 31,29 38,28C40,28 43,29 44,29C47,28 47,28 49,28C50,28 50,22 57,21C63,21 65,23 65,22C67,21 67,19 72,20C73,21 73,22 74,21C75,16 76,17 81,18C82,18 83,18 83,19Z" style="fill:rgb(29,6,6);"/><path d="M61,101C64,91 62,91 62,86C61,86 64,75 71,75C71,75 76,75 80,76C81,76 90,77 91,82C93,88 91,91 93,94C104,109 103,110 101,114C101,117 101,126 89,130C86,131 83,129 76,133C69,136 68,138 68,136C68,134 63,136 64,134C65,132 91,128 87,118C84,107 78,119 78,119C77,121 73,121 72,122C67,124 64,124 61,124C57,120 65,114 60,111C59,109 58,110 58,107C58,106 61,101 61,101Z" style="fill:rgb(249,249,250);"/><path d="M76,22C76,16 81,19 83,23C86,26 86,25 87,25C87,24 87,23 87,22C88,20 90,24 90,24C92,28 94,25 97,29C99,31 99,31 102,33C102,33 104,37 109,37C111,37 112,37 112,41C111,44 118,46 115,47C115,47 115,47 114,47C113,47 109,44 111,49C112,54 115,53 116,55C117,56 117,57 117,58C118,59 121,59 121,61C120,63 119,63 121,66L122,69C122,81 110,50 100,40C99,40 94,32 80,31C76,30 70,33 69,33L68,32C68,32 67,32 66,32C64,33 64,32 62,31C60,30 60,30 60,30C58,29 58,28 58,27C58,21 56,27 56,28C54,31 50,27 54,25C55,23 63,21 64,27C67,36 68,24 68,24C71,18 76,32 77,27C77,26 77,26 76,22Z" style="fill:rgb(176,174,175);"/><path d="M105,104C104,102 104,102 104,101C101,97 104,85 101,87C99,88 101,100 99,99C96,98 99,87 96,92C94,95 95,88 94,82C93,77 102,83 104,83C111,85 110,86 113,93C119,109 114,90 114,89C111,84 117,90 119,91C125,95 124,99 124,104C124,108 125,108 125,111C122,110 122,110 120,107C118,103 119,109 118,110C118,110 111,110 109,103C108,97 107,102 107,103C108,105 109,105 107,108C107,109 107,113 106,111C106,111 105,109 104,109C105,108 106,108 106,107C106,107 105,107 105,107C105,106 106,106 106,105C106,105 105,104 105,104Z" style="fill:rgb(174,174,174);"/><path d="M57,31C57,31 58,29 58,30C59,30 60,31 61,31C61,30 62,31 62,31C63,31 63,29 63,30C64,31 66,31 68,30C68,30 69,31 69,31C70,31 70,29 70,29C72,28 71,31 72,32C72,32 69,33 69,33C60,39 61,40 50,43C46,45 46,47 40,51C38,52 38,55 34,53C30,51 27,51 29,49C30,49 32,49 32,47C32,47 27,45 28,41C29,39 43,48 40,42C39,42 27,39 32,33C33,31 46,27 40,35C39,37 42,38 43,36C46,32 44,29 47,30C52,31 52,32 57,31Z" style="fill:rgb(173,175,174);"/><path d="M149,57C147,40 135,36 132,40C128,44 126,36 131,34C134,34 135,33 135,30C136,28 138,33 142,32C146,32 146,33 147,36C147,38 155,36 153,41C153,42 148,46 154,46C160,45 157,51 154,51C146,50 156,54 156,55C158,58 152,59 152,59C151,62 158,62 153,66C151,68 150,66 149,57Z" style="fill:rgb(174,175,173);"/><path d="M114,75C104,65 102,66 96,54C84,29 70,49 66,50C55,52 53,52 50,56C48,59 49,61 46,59C43,58 50,49 59,48C59,48 66,47 69,44C90,27 99,55 104,61C112,70 121,74 120,87C119,93 117,83 114,75Z" style="fill:rgb(231,210,156);"/><path d="M100,150C100,151 98,152 98,153C90,157 91,158 84,164C70,176 69,176 69,174C65,170 69,170 86,157C115,133 114,129 116,131C119,132 115,136 114,137C107,144 107,143 100,150Z" style="fill:rgb(172,175,175);"/><path d="M154,142C161,140 159,138 160,132C160,132 161,125 164,130C164,131 164,131 165,132C167,136 164,139 167,139C172,138 172,145 171,146C168,150 167,146 166,146C163,143 167,149 165,153C162,161 160,150 160,149C159,148 159,148 158,148L158,148C158,148 156,153 152,148C149,145 149,143 154,142Z" style="fill:rgb(177,173,175);"/><path d="M114,127C114,127 114,128 115,129C112,131 88,154 75,162C67,168 66,171 64,167C62,163 78,159 108,130C113,126 114,127 114,127Z" style="fill:rgb(173,173,170);"/><path d="M65,177C60,171 48,153 46,151C45,149 44,151 43,151C38,151 38,145 43,146C48,146 74,187 79,191C79,192 88,191 85,195C81,202 69,183 65,177Z" style="fill:rgb(238,208,136);"/><path d="M100,170C105,171 107,172 105,177C104,180 105,182 104,183C104,184 104,184 93,185C90,185 91,178 91,178C89,170 92,170 100,170Z" style="fill:rgb(79,9,7);"/><path d="M132,130C133,133 133,133 133,133C136,142 142,141 144,145C146,148 139,144 137,145C126,147 115,124 115,123C116,116 125,138 129,138C132,138 125,133 123,127C121,124 126,126 126,127C127,130 127,130 129,131C130,131 131,131 132,130Z" style="fill:rgb(178,176,174);"/><path d="M139,174C140,174 140,175 150,181C154,185 154,185 165,189C168,191 159,197 156,194C156,193 156,193 155,193C154,192 147,184 136,181C132,179 138,176 139,174Z" style="fill:rgb(223,16,13);"/><path d="M123,141C124,141 125,142 126,143C127,143 127,143 127,144C130,146 131,145 131,145C131,145 131,146 131,147C132,147 144,147 138,149C132,152 133,153 131,154C130,155 130,154 116,144C112,142 113,141 116,138C119,134 120,136 123,141Z" style="fill:rgb(227,12,15);"/><path d="M174,181L174,183C171,186 171,188 171,189C167,213 147,191 135,185C130,183 134,182 135,182C142,185 148,190 149,190C167,207 168,188 169,184L170,183C171,181 171,181 174,181Z" style="fill:rgb(236,210,140);"/><path d="M96,191C99,191 99,191 101,190C104,189 107,192 106,194C105,199 109,200 106,203C104,205 103,202 100,203C99,203 95,203 95,203C94,203 94,202 94,196C93,194 91,189 96,191Z" style="fill:rgb(80,8,10);"/><path d="M96,130C100,124 101,124 103,118C104,110 109,117 109,118C113,121 114,123 110,126C109,127 110,127 110,128C109,128 109,127 104,131C100,135 100,132 99,132C99,132 99,132 98,130L96,130Z" style="fill:rgb(230,10,15);"/><path d="M136,163C136,163 134,163 134,161C132,155 134,154 141,150C147,147 146,164 143,164C139,164 139,163 136,163Z" style="fill:rgb(175,172,173);"/><path d="M68,90C68,90 69,86 74,86C74,86 76,86 76,96C77,101 72,104 68,103C64,101 67,99 68,90Z" style="fill:rgb(4,4,4);"/><path d="M92,106C108,112 93,122 92,121C90,120 84,104 89,106C90,106 91,106 92,106Z" style="fill:rgb(4,4,4);"/><path d="M31,190C33,194 34,205 46,200C50,199 62,181 67,185C71,188 64,185 58,192C52,199 44,207 34,202C29,198 32,196 28,190C28,190 27,185 31,190Z" style="fill:rgb(237,206,167);"/><path d="M136,72C133,80 133,80 126,85C126,85 120,89 122,85C123,81 135,84 136,58C136,45 143,42 142,45C142,46 139,49 138,55C138,64 138,64 136,72Z" style="fill:rgb(223,206,161);"/><path d="M130,157C130,157 135,165 128,161C108,148 107,147 108,146C111,141 114,146 121,150C125,154 125,154 130,157Z" style="fill:rgb(172,176,178);"/><path d="M133,167C133,167 133,171 129,169C129,168 103,152 104,150C104,150 104,147 109,151C131,166 132,165 133,167Z" style="fill:rgb(174,174,175);"/><path d="M63,179C64,180 64,180 64,181L64,182C63,183 57,184 51,192C44,202 33,199 38,196C55,187 53,185 63,179Z" style="fill:rgb(211,18,21);"/><path d="M136,168C137,166 136,165 138,165C141,165 138,170 137,171C137,172 131,181 130,182C127,191 117,197 115,193C114,189 117,190 120,189C123,189 123,189 136,168Z" style="fill:rgb(237,208,142);"/><path d="M49,100C30,75 28,74 31,74C31,74 31,74 34,76C41,84 46,86 46,89C45,94 57,102 57,105C56,109 51,102 49,100Z" style="fill:rgb(179,175,174);"/><path d="M151,84C153,85 153,85 155,85C142,107 132,118 136,108C138,107 143,101 151,90C151,90 156,79 150,87C147,91 144,97 143,97C142,99 136,106 135,107C135,107 135,106 135,106C135,103 146,93 148,89C149,87 149,87 151,84Z" style="fill:rgb(183,171,168);"/><path d="M124,114C131,116 131,117 131,124C131,128 126,124 125,119C125,114 123,116 123,117C122,119 127,124 121,123C119,122 111,108 123,113C123,113 123,113 124,114Z" style="fill:rgb(175,176,176);"/><path d="M94,178C93,174 93,174 93,174C93,172 100,172 101,172C104,172 103,175 103,176C101,182 102,182 102,182C102,183 102,182 94,183C93,183 93,182 94,178Z" style="fill:rgb(246,246,248);"/><path d="M129,112C128,110 126,108 126,98C126,97 126,94 129,98C129,98 139,122 129,112Z" style="fill:rgb(176,175,179);"/><path d="M96,157C96,157 98,155 104,155C106,156 106,159 106,162C106,165 104,163 98,163C94,163 96,158 96,157Z" style="fill:rgb(247,246,248);"/><path d="M76,52L74,53C73,54 73,54 73,54C70,56 73,61 76,56C77,56 77,56 78,55C78,56 79,59 75,60C71,62 72,63 72,66C72,67 70,72 70,66C69,63 68,66 66,66C63,65 72,62 70,57C69,55 71,49 76,52Z" style="fill:rgb(234,235,237);"/><path d="M43,182C36,186 34,187 33,188C32,185 34,185 44,178C56,168 57,168 57,169C57,171 47,178 43,182Z" style="fill:rgb(244,212,155);"/><path d="M114,47C113,49 113,49 113,49C113,51 114,50 114,50C117,50 117,49 117,49C117,52 117,52 118,54C119,54 119,56 121,56C126,57 122,60 122,64C122,65 121,66 121,66C119,63 120,63 121,61C121,59 118,59 117,58C117,57 117,56 116,55C115,53 112,54 111,49C109,44 113,47 114,47Z" style="fill:rgb(69,8,14);"/><path d="M97,193C100,193 100,193 103,192C105,191 104,193 104,196C103,198 106,203 101,201C98,199 95,202 96,199C96,195 94,193 97,193Z" style="fill:rgb(246,247,244);"/><path d="M146,167C149,167 164,177 170,183L169,184L167,184C166,180 164,181 157,175C152,172 147,169 146,169C146,168 146,168 146,167Z" style="fill:rgb(190,179,156);"/><path d="M163,69C163,69 164,69 164,69C164,72 162,73 156,83C155,85 155,85 155,85C153,85 153,85 151,84C157,78 159,73 163,69Z" style="fill:rgb(177,161,156);"/><path d="M87,133C90,136 90,135 92,138C96,142 91,142 91,141C82,134 82,133 83,133C83,132 87,133 87,133Z" style="fill:rgb(176,175,174);"/><path d="M135,106C135,106 135,107 135,107C136,106 142,99 143,97C144,97 147,91 150,87C156,79 151,90 151,90C143,101 138,107 136,108L135,106Z" style="fill:rgb(11,14,13);"/><path d="M63,122C63,121 63,122 63,121C60,118 79,112 74,116C69,121 68,120 63,122Z" style="fill:rgb(10,9,10);"/><path d="M94,131C96,132 100,134 99,137C97,139 97,139 95,137C89,133 89,132 90,132C92,131 92,131 94,131Z" style="fill:rgb(177,175,177);"/><g transform="matrix(2.652432,0,0,1.240182,-25.762687,-18.133736)"><path d="M16,64L16,64L18,64L18,64L18,65L19,66L20,66C20,66 21,66 21,66C21,67 22,67 21,68C19,69 19,69 19,70C18,73 16,75 16,76C16,72 16,68 16,64Z" style="fill:rgb(242,5,6);"/></g><path d="M116,119L116,120C115,119 110,116 110,112C109,108 112,108 114,112C115,113 114,113 116,119Z" style="fill:rgb(181,173,181);"/><path d="M49,89C56,96 58,99 59,99C58,100 59,101 58,101C58,102 47,90 48,90C48,89 48,90 49,89Z" style="fill:rgb(194,183,180);"/><path d="M153,139C147,143 149,132 149,132C150,132 153,131 153,139Z" style="fill:rgb(177,179,174);"/><path d="M110,96C109,93 108,94 107,90C105,85 113,93 112,97C112,98 111,101 110,96Z" style="fill:rgb(18,18,18);"/><path d="M143,153C142,161 139,159 139,158C139,157 139,155 140,155C141,153 141,153 143,153Z" style="fill:rgb(7,8,8);"/><path d="M119,100C118,95 116,92 118,93C122,94 123,109 119,100Z" style="fill:rgb(16,17,15);"/><path d="M86,128C86,128 85,128 85,127C85,126 97,120 93,125C90,128 86,128 86,128Z" style="fill:rgb(7,7,7);"/><path d="M118,47C121,48 122,48 121,50C121,52 121,52 121,52C121,53 121,52 118,54C117,52 117,52 117,49L118,47Z" style="fill:rgb(234,17,3);"/><path d="M155,176C155,176 156,177 158,178C157,181 156,183 154,182C154,181 155,181 155,180C154,180 154,180 154,180C153,180 153,180 153,180C152,180 152,180 152,179C154,176 154,176 155,176Z" style="fill:rgb(190,164,117);"/><path d="M74,53C75,54 76,55 76,56C73,61 70,56 73,54C73,54 73,54 74,53Z" style="fill:rgb(20,23,21);"/><path d="M107,32C107,32 102,31 104,29C105,27 108,28 108,30C110,32 108,32 107,32Z" style="fill:rgb(179,176,179);"/><path d="M36,189C38,191 39,193 39,193C39,193 36,195 36,194C34,193 36,190 36,189Z" style="fill:rgb(138,111,92);"/><path d="M39,186C40,186 40,186 40,186C42,185 44,189 44,189C45,196 39,187 39,186Z" style="fill:rgb(232,210,151);"/><path d="M126,14C127,14 127,13 128,13C129,13 129,14 143,13C144,13 143,14 144,14C138,14 132,14 126,14Z" style="fill:rgb(136,15,14);"/><path d="M58,27C58,28 60,26 61,26C61,27 62,27 63,28C63,28 62,29 64,29C64,30 64,31 64,31C63,32 61,34 61,34C59,36 56,35 55,34C55,33 57,31 57,31C58,29 58,29 58,27Z" style="fill:rgb(173,175,174);"/><path d="M151,206C145,204 149,203 150,203C151,203 156,205 151,206Z" style="fill:rgb(238,2,26);"/><path d="M50,186C49,186 48,185 46,182C46,182 46,179 49,183C50,184 50,184 50,186Z" style="fill:rgb(224,203,159);"/><path d="M83,92C82,90 81,89 84,89C86,90 86,98 83,92Z" style="fill:rgb(16,16,16);"/><path d="M49,179C50,178 50,178 51,178C51,179 53,182 53,182C54,187 49,180 49,179Z" style="fill:rgb(235,201,170);"/><path d="M54,176C54,177 59,183 55,181C55,181 52,177 53,177C53,176 53,176 54,176Z" style="fill:rgb(225,199,169);"/><path d="M43,184C46,184 47,187 47,187C47,188 45,189 43,185C43,184 43,184 43,184Z" style="fill:rgb(229,208,164);"/><path d="M36,189C37,189 37,188 39,189C41,192 40,193 39,193C39,193 38,191 36,189Z" style="fill:rgb(225,204,167);"/><path d="M161,180L163,182C161,184 161,184 161,184C161,184 161,185 162,185C161,185 161,186 161,186C161,186 161,186 160,185C159,184 159,185 158,184C160,182 160,182 161,180Z" style="fill:rgb(66,55,39);"/><path d="M146,147C147,144 146,143 147,144C149,145 150,151 146,147Z" style="fill:rgb(167,184,169);"/><path d="M55,174C57,175 58,176 59,176C59,177 59,177 59,177C59,180 55,176 55,175C55,175 56,175 55,174Z" style="fill:rgb(223,205,159);"/><path d="M145,170C147,171 147,172 146,173C145,174 145,174 145,174C143,173 143,173 145,170Z" style="fill:rgb(226,200,178);"/><path d="M143,167C143,167 143,173 140,171C140,171 137,169 143,167Z" style="fill:rgb(205,185,165);"/><path d="M160,180C160,180 160,180 161,180C160,182 160,182 158,184C156,183 158,182 160,180Z" style="fill:rgb(219,206,169);"/><path d="M147,176C147,176 146,175 148,172C149,172 151,172 149,174C148,177 147,176 147,176Z" style="fill:rgb(215,209,168);"/><path d="M152,175C152,176 151,177 151,178C150,178 149,178 150,175C151,174 151,174 151,174C152,174 152,175 152,175Z" style="fill:rgb(219,197,163);"/><path d="M132,130C131,131 130,131 129,131C129,131 129,128 129,128C129,128 130,127 132,130Z" style="fill:rgb(178,176,174);"/><path d="M152,175C153,175 154,176 155,176C154,176 154,176 152,179L151,178C151,177 152,176 152,175Z" style="fill:rgb(86,64,30);"/><g transform="matrix(1.323112,0,0,1.067909,-33.451494,-7.369686)"><path d="M105,104C105,104 106,105 106,105C106,106 105,106 105,107C105,107 106,107 106,107C106,108 105,108 104,109C103,106 103,106 105,104Z" style="fill:rgb(174,174,174);"/></g><path d="M163,182C163,182 163,182 164,182C163,184 163,184 162,185C161,185 161,184 161,184C161,184 161,184 163,182Z" style="fill:rgb(213,203,161);"/><path d="M165,183L166,184C166,186 167,186 166,187C166,187 163,187 165,183Z" style="fill:rgb(234,199,177);"/><path d="M66,42L66,44L66,44C64,43 63,43 64,42C65,40 65,41 66,42Z" style="fill:rgb(3,2,28);"/><path d="M76,52C77,54 77,54 78,55C78,55 78,56 78,56C77,56 77,56 77,56C76,56 76,56 76,56C76,55 75,54 74,53C74,53 74,53 74,53C74,53 75,52 75,52C75,52 76,52 76,52Z" style="fill:rgb(234,235,237);"/><path d="M60,176C58,174 58,174 58,174C56,171 61,173 61,175C60,175 60,175 60,176Z" style="fill:rgb(181,175,150);"/><path d="M123,141C124,141 124,140 125,140C125,140 125,141 126,141C126,142 126,142 126,143C125,142 124,141 123,141Z" style="fill:rgb(136,15,18);"/><path d="M153,180C153,180 153,180 154,180C154,180 154,180 155,180C155,181 154,181 154,182C154,181 153,181 153,180Z" style="fill:rgb(75,48,21);"/><path d="M162,143C162,142 161,142 161,142C161,141 161,141 161,141C162,140 162,141 162,143Z" style="fill:rgb(173,169,174);"/><path d="M101,152C102,152 103,154 103,154C103,156 103,153 101,152Z" style="fill:rgb(105,26,40);"/><path d="M83,19C84,19 85,19 86,19C84,19 85,19 83,19Z" style="fill:rgb(161,31,41);"/><path d="M163,69C163,69 163,68 164,68C164,68 164,68 164,69C164,69 163,69 163,69Z" style="fill:rgb(132,75,65);"/></g></svg>