<svg xmlns="http://www.w3.org/2000/svg" xmlns:xlink="http://www.w3.org/1999/xlink" height="800" width="1200" viewBox="-75 -25 650 150"><defs><circle r="25.308" cy="60.486" cx="167.744" id="a"/></defs><clipPath id="b"><use height="101" width="501" xlink:href="#a"/></clipPath><path d="M190.128 56.26c-10.221-1.761-18.58-8.98-21.969-18.546 10.944.196 20.006 8.113 21.969 18.537v.008zm-3.362 16.755a22.656 22.656 0 003.752-12.529c0-.324-.008-.645-.019-.965-12.088-1.72-21.975-10.278-25.618-21.632-5.876.736-11.053 3.714-14.656 8.045l36.54 27.08zm-41.531-8.134c1.963 10.423 11.025 18.338 21.969 18.53-3.39-9.564-11.744-16.777-21.97-18.544v.014zm3.362-16.767a22.675 22.675 0 00-3.752 12.53c0 .32.007.646.019.963 12.092 1.725 21.974 10.279 25.617 21.627a22.684 22.684 0 0014.656-8.038zM136.49 90.315h58.815V33.112H136.49z" clip-rule="evenodd" clip-path="url(#b)" fill="#153434" fill-rule="evenodd"/><defs><path d="M160.041 3.046h108.308l-39.447 93.906H120.588zm-8.595 45.75h5.83c1.865 3.065 6.975 3.557 6.975 3.557 1.874.067 5.648.192 6.605-2.007.36-.81-.732-1.75-1.248-2.153-1.334-1.028-2.808-1.945-4.573-1.734a3.51 3.51 0 00-.47.088l.078.03a1.91 1.91 0 011.163 1.753 1.9 1.9 0 11-3.803 0c0-.754.44-1.408 1.079-1.715 0 0-2.566-.85-5.669 1.019h-5.264" id="c"/></defs><clipPath id="d"><use height="101" width="501" xlink:href="#c"/></clipPath><path d="M258.797 16.165h-64.845c-9.49 0-12.97 4.801-12.97 4.801l-5.524 9.126 2.659 1.542c6.97-13.47 14.272-12.346 14.272-12.346h65.602l-1.949 7.565h-63.411s-2.582.179-5.765 3.36c-3.182 3.182-3.182 4.652-3.182 4.652l1.5.871 4.565-5.644 3.722 2.524-44.666 56.43-5.089-3.47 2.818-4.532-2.503-1.707-3.07 4.366-5.005-3.416s28.312-46.813 36.984-60.881c8.105-13.15 18.97-11.644 18.97-11.644h69.05z" clip-rule="evenodd" clip-path="url(#d)" fill="#153434" fill-rule="evenodd"/><defs><path d="M193.952 16.165c-9.49 0-12.97 4.801-12.97 4.801l-5.524 9.126 2.659 1.542c6.97-13.47 14.272-12.346 14.272-12.346h31.822v7.565h-31.58s-2.582.179-5.765 3.36c-3.182 3.182-3.182 4.652-3.182 4.652l1.5.871 4.565-5.644 3.722 2.524-44.666 56.43-5.089-3.47 2.818-4.532-2.503-1.707-3.07 4.366-5.005-3.416s28.312-46.813 36.984-60.881c8.105-13.15 18.97-11.644 18.97-11.644h32.301v8.403z" id="e"/></defs><clipPath id="f"><use height="101" width="501" xlink:href="#e"/></clipPath><g clip-path="url(#f)"><defs><circle r="25.308" cy="60.486" cx="167.744" id="g"/></defs><clipPath id="h"><use height="101" width="501" xlink:href="#g"/></clipPath><path d="M190.128 56.26c-10.221-1.761-18.58-8.98-21.969-18.546 10.944.196 20.006 8.113 21.969 18.537v.008zm-3.362 16.755a22.656 22.656 0 003.752-12.529c0-.324-.008-.645-.019-.965-12.088-1.72-21.975-10.278-25.618-21.632-5.876.736-11.053 3.714-14.656 8.045l36.54 27.08zm-41.531-8.134c1.963 10.423 11.025 18.338 21.969 18.53-3.39-9.564-11.744-16.777-21.97-18.544v.014zm3.362-16.767a22.675 22.675 0 00-3.752 12.53c0 .32.007.646.019.963 12.092 1.725 21.974 10.279 25.617 21.627a22.684 22.684 0 0014.656-8.038zM136.49 90.315h58.815V33.112H136.49z" clip-rule="evenodd" clip-path="url(#h)" fill="#fff" fill-rule="evenodd"/></g><path d="M40.662 35.373H61.1l1.195 50.487H48.726l.145-10.475H31.125l-5.51 10.475H12.41zM37.62 63.06l-.118.2h11.537l-.021-.167-.472-19.592h-.024zm41.109-27.687h12.639L77.84 85.86H65.197zm19.452 0h21.754c6.013 0 10.125 1.042 12.34 3.124 2.216 2.082 2.723 5.369 1.52 9.861-1.246 4.649-3.599 8.397-7.06 11.246-3.127 2.565-6.639 3.989-10.536 4.278l9.391 21.978h-15.867l-6.598-21.388h-.096L97.295 85.86h-12.64zm6.773 21.91h8.287c1.663 0 3.13-.482 4.394-1.449 1.271-.97 2.12-2.256 2.553-3.867.383-1.434.2-2.538-.545-3.313-.745-.77-2.008-1.157-3.778-1.157h-8.287zm110.896-21.91h20.443l1.195 50.487h-13.57l.143-10.475h-17.746l-5.51 10.475H187.6zm-3.042 27.688l-.116.2h11.54l-.02-.167-.475-19.592h-.022l-10.907 19.559zm28.03 22.799l13.526-50.487h33.988l-1.62 6.047-1.63 6.077h-21.338l-2.186 8.141h21.341l-1.621 6.045-1.628 6.08h-21.34l-4.849 18.097h-6.322zm52.431-50.487h21.753c6.01 0 10.12 1.042 12.338 3.124s2.726 5.369 1.523 9.861c-1.246 4.649-3.599 8.397-7.064 11.246-3.129 2.565-6.64 3.989-10.534 4.278l9.393 21.978H304.81l-6.598-21.388h-.1L292.38 85.86h-12.644l13.532-50.487zm6.77 21.91h8.285c1.665 0 3.134-.482 4.399-1.449 1.27-.97 2.119-2.256 2.55-3.867.387-1.434.203-2.538-.544-3.313-.749-.77-2.006-1.157-3.779-1.157h-8.289zm37.551-21.91h12.642L336.7 85.86h-12.637zm24.5 58.592l-1.935-7.148c-5.34-.75-9.05-2.949-11.123-6.603-2.571-4.526-2.644-11.334-.234-20.42 2.304-8.516 5.917-14.903 10.853-19.16 4.926-4.258 11.193-6.386 18.79-6.386 8.09 0 13.38 1.996 15.878 5.99 2.5 3.999 2.554 10.462.159 19.395l-.042.162c-2.412 9.085-6.145 15.905-11.193 20.457-2.903 2.617-6.256 4.49-10.046 5.608l2.488 8.105H362.09zm4.306-42.865c-2.408 2.457-4.234 5.992-5.464 10.603-1.196 4.456-1.238 7.866-.123 10.224 1.115 2.366 3.314 3.545 6.593 3.545 3.295 0 6.133-1.179 8.517-3.545 2.384-2.358 4.168-5.768 5.363-10.224 1.319-4.919 1.457-8.53.427-10.836-1.034-2.303-3.295-3.458-6.79-3.458-3.275 0-6.12 1.234-8.523 3.69zm71.873 15.688c-1.78 6.734-4.814 11.786-9.085 15.149-4.28 3.374-9.785 5.045-16.533 5.045-6.743 0-11.35-1.671-13.806-5.045-2.46-3.363-2.8-8.415-1.015-15.149l8.42-31.415h12.642l-8.21 30.629c-.714 2.678-.621 4.722.294 6.134.907 1.415 2.579 2.125 5.028 2.125 2.441 0 4.498-.71 6.163-2.125 1.669-1.412 2.864-3.456 3.58-6.134l8.208-30.63h12.731zm.827 19.072l13.525-50.487h34.972l-1.618 6.047-1.631 6.077h-22.326l-1.857 6.93h22.322l-1.615 6.048-1.634 6.075h-22.322l-1.93 7.19h22.327l-1.62 6.047-1.626 6.073z" fill="#0e8733"/></svg>