<?xml version="1.0" encoding="utf-8"?>
<!-- Generator: Adobe Illustrator 12.0.1, SVG Export Plug-In . SVG Version: 6.00 Build 51448)  -->
<!DOCTYPE svg PUBLIC "-//W3C//DTD SVG 1.1//EN" "http://www.w3.org/Graphics/SVG/1.1/DTD/svg11.dtd" [
	<!ENTITY ns_svg "http://www.w3.org/2000/svg">
	<!ENTITY ns_xlink "http://www.w3.org/1999/xlink">
]>
<svg  version="1.1" id="Ebene_1" xmlns="&ns_svg;" xmlns:xlink="&ns_xlink;" width="482.787" height="95.408"
	 viewBox="0 0 482.787 95.408" overflow="visible" enable-background="new 0 0 482.787 95.408" xml:space="preserve">
<g>
	<g id="Logo">
		<g>
			<defs>
				<circle id="XMLID_1_" cx="157.82" cy="58.359" r="25.713"/>
			</defs>
			<clipPath id="XMLID_9_">
				<use xlink:href="#XMLID_1_" />
			</clipPath>
			<path clip-path="url(#XMLID_9_)" fill-rule="evenodd" clip-rule="evenodd" fill="#00504D" d="M180.563,54.064
				c-10.385-1.789-18.877-9.123-22.32-18.842l0,0c11.119,0.199,20.326,8.242,22.32,18.834V54.064z M177.146,71.088
				c2.412-3.652,3.813-8.027,3.813-12.729c0-0.33-0.008-0.656-0.02-0.98c-12.281-1.748-22.326-10.443-26.027-21.979
				c-5.971,0.748-11.23,3.773-14.891,8.174L177.146,71.088z M134.951,62.824c1.994,10.59,11.201,18.631,22.32,18.826l0,0
				c-3.443-9.717-11.932-17.045-22.32-18.84V62.824z M138.367,45.789c-2.408,3.65-3.813,8.025-3.813,12.73
				c0,0.326,0.008,0.656,0.02,0.979c12.285,1.752,22.326,10.443,26.027,21.973c5.971-0.74,11.234-3.764,14.891-8.166L138.367,45.789
				z M126.066,88.666h59.756V30.547h-59.756V88.666z"/>
		</g>
		<g>
			<defs>
				<path id="XMLID_3_" d="M149.994,0h110.041l-40.078,95.408H109.91L149.994,0z M141.262,46.482h5.924
					c1.895,3.113,7.086,3.613,7.086,3.613c1.904,0.068,5.738,0.195,6.711-2.039c0.365-0.822-0.744-1.777-1.268-2.188
					c-1.355-1.045-2.854-1.977-4.646-1.762c-0.162,0.018-0.322,0.051-0.479,0.09l0.08,0.029c0.693,0.297,1.182,0.982,1.182,1.781
					c0,1.07-0.863,1.934-1.93,1.934c-1.07,0-1.934-0.863-1.934-1.934c0-0.766,0.447-1.43,1.096-1.742c0,0-2.607-0.863-5.76,1.035
					h-5.348"/>
			</defs>
			<clipPath id="XMLID_10_">
				<use xlink:href="#XMLID_3_" />
			</clipPath>
			<path clip-path="url(#XMLID_10_)" fill-rule="evenodd" clip-rule="evenodd" fill="#00504D" d="M250.33,13.328h-65.883
				c-9.641,0-13.178,4.879-13.178,4.879l-5.611,9.271l2.701,1.566c7.082-13.686,14.5-12.543,14.5-12.543h66.652l-1.98,7.686h-64.426
				c0,0-2.623,0.182-5.857,3.414c-3.232,3.232-3.232,4.727-3.232,4.727l1.523,0.885l4.639-5.734l3.781,2.564l-45.381,57.334
				l-5.17-3.527l2.863-4.604l-2.543-1.734l-3.119,4.436l-5.086-3.471c0,0,28.766-47.563,37.576-61.855
				c8.234-13.359,19.273-11.83,19.273-11.83h70.156L250.33,13.328z"/>
		</g>
		<g>
			<defs>
				<path id="XMLID_5_" d="M184.447,13.328c-9.641,0-13.178,4.879-13.178,4.879l-5.611,9.271l2.701,1.566
					c7.082-13.686,14.5-12.543,14.5-12.543h32.332v7.686h-32.086c0,0-2.623,0.182-5.857,3.414c-3.232,3.232-3.232,4.727-3.232,4.727
					l1.523,0.885l4.639-5.734l3.781,2.564l-45.381,57.334l-5.17-3.527l2.863-4.604l-2.543-1.734l-3.119,4.436l-5.086-3.471
					c0,0,28.766-47.563,37.576-61.855c8.234-13.359,19.273-11.83,19.273-11.83h32.818v8.537H184.447z"/>
			</defs>
			<clipPath id="XMLID_11_">
				<use xlink:href="#XMLID_5_" />
			</clipPath>
			<g clip-path="url(#XMLID_11_)">
				<defs>
					<circle id="XMLID_7_" cx="157.82" cy="58.359" r="25.713"/>
				</defs>
				<clipPath id="XMLID_12_">
					<use xlink:href="#XMLID_7_" />
				</clipPath>
				<path clip-path="url(#XMLID_12_)" fill-rule="evenodd" clip-rule="evenodd" fill="#FFFFFF" d="M180.563,54.064
					c-10.385-1.789-18.877-9.123-22.32-18.842l0,0c11.119,0.199,20.326,8.242,22.32,18.834V54.064z M177.146,71.088
					c2.412-3.652,3.813-8.027,3.813-12.729c0-0.33-0.008-0.656-0.02-0.98c-12.281-1.748-22.326-10.443-26.027-21.979
					c-5.971,0.748-11.23,3.773-14.891,8.174L177.146,71.088z M134.951,62.824c1.994,10.59,11.201,18.631,22.32,18.826l0,0
					c-3.443-9.717-11.932-17.045-22.32-18.84V62.824z M138.367,45.789c-2.408,3.65-3.813,8.025-3.813,12.73
					c0,0.326,0.008,0.656,0.02,0.979c12.285,1.752,22.326,10.443,26.027,21.973c5.971-0.74,11.234-3.764,14.891-8.166
					L138.367,45.789z M126.066,88.666h59.756V30.547h-59.756V88.666z"/>
			</g>
		</g>
	</g>
	<g>
		<path fill="#009035" d="M28.705,32.844h10.381h10.383l1.215,51.295h-6.893h-6.893l0.146-10.643H19.016l-5.598,10.643H6.723H0
			L28.705,32.844z M25.613,60.975l-0.119,0.203h11.721l-0.021-0.17l-0.479-19.904h-0.025L25.613,60.975z"/>
		<path fill="#009035" d="M67.381,32.844h6.424h6.418L66.479,84.139h-6.422h-6.424L67.381,32.844z"/>
		<path fill="#009035" d="M87.145,32.844h6.42h15.682c6.109,0,10.287,1.059,12.537,3.174c2.252,2.115,2.768,5.455,1.545,10.02
			c-1.266,4.723-3.656,8.531-7.172,11.426c-3.178,2.605-6.746,4.053-10.705,4.346l9.541,22.33h-8.057h-8.064l-6.703-21.73H92.07
			l-5.826,21.73H79.82h-6.418L87.145,32.844z M94.025,55.105h8.42c1.689,0,3.18-0.49,4.465-1.473
			c1.291-0.986,2.154-2.293,2.594-3.93c0.389-1.457,0.203-2.578-0.555-3.365c-0.756-0.783-2.039-1.176-3.838-1.176h-8.42
			L94.025,55.105z"/>
		<path fill="#009035" d="M206.695,32.844h10.389h10.383l1.215,51.295h-6.893h-6.895l0.145-10.643H197.01l-5.598,10.643h-6.695
			h-6.723L206.695,32.844z M203.605,60.975l-0.117,0.203h11.725l-0.021-0.17l-0.482-19.904h-0.021L203.605,60.975z"/>
		<path fill="#009035" d="M232.084,84.139l13.742-51.295h34.531l-1.645,6.145l-1.656,6.174h-21.68l-2.221,8.271h21.682l-1.646,6.141
			l-1.654,6.178h-21.682l-4.926,18.387h-6.424H232.084z"/>
		<path fill="#009035" d="M285.354,32.844h6.418h15.684c6.105,0,10.281,1.059,12.535,3.174s2.77,5.455,1.547,10.02
			c-1.266,4.723-3.656,8.531-7.176,11.426c-3.18,2.605-6.746,4.053-10.703,4.346l9.543,22.33h-8.063h-8.059l-6.703-21.73h-0.102
			l-5.824,21.73h-6.422h-6.424L285.354,32.844z M292.232,55.105h8.418c1.691,0,3.184-0.49,4.469-1.473
			c1.289-0.986,2.152-2.293,2.59-3.93c0.395-1.457,0.207-2.578-0.551-3.365c-0.762-0.783-2.039-1.176-3.84-1.176h-8.422
			L292.232,55.105z"/>
		<path fill="#009035" d="M330.385,32.844h6.418h6.426l-13.75,51.295h-6.418h-6.422L330.385,32.844z"/>
		<path fill="#009035" d="M355.275,92.373l-1.965-7.262c-5.426-0.762-9.195-2.996-11.301-6.709
			c-2.613-4.598-2.688-11.516-0.238-20.746c2.34-8.652,6.012-15.143,11.027-19.467c5.004-4.326,11.371-6.488,19.09-6.488
			c8.219,0,13.594,2.027,16.133,6.086c2.539,4.063,2.594,10.629,0.16,19.705l-0.043,0.164c-2.449,9.23-6.242,16.16-11.371,20.785
			c-2.949,2.658-6.355,4.561-10.207,5.697l2.527,8.234H355.275z M359.65,48.822c-2.445,2.496-4.301,6.088-5.551,10.773
			c-1.215,4.527-1.258,7.992-0.125,10.387c1.133,2.404,3.367,3.602,6.699,3.602c3.348,0,6.23-1.197,8.652-3.602
			c2.422-2.395,4.234-5.859,5.449-10.387c1.34-4.998,1.48-8.666,0.434-11.01c-1.051-2.34-3.348-3.514-6.898-3.514
			C364.982,45.072,362.092,46.326,359.65,48.822z"/>
		<path fill="#009035" d="M432.674,64.762c-1.809,6.842-4.891,11.975-9.23,15.391c-4.348,3.428-9.941,5.127-16.797,5.127
			c-6.852,0-11.531-1.699-14.027-5.127c-2.5-3.416-2.844-8.549-1.031-15.391l8.555-31.918h6.422h6.422l-8.34,31.119
			c-0.727,2.721-0.633,4.797,0.297,6.232c0.922,1.438,2.621,2.158,5.109,2.158c2.48,0,4.57-0.721,6.262-2.158
			c1.695-1.436,2.91-3.512,3.637-6.232l8.34-31.119h6.449h6.484L432.674,64.762z"/>
		<path fill="#009035" d="M433.514,84.139l13.742-51.295h35.531l-1.645,6.145l-1.656,6.174h-22.684l-1.887,7.041h22.68l-1.641,6.145
			l-1.66,6.172h-22.68l-1.961,7.305h22.684l-1.645,6.145l-1.652,6.17H433.514z"/>
	</g>
</g>
</svg>
