<?xml version="1.0" encoding="UTF-8" standalone="no"?><!DOCTYPE svg PUBLIC "-//W3C//DTD SVG 1.1//EN" "http://www.w3.org/Graphics/SVG/1.1/DTD/svg11.dtd"><svg width="100%" height="100%" viewBox="0 0 117 119" version="1.1" xmlns="http://www.w3.org/2000/svg" xmlns:xlink="http://www.w3.org/1999/xlink" xml:space="preserve" xmlns:serif="http://www.serif.com/" style="fill-rule:evenodd;clip-rule:evenodd;stroke-linejoin:round;stroke-miterlimit:2;"><g><path d="M104.669,25.088c0.188,0.236 0.261,0.144 0.442,0.371c0.335,0.42 0.25,0.464 0.574,0.903c0.093,0.126 0.244,0.202 0.334,0.33c0.121,0.172 0.17,0.388 0.292,0.56c0.085,0.121 0.235,0.188 0.321,0.309c0.209,0.237 0.105,0.293 0.307,0.521c0.148,0.168 0.217,0.065 0.364,0.239c0.069,0.082 1.459,2.769 1.584,3.011c0.202,0.228 0.047,0.303 0.253,0.535c0.349,0.393 0.449,0.239 0.468,0.278c0.056,0.11 -0.175,0.212 -0.158,0.334c0.015,0.108 0.182,0.131 0.235,0.227c0,0 0.598,1.395 0.65,1.516c0.443,1.213 0.42,1.215 0.478,1.31c0.113,0.183 0.207,0.085 0.294,0.277c0.091,0.201 0.071,0.436 0.127,0.649c0.057,0.216 0.09,0.449 0.212,0.635c0.071,0.109 0.293,0.077 0.335,0.2c0.051,0.15 -0.143,0.308 -0.108,0.462c0.023,0.102 0.204,0.092 0.252,0.184c0.112,0.21 0.097,0.473 0.208,0.683c0.236,0.505 0.472,1.01 0.708,1.515c0.634,1.928 0.55,1.945 1.238,3.852c0.292,0.81 1.338,6.738 1.485,8.931c0.233,3.479 0.736,3.728 0.591,8.221c-0.184,5.722 -0.631,5.659 -0.793,6.767c-0.375,2.559 -0.18,2.586 -1.593,8.243c-0.247,0.706 -0.034,0.744 -0.276,1.438c-0.035,0.099 -0.256,0.044 -0.278,0.147c-0.038,0.179 0.172,0.353 0.134,0.531c-0.187,0.273 -0.373,0.547 -0.56,0.82l-0.226,0.667c-0.194,0.46 -0.256,0.412 -0.448,0.867c-0.138,0.328 -0.039,0.349 -0.197,0.663c-0.048,0.095 -0.223,0.105 -0.24,0.21c-0.026,0.158 0.17,0.308 0.129,0.464c-0.032,0.121 -0.249,0.104 -0.308,0.215c-0.111,0.206 -0.108,0.456 -0.173,0.681c-0.141,0.489 -0.2,0.444 -0.415,0.899c-0.362,0.764 -0.336,0.766 -0.724,1.516c-0.321,0.622 -0.094,0.702 -0.455,1.305c-0.065,0.108 -0.293,0.083 -0.316,0.207c-0.031,0.171 0.221,0.314 0.189,0.485c-0.105,0.116 -0.347,0.008 -0.452,0.124c-0.153,0.169 -0.13,0.441 -0.242,0.64c-0.055,0.097 -0.225,0.117 -0.246,0.226c-0.032,0.163 0.17,0.333 0.106,0.487c-0.051,0.122 -0.28,0.05 -0.369,0.148c-0.141,0.157 -0.165,0.389 -0.274,0.569c-0.511,0.846 -0.515,0.835 -0.529,0.899c-0.048,0.218 0.032,0.452 -0.016,0.67c-0.145,0.082 -0.843,0.023 -2.008,1.681c-0.265,-0.385 -0.107,-0.447 -0.374,-0.834c-0.554,-0.803 -0.683,-0.675 -0.718,-0.75c-0.071,-0.152 0.019,-0.368 0.143,-0.482c0.174,-0.161 0.466,-0.128 0.662,-0.26c0.305,-0.206 0.702,-0.39 0.82,-0.739c0.058,-0.17 -0.357,-0.095 -0.499,-0.206c-0.452,-0.354 -0.163,-0.542 -0.541,-0.961c-0.129,-0.143 -0.378,-0.131 -0.507,-0.274c-0.098,-0.16 -0.04,-0.386 -0.138,-0.545c-0.658,-1.073 -0.897,-0.781 -2.144,-0.877c-0.401,-0.335 -0.401,-0.313 -0.796,-0.665c-1.172,-1.044 -1.23,-0.965 -1.319,-1.067c-0.125,-0.141 -0.125,-0.361 -0.234,-0.515c-0.27,-0.38 -0.626,-0.695 -0.896,-1.075c0.076,-0.117 3.777,-5.403 5.501,-14.105c0.434,-2.189 0.835,-3.151 -1.409,-3.167c-3.753,-0.027 -3.739,-0.09 -7.492,-0.129c-8.963,-0.092 -9.08,-0.106 -9.594,0.465c-0.354,0.393 -0.498,0.553 -0.409,6.602c0.006,0.424 -0.121,1.948 1.757,1.928c0.362,-0.004 3.6,-0.039 4.527,0.08c0.116,0.015 1.121,0.144 1.118,0.943c-0.002,0.7 -4.971,9.043 -9.525,12.646c-0.3,0.237 -3.168,2.507 -3.776,2.931c-3.609,2.519 -8.824,4.383 -8.941,4.419c-9.313,2.833 -15.154,1.838 -16.408,1.726c-0.467,-0.042 -4.174,-0.672 -4.482,-0.764c-7.646,-2.294 -9.404,-3.467 -12.575,-5.465c-0.973,-0.613 -5.691,-4.506 -6.834,-5.796c-0.172,-0.194 -5.233,-5.448 -8.04,-12.764c-1.641,-4.276 -2.579,-9.481 -2.701,-11.874c-0.485,-9.568 2.305,-15.58 4.047,-19.425c0.369,-0.814 2.781,-4.828 3.33,-5.51c3.024,-3.759 4.575,-5.135 4.998,-5.529c2.804,-2.461 3.182,-2.988 8.828,-6.155c2.148,-1.205 7.211,-2.631 7.363,-2.665c3.753,-0.828 3.724,-1.051 7.563,-1.114c1.571,-0.026 11.447,-1.069 22.272,5.509c3.2,1.945 3.015,2.175 5.945,4.493c1.451,1.148 1.565,1.632 2.966,2.989c2.023,1.961 1.934,3.759 4.229,2.132c3.624,-2.57 4.047,-2.91 4.385,-3.181c0.859,-0.69 0.58,-0.872 0.37,-1.945c0.543,0.133 0.495,-0.363 1.046,-0.228c0.547,0.134 0.277,0.544 0.815,0.685c0.211,0.055 0.36,-0.376 0.571,-0.321c0.434,0.206 0.463,0.923 0.897,1.128c0.224,0.106 0.387,-0.324 0.62,-0.41c0.218,-0.081 0.489,0.035 0.692,-0.078c0.278,-0.154 0.428,-0.473 0.671,-0.679c0.257,-0.219 0.57,-0.366 0.822,-0.59c0.202,-0.18 0.643,-0.367 0.532,-0.615c-0.216,-0.483 -1.03,-0.501 -1.246,-0.985c0.185,-0.145 0.117,-0.189 0.288,-0.324c0.251,-0.197 0.293,-0.113 0.535,-0.323c0.12,-0.104 0.158,-0.285 0.281,-0.386c0.151,-0.125 0.35,-0.178 0.52,-0.275c0.828,-0.474 0.491,-0.738 0.965,-1.457c0.183,-0.278 0.43,-0.51 0.613,-0.787Z" style="fill:#053260;fill-opacity:1;"/><path d="M53.678,0.976c0.727,0.003 0.718,0.054 1.445,0.005c4.277,-0.284 4.263,-0.009 9.004,0.241c1.173,0.062 1.135,0.229 2.287,0.487c0.115,0.026 0.106,0.024 1.432,0.326c0.519,0.112 1.038,0.223 1.556,0.335c1.098,0.176 1.086,0.171 2.172,0.417l0.866,0.264c2.262,0.314 2.17,0.63 4.405,1.161c0.791,0.274 0.772,0.28 1.571,0.544c0.828,0.274 0.827,0.247 1.546,0.716c0.72,0.47 2.573,1.114 2.803,1.194c0.011,0.009 0.312,0.534 0.976,0.839c0.644,0.296 0.699,0.125 1.333,0.453c0.6,0.311 0.737,0.629 0.796,0.674c0.581,0.445 0.62,0.342 1.54,0.653c0.628,0.213 0.552,0.438 2.295,1.449c2.594,1.505 2.47,2.353 4.403,3.179c0.503,0.215 0.472,0.249 0.841,0.638c0.933,0.985 1.767,1.752 1.926,1.898c1.532,1.409 1.981,1.401 2.132,1.544c0.134,0.127 0.142,0.355 0.277,0.481c0.141,0.131 0.372,0.131 0.517,0.257c0.132,0.114 0.153,0.324 0.284,0.438c0.119,0.148 0.165,0.345 0.284,0.493c0.486,0.606 0.546,0.536 1.038,1.129c0.686,0.838 0.657,0.846 1.383,1.647c1.144,1.262 0.997,1.353 1.879,2.651c-0.183,0.278 -0.43,0.51 -0.613,0.787c-0.475,0.719 -0.138,0.983 -0.965,1.457c-0.17,0.097 -0.369,0.15 -0.52,0.275c-0.123,0.101 -0.161,0.282 -0.281,0.386c-0.242,0.21 -0.284,0.126 -0.535,0.323c-0.172,0.135 -0.104,0.179 -0.288,0.324c-0.159,0.133 -0.394,0.151 -0.553,0.284c-0.134,0.112 -0.173,0.31 -0.3,0.431c-0.133,0.127 -0.33,0.171 -0.464,0.297c-0.107,0.101 -0.117,0.295 -0.244,0.368c-0.093,0.053 -0.224,-0.1 -0.316,-0.047c-0.124,0.07 -0.119,0.274 -0.233,0.359c-0.282,0.21 -0.325,0.094 -0.627,0.279c-0.102,0.063 -0.148,0.195 -0.25,0.258c-0.211,-0.055 -0.36,0.376 -0.571,0.321c-0.538,-0.141 -0.268,-0.551 -0.815,-0.685c-0.552,-0.135 -0.503,0.361 -1.046,0.228c-0.26,-0.308 -0.998,-1.093 -1.087,-1.187c-0.666,-0.708 -2.068,-2.451 -3.184,-3.572c0.21,-0.412 0.886,-0.437 1.096,-0.849c0.095,-0.187 -3.022,-3.091 -3.246,-2.983c-0.391,0.19 -0.524,0.738 -0.915,0.928c-4.005,-3.277 -6.952,-4.837 -7.508,-5.22c-2.068,-1.425 -7.583,-3.619 -10.418,-4.392c-4.45,-1.214 -9.872,-1.62 -10.417,-1.629c-6.489,-0.098 -8.608,0.352 -10.483,0.605c-1.74,0.235 -7.963,2.14 -9.774,2.903c-4.253,1.792 -4.309,1.831 -4.644,2.062c-1.595,1.102 -3.089,1.867 -3.711,2.292c-2.763,1.89 -2.619,2.062 -3.815,2.936c-4.621,3.38 -4.07,3.938 -5.999,6.066c-1.282,1.414 -1.281,1.4 -2.403,2.956c-1.744,2.421 -3.324,5.543 -3.796,6.404c-0.912,1.972 -0.963,1.935 -1.037,2.108c-1.274,2.942 -2.284,7.241 -2.353,7.457c-0.655,2.038 -0.464,2.061 -0.571,3.03c-0.122,1.103 -0.435,1.39 -0.575,4.509c-0.251,5.574 0.006,5.56 0.1,7.487c0.25,5.147 0.641,5.309 1.582,9.039c2.986,11.823 11.02,19.917 12.479,21.442c0.943,0.971 0.895,1.01 2.028,1.724c1.275,0.804 1.235,1.368 4.581,3.634c0.3,0.213 3.899,2.512 4.533,2.822c7.559,3.695 10.019,3.859 15.572,5.041c1.726,0.368 7.356,0.44 9.781,0.352c0.351,0.344 0.411,0.918 0.762,1.262c0.252,0.247 1.373,0.236 1.494,0.235c1.753,-0.016 1.816,-0.443 2.034,-0.569c0.312,-0.18 0.661,-0.29 0.973,-0.47c0.274,-0.471 0.548,-0.941 0.823,-1.412c4.315,-0.621 4.434,-0.982 10.468,-3.266c0.471,0.379 0.239,0.564 0.709,0.942c0.044,0.036 0.362,0.291 0.689,0.182c0.335,-0.111 0.499,-0.514 0.811,-0.68c0.184,-0.098 0.431,0.005 0.621,-0.081c0.303,-0.138 0.531,-0.406 0.818,-0.575c0.179,-0.105 0.411,-0.114 0.575,-0.241c0.265,-0.206 0.444,-0.503 0.683,-0.737c0.261,-0.254 0.479,-0.588 0.816,-0.726c0.271,-0.111 0.595,0.111 0.877,0.034c0.316,-0.087 0.557,-0.345 0.843,-0.506c0.189,-0.106 0.433,-0.135 0.58,-0.295c0.115,-0.126 -0.002,-0.398 0.141,-0.491c0.197,-0.129 0.487,0.027 0.704,-0.064c0.234,-0.097 1.489,-1.06 2.01,-1.656c0.66,-0.756 0.742,-0.672 0.782,-0.749c0.105,-0.202 -0.083,-0.52 0.08,-0.678c0.168,-0.163 0.498,0.043 0.699,-0.078c0.883,-0.529 -0.263,-0.545 -0.711,-1.471c2.292,-2.167 3.361,-3.445 3.629,-3.766c0.764,0.086 0.346,0.814 1.101,0.899c0.074,0.008 0.049,-0.037 0.613,-0.707c1.823,-2.164 2.392,-2.1 1.968,-2.908c-0.189,-0.361 -0.489,-0.656 -0.679,-1.017c2.094,-3.352 2.072,-3.359 2.255,-3.649c0.27,0.38 0.626,0.695 0.896,1.075c0.109,0.154 0.11,0.373 0.234,0.515c0.09,0.102 0.147,0.022 1.319,1.067c0.395,0.352 0.395,0.33 0.796,0.665c0.116,0.094 0.13,0.279 0.246,0.372c0.164,0.133 0.396,0.159 0.565,0.286c0.172,0.129 0.081,0.201 0.254,0.327c0.083,0.061 0.09,0.032 1.217,0.438c0.129,0.143 0.378,0.131 0.507,0.274c0.378,0.419 0.088,0.607 0.541,0.961c0.142,0.111 0.557,0.035 0.499,0.206c-0.118,0.348 -0.515,0.533 -0.82,0.739c-0.197,0.133 -0.488,0.1 -0.662,0.26c-0.123,0.114 -0.214,0.33 -0.143,0.482c0.035,0.075 0.165,-0.053 0.718,0.75c0.267,0.387 0.109,0.449 0.374,0.834c-0.345,0.796 -0.276,0.832 -0.835,1.507c-1.207,1.458 -0.967,1.644 -2.32,2.957c-0.881,0.855 -3.581,3.917 -4.493,4.535c-0.872,0.591 -0.809,0.645 -1.642,1.307c-1.045,0.83 -1.023,0.835 -1.886,1.842c-1.21,1.411 -2.268,1.65 -2.543,1.991c-0.09,0.111 0.009,0.31 -0.08,0.421c-0.138,0.051 -0.302,-0.092 -0.441,-0.04c-0.123,0.045 -0.149,0.221 -0.255,0.298c-0.446,0.324 -0.472,0.263 -0.908,0.609c-0.443,0.351 -0.414,0.357 -0.854,0.735c-1.561,0.488 -1.5,0.599 -2.846,1.51c-2.71,1.082 -4.659,2.276 -5.726,2.82c-1.134,0.407 -1.118,0.415 -2.294,0.721c-2.912,0.897 -2.793,1.247 -3.797,1.383c-0.492,0.067 -1,0.01 -1.485,0.114c-0.526,0.112 -1.008,0.383 -1.526,0.528c-0.241,0.067 -0.495,0.077 -0.743,0.107c-0.825,0.101 -0.795,0.159 -1.57,0.436c-1.052,0.376 -1.069,0.253 -2.193,0.349c-1.3,0.111 -1.191,0.448 -1.514,0.569c-0.606,0.227 -7.07,0.4 -10.514,0.265c-1.618,-0.063 -2.038,-0.729 -2.28,-0.822c-0.488,-0.186 -2.857,0.562 -7.383,-1.133c-1.366,-0.511 -2.192,-0.423 -2.347,-0.451c-0.469,-0.084 -0.911,-0.291 -1.381,-0.375c-1.841,-0.655 -1.842,-0.63 -3.137,-1.146c-3.741,-1.492 -3.621,-1.716 -7.302,-3.384c-3.118,-1.689 -3.145,-1.639 -5.97,-3.766c-0.235,-0.177 -2.184,-1.644 -2.89,-2.267c-0.133,-0.117 -0.203,-0.296 -0.337,-0.412c-0.83,-0.721 -1.109,-0.318 -2.27,-1.475c-0.743,-0.74 -2.643,-2.801 -2.877,-3.126c-0.605,-0.838 -1.202,-0.897 -1.27,-0.972c-0.13,-0.142 -0.115,-0.369 -0.201,-0.541c-0.367,-0.735 -3.628,-4.162 -4.559,-5.947c-0.397,-0.762 -1.159,-1.647 -1.193,-1.7c-1.325,-2.121 -1.214,-2.174 -2.514,-4.311c-0.627,-1.261 -0.612,-1.254 -1.286,-2.495c-0.14,-0.362 -0.132,-0.361 -0.643,-1.883c-0.15,-0.448 -1.585,-3.225 -2.194,-6.031c-0.04,-0.183 -0.463,-2.133 -0.548,-2.28c-0.057,-0.097 -0.269,-0.051 -0.297,-0.16c-0.046,-0.175 0.151,-0.353 0.117,-0.531c-0.06,-0.309 -0.279,-0.566 -0.386,-0.863c-0.438,-1.216 -0.132,-1.272 -0.633,-3.784c-0.199,-0.997 -0.533,-4.769 -0.57,-5.185l1.114,-1.09l0.383,-0.42l-0.061,-0.75l-0.11,-0.75l0.002,-0.75l0,-0.75c-0.05,-1.389 -0.065,-1.38 -0.054,-1.5c0.015,-0.18 0.117,-0.153 0.338,-1.528c0.308,-1.916 -0.025,-1.909 0.021,-2.258c0.034,-0.257 0.23,-0.467 0.31,-0.714c0.079,-0.243 0.084,-0.507 0.162,-0.75l0.1,-0.75l-0.031,-0.75l-0.016,-0.75c-0.436,-0.514 -0.872,-1.027 -1.307,-1.541c0.487,-2.145 0.911,-4.109 0.988,-4.467c0.093,-0.352 0.132,-0.328 0.225,-0.676c0.213,-0.804 0.251,-0.782 0.506,-1.579c0.82,-3.301 1.43,-4.368 1.766,-5.124c0.451,-0.901 0.854,-1.64 0.931,-1.781c0.59,0.293 0.498,0.424 1.097,0.721c0.033,0.016 0.294,0.146 0.458,0.05c0.117,-0.068 0.888,-0.519 0.964,-1.392c0.023,-0.264 -0.16,-0.533 -0.096,-0.79c0.065,-0.263 0.591,-0.434 0.46,-0.67c-0.265,-0.476 -1.083,-0.449 -1.348,-0.925c1.218,-2.528 3.625,-5.895 3.689,-6.05c0.094,-0.226 0.101,-0.482 0.194,-0.707c0.092,-0.093 0.07,-0.088 1.086,-1.222c0.185,-0.171 1.721,-1.591 2.161,-2.285c0.286,-0.451 0.287,-0.441 0.727,-0.766c0.102,-0.076 0.249,-0.185 1.119,-1.13c0.915,-1.328 0.966,-1.277 2.152,-2.371c0.609,-0.508 0.639,-0.455 1.214,-1.014c0.925,-0.897 2.604,-2.18 2.842,-2.481c0.089,-0.113 0.095,-0.278 0.184,-0.392c0.296,-0.191 0.332,-0.093 0.62,-0.279c0.069,-0.045 0.059,-0.048 0.8,-0.65c0.182,-0.093 0.403,-0.088 0.585,-0.181c0.343,-0.176 0.994,-0.838 3.194,-2.036c0.609,-0.331 0.553,-0.402 0.817,-0.595l0.59,-0.317c0.415,0.199 0.423,0.898 0.838,1.098c0.226,0.109 0.403,-0.331 0.648,-0.384c0.26,-0.056 0.542,0.154 0.795,0.072c0.324,-0.105 0.546,-0.407 0.829,-0.597c1.312,-0.885 1.281,-0.902 1.403,-0.963c0.205,-0.104 0.466,-0.047 0.676,-0.142c0.302,-0.138 0.522,-0.43 0.833,-0.547c0.231,-0.087 0.524,0.078 0.738,-0.044c0.318,-0.18 0.429,-0.624 0.749,-0.8c0.218,-0.12 0.508,0.046 0.747,-0.024c0.301,-0.087 0.831,-0.12 0.834,-0.433c0.003,-0.457 -0.826,-0.639 -0.824,-1.096l0.881,-0.274c1.498,-0.409 1.487,-0.408 2.975,-0.834c1.519,-0.34 1.525,-0.267 3.017,-0.737c0.29,-0.092 0.296,0.001 3.705,-0.871c2.643,-0.677 3.928,-0.04 4.456,-0.271c0.325,-0.142 0.516,-0.508 0.841,-0.65Z" style="fill:#b10a17;fill-opacity:1;"/><path d="M88.71,23.07c0.259,0.217 0.887,0.744 3.065,2.904c1.116,1.121 2.518,2.864 3.184,3.572c0.088,0.094 0.826,0.879 1.087,1.187c0.21,1.074 0.488,1.255 -0.37,1.945c-0.338,0.272 -0.761,0.612 -4.385,3.181c-2.295,1.627 -2.206,-0.171 -4.229,-2.132c-1.4,-1.357 -1.515,-1.841 -2.966,-2.989c-2.93,-2.318 -2.745,-2.548 -5.945,-4.493c-10.825,-6.578 -20.7,-5.535 -22.272,-5.509c-3.838,0.063 -3.81,0.286 -7.563,1.114c-0.153,0.034 -5.215,1.46 -7.363,2.665c-5.646,3.167 -6.024,3.694 -8.828,6.155c-0.423,0.394 -1.974,1.77 -4.998,5.529c-0.549,0.682 -2.961,4.697 -3.33,5.51c-1.742,3.845 -4.533,9.857 -4.047,19.425c0.121,2.393 1.06,7.597 2.701,11.874c2.807,7.316 7.868,12.57 8.04,12.764c1.144,1.29 5.861,5.183 6.834,5.796c3.171,1.998 4.929,3.17 12.575,5.465c0.308,0.092 4.015,0.722 4.482,0.764c1.254,0.112 7.095,1.107 16.408,-1.726c0.116,-0.035 5.332,-1.899 8.941,-4.419c0.608,-0.424 3.476,-2.693 3.776,-2.931c4.554,-3.603 9.524,-11.946 9.525,-12.646c0.002,-0.798 -1.002,-0.928 -1.118,-0.943c-0.926,-0.119 -4.164,-0.084 -4.527,-0.08c-1.878,0.02 -1.75,-1.504 -1.757,-1.928c-0.089,-6.049 0.055,-6.209 0.409,-6.602c0.514,-0.571 0.631,-0.557 9.594,-0.465c3.753,0.039 3.739,0.102 7.492,0.129c2.244,0.016 1.843,0.979 1.409,3.167c-1.724,8.702 -5.425,13.989 -5.501,14.105c-0.183,0.29 -0.161,0.298 -2.255,3.649c-1.472,1.908 -1.569,1.81 -3.004,3.733c-0.268,0.321 -1.337,1.599 -3.629,3.766c-0.325,0.282 -0.356,0.229 -4.198,3.359c-0.4,0.326 -0.547,0.446 -5.413,3.505c-0.601,0.378 -0.613,0.331 -2.118,1.006c-6.034,2.284 -6.153,2.645 -10.468,3.266c-2.985,0.792 -3.002,0.619 -6.085,0.954c-2.425,0.089 -8.055,0.016 -9.781,-0.352c-5.553,-1.182 -8.014,-1.346 -15.572,-5.041c-0.635,-0.31 -4.234,-2.609 -4.533,-2.822c-3.346,-2.265 -3.306,-2.83 -4.581,-3.634c-1.133,-0.714 -1.085,-0.753 -2.028,-1.724c-1.459,-1.525 -9.493,-9.618 -12.479,-21.442c-0.942,-3.73 -1.332,-3.892 -1.582,-9.039c-0.094,-1.927 -0.351,-1.913 -0.1,-7.487c0.14,-3.119 0.453,-3.406 0.575,-4.509c0.107,-0.968 -0.084,-0.992 0.571,-3.03c0.069,-0.216 1.079,-4.515 2.353,-7.457c0.075,-0.172 0.125,-0.135 1.037,-2.108c0.471,-0.86 2.052,-3.983 3.796,-6.404c1.122,-1.557 1.121,-1.542 2.403,-2.956c1.929,-2.128 1.378,-2.685 5.999,-6.066c1.196,-0.875 1.052,-1.046 3.815,-2.936c0.622,-0.425 2.116,-1.189 3.711,-2.292c0.334,-0.231 0.39,-0.27 4.644,-2.062c1.811,-0.763 8.034,-2.668 9.774,-2.903c1.875,-0.253 3.994,-0.703 10.483,-0.605c0.545,0.008 5.967,0.414 10.417,1.629c2.835,0.774 8.35,2.967 10.418,4.392c0.556,0.383 3.503,1.943 7.508,5.22Z" style="fill:#e0e1b5;"/><path d="M52.686,40.058c1.688,-4.059 1.505,-4.123 3.307,-8.14c0.716,-1.597 0.851,-2.589 1.072,-3.221c0.282,-0.805 0.172,-1.12 1.016,-1.045c0.836,0.075 0.587,0.407 0.793,1.223c0.2,0.789 5.643,14.377 6.395,16.615c1.384,4.12 5.003,12.719 5.476,14.18c0.778,2.401 5.436,14.324 5.616,14.884c1.199,3.724 3.228,7.234 2.934,8.401c-0.271,1.076 -4.648,0.567 -4.656,0.566c-2.249,-0.383 -2.008,-2.923 -3.913,-7.339c-2.326,-5.393 -2.074,-5.97 -3.579,-6.206c-0.15,-0.024 -16.848,-0.215 -18.032,-0.201c-0.159,0.002 -1.499,0.018 -1.916,0.553c-0.311,0.399 -3.056,7.85 -3.531,8.71c-1.04,1.888 -1.025,3.487 -2.005,3.908c-0.828,0.356 -4.701,0.468 -5.187,-0.156c-0.181,-0.233 -0.483,-0.621 0.831,-3.592c3.689,-8.344 4.412,-11.838 7.736,-19.72c0.282,-0.669 5.396,-13.495 7.642,-19.42Z" style="fill:#dae2c0;"/><path d="M53.811,52.941c0.645,-1.694 3.69,-10.266 3.794,-10.281c0.217,-0.032 0.374,0.228 0.565,0.337c0.157,0.089 0.398,0.094 0.477,0.256c0.018,0.038 0.274,1.588 1.088,3.572c1.145,2.794 1.122,3.538 5.637,15.155c0.047,0.12 0.482,1.239 -0.437,1.545c-0.303,0.101 -2.129,0.039 -2.314,0.032c-10.356,-0.352 -10.357,-0.072 -11.256,-0.125c-0.81,-0.048 -0.969,-0.034 -1.121,-0.838c-0.132,-0.7 3.47,-9.43 3.566,-9.654Z" style="fill:#0a2f54;"/><path d="M35.625,0l17.25,-0l0.803,0.976c-0.325,0.142 -0.516,0.508 -0.841,0.65c-0.529,0.231 -1.814,-0.406 -4.456,0.271c-3.409,0.873 -3.415,0.78 -3.705,0.871c-1.492,0.47 -1.499,0.397 -3.017,0.737c-0.229,-0.091 -0.499,0.222 -0.728,0.131c-0.348,-0.138 -0.504,-0.577 -0.835,-0.751c-0.123,-0.065 -1.262,-0.044 -1.357,0.02c-0.512,0.346 -0.523,0.637 -0.526,0.707c-0.018,0.465 0.489,0.253 0.471,0.727l-0.881,0.274c-0.441,0.145 -0.882,0.289 -1.322,0.434l-0.448,-0.922c-0.181,-2.755 -0.027,-2.756 -0.058,-2.994c-0.051,-0.391 -0.297,-0.74 -0.348,-1.131Z" style="fill:#5a542c;fill-opacity:0.01;"/><path d="M29.625,0l6,-0c0.051,0.391 0.297,0.74 0.348,1.131c0.031,0.238 -0.123,0.238 0.058,2.994l0.448,0.922c-2.291,1.099 -2.273,1.103 -4.622,2.031c-0.792,0.313 -0.69,0.479 -1.445,0.851c-0.464,0.229 -0.431,0.268 -0.875,0.544l-0.59,0.317c-1.174,-0.804 -1.21,-0.756 -1.264,-0.866c-0.037,-0.074 0.165,-0.026 0.239,-0.062c0.41,-0.205 0.947,-0.284 1.207,-0.662c0.166,-0.242 -0.066,-0.587 -0.154,-0.867c-0.04,-0.128 -0.185,-0.206 -0.225,-0.334c0.281,-0.43 0.856,-0.612 1.137,-1.043c0.12,-0.184 0.097,-3.81 0.095,-3.825c-0.053,-0.392 -0.303,-0.741 -0.356,-1.133Z" style="fill:#bfc18f;fill-opacity:0.06;"/><path d="M78.375,0l6,-0c-0.046,0.241 -0.354,0.554 -0.353,1.867c0,0.5 0.01,1 0.002,1.5c-0.04,2.414 -0.607,2.325 -0.533,2.517c0.121,0.31 0.869,-0.172 0.99,0.138c-0.572,0.214 -1.143,0.428 -1.715,0.643c-0.23,-0.08 -2.083,-0.724 -2.803,-1.194c-0.72,-0.469 -0.719,-0.442 -1.546,-0.716c-0.798,-0.264 -0.779,-0.27 -1.571,-0.544c0.194,-0.126 0.462,0.352 0.656,0.226c0.884,-0.574 0.58,-0.784 0.543,-1.836c-0.017,-0.49 -0.072,-0.985 -0.011,-1.472c0.049,-0.39 0.291,-0.739 0.341,-1.129Z" style="fill:#9a956a;fill-opacity:0;"/><path d="M108.885,31.331c0.76,-0.956 0.555,-1.364 1.772,-1.414c0.159,-0.007 2.602,0.039 2.983,0.443c0.648,0.688 0.236,3.243 0.527,5.258c0.034,0.232 0.342,2.366 0.005,2.931c-0.03,0.05 -0.109,-0.042 -0.548,0.481c-0.439,0.524 -0.343,0.582 -0.784,1.108c-0.236,-0.505 -0.472,-1.01 -0.708,-1.515c0.148,-0.291 0.486,-0.456 0.634,-0.748c0.12,-0.236 0.113,-1.353 0.037,-1.431c-0.154,-0.159 -0.49,0.046 -0.659,-0.098c-0.147,-0.125 -0.083,-0.376 -0.12,-0.565c-0.282,-1.424 -0.758,-1.298 -0.882,-1.571c-0.331,-0.73 0.194,-0.793 -0.059,-1.553c-0.096,-0.287 -0.151,-0.769 -0.453,-0.788c-0.252,-0.016 0.029,0.51 -0.02,0.758c-0.082,0.412 -0.212,0.356 -0.285,0.776c-0.072,0.412 0.08,0.403 0.008,0.818c-0.052,-0.121 -0.65,-1.516 -0.65,-1.516c-0.052,-0.095 -0.22,-0.119 -0.235,-0.227c-0.017,-0.122 0.214,-0.224 0.158,-0.334c-0.02,-0.039 -0.12,0.114 -0.468,-0.278c-0.206,-0.232 -0.051,-0.307 -0.253,-0.535Z" style="fill:#707443;fill-opacity:0;"/><path d="M0,61.875l-0,-6.75c0.167,-0.316 0.594,-0.44 0.761,-0.756c0.256,-0.484 -0.346,-0.579 0.85,-6.785c0.436,0.514 0.872,1.027 1.307,1.541l0.016,0.75l0.031,0.75l-0.1,0.75c-0.079,0.243 -0.084,0.507 -0.162,0.75c-0.08,0.247 -0.276,0.456 -0.31,0.714c-0.046,0.349 0.286,0.342 -0.021,2.258c-0.221,1.375 -0.322,1.348 -0.338,1.528c-0.01,0.12 0.004,0.111 0.054,1.5l0,0.75l-0.002,0.75l0.11,0.75l0.061,0.75l-0.383,0.42l-1.114,1.09l-0.761,-0.76Z" style="fill:#670304;"/><path d="M90.145,94.607c0.447,0.926 1.594,0.942 0.711,1.471c-0.201,0.121 -0.531,-0.085 -0.699,0.078c-0.163,0.159 0.025,0.476 -0.08,0.678c-0.04,0.077 -0.121,-0.007 -0.782,0.749c-0.521,0.597 -1.776,1.559 -2.01,1.656c-0.218,0.09 -0.507,-0.065 -0.704,0.064c-0.142,0.093 -0.026,0.366 -0.141,0.491c-0.147,0.16 -0.391,0.189 -0.58,0.295c-0.286,0.161 -0.527,0.419 -0.843,0.506c-0.282,0.077 -0.606,-0.144 -0.877,-0.034c-0.337,0.138 -0.556,0.471 -0.816,0.726c-0.24,0.234 -0.419,0.532 -0.683,0.737c-0.164,0.128 -0.396,0.136 -0.575,0.241c-0.288,0.168 -0.515,0.436 -0.818,0.575c-0.19,0.087 -0.437,-0.017 -0.621,0.081c-0.312,0.166 -0.476,0.569 -0.811,0.68c-0.327,0.109 -0.645,-0.147 -0.689,-0.182c-0.47,-0.378 -0.238,-0.563 -0.709,-0.942c1.505,-0.676 1.517,-0.628 2.118,-1.006c4.866,-3.059 5.013,-3.179 5.413,-3.505c3.842,-3.129 3.873,-3.077 4.198,-3.359Z" style="fill:#7c0a0b;"/><path d="M12.225,17.55c0.356,0.074 0.68,0.264 1.036,0.337c0.119,0.025 1.962,-0.067 2.104,0.002c0.106,0.052 0.087,0.067 1.174,0.9c-0.869,0.945 -1.016,1.054 -1.119,1.13c-0.439,0.326 -0.441,0.315 -0.727,0.766c-0.439,0.694 -1.976,2.114 -2.161,2.285c-0.137,-0.316 -0.445,-0.538 -0.582,-0.854c-0.251,-0.578 0.226,-4.204 0.274,-4.566Z" style="fill:#5d5125;fill-opacity:0;"/><path d="M17.567,12.268c0.53,-0.054 1.043,-0.235 1.573,-0.289c1.941,-0.199 1.95,-0.114 3.789,0.553c-0.089,0.113 -0.095,0.278 -0.184,0.392c-0.237,0.301 -1.917,1.584 -2.842,2.481c-0.575,0.558 -0.605,0.505 -1.214,1.014c-0.124,-0.432 -0.718,-0.622 -0.842,-1.055c-0.298,-1.043 0.331,-1.062 0.073,-2.108c-0.084,-0.34 -0.271,-0.648 -0.355,-0.988Z" style="fill:#504e1e;fill-opacity:0.01;"/><path d="M36.479,5.047c0.441,-0.145 0.882,-0.289 1.322,-0.434c-0.003,0.457 0.826,0.639 0.824,1.096c-0.002,0.313 -0.533,0.346 -0.834,0.433c-0.239,0.069 -0.529,-0.097 -0.747,0.024c-0.32,0.176 -0.431,0.619 -0.749,0.8c-0.214,0.122 -0.507,-0.043 -0.738,0.044c-0.311,0.117 -0.531,0.409 -0.833,0.547c-0.209,0.096 -0.47,0.038 -0.676,0.142c-0.121,0.061 -0.091,0.078 -1.403,0.963c-0.282,0.19 -0.505,0.492 -0.829,0.597c-0.253,0.082 -0.535,-0.128 -0.795,-0.072c-0.245,0.053 -0.422,0.492 -0.648,0.384c-0.415,-0.199 -0.423,-0.898 -0.838,-1.098c0.444,-0.276 0.411,-0.315 0.875,-0.544c0.756,-0.373 0.653,-0.539 1.445,-0.851c2.349,-0.927 2.331,-0.932 4.622,-2.031Z" style="fill:#5a0c09;fill-opacity:0.99;"/><path d="M112.562,79.754c0.026,0.272 -0.061,0.547 -0.035,0.819c0.025,0.262 0.142,0.509 0.185,0.768c0.122,0.726 0.034,0.72 -0.069,1.439c-0.037,0.257 0.036,0.54 -0.075,0.774c-0.137,0.289 -0.496,0.431 -0.635,0.719c-0.106,0.219 0.055,0.514 -0.062,0.728c-0.173,0.319 -0.516,0.511 -0.759,0.78c-0.243,0.269 -0.587,0.488 -0.697,0.834c-0.079,0.248 0.169,0.497 0.192,0.756c0.105,1.167 -0.237,1.09 -0.798,2.247c-0.001,-0.383 0.119,-0.357 0.118,-0.73c0,-0 -0.297,-1.494 -0.322,-1.624c0.031,-0.171 -0.221,-0.314 -0.189,-0.485c0.023,-0.124 0.251,-0.099 0.316,-0.207c0.361,-0.603 0.134,-0.683 0.455,-1.305c0.388,-0.75 0.362,-0.752 0.724,-1.516c0.215,-0.454 0.274,-0.41 0.415,-0.899c0.065,-0.225 0.062,-0.475 0.173,-0.681c0.059,-0.11 0.276,-0.094 0.308,-0.215c0.041,-0.155 -0.155,-0.305 -0.129,-0.464c0.017,-0.105 0.193,-0.115 0.24,-0.21c0.157,-0.314 0.058,-0.335 0.197,-0.663c0.192,-0.455 0.254,-0.407 0.448,-0.867Z" style="fill:#bdd3ce;fill-opacity:0.46;"/><path d="M67.948,105.743c-0.274,0.471 -0.548,0.941 -0.823,1.412c-0.312,0.18 -0.661,0.29 -0.973,0.47c-0.218,0.126 -0.28,0.553 -2.034,0.569c-0.121,0.001 -1.242,0.011 -1.494,-0.235c-0.351,-0.344 -0.411,-0.918 -0.762,-1.262c3.083,-0.335 3.099,-0.162 6.085,-0.954Z" style="fill:#842520;"/><path d="M96.778,87.108c0.189,0.361 0.489,0.656 0.679,1.017c0.423,0.808 -0.146,0.744 -1.968,2.908c-0.564,0.67 -0.539,0.715 -0.613,0.707c-0.755,-0.085 -0.337,-0.813 -1.101,-0.899c1.435,-1.923 1.532,-1.824 3.004,-3.733Z" style="fill:#86170f;"/><path d="M89.318,108.87c0.172,0.384 0.598,0.616 0.771,1.001c0,0 -0.036,2.07 -0.04,2.25c-1.106,-0.835 -1.086,-0.851 -1.194,-0.902c-0.706,-0.332 -0.789,0.369 -1.477,0.011c-0.367,-0.191 -0.538,-0.659 -0.905,-0.85c1.346,-0.911 1.285,-1.022 2.846,-1.51Z" style="fill:#968769;fill-opacity:0.1;"/><path d="M101.466,28.64c0.216,0.483 1.03,0.501 1.246,0.985c0.11,0.248 -0.33,0.435 -0.532,0.615c-0.252,0.224 -0.565,0.372 -0.822,0.59c-0.242,0.206 -0.392,0.525 -0.671,0.679c-0.203,0.113 -0.475,-0.003 -0.692,0.078c-0.232,0.086 -0.396,0.516 -0.62,0.41c-0.434,-0.206 -0.463,-0.923 -0.897,-1.128c0.102,-0.063 0.148,-0.195 0.25,-0.258c0.302,-0.185 0.344,-0.07 0.627,-0.279c0.115,-0.085 0.109,-0.288 0.233,-0.359c0.093,-0.053 0.224,0.1 0.316,0.047c0.128,-0.073 0.137,-0.267 0.244,-0.368c0.134,-0.126 0.331,-0.17 0.464,-0.297c0.127,-0.121 0.166,-0.319 0.3,-0.431c0.159,-0.133 0.394,-0.151 0.553,-0.284Z" style="fill:#1f2d3a;"/><path d="M88.71,23.07c0.391,-0.19 0.524,-0.738 0.915,-0.928c0.224,-0.109 3.342,2.796 3.246,2.983c-0.21,0.412 -0.886,0.437 -1.096,0.849c-2.178,-2.159 -2.806,-2.687 -3.065,-2.904Z" style="fill:#741a1c;"/><path d="M7.563,30.95c0.265,0.476 1.083,0.449 1.348,0.925c0.132,0.237 -0.394,0.408 -0.46,0.67c-0.064,0.257 0.119,0.526 0.096,0.79c-0.076,0.873 -0.847,1.323 -0.964,1.392c-0.164,0.096 -0.425,-0.034 -0.458,-0.05c-0.599,-0.297 -0.506,-0.429 -1.097,-0.721c0.063,-0.118 0.791,-1.477 0.791,-1.477c0.047,-0.097 -0.035,-0.117 0.513,-1.244c0.053,-0.11 0.177,-0.175 0.23,-0.284Z" style="fill:#7e0c0c;fill-opacity:0.95;"/><path d="M110.333,34.221c0.072,-0.414 -0.08,-0.406 -0.008,-0.818c0.073,-0.42 0.203,-0.363 0.285,-0.776c0.049,-0.248 -0.232,-0.774 0.02,-0.758c0.302,0.019 0.358,0.5 0.453,0.788c0.253,0.76 -0.272,0.822 0.059,1.553c0.124,0.273 0.6,0.147 0.882,1.571c0.037,0.189 -0.027,0.44 0.12,0.565c0.169,0.144 0.504,-0.061 0.659,0.098c0.076,0.078 0.083,1.195 -0.037,1.431c-0.148,0.291 -0.486,0.456 -0.634,0.748c-0.112,-0.21 -0.097,-0.473 -0.208,-0.683c-0.049,-0.092 -0.23,-0.083 -0.252,-0.184c-0.034,-0.155 0.16,-0.313 0.108,-0.462c-0.042,-0.123 -0.264,-0.091 -0.335,-0.2c-0.122,-0.187 -0.155,-0.419 -0.212,-0.635c-0.056,-0.213 -0.036,-0.449 -0.127,-0.649c-0.088,-0.193 -0.181,-0.094 -0.294,-0.277c-0.059,-0.095 -0.035,-0.097 -0.478,-1.31Z" style="fill:#afbabd;fill-opacity:0.48;"/><path d="M109.605,87.265c0.026,0.13 0.322,1.624 0.322,1.624c0.001,0.373 -0.119,0.346 -0.118,0.73c-0.123,0.203 -0.05,0.487 -0.173,0.69c-0.071,0.116 -0.264,0.095 -0.362,0.191c-0.07,0.069 -0.183,0.528 -0.904,0.59c-0.263,0.022 -0.526,-0.084 -0.788,-0.061c0.048,-0.218 -0.032,-0.452 0.016,-0.67c0.014,-0.064 0.017,-0.052 0.529,-0.899c0.109,-0.18 0.134,-0.412 0.274,-0.569c0.088,-0.099 0.318,-0.026 0.369,-0.148c0.063,-0.153 -0.138,-0.324 -0.106,-0.487c0.021,-0.109 0.191,-0.129 0.246,-0.226c0.112,-0.199 0.089,-0.471 0.242,-0.64c0.105,-0.116 0.347,-0.008 0.452,-0.124Z" style="fill:#dae1d1;fill-opacity:0.92;"/><path d="M67.846,2.035c0.232,-0.096 0.516,0.189 0.749,0.093c0.332,-0.137 0.472,-0.568 0.792,-0.73c0.067,-0.034 1.938,-0.101 2.107,0.011c0.236,0.156 0.382,0.426 0.51,0.679c0.211,0.415 0.084,0.444 0.281,0.878c0.025,0.054 0.132,0.032 0.156,0.086l-0.866,-0.264c-0.307,-0.129 -0.463,-0.506 -0.77,-0.635c-0.162,-0.068 -0.648,0.008 -0.704,0.016c-0.362,0.056 -0.328,0.145 -0.698,0.202c-0.519,-0.112 -1.038,-0.223 -1.556,-0.335Z" style="fill:#ad7d6a;fill-opacity:0.32;"/><path d="M41.658,3.505c-1.488,0.427 -1.478,0.425 -2.975,0.834c0.018,-0.474 -0.489,-0.262 -0.471,-0.727c0.003,-0.07 0.014,-0.362 0.526,-0.707c0.095,-0.064 1.234,-0.085 1.357,-0.02c0.331,0.175 0.487,0.613 0.835,0.751c0.229,0.091 0.499,-0.222 0.728,-0.131Z" style="fill:#caa895;fill-opacity:0.39;"/><path d="M23.224,19.137c-0.41,-0.193 -0.724,-0.556 -1.134,-0.749c-0.147,-0.069 -0.494,0.149 -0.489,-0.014c0.013,-0.368 0.209,-0.781 0.524,-0.973c0.192,-0.117 0.394,0.235 0.615,0.277c0.214,0.04 0.505,-0.199 0.652,-0.039c0.082,0.089 -0.011,0.1 -0.168,1.498Z" style="fill:#b80002;"/><path d="M3.33,40.862c-0.255,0.797 -0.293,0.776 -0.506,1.579c-0.092,0.348 -0.131,0.325 -0.225,0.676c-0.088,-0.267 -0.275,-0.495 -0.363,-0.763c-0.138,-0.418 -0.117,-1.33 -0.075,-1.389c0.054,-0.077 0.078,-0.007 1.17,-0.104Z" style="fill:#c88c76;fill-opacity:0.24;"/><path d="M102.279,86.78c1.247,0.097 1.486,-0.196 2.144,0.877c0.098,0.16 0.04,0.386 0.138,0.545c-1.127,-0.406 -1.134,-0.377 -1.217,-0.438c-0.172,-0.126 -0.081,-0.198 -0.254,-0.327c-0.169,-0.126 -0.401,-0.153 -0.565,-0.286c-0.116,-0.094 -0.13,-0.279 -0.246,-0.372Z" style="fill:#6b2c49;"/><path d="M100.085,19.168c0.207,0.043 0.369,0.224 0.577,0.267c1.046,0.217 1.754,-0.512 1.62,0.536c-0.051,0.396 -0.824,0.423 -0.874,0.819c-0.492,-0.593 -0.552,-0.522 -1.038,-1.129c-0.119,-0.148 -0.165,-0.345 -0.284,-0.493Z" style="fill:#b59787;fill-opacity:0.36;"/><path d="M113.769,76.151c0.052,0.247 0.188,0.472 0.24,0.719c0.079,0.376 0.028,1.348 -0.005,1.379c-0.159,0.15 -0.496,-0.133 -0.656,0.017c0.038,-0.179 -0.172,-0.353 -0.134,-0.531c0.022,-0.102 0.243,-0.048 0.278,-0.147c0.243,-0.694 0.029,-0.732 0.276,-1.438Z" style="fill:#a8bfcc;fill-opacity:0.82;"/><path d="M69.402,2.369c0.37,-0.058 0.336,-0.146 0.698,-0.202c0.056,-0.009 0.542,-0.084 0.704,-0.016c0.307,0.129 0.463,0.506 0.77,0.635c-1.086,-0.246 -1.074,-0.24 -2.172,-0.417Z" style="fill:#af7266;fill-opacity:0.65;"/></g></svg>